<svg width="349" height="420" viewBox="0 0 349 420" fill="none" xmlns="http://www.w3.org/2000/svg">
<path d="M101.385 307.285C97.5742 312.228 98.7528 316.951 93.4913 316.951C88.2299 316.951 87.231 312.624 87.231 307.285C87.231 301.947 88.2299 297.62 93.4913 297.62C99.7517 301.435 101.385 301.947 101.385 307.285Z" fill="#FFE597"/>
<path d="M152.693 305.528C131.734 314.964 138.216 323.981 109.278 323.981C80.3404 323.981 74.8462 315.719 74.8462 305.528C74.8462 295.337 80.3404 287.075 109.278 287.075C143.711 294.359 152.693 295.337 152.693 305.528Z" fill="#FFE597"/>
<path d="M90.768 307.285C80.2887 315.823 83.5298 323.981 69.0608 323.981C54.5918 323.981 51.8447 316.506 51.8447 307.285C51.8447 298.065 54.5918 290.59 69.0608 290.59C86.2769 297.18 90.768 298.065 90.768 307.285Z" fill="#FFE597"/>
<path d="M60.6917 308.164C50.6887 317.151 53.7824 325.738 39.9711 325.738C26.1598 325.738 23.5376 317.87 23.5376 308.164C23.5376 298.458 26.1598 290.59 39.9711 290.59C56.4047 297.527 60.6917 298.458 60.6917 308.164Z" fill="#FFE597"/>
<path d="M74.8457 285.318C64.3663 294.304 67.6074 302.892 53.1384 302.892C38.6695 302.892 35.9224 295.024 35.9224 285.318C35.9224 275.612 38.6695 267.744 53.1384 267.744C70.3545 274.681 74.8457 275.612 74.8457 285.318Z" fill="#FFE597"/>
<path d="M106.693 285.318C96.6901 294.304 99.7839 302.892 85.9726 302.892C72.1613 302.892 69.5391 295.024 69.5391 285.318C69.5391 275.612 72.1613 267.744 85.9726 267.744C102.406 274.681 106.693 275.612 106.693 285.318Z" fill="#FFE597"/>
<path d="M136.77 285.318C126.767 294.304 129.861 302.892 116.049 302.892C102.238 302.892 99.6157 295.024 99.6157 285.318C99.6157 275.612 102.238 267.744 116.049 267.744C132.483 274.681 136.77 275.612 136.77 285.318Z" fill="#FFE597"/>
<path d="M170.384 300.256C160.381 308.793 163.475 316.951 149.664 316.951C135.852 316.951 133.23 309.476 133.23 300.256C133.23 291.035 135.852 283.56 149.664 283.56C166.097 290.151 170.384 291.035 170.384 300.256Z" fill="#FFE597"/>
<path d="M198.694 294.984C188.691 303.521 191.784 311.679 177.973 311.679C164.162 311.679 161.54 304.204 161.54 294.984C161.54 285.763 164.162 278.288 177.973 278.288C194.407 284.878 198.694 285.763 198.694 294.984Z" fill="#FFE597"/>
<path d="M193.385 272.137C181 280.675 184.831 288.833 167.731 288.833C150.631 288.833 147.385 281.358 147.385 272.137C147.385 262.917 150.631 255.442 167.731 255.442C188.077 262.032 193.385 262.917 193.385 272.137Z" fill="#FFE597"/>
<path d="M159.769 269.501C149.289 278.488 152.53 287.075 138.061 287.075C123.592 287.075 120.845 279.207 120.845 269.501C120.845 259.795 123.592 251.927 138.061 251.927C155.277 258.864 159.769 259.795 159.769 269.501Z" fill="#FFE597"/>
<path d="M133.229 267.744C122.75 276.73 125.991 285.318 111.522 285.318C97.0533 285.318 94.3062 277.45 94.3062 267.744C94.3062 258.038 97.0533 250.17 111.522 250.17C128.738 257.107 133.229 258.038 133.229 267.744Z" fill="#FFE597"/>
<path d="M106.693 265.108C96.6901 273.645 99.7839 281.803 85.9726 281.803C72.1613 281.803 69.5391 274.328 69.5391 265.108C69.5391 255.887 72.1613 248.412 85.9726 248.412C102.406 255.002 106.693 255.887 106.693 265.108Z" fill="#FFE597"/>
<path d="M127.922 244.897C117.442 253.884 120.684 262.471 106.215 262.471C91.7456 262.471 88.9985 254.603 88.9985 244.897C88.9985 235.191 91.7456 227.323 106.215 227.323C123.431 234.26 127.922 235.191 127.922 244.897Z" fill="#FFE597"/>
<path d="M147.385 222.93C137.382 231.467 140.475 239.625 126.664 239.625C112.853 239.625 110.23 232.15 110.23 222.93C110.23 213.709 112.853 206.234 126.664 206.234C143.098 212.825 147.385 213.709 147.385 222.93Z" fill="#FFE597"/>
<path d="M168.616 202.719C158.137 211.706 161.378 220.294 146.909 220.294C132.44 220.294 129.693 212.425 129.693 202.719C129.693 193.013 132.44 185.145 146.909 185.145C164.125 192.082 168.616 193.013 168.616 202.719Z" fill="#FFE597"/>
<path d="M177.461 222.93C166.982 231.467 170.223 239.625 155.754 239.625C141.285 239.625 138.538 232.15 138.538 222.93C138.538 213.709 141.285 206.234 155.754 206.234C172.97 212.825 177.461 213.709 177.461 222.93Z" fill="#FFE597"/>
<path d="M200.463 214.142C189.984 222.68 193.225 230.838 178.756 230.838C164.287 230.838 161.54 223.363 161.54 214.142C161.54 204.922 164.287 197.447 178.756 197.447C195.972 204.037 200.463 204.922 200.463 214.142Z" fill="#FFE597"/>
<path d="M232.309 232.595C219.925 244.278 223.755 255.442 206.655 255.442C189.556 255.442 186.309 245.213 186.309 232.595C186.309 219.978 189.556 209.749 206.655 209.749C227.002 218.767 232.309 219.978 232.309 232.595Z" fill="#FFE597"/>
<path d="M265.925 267.744C255.922 276.73 259.015 285.318 245.204 285.318C231.393 285.318 228.771 277.45 228.771 267.744C228.771 258.038 231.393 250.17 245.204 250.17C261.638 257.107 265.925 258.038 265.925 267.744Z" fill="#FFE597"/>
<path d="M235.847 269.501C225.368 278.488 228.609 287.075 214.14 287.075C199.671 287.075 196.924 279.207 196.924 269.501C196.924 259.795 199.671 251.927 214.14 251.927C231.356 258.864 235.847 259.795 235.847 269.501Z" fill="#FFE597"/>
<path d="M159.769 253.684C149.289 262.671 152.53 271.259 138.061 271.259C123.592 271.259 120.845 263.39 120.845 253.684C120.845 243.979 123.592 236.11 138.061 236.11C155.277 243.048 159.769 243.979 159.769 253.684Z" fill="#FFE597"/>
<path d="M196.924 244.897C186.921 253.884 190.014 262.471 176.203 262.471C162.392 262.471 159.77 254.603 159.77 244.897C159.77 235.191 162.392 227.323 176.203 227.323C192.637 234.26 196.924 235.191 196.924 244.897Z" fill="#FFE597"/>
<path d="M218.155 255.442C207.675 264.429 210.916 273.016 196.448 273.016C181.979 273.016 179.231 265.148 179.231 255.442C179.231 245.736 181.979 237.868 196.448 237.868C213.664 244.805 218.155 245.736 218.155 255.442Z" fill="#FFE597"/>
<path d="M251.769 255.442C241.29 264.429 244.531 273.016 230.062 273.016C215.593 273.016 212.846 265.148 212.846 255.442C212.846 245.736 215.593 237.868 230.062 237.868C247.278 244.805 251.769 245.736 251.769 255.442Z" fill="#FFE597"/>
<path d="M288.923 265.108C278.444 273.645 281.685 281.803 267.216 281.803C252.747 281.803 250 274.328 250 265.108C250 255.887 252.747 248.412 267.216 248.412C284.432 255.002 288.923 255.887 288.923 265.108Z" fill="#FFE597"/>
<path d="M140.308 312.558C136.973 317.5 138.004 322.223 133.401 322.223C128.797 322.223 127.923 317.896 127.923 312.558C127.923 307.219 128.797 302.892 133.401 302.892C138.879 306.707 140.308 307.219 140.308 312.558Z" fill="#FFE597"/>
<path d="M147.385 314.315C144.05 319.258 145.082 323.981 140.478 323.981C135.874 323.981 135 319.653 135 314.315C135 308.977 135.874 304.649 140.478 304.649C145.956 308.465 147.385 308.977 147.385 314.315Z" fill="#FFE597"/>
<path d="M152.692 312.558C149.358 317.5 150.389 322.223 145.785 322.223C141.182 322.223 140.308 317.896 140.308 312.558C140.308 307.219 141.182 302.892 145.785 302.892C151.263 306.707 152.692 307.219 152.692 312.558Z" fill="#FFE597"/>
<path d="M147.385 232.595C144.05 237.987 145.082 243.14 140.478 243.14C135.874 243.14 135 238.419 135 232.595C135 226.772 135.874 222.051 140.478 222.051C145.956 226.213 147.385 226.772 147.385 232.595Z" fill="#FFE597"/>
<path d="M157.999 236.11C154.665 241.502 155.696 246.655 151.093 246.655C146.489 246.655 145.615 241.934 145.615 236.11C145.615 230.287 146.489 225.566 151.093 225.566C156.57 229.728 157.999 230.287 157.999 236.11Z" fill="#FFE597"/>
<path d="M165.077 247.534C161.743 252.476 162.774 257.199 158.17 257.199C153.566 257.199 152.692 252.872 152.692 247.534C152.692 242.195 153.566 237.868 158.17 237.868C163.648 241.683 165.077 242.195 165.077 247.534Z" fill="#FFE597"/>
<path d="M94.3085 314.315C90.9742 319.258 92.0054 323.981 87.4017 323.981C82.7979 323.981 81.9238 319.653 81.9238 314.315C81.9238 308.977 82.7979 304.649 87.4017 304.649C92.8795 308.465 94.3085 308.977 94.3085 314.315Z" fill="#FFE597"/>
<path d="M140.308 293.226C136.973 298.169 138.004 302.892 133.401 302.892C128.797 302.892 127.923 298.564 127.923 293.226C127.923 287.888 128.797 283.56 133.401 283.56C138.879 287.376 140.308 287.888 140.308 293.226Z" fill="#FFE597"/>
<path d="M198.694 306.407C195.359 310.9 196.391 315.194 191.787 315.194C187.183 315.194 186.309 311.26 186.309 306.407C186.309 301.554 187.183 297.62 191.787 297.62C197.265 301.088 198.694 301.554 198.694 306.407Z" fill="#FFE597"/>
<path d="M225.23 300.256C221.896 305.198 222.927 309.921 218.324 309.921C213.72 309.921 212.846 305.594 212.846 300.256C212.846 294.917 213.72 290.59 218.324 290.59C223.801 294.405 225.23 294.917 225.23 300.256Z" fill="#FFE597"/>
<path d="M278.309 302.013C274.498 306.956 275.677 311.679 270.415 311.679C265.154 311.679 264.155 307.351 264.155 302.013C264.155 296.675 265.154 292.347 270.415 292.347C276.676 296.163 278.309 296.675 278.309 302.013Z" fill="#FFE597"/>
<path d="M195.154 228.202C191.819 233.145 192.851 237.868 188.247 237.868C183.643 237.868 182.769 233.54 182.769 228.202C182.769 222.864 183.643 218.536 188.247 218.536C193.725 222.352 195.154 222.864 195.154 228.202Z" fill="#FFE597"/>
<path d="M195.154 314.315C183.722 319.258 187.258 323.981 171.474 323.981C155.689 323.981 152.692 319.653 152.692 314.315C152.692 308.977 155.689 304.649 171.474 304.649C190.255 308.465 195.154 308.977 195.154 314.315Z" fill="#FFE597"/>
<path d="M198.694 317.83C195.359 322.772 196.391 327.495 191.787 327.495C187.183 327.495 186.309 323.168 186.309 317.83C186.309 312.491 187.183 308.164 191.787 308.164C197.265 311.979 198.694 312.491 198.694 317.83Z" fill="#FFE597"/>
<path d="M205.768 316.073C202.434 321.015 203.465 325.739 198.862 325.739C194.258 325.739 193.384 321.411 193.384 316.073C193.384 310.734 194.258 306.407 198.862 306.407C204.339 310.222 205.768 310.734 205.768 316.073Z" fill="#FFE597"/>
<path d="M219.923 314.315C213.255 319.258 215.317 323.981 206.109 323.981C196.902 323.981 195.154 319.653 195.154 314.315C195.154 308.977 196.902 304.649 206.109 304.649C217.065 308.465 219.923 308.977 219.923 314.315Z" fill="#FFE597"/>
<path d="M225.23 312.558C221.896 317.5 222.927 322.223 218.324 322.223C213.72 322.223 212.846 317.896 212.846 312.558C212.846 307.219 213.72 302.892 218.324 302.892C223.801 306.707 225.23 307.219 225.23 312.558Z" fill="#FFE597"/>
<path d="M232.308 312.558C228.974 317.5 230.005 322.223 225.401 322.223C220.797 322.223 219.923 317.896 219.923 312.558C219.923 307.219 220.797 302.892 225.401 302.892C230.879 306.707 232.308 307.219 232.308 312.558Z" fill="#FFE597"/>
<path d="M255.308 313.437C247.21 320.626 249.714 327.496 238.534 327.496C227.353 327.496 225.23 321.201 225.23 313.437C225.23 305.672 227.353 299.377 238.534 299.377C251.837 304.927 255.308 305.672 255.308 313.437Z" fill="#FFE597"/>
<path d="M278.309 314.315C269.735 322.852 272.387 331.01 260.548 331.01C248.71 331.01 246.462 323.536 246.462 314.315C246.462 305.094 248.71 297.62 260.548 297.62C274.634 304.21 278.309 305.094 278.309 314.315Z" fill="#FFE597"/>
<path d="M304.847 313.437C296.749 320.626 299.253 327.496 288.073 327.496C276.892 327.496 274.77 321.201 274.77 313.437C274.77 305.672 276.892 299.377 288.073 299.377C301.376 304.927 304.847 305.672 304.847 313.437Z" fill="#FFE597"/>
<path d="M329.616 313.437C321.518 320.626 324.023 327.496 312.842 327.496C301.662 327.496 299.539 321.201 299.539 313.437C299.539 305.672 301.662 299.377 312.842 299.377C326.146 304.927 329.616 305.672 329.616 313.437Z" fill="#FFE597"/>
<path d="M221.693 292.348C213.119 301.334 215.77 309.922 203.932 309.922C192.094 309.922 189.846 302.053 189.846 292.348C189.846 282.642 192.094 274.773 203.932 274.773C218.018 281.711 221.693 282.642 221.693 292.348Z" fill="#FFE597"/>
<path d="M248.23 290.59C240.133 297.779 242.637 304.649 231.457 304.649C220.276 304.649 218.153 298.355 218.153 290.59C218.153 282.825 220.276 276.531 231.457 276.531C244.76 282.08 248.23 282.825 248.23 290.59Z" fill="#FFE597"/>
<path d="M272.999 292.347C262.996 299.537 266.09 306.407 252.279 306.407C238.467 306.407 235.845 300.112 235.845 292.347C235.845 284.583 238.467 278.288 252.279 278.288C268.712 283.838 272.999 284.583 272.999 292.347Z" fill="#FFE597"/>
<path d="M299.54 293.226C288.584 299.966 291.972 306.407 276.846 306.407C261.719 306.407 258.847 300.506 258.847 293.226C258.847 285.947 261.719 280.046 276.846 280.046C294.844 285.249 299.54 285.947 299.54 293.226Z" fill="#FFE597"/>
<path d="M212.845 275.652C204.271 282.392 206.923 288.833 195.085 288.833C183.247 288.833 180.999 282.932 180.999 275.652C180.999 268.373 183.247 262.472 195.085 262.472C209.171 267.675 212.845 268.373 212.845 275.652Z" fill="#FFE597"/>
<path fill-rule="evenodd" clip-rule="evenodd" d="M2.48932 314.109C36.6014 372.996 99.8792 413.337 173.255 415.201C246.632 417.065 311.903 379.989 349 322.912L2.48932 314.109Z" fill="#804141"/>
<g filter="url(#filter0_d)">
<path d="M127.766 9.25387C93.8575 8.44654 70 -3.72137 70 38.1367C70 61.0337 93.263 73.6145 110.917 81.4609C133.607 91.5453 132.579 109.733 132.579 132.006C132.579 145.632 92.9888 180.39 84.4414 163.295" stroke="url(#paint0_diamond)" stroke-width="6" stroke-linecap="round" stroke-linejoin="round"/>
</g>
<g filter="url(#filter1_d)">
<path d="M195.159 18.8818C159.78 25.7849 156.648 31.0703 156.648 64.6129C156.648 78.6777 172.19 91.9686 183.124 100.716C204.971 118.194 202.994 196.992 166.276 196.992" stroke="url(#paint1_diamond)" stroke-width="6" stroke-linecap="round" stroke-linejoin="round"/>
</g>
<g filter="url(#filter2_d)">
<path d="M243.297 47.7644C221.932 64.4555 211.785 88.5906 222.972 115.158C229.757 131.273 243.872 142.517 251.854 158.482C274.754 204.281 232.622 207.318 204.786 225.875" stroke="url(#paint2_diamond)" stroke-width="6" stroke-linecap="round" stroke-linejoin="round"/>
</g>
<defs>
<filter id="filter0_d" x="59" y="0" width="84.5881" height="182.924" filterUnits="userSpaceOnUse" color-interpolation-filters="sRGB">
<feFlood flood-opacity="0" result="BackgroundImageFix"/>
<feColorMatrix in="SourceAlpha" type="matrix" values="0 0 0 0 0 0 0 0 0 0 0 0 0 0 0 0 0 0 127 0"/>
<feOffset dy="4"/>
<feGaussianBlur stdDeviation="4"/>
<feColorMatrix type="matrix" values="0 0 0 0 0 0 0 0 0 0 0 0 0 0 0 0 0 0 0.25 0"/>
<feBlend mode="normal" in2="BackgroundImageFix" result="effect1_dropShadow"/>
<feBlend mode="normal" in="SourceGraphic" in2="effect1_dropShadow" result="shape"/>
</filter>
<filter id="filter1_d" x="145.648" y="11.8813" width="62.5865" height="200.111" filterUnits="userSpaceOnUse" color-interpolation-filters="sRGB">
<feFlood flood-opacity="0" result="BackgroundImageFix"/>
<feColorMatrix in="SourceAlpha" type="matrix" values="0 0 0 0 0 0 0 0 0 0 0 0 0 0 0 0 0 0 127 0"/>
<feOffset dy="4"/>
<feGaussianBlur stdDeviation="4"/>
<feColorMatrix type="matrix" values="0 0 0 0 0 0 0 0 0 0 0 0 0 0 0 0 0 0 0.25 0"/>
<feBlend mode="normal" in2="BackgroundImageFix" result="effect1_dropShadow"/>
<feBlend mode="normal" in="SourceGraphic" in2="effect1_dropShadow" result="shape"/>
</filter>
<filter id="filter2_d" x="193.786" y="40.7642" width="75.6396" height="200.111" filterUnits="userSpaceOnUse" color-interpolation-filters="sRGB">
<feFlood flood-opacity="0" result="BackgroundImageFix"/>
<feColorMatrix in="SourceAlpha" type="matrix" values="0 0 0 0 0 0 0 0 0 0 0 0 0 0 0 0 0 0 127 0"/>
<feOffset dy="4"/>
<feGaussianBlur stdDeviation="4"/>
<feColorMatrix type="matrix" values="0 0 0 0 0 0 0 0 0 0 0 0 0 0 0 0 0 0 0.25 0"/>
<feBlend mode="normal" in2="BackgroundImageFix" result="effect1_dropShadow"/>
<feBlend mode="normal" in="SourceGraphic" in2="effect1_dropShadow" result="shape"/>
</filter>
<radialGradient id="paint0_diamond" cx="0" cy="0" r="1" gradientUnits="userSpaceOnUse" gradientTransform="translate(101.293 87.4622) rotate(90) scale(80.4622 31.2932)">
<stop stop-color="#2D3055"/>
<stop offset="1" stop-opacity="0"/>
</radialGradient>
<radialGradient id="paint1_diamond" cx="0" cy="0" r="1" gradientUnits="userSpaceOnUse" gradientTransform="translate(176.942 107.937) rotate(90) scale(89.0553 20.2932)">
<stop stop-color="#2D3055"/>
<stop offset="1" stop-opacity="0"/>
</radialGradient>
<radialGradient id="paint2_diamond" cx="0" cy="0" r="1" gradientUnits="userSpaceOnUse" gradientTransform="translate(231.606 136.82) rotate(90) scale(89.0553 26.8194)">
<stop stop-color="#2D3055"/>
<stop offset="1" stop-opacity="0"/>
</radialGradient>
</defs>
</svg>
