<svg width="176" height="305" viewBox="0 0 176 305" fill="none" xmlns="http://www.w3.org/2000/svg">
<path d="M148.868 71.9993C148.868 109.332 116.666 139.999 76.4338 139.999C36.2011 139.999 4 109.332 4 71.9993C4 34.6662 36.2011 4 76.4338 4C116.666 4 148.868 34.6662 148.868 71.9993Z" fill="#CAC5EA" stroke="#1D3FB6" stroke-width="8"/>
<path d="M63.1753 85.2316C63.1753 82.2316 63.5753 79.6816 64.3753 77.5816C65.1753 75.4816 66.5253 73.5316 68.4253 71.7316C71.2253 69.0316 73.7753 66.6816 76.0753 64.6816C78.4753 62.6816 80.5253 60.8316 82.2253 59.1316C83.9253 57.3316 85.2253 55.6816 86.1253 54.1816C87.1253 52.5816 87.6253 50.9316 87.6253 49.2316C87.6253 45.9316 86.5753 43.3816 84.4753 41.5816C82.4753 39.6816 79.9253 38.7316 76.8253 38.7316C72.1253 38.7316 68.5253 40.0316 66.0253 42.6316C63.6253 45.2316 62.2753 48.3816 61.9753 52.0816L38.8753 50.5816C39.9753 39.9816 43.8753 31.9316 50.5753 26.4316C57.2753 20.8316 65.8753 18.0316 76.3753 18.0316C80.9753 18.0316 85.2753 18.6816 89.2753 19.9816C93.3753 21.1816 96.9753 23.0316 100.075 25.5316C103.175 28.0316 105.625 31.1316 107.425 34.8316C109.225 38.5316 110.125 42.7816 110.125 47.5816C110.125 50.4816 109.825 53.1316 109.225 55.5316C108.625 57.8316 107.575 60.1316 106.075 62.4316C104.675 64.7316 102.775 67.0816 100.375 69.4816C98.0753 71.7816 95.1253 74.3316 91.5253 77.1316C89.2253 78.9316 87.6753 80.6816 86.8753 82.3816C86.0753 84.0816 85.6753 85.7816 85.6753 87.4816V91.8316H63.1753V85.2316ZM60.6253 114.032C60.6253 112.132 60.9753 110.332 61.6753 108.632C62.3753 106.932 63.3253 105.482 64.5253 104.282C65.8253 102.982 67.3253 101.982 69.0253 101.282C70.7253 100.582 72.5253 100.232 74.4253 100.232C76.3253 100.232 78.1253 100.582 79.8253 101.282C81.5253 101.982 82.9753 102.982 84.1753 104.282C85.4753 105.482 86.4753 106.932 87.1753 108.632C87.8753 110.332 88.2253 112.132 88.2253 114.032C88.2253 115.932 87.8753 117.732 87.1753 119.432C86.4753 121.132 85.4753 122.632 84.1753 123.932C82.9753 125.132 81.5253 126.082 79.8253 126.782C78.1253 127.482 76.3253 127.832 74.4253 127.832C72.5253 127.832 70.7253 127.482 69.0253 126.782C67.3253 126.082 65.8253 125.132 64.5253 123.932C63.3253 122.632 62.3753 121.132 61.6753 119.432C60.9753 117.732 60.6253 115.932 60.6253 114.032Z" fill="#1D3FB6"/>
<path d="M9.80762 162.6H17.6076V198H9.80762V162.6ZM64.0475 198H57.1475V194.8H57.0475C56.7475 195.233 56.3475 195.683 55.8475 196.15C55.3808 196.583 54.8141 196.983 54.1475 197.35C53.5141 197.717 52.7975 198.017 51.9975 198.25C51.2308 198.483 50.4308 198.6 49.5975 198.6C47.7975 198.6 46.1641 198.3 44.6975 197.7C43.2308 197.067 41.9641 196.2 40.8975 195.1C39.8641 193.967 39.0641 192.633 38.4975 191.1C37.9308 189.567 37.6475 187.883 37.6475 186.05C37.6475 184.35 37.8975 182.733 38.3975 181.2C38.9308 179.633 39.6641 178.25 40.5975 177.05C41.5641 175.85 42.7308 174.9 44.0975 174.2C45.4641 173.467 47.0141 173.1 48.7475 173.1C50.3141 173.1 51.7641 173.35 53.0975 173.85C54.4641 174.317 55.5808 175.133 56.4475 176.3H56.5475V160.2H64.0475V198ZM57.1475 185.85C57.1475 184.017 56.6141 182.533 55.5475 181.4C54.5141 180.267 53.0475 179.7 51.1475 179.7C49.2475 179.7 47.7641 180.267 46.6975 181.4C45.6641 182.533 45.1475 184.017 45.1475 185.85C45.1475 187.683 45.6641 189.167 46.6975 190.3C47.7641 191.433 49.2475 192 51.1475 192C53.0475 192 54.5141 191.433 55.5475 190.3C56.6141 189.167 57.1475 187.683 57.1475 185.85ZM69.1416 185.85C69.1416 183.917 69.4916 182.167 70.1916 180.6C70.8916 179.033 71.8416 177.7 73.0416 176.6C74.2749 175.467 75.7083 174.6 77.3416 174C79.0083 173.4 80.7749 173.1 82.6416 173.1C84.5083 173.1 86.2583 173.4 87.8916 174C89.5583 174.6 90.9916 175.467 92.1916 176.6C93.4249 177.7 94.3916 179.033 95.0916 180.6C95.7916 182.167 96.1416 183.917 96.1416 185.85C96.1416 187.783 95.7916 189.533 95.0916 191.1C94.3916 192.667 93.4249 194.017 92.1916 195.15C90.9916 196.25 89.5583 197.1 87.8916 197.7C86.2583 198.3 84.5083 198.6 82.6416 198.6C80.7749 198.6 79.0083 198.3 77.3416 197.7C75.7083 197.1 74.2749 196.25 73.0416 195.15C71.8416 194.017 70.8916 192.667 70.1916 191.1C69.4916 189.533 69.1416 187.783 69.1416 185.85ZM76.6416 185.85C76.6416 187.683 77.1583 189.167 78.1916 190.3C79.2583 191.433 80.7416 192 82.6416 192C84.5416 192 86.0083 191.433 87.0416 190.3C88.1083 189.167 88.6416 187.683 88.6416 185.85C88.6416 184.017 88.1083 182.533 87.0416 181.4C86.0083 180.267 84.5416 179.7 82.6416 179.7C80.7416 179.7 79.2583 180.267 78.1916 181.4C77.1583 182.533 76.6416 184.017 76.6416 185.85ZM100.559 173.7H107.759V177H107.859C108.093 176.533 108.426 176.067 108.859 175.6C109.293 175.133 109.809 174.717 110.409 174.35C111.009 173.983 111.693 173.683 112.459 173.45C113.226 173.217 114.059 173.1 114.959 173.1C116.859 173.1 118.393 173.4 119.559 174C120.726 174.567 121.626 175.367 122.259 176.4C122.926 177.433 123.376 178.65 123.609 180.05C123.843 181.45 123.959 182.967 123.959 184.6V198H116.459V186.1C116.459 185.4 116.426 184.683 116.359 183.95C116.326 183.183 116.176 182.483 115.909 181.85C115.676 181.217 115.293 180.7 114.759 180.3C114.259 179.9 113.526 179.7 112.559 179.7C111.593 179.7 110.809 179.883 110.209 180.25C109.609 180.583 109.143 181.05 108.809 181.65C108.509 182.217 108.309 182.867 108.209 183.6C108.109 184.333 108.059 185.1 108.059 185.9V198H100.559V173.7ZM134.97 176.7H128.57L132.27 162.6H139.47L134.97 176.7ZM159.736 179.7H153.136V187.8C153.136 188.467 153.169 189.083 153.236 189.65C153.303 190.183 153.453 190.65 153.686 191.05C153.919 191.45 154.269 191.767 154.736 192C155.236 192.2 155.886 192.3 156.686 192.3C157.086 192.3 157.603 192.267 158.236 192.2C158.903 192.1 159.403 191.9 159.736 191.6V197.85C158.903 198.15 158.036 198.35 157.136 198.45C156.236 198.55 155.353 198.6 154.486 198.6C153.219 198.6 152.053 198.467 150.986 198.2C149.919 197.933 148.986 197.517 148.186 196.95C147.386 196.35 146.753 195.583 146.286 194.65C145.853 193.717 145.636 192.583 145.636 191.25V179.7H140.836V173.7H145.636V166.5H153.136V173.7H159.736V179.7ZM29.3189 242.2H36.8189V265.3L45.1189 255.7H54.3189L44.6689 266.65L54.5689 280H45.1189L36.9189 267.7H36.8189V280H29.3189V242.2ZM57.1021 255.7H64.3021V259H64.4021C64.6355 258.533 64.9688 258.067 65.4021 257.6C65.8355 257.133 66.3521 256.717 66.9521 256.35C67.5521 255.983 68.2355 255.683 69.0021 255.45C69.7688 255.217 70.6021 255.1 71.5021 255.1C73.4021 255.1 74.9355 255.4 76.1021 256C77.2688 256.567 78.1688 257.367 78.8021 258.4C79.4688 259.433 79.9188 260.65 80.1521 262.05C80.3855 263.45 80.5021 264.967 80.5021 266.6V280H73.0021V268.1C73.0021 267.4 72.9688 266.683 72.9021 265.95C72.8688 265.183 72.7188 264.483 72.4521 263.85C72.2188 263.217 71.8355 262.7 71.3021 262.3C70.8021 261.9 70.0688 261.7 69.1021 261.7C68.1355 261.7 67.3521 261.883 66.7521 262.25C66.1521 262.583 65.6855 263.05 65.3521 263.65C65.0521 264.217 64.8521 264.867 64.7521 265.6C64.6521 266.333 64.6021 267.1 64.6021 267.9V280H57.1021V255.7ZM84.9131 267.85C84.9131 265.917 85.2631 264.167 85.9631 262.6C86.6631 261.033 87.6131 259.7 88.8131 258.6C90.0464 257.467 91.4798 256.6 93.1131 256C94.7798 255.4 96.5464 255.1 98.4131 255.1C100.28 255.1 102.03 255.4 103.663 256C105.33 256.6 106.763 257.467 107.963 258.6C109.196 259.7 110.163 261.033 110.863 262.6C111.563 264.167 111.913 265.917 111.913 267.85C111.913 269.783 111.563 271.533 110.863 273.1C110.163 274.667 109.196 276.017 107.963 277.15C106.763 278.25 105.33 279.1 103.663 279.7C102.03 280.3 100.28 280.6 98.4131 280.6C96.5464 280.6 94.7798 280.3 93.1131 279.7C91.4798 279.1 90.0464 278.25 88.8131 277.15C87.6131 276.017 86.6631 274.667 85.9631 273.1C85.2631 271.533 84.9131 269.783 84.9131 267.85ZM92.4131 267.85C92.4131 269.683 92.9298 271.167 93.9631 272.3C95.0298 273.433 96.5131 274 98.4131 274C100.313 274 101.78 273.433 102.813 272.3C103.88 271.167 104.413 269.683 104.413 267.85C104.413 266.017 103.88 264.533 102.813 263.4C101.78 262.267 100.313 261.7 98.4131 261.7C96.5131 261.7 95.0298 262.267 93.9631 263.4C92.9298 264.533 92.4131 266.017 92.4131 267.85ZM113.431 255.7H121.431L126.381 270.95H126.481L130.631 255.7H138.831L143.331 270.95H143.431L147.981 255.7H155.581L146.931 280H139.531L134.481 263.85H134.381L129.881 280H122.331L113.431 255.7Z" fill="#1C00CE"/>
</svg>
