<svg width="145" height="225" viewBox="0 0 145 225" fill="none" xmlns="http://www.w3.org/2000/svg">
<path d="M140.375 72.1874C140.375 109.846 109.846 140.375 72.1874 140.375C34.5286 140.375 4 109.846 4 72.1874C4 34.5286 34.5286 4 72.1874 4C109.846 4 140.375 34.5286 140.375 72.1874Z" fill="#F8A8A8" stroke="#D10000" stroke-width="8"/>
<path d="M110.198 102.494C71.4386 68.2675 39.4501 105.29 39.4501 105.29" stroke="#D10000" stroke-width="12" stroke-linecap="round" stroke-linejoin="round"/>
<ellipse cx="55.5291" cy="53.4187" rx="9.71754" ry="17.325" fill="#D10000"/>
<ellipse cx="94.3992" cy="53.4187" rx="9.71754" ry="17.325" fill="#D10000"/>
<path d="M42.9555 164.6H53.5555L68.6055 189.2H68.7055V164.6H76.5055V200H66.3055L50.8555 174.8H50.7555V200H42.9555V164.6ZM81.877 187.85C81.877 185.917 82.227 184.167 82.927 182.6C83.627 181.033 84.577 179.7 85.777 178.6C87.0103 177.467 88.4436 176.6 90.077 176C91.7436 175.4 93.5103 175.1 95.377 175.1C97.2436 175.1 98.9936 175.4 100.627 176C102.294 176.6 103.727 177.467 104.927 178.6C106.16 179.7 107.127 181.033 107.827 182.6C108.527 184.167 108.877 185.917 108.877 187.85C108.877 189.783 108.527 191.533 107.827 193.1C107.127 194.667 106.16 196.017 104.927 197.15C103.727 198.25 102.294 199.1 100.627 199.7C98.9936 200.3 97.2436 200.6 95.377 200.6C93.5103 200.6 91.7436 200.3 90.077 199.7C88.4436 199.1 87.0103 198.25 85.777 197.15C84.577 196.017 83.627 194.667 82.927 193.1C82.227 191.533 81.877 189.783 81.877 187.85ZM89.377 187.85C89.377 189.683 89.8936 191.167 90.927 192.3C91.9936 193.433 93.477 194 95.377 194C97.277 194 98.7436 193.433 99.777 192.3C100.844 191.167 101.377 189.683 101.377 187.85C101.377 186.017 100.844 184.533 99.777 183.4C98.7436 182.267 97.277 181.7 95.377 181.7C93.477 181.7 91.9936 182.267 90.927 183.4C89.8936 184.533 89.377 186.017 89.377 187.85Z" fill="#962323"/>
</svg>
