<svg width="145" height="135" viewBox="0 0 145 135" fill="none" xmlns="http://www.w3.org/2000/svg">
<path d="M58.2219 109.224C57.2325 110.743 57.5385 112.194 56.1724 112.194C54.8063 112.194 54.5469 110.864 54.5469 109.224C54.5469 107.583 54.8063 106.253 56.1724 106.253C57.7979 107.426 58.2219 107.583 58.2219 109.224Z" fill="#FFE597"/>
<path d="M71.5448 108.684C66.1029 111.583 67.786 114.354 60.2723 114.354C52.7586 114.354 51.332 111.815 51.332 108.684C51.332 105.552 52.7586 103.013 60.2723 103.013C69.2126 105.251 71.5448 105.552 71.5448 108.684Z" fill="#FFE597"/>
<path d="M55.4648 109.223C52.7438 111.847 53.5854 114.354 49.8285 114.354C46.0717 114.354 45.3584 112.057 45.3584 109.223C45.3584 106.39 46.0717 104.093 49.8285 104.093C54.2987 106.118 55.4648 106.39 55.4648 109.223Z" fill="#FFE597"/>
<path d="M47.6558 109.493C45.0585 112.255 45.8618 114.894 42.2757 114.894C38.6897 114.894 38.0088 112.476 38.0088 109.493C38.0088 106.511 38.6897 104.093 42.2757 104.093C46.5427 106.224 47.6558 106.511 47.6558 109.493Z" fill="#FFE597"/>
<path d="M51.331 102.472C48.6101 105.234 49.4516 107.873 45.6948 107.873C41.9379 107.873 41.2246 105.455 41.2246 102.472C41.2246 99.4895 41.9379 97.0715 45.6948 97.0715C50.1649 99.2034 51.331 99.4895 51.331 102.472Z" fill="#FFE597"/>
<path d="M59.6011 102.472C57.0038 105.234 57.8071 107.873 54.2211 107.873C50.635 107.873 49.9541 105.455 49.9541 102.472C49.9541 99.4895 50.635 97.0715 54.2211 97.0715C58.488 99.2034 59.6011 99.4895 59.6011 102.472Z" fill="#FFE597"/>
<path d="M67.4107 102.472C64.8134 105.234 65.6167 107.873 62.0306 107.873C58.4445 107.873 57.7637 105.455 57.7637 102.472C57.7637 99.4895 58.4445 97.0715 62.0306 97.0715C66.2976 99.2034 67.4107 99.4895 67.4107 102.472Z" fill="#FFE597"/>
<path d="M76.1392 107.063C73.5419 109.686 74.3452 112.194 70.7591 112.194C67.1731 112.194 66.4922 109.896 66.4922 107.063C66.4922 104.229 67.1731 101.932 70.7591 101.932C75.0261 103.957 76.1392 104.229 76.1392 107.063Z" fill="#FFE597"/>
<path d="M83.4888 105.443C80.8915 108.066 81.6948 110.573 78.1087 110.573C74.5227 110.573 73.8418 108.276 73.8418 105.443C73.8418 102.609 74.5227 100.312 78.1087 100.312C82.3757 102.337 83.4888 102.609 83.4888 105.443Z" fill="#FFE597"/>
<path d="M82.1109 98.4217C78.8953 101.045 79.8898 103.552 75.4499 103.552C71.01 103.552 70.167 101.255 70.167 98.4217C70.167 95.5881 71.01 93.291 75.4499 93.291C80.7328 95.3163 82.1109 95.5881 82.1109 98.4217Z" fill="#FFE597"/>
<path d="M73.3818 97.6115C70.6608 100.373 71.5024 103.012 67.7455 103.012C63.9887 103.012 63.2754 100.594 63.2754 97.6115C63.2754 94.6287 63.9887 92.2107 67.7455 92.2107C72.2157 94.3426 73.3818 94.6287 73.3818 97.6115Z" fill="#FFE597"/>
<path d="M66.4902 97.0722C63.7692 99.8339 64.6108 102.473 60.8539 102.473C57.0971 102.473 56.3838 100.055 56.3838 97.0722C56.3838 94.0894 57.0971 91.6714 60.8539 91.6714C65.3241 93.8033 66.4902 94.0894 66.4902 97.0722Z" fill="#FFE597"/>
<path d="M59.6011 96.2611C57.0038 98.8847 57.8071 101.392 54.2211 101.392C50.635 101.392 49.9541 99.0947 49.9541 96.2611C49.9541 93.4275 50.635 91.1304 54.2211 91.1304C58.488 93.1557 59.6011 93.4275 59.6011 96.2611Z" fill="#FFE597"/>
<path d="M65.1132 90.0499C62.3923 92.8117 63.2338 95.4507 59.477 95.4507C55.7201 95.4507 55.0068 93.0327 55.0068 90.0499C55.0068 87.0672 55.7201 84.6492 59.477 84.6492C63.9471 86.7811 65.1132 87.0672 65.1132 90.0499Z" fill="#FFE597"/>
<path d="M70.1675 83.2994C67.5703 85.9231 68.3735 88.4302 64.7875 88.4302C61.2014 88.4302 60.5205 86.133 60.5205 83.2994C60.5205 80.4658 61.2014 78.1687 64.7875 78.1687C69.0544 80.194 70.1675 80.4658 70.1675 83.2994Z" fill="#FFE597"/>
<path d="M75.6796 77.0885C72.9587 79.8502 73.8002 82.4893 70.0434 82.4893C66.2865 82.4893 65.5732 80.0713 65.5732 77.0885C65.5732 74.1057 66.2865 71.6877 70.0434 71.6877C74.5135 73.8196 75.6796 74.1057 75.6796 77.0885Z" fill="#FFE597"/>
<path d="M77.9765 83.2994C75.2556 85.9231 76.0971 88.4302 72.3403 88.4302C68.5834 88.4302 67.8701 86.133 67.8701 83.2994C67.8701 80.4658 68.5834 78.1687 72.3403 78.1687C76.8104 80.194 77.9765 80.4658 77.9765 83.2994Z" fill="#FFE597"/>
<path d="M83.9482 80.5987C81.2272 83.2224 82.0688 85.7295 78.3119 85.7295C74.5551 85.7295 73.8418 83.4324 73.8418 80.5987C73.8418 77.7651 74.5551 75.468 78.3119 75.468C82.7821 77.4933 83.9482 77.7651 83.9482 80.5987Z" fill="#FFE597"/>
<path d="M92.2183 86.27C89.0027 89.8603 89.9972 93.291 85.5573 93.291C81.1174 93.291 80.2744 90.1476 80.2744 86.27C80.2744 82.3924 81.1174 79.249 85.5573 79.249C90.8402 82.0205 92.2183 82.3924 92.2183 86.27Z" fill="#FFE597"/>
<path d="M100.944 97.0722C98.3466 99.8339 99.1499 102.473 95.5638 102.473C91.9777 102.473 91.2969 100.055 91.2969 97.0722C91.2969 94.0894 91.9777 91.6714 95.5638 91.6714C99.8308 93.8033 100.944 94.0894 100.944 97.0722Z" fill="#FFE597"/>
<path d="M93.1337 97.6115C90.4128 100.373 91.2543 103.012 87.4975 103.012C83.7406 103.012 83.0273 100.594 83.0273 97.6115C83.0273 94.6287 83.7406 92.2107 87.4975 92.2107C91.9676 94.3426 93.1337 94.6287 93.1337 97.6115Z" fill="#FFE597"/>
<path d="M73.3818 92.7506C70.6608 95.5123 71.5024 98.1514 67.7455 98.1514C63.9887 98.1514 63.2754 95.7334 63.2754 92.7506C63.2754 89.7679 63.9887 87.3499 67.7455 87.3499C72.2157 89.4817 73.3818 89.7679 73.3818 92.7506Z" fill="#FFE597"/>
<path d="M83.0279 90.0499C80.4306 92.8117 81.2339 95.4507 77.6478 95.4507C74.0617 95.4507 73.3809 93.0327 73.3809 90.0499C73.3809 87.0672 74.0617 84.6492 77.6478 84.6492C81.9148 86.7811 83.0279 87.0672 83.0279 90.0499Z" fill="#FFE597"/>
<path d="M88.5429 93.2911C85.822 96.0529 86.6635 98.6919 82.9067 98.6919C79.1498 98.6919 78.4365 96.2739 78.4365 93.2911C78.4365 90.3084 79.1498 87.8904 82.9067 87.8904C87.3768 90.0223 88.5429 90.3084 88.5429 93.2911Z" fill="#FFE597"/>
<path d="M97.2685 93.2911C94.5476 96.0529 95.3891 98.6919 91.6323 98.6919C87.8754 98.6919 87.1621 96.2739 87.1621 93.2911C87.1621 90.3084 87.8754 87.8904 91.6323 87.8904C96.1024 90.0223 97.2685 90.3084 97.2685 93.2911Z" fill="#FFE597"/>
<path d="M106.917 96.2611C104.196 98.8847 105.038 101.392 101.281 101.392C97.5238 101.392 96.8105 99.0947 96.8105 96.2611C96.8105 93.4275 97.5238 91.1304 101.281 91.1304C105.751 93.1557 106.917 93.4275 106.917 96.2611Z" fill="#FFE597"/>
<path d="M68.3299 110.844C67.4642 112.363 67.7319 113.814 66.5366 113.814C65.3412 113.814 65.1143 112.484 65.1143 110.844C65.1143 109.203 65.3412 107.873 66.5366 107.873C67.9589 109.046 68.3299 109.203 68.3299 110.844Z" fill="#FFE597"/>
<path d="M70.1668 111.383C69.3011 112.902 69.5689 114.354 68.3735 114.354C67.1781 114.354 66.9512 113.024 66.9512 111.383C66.9512 109.743 67.1781 108.413 68.3735 108.413C69.7958 109.585 70.1668 109.743 70.1668 111.383Z" fill="#FFE597"/>
<path d="M71.5448 110.844C70.679 112.363 70.9468 113.814 69.7514 113.814C68.5561 113.814 68.3291 112.484 68.3291 110.844C68.3291 109.203 68.5561 107.873 69.7514 107.873C71.1737 109.046 71.5448 109.203 71.5448 110.844Z" fill="#FFE597"/>
<path d="M70.1668 86.27C69.3011 87.927 69.5689 89.5105 68.3735 89.5105C67.1781 89.5105 66.9512 88.0597 66.9512 86.27C66.9512 84.4803 67.1781 83.0295 68.3735 83.0295C69.7958 84.3087 70.1668 84.4803 70.1668 86.27Z" fill="#FFE597"/>
<path d="M72.9227 87.3503C72.0569 89.0074 72.3247 90.5908 71.1293 90.5908C69.934 90.5908 69.707 89.14 69.707 87.3503C69.707 85.5607 69.934 84.1099 71.1293 84.1099C72.5517 85.389 72.9227 85.5607 72.9227 87.3503Z" fill="#FFE597"/>
<path d="M74.7606 90.8608C73.8948 92.3798 74.1626 93.8312 72.9672 93.8312C71.7719 93.8312 71.5449 92.5013 71.5449 90.8608C71.5449 89.2203 71.7719 87.8904 72.9672 87.8904C74.3896 89.0629 74.7606 89.2203 74.7606 90.8608Z" fill="#FFE597"/>
<path d="M56.3856 111.383C55.5198 112.902 55.7876 114.354 54.5922 114.354C53.3969 114.354 53.1699 113.024 53.1699 111.383C53.1699 109.743 53.3969 108.413 54.5922 108.413C56.0146 109.585 56.3856 109.743 56.3856 111.383Z" fill="#FFE597"/>
<path d="M68.3299 104.903C67.4642 106.422 67.7319 107.873 66.5366 107.873C65.3412 107.873 65.1143 106.543 65.1143 104.903C65.1143 103.262 65.3412 101.932 66.5366 101.932C67.9589 103.105 68.3299 103.262 68.3299 104.903Z" fill="#FFE597"/>
<path d="M83.4901 108.954C82.6243 110.334 82.8921 111.654 81.6967 111.654C80.5014 111.654 80.2744 110.445 80.2744 108.954C80.2744 107.462 80.5014 106.253 81.6967 106.253C83.119 107.319 83.4901 107.462 83.4901 108.954Z" fill="#FFE597"/>
<path d="M90.3778 107.063C89.512 108.582 89.7798 110.033 88.5844 110.033C87.3891 110.033 87.1621 108.703 87.1621 107.063C87.1621 105.422 87.3891 104.093 88.5844 104.093C90.0067 105.265 90.3778 105.422 90.3778 107.063Z" fill="#FFE597"/>
<path d="M104.16 107.603C103.171 109.122 103.477 110.574 102.111 110.574C100.745 110.574 100.485 109.244 100.485 107.603C100.485 105.963 100.745 104.633 102.111 104.633C103.736 105.805 104.16 105.963 104.16 107.603Z" fill="#FFE597"/>
<path d="M82.5692 84.9192C81.7034 86.4381 81.9712 87.8896 80.7758 87.8896C79.5805 87.8896 79.3535 86.5597 79.3535 84.9192C79.3535 83.2786 79.5805 81.9487 80.7758 81.9487C82.1982 83.1213 82.5692 83.2786 82.5692 84.9192Z" fill="#FFE597"/>
<path d="M82.5701 111.383C79.6018 112.902 80.5198 114.354 76.4214 114.354C72.3231 114.354 71.5449 113.024 71.5449 111.383C71.5449 109.743 72.3231 108.413 76.4214 108.413C81.298 109.585 82.5701 109.743 82.5701 111.383Z" fill="#FFE597"/>
<path d="M83.4901 112.463C82.6243 113.982 82.8921 115.433 81.6967 115.433C80.5014 115.433 80.2744 114.103 80.2744 112.463C80.2744 110.822 80.5014 109.492 81.6967 109.492C83.119 110.665 83.4901 110.822 83.4901 112.463Z" fill="#FFE597"/>
<path d="M85.326 111.924C84.4603 113.442 84.728 114.894 83.5327 114.894C82.3373 114.894 82.1104 113.564 82.1104 111.924C82.1104 110.283 82.3373 108.953 83.5327 108.953C84.955 110.126 85.326 110.283 85.326 111.924Z" fill="#FFE597"/>
<path d="M89.0007 111.383C87.2692 112.902 87.8047 114.354 85.414 114.354C83.0232 114.354 82.5693 113.024 82.5693 111.383C82.5693 109.743 83.0232 108.413 85.414 108.413C88.2586 109.585 89.0007 109.743 89.0007 111.383Z" fill="#FFE597"/>
<path d="M90.3778 110.844C89.512 112.363 89.7798 113.814 88.5844 113.814C87.3891 113.814 87.1621 112.484 87.1621 110.844C87.1621 109.203 87.3891 107.873 88.5844 107.873C90.0067 109.046 90.3778 109.203 90.3778 110.844Z" fill="#FFE597"/>
<path d="M92.2157 110.844C91.3499 112.363 91.6177 113.814 90.4223 113.814C89.227 113.814 89 112.484 89 110.844C89 109.203 89.227 107.873 90.4223 107.873C91.8446 109.046 92.2157 109.203 92.2157 110.844Z" fill="#FFE597"/>
<path d="M98.1874 111.114C96.0849 113.323 96.7352 115.434 93.8321 115.434C90.9291 115.434 90.3779 113.5 90.3779 111.114C90.3779 108.727 90.9291 106.793 93.8321 106.793C97.2863 108.498 98.1874 108.727 98.1874 111.114Z" fill="#FFE597"/>
<path d="M104.16 111.384C101.934 114.008 102.623 116.515 99.549 116.515C96.4752 116.515 95.8916 114.218 95.8916 111.384C95.8916 108.55 96.4752 106.253 99.549 106.253C103.206 108.278 104.16 108.55 104.16 111.384Z" fill="#FFE597"/>
<path d="M111.051 111.114C108.948 113.323 109.598 115.434 106.695 115.434C103.792 115.434 103.241 113.5 103.241 111.114C103.241 108.727 103.792 106.793 106.695 106.793C110.15 108.498 111.051 108.727 111.051 111.114Z" fill="#FFE597"/>
<path d="M117.482 111.114C115.38 113.323 116.03 115.434 113.127 115.434C110.224 115.434 109.673 113.5 109.673 111.114C109.673 108.727 110.224 106.793 113.127 106.793C116.581 108.498 117.482 108.727 117.482 111.114Z" fill="#FFE597"/>
<path d="M89.4603 104.632C87.234 107.394 87.9226 110.033 84.8488 110.033C81.775 110.033 81.1914 107.615 81.1914 104.632C81.1914 101.65 81.775 99.2317 84.8488 99.2317C88.5062 101.364 89.4603 101.65 89.4603 104.632Z" fill="#FFE597"/>
<path d="M96.3495 104.093C94.247 106.302 94.8973 108.413 91.9942 108.413C89.0912 108.413 88.54 106.479 88.54 104.093C88.54 101.706 89.0912 99.772 91.9942 99.772C95.4484 101.477 96.3495 101.706 96.3495 104.093Z" fill="#FFE597"/>
<path d="M102.782 104.633C100.185 106.842 100.988 108.953 97.4017 108.953C93.8156 108.953 93.1348 107.019 93.1348 104.633C93.1348 102.246 93.8156 100.312 97.4017 100.312C101.669 102.018 102.782 102.246 102.782 104.633Z" fill="#FFE597"/>
<path d="M109.672 104.902C106.828 106.974 107.707 108.953 103.78 108.953C99.8522 108.953 99.1064 107.139 99.1064 104.902C99.1064 102.665 99.8522 100.852 103.78 100.852C108.453 102.451 109.672 102.665 109.672 104.902Z" fill="#FFE597"/>
<path d="M87.1624 99.5013C84.9362 101.573 85.6247 103.552 82.5509 103.552C79.4772 103.552 78.8936 101.738 78.8936 99.5013C78.8936 97.2642 79.4772 95.4507 82.5509 95.4507C86.2083 97.0496 87.1624 97.2642 87.1624 99.5013Z" fill="#FFE597"/>
<g filter="url(#filter0_d)">
<path d="M80.0425 7.99413C69.4517 7.63803 62 2.27105 62 20.7337C62 30.833 69.266 36.3821 74.7801 39.843C81.8671 44.291 81.5461 52.3134 81.5461 62.1372C81.5461 68.1476 69.1803 83.4785 66.5106 75.9383" stroke="url(#paint0_diamond)" stroke-width="6" stroke-linecap="round" stroke-linejoin="round"/>
</g>
<path fill-rule="evenodd" clip-rule="evenodd" d="M1.02363 83.2187C15.1947 111.973 41.4772 131.676 71.9509 132.592C102.425 133.509 129.529 115.411 144.932 87.5454L1.02363 83.2187Z" fill="#804141"/>
<defs>
<filter id="filter0_d" x="51" y="0.000244141" width="41.5492" height="92.9798" filterUnits="userSpaceOnUse" color-interpolation-filters="sRGB">
<feFlood flood-opacity="0" result="BackgroundImageFix"/>
<feColorMatrix in="SourceAlpha" type="matrix" values="0 0 0 0 0 0 0 0 0 0 0 0 0 0 0 0 0 0 127 0"/>
<feOffset dy="4"/>
<feGaussianBlur stdDeviation="4"/>
<feColorMatrix type="matrix" values="0 0 0 0 0 0 0 0 0 0 0 0 0 0 0 0 0 0 0.25 0"/>
<feBlend mode="normal" in2="BackgroundImageFix" result="effect1_dropShadow"/>
<feBlend mode="normal" in="SourceGraphic" in2="effect1_dropShadow" result="shape"/>
</filter>
<radialGradient id="paint0_diamond" cx="0" cy="0" r="1" gradientUnits="userSpaceOnUse" gradientTransform="translate(71.7741 42.49) rotate(90) scale(35.49 9.77415)">
<stop stop-color="#2D3055"/>
<stop offset="1" stop-opacity="0"/>
</radialGradient>
</defs>
</svg>
