<svg width="278" height="293" viewBox="0 0 278 293" fill="none" xmlns="http://www.w3.org/2000/svg">
<path d="M114.861 244.882C113.106 248.601 113.649 252.154 111.225 252.154C108.801 252.154 108.341 248.898 108.341 244.882C108.341 240.867 108.801 237.611 111.225 237.611C114.109 240.482 114.861 240.867 114.861 244.882Z" fill="#FFE597"/>
<path d="M138.498 243.559C128.843 250.657 131.829 257.44 118.498 257.44C105.168 257.44 102.637 251.225 102.637 243.559C102.637 235.893 105.168 229.678 118.498 229.678C134.36 235.157 138.498 235.893 138.498 243.559Z" fill="#FFE597"/>
<path d="M109.97 244.88C105.142 251.303 106.635 257.44 99.9699 257.44C93.3046 257.44 92.0391 251.817 92.0391 244.88C92.0391 237.944 93.3046 232.321 99.9699 232.321C107.901 237.279 109.97 237.944 109.97 244.88Z" fill="#FFE597"/>
<path d="M96.1156 245.541C91.5076 252.302 92.9328 258.762 86.5704 258.762C80.208 258.762 79 252.843 79 245.541C79 238.24 80.208 232.321 86.5704 232.321C94.1407 237.54 96.1156 238.24 96.1156 245.541Z" fill="#FFE597"/>
<path d="M102.636 228.356C97.8082 235.116 99.3013 241.576 92.6359 241.576C85.9706 241.576 84.7051 235.657 84.7051 228.356C84.7051 221.055 85.9706 215.136 92.6359 215.136C100.567 220.354 102.636 221.055 102.636 228.356Z" fill="#FFE597"/>
<path d="M117.307 228.356C112.699 235.116 114.124 241.576 107.762 241.576C101.399 241.576 100.191 235.657 100.191 228.356C100.191 221.055 101.399 215.136 107.762 215.136C115.332 220.354 117.307 221.055 117.307 228.356Z" fill="#FFE597"/>
<path d="M131.163 228.356C126.555 235.116 127.981 241.576 121.618 241.576C115.256 241.576 114.048 235.657 114.048 228.356C114.048 221.055 115.256 215.136 121.618 215.136C129.189 220.354 131.163 221.055 131.163 228.356Z" fill="#FFE597"/>
<path d="M146.651 239.592C142.043 246.015 143.468 252.152 137.106 252.152C130.743 252.152 129.535 246.529 129.535 239.592C129.535 232.656 130.743 227.033 137.106 227.033C144.676 231.991 146.651 232.656 146.651 239.592Z" fill="#FFE597"/>
<path d="M159.689 235.627C155.081 242.049 156.506 248.186 150.144 248.186C143.781 248.186 142.573 242.563 142.573 235.627C142.573 228.69 143.781 223.067 150.144 223.067C157.714 228.025 159.689 228.69 159.689 235.627Z" fill="#FFE597"/>
<path d="M157.245 218.442C151.54 224.864 153.305 231.001 145.428 231.001C137.55 231.001 136.055 225.378 136.055 218.442C136.055 211.506 137.55 205.883 145.428 205.883C154.8 210.84 157.245 211.506 157.245 218.442Z" fill="#FFE597"/>
<path d="M141.757 216.458C136.929 223.219 138.422 229.679 131.757 229.679C125.092 229.679 123.826 223.76 123.826 216.458C123.826 209.157 125.092 203.238 131.757 203.238C139.688 208.457 141.757 209.157 141.757 216.458Z" fill="#FFE597"/>
<path d="M129.531 215.137C124.704 221.897 126.197 228.357 119.531 228.357C112.866 228.357 111.601 222.438 111.601 215.137C111.601 207.836 112.866 201.917 119.531 201.917C127.462 207.135 129.531 207.836 129.531 215.137Z" fill="#FFE597"/>
<path d="M117.307 213.152C112.699 219.574 114.124 225.711 107.762 225.711C101.399 225.711 100.191 220.088 100.191 213.152C100.191 206.216 101.399 200.593 107.762 200.593C115.332 205.55 117.307 206.216 117.307 213.152Z" fill="#FFE597"/>
<path d="M127.087 197.949C122.259 204.709 123.752 211.169 117.087 211.169C110.422 211.169 109.156 205.25 109.156 197.949C109.156 190.647 110.422 184.729 117.087 184.729C125.018 189.947 127.087 190.647 127.087 197.949Z" fill="#FFE597"/>
<path d="M136.055 181.424C131.447 187.847 132.872 193.984 126.51 193.984C120.147 193.984 118.939 188.361 118.939 181.424C118.939 174.488 120.147 168.865 126.51 168.865C134.08 173.823 136.055 174.488 136.055 181.424Z" fill="#FFE597"/>
<path d="M145.833 166.22C141.006 172.98 142.499 179.44 135.833 179.44C129.168 179.44 127.902 173.521 127.902 166.22C127.902 158.919 129.168 153 135.833 153C143.764 158.218 145.833 158.919 145.833 166.22Z" fill="#FFE597"/>
<path d="M149.908 181.424C145.081 187.847 146.574 193.984 139.908 193.984C133.243 193.984 131.978 188.361 131.978 181.424C131.978 174.488 133.243 168.865 139.908 168.865C147.839 173.823 149.908 174.488 149.908 181.424Z" fill="#FFE597"/>
<path d="M160.504 174.814C155.676 181.236 157.169 187.373 150.504 187.373C143.839 187.373 142.573 181.75 142.573 174.814C142.573 167.878 143.839 162.255 150.504 162.255C158.435 167.212 160.504 167.878 160.504 174.814Z" fill="#FFE597"/>
<path d="M175.176 188.696C169.471 197.484 171.235 205.882 163.358 205.882C155.481 205.882 153.985 198.188 153.985 188.696C153.985 179.204 155.481 171.51 163.358 171.51C172.731 178.294 175.176 179.204 175.176 188.696Z" fill="#FFE597"/>
<path d="M190.66 215.137C186.052 221.897 187.477 228.357 181.114 228.357C174.752 228.357 173.544 222.438 173.544 215.137C173.544 207.836 174.752 201.917 181.114 201.917C188.685 207.135 190.66 207.836 190.66 215.137Z" fill="#FFE597"/>
<path d="M176.802 216.458C171.974 223.219 173.467 229.679 166.802 229.679C160.137 229.679 158.871 223.76 158.871 216.458C158.871 209.157 160.137 203.238 166.802 203.238C174.733 208.457 176.802 209.157 176.802 216.458Z" fill="#FFE597"/>
<path d="M141.757 204.559C136.929 211.319 138.422 217.779 131.757 217.779C125.092 217.779 123.826 211.86 123.826 204.559C123.826 197.258 125.092 191.339 131.757 191.339C139.688 196.557 141.757 197.258 141.757 204.559Z" fill="#FFE597"/>
<path d="M158.872 197.949C154.264 204.709 155.69 211.169 149.327 211.169C142.965 211.169 141.757 205.25 141.757 197.949C141.757 190.647 142.965 184.729 149.327 184.729C156.898 189.947 158.872 190.647 158.872 197.949Z" fill="#FFE597"/>
<path d="M168.655 205.882C163.828 212.643 165.321 219.102 158.655 219.102C151.99 219.102 150.725 213.184 150.725 205.882C150.725 198.581 151.99 192.662 158.655 192.662C166.586 197.881 168.655 198.581 168.655 205.882Z" fill="#FFE597"/>
<path d="M184.139 205.882C179.311 212.643 180.804 219.102 174.139 219.102C167.474 219.102 166.208 213.184 166.208 205.882C166.208 198.581 167.474 192.662 174.139 192.662C182.07 197.881 184.139 198.581 184.139 205.882Z" fill="#FFE597"/>
<path d="M201.255 213.152C196.427 219.574 197.92 225.711 191.255 225.711C184.59 225.711 183.324 220.088 183.324 213.152C183.324 206.216 184.59 200.593 191.255 200.593C199.186 205.55 201.255 206.216 201.255 213.152Z" fill="#FFE597"/>
<path d="M132.794 248.847C131.258 252.565 131.733 256.118 129.612 256.118C127.492 256.118 127.089 252.863 127.089 248.847C127.089 244.832 127.492 241.576 129.612 241.576C132.136 244.446 132.794 244.832 132.794 248.847Z" fill="#FFE597"/>
<path d="M136.054 250.168C134.518 253.886 134.993 257.439 132.872 257.439C130.751 257.439 130.349 254.183 130.349 250.168C130.349 246.152 130.751 242.896 132.872 242.896C135.396 245.767 136.054 246.152 136.054 250.168Z" fill="#FFE597"/>
<path d="M138.497 248.847C136.961 252.565 137.436 256.118 135.315 256.118C133.195 256.118 132.792 252.863 132.792 248.847C132.792 244.832 133.195 241.576 135.315 241.576C137.839 244.446 138.497 244.832 138.497 248.847Z" fill="#FFE597"/>
<path d="M136.054 188.695C134.518 192.751 134.993 196.627 132.872 196.627C130.751 196.627 130.349 193.076 130.349 188.695C130.349 184.314 130.751 180.763 132.872 180.763C135.396 183.894 136.054 184.314 136.054 188.695Z" fill="#FFE597"/>
<path d="M140.643 203.319C139.107 207.375 139.582 211.251 137.461 211.251C135.34 211.251 134.937 207.7 134.937 203.319C134.937 198.938 135.34 195.387 137.461 195.387C139.984 198.518 140.643 198.938 140.643 203.319Z" fill="#FFE597"/>
<path d="M144.204 199.933C142.668 203.651 143.143 207.204 141.022 207.204C138.902 207.204 138.499 203.949 138.499 199.933C138.499 195.917 138.902 192.662 141.022 192.662C143.546 195.532 144.204 195.917 144.204 199.933Z" fill="#FFE597"/>
<path d="M111.603 250.168C110.067 253.886 110.542 257.439 108.421 257.439C106.3 257.439 105.897 254.183 105.897 250.168C105.897 246.152 106.3 242.896 108.421 242.896C110.944 245.767 111.603 246.152 111.603 250.168Z" fill="#FFE597"/>
<path d="M132.794 234.304C131.258 238.022 131.733 241.575 129.612 241.575C127.492 241.575 127.089 238.32 127.089 234.304C127.089 230.289 127.492 227.033 129.612 227.033C132.136 229.903 132.794 230.289 132.794 234.304Z" fill="#FFE597"/>
<path d="M159.691 244.221C158.155 247.602 158.63 250.832 156.509 250.832C154.388 250.832 153.985 247.872 153.985 244.221C153.985 240.571 154.388 237.611 156.509 237.611C159.032 240.221 159.691 240.571 159.691 244.221Z" fill="#FFE597"/>
<path d="M171.913 239.592C170.377 243.311 170.852 246.863 168.731 246.863C166.611 246.863 166.208 243.608 166.208 239.592C166.208 235.577 166.611 232.321 168.731 232.321C171.255 235.191 171.913 235.577 171.913 239.592Z" fill="#FFE597"/>
<path d="M196.365 240.916C194.61 244.634 195.152 248.187 192.729 248.187C190.305 248.187 189.845 244.931 189.845 240.916C189.845 236.9 190.305 233.645 192.729 233.645C195.613 236.515 196.365 236.9 196.365 240.916Z" fill="#FFE597"/>
<path d="M158.059 185.388C156.523 189.106 156.998 192.659 154.877 192.659C152.756 192.659 152.354 189.404 152.354 185.388C152.354 181.373 152.756 178.117 154.877 178.117C157.4 180.987 158.059 181.373 158.059 185.388Z" fill="#FFE597"/>
<path d="M158.06 250.168C152.793 253.886 154.422 257.439 147.151 257.439C139.88 257.439 138.499 254.183 138.499 250.168C138.499 246.152 139.88 242.896 147.151 242.896C155.803 245.767 158.06 246.152 158.06 250.168Z" fill="#FFE597"/>
<path d="M159.691 252.812C158.155 256.53 158.63 260.083 156.509 260.083C154.388 260.083 153.985 256.828 153.985 252.812C153.985 248.796 154.388 245.541 156.509 245.541C159.032 248.411 159.691 248.796 159.691 252.812Z" fill="#FFE597"/>
<path d="M162.948 251.492C161.412 255.21 161.887 258.763 159.767 258.763C157.646 258.763 157.243 255.508 157.243 251.492C157.243 247.476 157.646 244.221 159.767 244.221C162.29 247.091 162.948 247.476 162.948 251.492Z" fill="#FFE597"/>
<path d="M169.468 250.168C166.396 253.886 167.346 257.439 163.105 257.439C158.863 257.439 158.058 254.183 158.058 250.168C158.058 246.152 158.863 242.896 163.105 242.896C168.151 245.767 169.468 246.152 169.468 250.168Z" fill="#FFE597"/>
<path d="M171.913 248.847C170.377 252.565 170.852 256.118 168.731 256.118C166.611 256.118 166.208 252.863 166.208 248.847C166.208 244.832 166.611 241.576 168.731 241.576C171.255 244.446 171.913 244.832 171.913 248.847Z" fill="#FFE597"/>
<path d="M175.172 248.847C173.636 252.565 174.111 256.118 171.99 256.118C169.869 256.118 169.467 252.863 169.467 248.847C169.467 244.832 169.869 241.576 171.99 241.576C174.514 244.446 175.172 244.832 175.172 248.847Z" fill="#FFE597"/>
<path d="M185.769 249.509C182.038 254.917 183.192 260.085 178.041 260.085C172.891 260.085 171.913 255.35 171.913 249.509C171.913 243.668 172.891 238.933 178.041 238.933C184.17 243.107 185.769 243.668 185.769 249.509Z" fill="#FFE597"/>
<path d="M196.365 250.17C192.415 256.593 193.637 262.73 188.183 262.73C182.73 262.73 181.694 257.107 181.694 250.17C181.694 243.234 182.73 237.611 188.183 237.611C194.672 242.569 196.365 243.234 196.365 250.17Z" fill="#FFE597"/>
<path d="M208.59 249.509C204.86 254.917 206.013 260.085 200.863 260.085C195.712 260.085 194.734 255.35 194.734 249.509C194.734 243.668 195.712 238.933 200.863 238.933C206.991 243.107 208.59 243.668 208.59 249.509Z" fill="#FFE597"/>
<path d="M220 249.509C216.27 254.917 217.423 260.085 212.273 260.085C207.122 260.085 206.145 255.35 206.145 249.509C206.145 243.668 207.122 238.933 212.273 238.933C218.401 243.107 220 243.668 220 249.509Z" fill="#FFE597"/>
<path d="M170.285 233.643C166.335 240.403 167.557 246.863 162.103 246.863C156.65 246.863 155.614 240.944 155.614 233.643C155.614 226.342 156.65 220.423 162.103 220.423C168.592 225.641 170.285 226.342 170.285 233.643Z" fill="#FFE597"/>
<path d="M182.507 232.322C178.777 237.73 179.93 242.898 174.78 242.898C169.629 242.898 168.651 238.163 168.651 232.322C168.651 226.481 169.629 221.746 174.78 221.746C180.908 225.921 182.507 226.481 182.507 232.322Z" fill="#FFE597"/>
<path d="M193.919 233.644C189.311 239.052 190.736 244.22 184.374 244.22C178.012 244.22 176.804 239.485 176.804 233.644C176.804 227.802 178.012 223.067 184.374 223.067C191.944 227.242 193.919 227.802 193.919 233.644Z" fill="#FFE597"/>
<path d="M206.143 234.305C201.096 239.375 202.657 244.22 195.689 244.22C188.72 244.22 187.397 239.781 187.397 234.305C187.397 228.829 188.72 224.39 195.689 224.39C203.98 228.304 206.143 228.829 206.143 234.305Z" fill="#FFE597"/>
<path d="M166.209 221.083C162.259 226.153 163.48 230.998 158.027 230.998C152.573 230.998 151.538 226.559 151.538 221.083C151.538 215.607 152.573 211.168 158.027 211.168C164.516 215.082 166.209 215.607 166.209 221.083Z" fill="#FFE597"/>
<path fill-rule="evenodd" clip-rule="evenodd" d="M23.2367 198.406C48.0447 250.643 94.0434 286.445 147.37 288.125C200.696 289.805 248.121 256.945 275.064 206.338L23.2367 198.406ZM3.71652 104C3.70973 104.277 3.70345 104.554 3.6977 104.831C3.69194 105.109 3.6867 105.386 3.68199 105.663L3.71652 104Z" fill="#804141"/>
<g filter="url(#filter0_d)">
<path d="M149.161 9.31823C125.587 8.48784 109 -4.02751 109 39.0257C109 62.5766 125.173 75.5166 137.447 83.587C153.222 93.9593 152.508 112.667 152.508 135.575C152.508 149.591 124.983 185.341 119.04 167.758" stroke="url(#paint0_diamond)" stroke-width="6" stroke-linecap="round" stroke-linejoin="round"/>
</g>
<defs>
<filter id="filter0_d" x="98" y="0" width="65.5132" height="187.519" filterUnits="userSpaceOnUse" color-interpolation-filters="sRGB">
<feFlood flood-opacity="0" result="BackgroundImageFix"/>
<feColorMatrix in="SourceAlpha" type="matrix" values="0 0 0 0 0 0 0 0 0 0 0 0 0 0 0 0 0 0 127 0"/>
<feOffset dy="4"/>
<feGaussianBlur stdDeviation="4"/>
<feColorMatrix type="matrix" values="0 0 0 0 0 0 0 0 0 0 0 0 0 0 0 0 0 0 0.25 0"/>
<feBlend mode="normal" in2="BackgroundImageFix" result="effect1_dropShadow"/>
<feBlend mode="normal" in="SourceGraphic" in2="effect1_dropShadow" result="shape"/>
</filter>
<radialGradient id="paint0_diamond" cx="0" cy="0" r="1" gradientUnits="userSpaceOnUse" gradientTransform="translate(130.756 89.7597) rotate(90) scale(82.7597 21.7562)">
<stop stop-color="#2D3055"/>
<stop offset="1" stop-opacity="0"/>
</radialGradient>
</defs>
</svg>
