<svg width="146" height="177" viewBox="0 0 146 177" fill="none" xmlns="http://www.w3.org/2000/svg">
<path d="M45.7338 142.453C44.3471 144.683 44.7759 146.815 42.8612 146.815C40.9465 146.815 40.583 144.862 40.583 142.453C40.583 140.044 40.9465 138.092 42.8612 138.092C45.1395 139.813 45.7338 140.044 45.7338 142.453Z" fill="#FFE597"/>
<path d="M64.4065 141.659C56.7794 145.917 59.1383 149.986 48.6074 149.986C38.0766 149.986 36.0771 146.258 36.0771 141.659C36.0771 137.061 38.0766 133.333 48.6074 133.333C61.1378 136.62 64.4065 137.061 64.4065 141.659Z" fill="#FFE597"/>
<path d="M41.8698 142.452C38.0562 146.305 39.2357 149.986 33.9702 149.986C28.7048 149.986 27.7051 146.613 27.7051 142.452C27.7051 138.292 28.7048 134.919 33.9702 134.919C40.2354 137.893 41.8698 138.292 41.8698 142.452Z" fill="#FFE597"/>
<path d="M30.9251 142.849C27.2849 146.904 28.4108 150.779 23.3847 150.779C18.3586 150.779 17.4043 147.229 17.4043 142.849C17.4043 138.469 18.3586 134.919 23.3847 134.919C29.365 138.049 30.9251 138.469 30.9251 142.849Z" fill="#FFE597"/>
<path d="M36.0758 132.54C32.2623 136.595 33.4417 140.47 28.1763 140.47C22.9108 140.47 21.9111 136.919 21.9111 132.54C21.9111 128.16 22.9108 124.61 28.1763 124.61C34.4414 127.74 36.0758 128.16 36.0758 132.54Z" fill="#FFE597"/>
<path d="M47.6663 132.54C44.0261 136.595 45.152 140.47 40.1259 140.47C35.0998 140.47 34.1455 136.919 34.1455 132.54C34.1455 128.16 35.0998 124.61 40.1259 124.61C46.1062 127.74 47.6663 128.16 47.6663 132.54Z" fill="#FFE597"/>
<path d="M58.6117 132.54C54.9714 136.595 56.0973 140.47 51.0712 140.47C46.0451 140.47 45.0908 136.919 45.0908 132.54C45.0908 128.16 46.0451 124.61 51.0712 124.61C57.0516 127.74 58.6117 128.16 58.6117 132.54Z" fill="#FFE597"/>
<path d="M70.846 139.28C67.2058 143.133 68.3317 146.814 63.3056 146.814C58.2795 146.814 57.3252 143.441 57.3252 139.28C57.3252 135.12 58.2795 131.747 63.3056 131.747C69.2859 134.721 70.846 135.12 70.846 139.28Z" fill="#FFE597"/>
<path d="M81.1458 136.901C77.5056 140.754 78.6315 144.435 73.6054 144.435C68.5793 144.435 67.625 141.062 67.625 136.901C67.625 132.741 68.5793 129.368 73.6054 129.368C79.5857 132.341 81.1458 132.741 81.1458 136.901Z" fill="#FFE597"/>
<path d="M79.2157 126.592C74.7087 130.445 76.1026 134.126 69.8799 134.126C63.6571 134.126 62.4756 130.753 62.4756 126.592C62.4756 122.432 63.6571 119.059 69.8799 119.059C77.2841 122.033 79.2157 122.432 79.2157 126.592Z" fill="#FFE597"/>
<path d="M66.9801 125.403C63.1665 129.458 64.346 133.333 59.0806 133.333C53.8151 133.333 52.8154 129.782 52.8154 125.403C52.8154 121.023 53.8151 117.473 59.0806 117.473C65.3457 120.603 66.9801 121.023 66.9801 125.403Z" fill="#FFE597"/>
<path d="M57.3229 124.611C53.5093 128.666 54.6888 132.541 49.4234 132.541C44.1579 132.541 43.1582 128.99 43.1582 124.611C43.1582 120.231 44.1579 116.681 49.4234 116.681C55.6885 119.811 57.3229 120.231 57.3229 124.611Z" fill="#FFE597"/>
<path d="M47.6663 123.42C44.0261 127.273 45.152 130.954 40.1259 130.954C35.0998 130.954 34.1455 127.581 34.1455 123.42C34.1455 119.26 35.0998 115.887 40.1259 115.887C46.1062 118.86 47.6663 119.26 47.6663 123.42Z" fill="#FFE597"/>
<path d="M55.3913 114.3C51.5777 118.355 52.7572 122.23 47.4917 122.23C42.2263 122.23 41.2266 118.68 41.2266 114.3C41.2266 109.921 42.2263 106.37 47.4917 106.37C53.7569 109.501 55.3913 109.921 55.3913 114.3Z" fill="#FFE597"/>
<path d="M62.4759 104.388C58.8357 108.241 59.9616 111.922 54.9354 111.922C49.9093 111.922 48.9551 108.549 48.9551 104.388C48.9551 100.228 49.9093 96.855 54.9354 96.855C60.9158 99.8287 62.4759 100.228 62.4759 104.388Z" fill="#FFE597"/>
<path d="M70.2008 95.2684C66.3873 99.3235 67.5667 103.198 62.3013 103.198C57.0358 103.198 56.0361 99.648 56.0361 95.2684C56.0361 90.8888 57.0358 87.3384 62.3013 87.3384C68.5664 90.4686 70.2008 90.8888 70.2008 95.2684Z" fill="#FFE597"/>
<path d="M73.4196 104.388C69.606 108.241 70.7855 111.922 65.52 111.922C60.2546 111.922 59.2549 108.549 59.2549 104.388C59.2549 100.228 60.2546 96.855 65.52 96.855C71.7852 99.8287 73.4196 100.228 73.4196 104.388Z" fill="#FFE597"/>
<path d="M81.7897 100.423C77.9761 104.275 79.1556 107.957 73.8902 107.957C68.6247 107.957 67.625 104.584 67.625 100.423C67.625 96.2625 68.6247 92.8896 73.8902 92.8896C80.1553 95.8634 81.7897 96.2625 81.7897 100.423Z" fill="#FFE597"/>
<path d="M93.3807 108.75C88.8738 114.022 90.2677 119.059 84.0449 119.059C77.8221 119.059 76.6406 114.443 76.6406 108.75C76.6406 103.056 77.8221 98.4409 84.0449 98.4409C91.4492 102.51 93.3807 103.056 93.3807 108.75Z" fill="#FFE597"/>
<path d="M105.612 124.611C101.971 128.666 103.097 132.541 98.0712 132.541C93.0451 132.541 92.0908 128.99 92.0908 124.611C92.0908 120.231 93.0451 116.681 98.0712 116.681C104.052 119.811 105.612 120.231 105.612 124.611Z" fill="#FFE597"/>
<path d="M94.6647 125.403C90.8511 129.458 92.0306 133.333 86.7652 133.333C81.4997 133.333 80.5 129.782 80.5 125.403C80.5 121.023 81.4997 117.473 86.7652 117.473C93.0303 120.603 94.6647 121.023 94.6647 125.403Z" fill="#FFE597"/>
<path d="M66.9801 118.266C63.1665 122.321 64.346 126.196 59.0806 126.196C53.8151 126.196 52.8154 122.646 52.8154 118.266C52.8154 113.886 53.8151 110.336 59.0806 110.336C65.3457 113.466 66.9801 113.886 66.9801 118.266Z" fill="#FFE597"/>
<path d="M80.5013 114.3C76.8611 118.355 77.9869 122.23 72.9608 122.23C67.9347 122.23 66.9805 118.68 66.9805 114.3C66.9805 109.921 67.9347 106.37 72.9608 106.37C78.9412 109.501 80.5013 109.921 80.5013 114.3Z" fill="#FFE597"/>
<path d="M88.2291 119.059C84.4156 123.114 85.595 126.989 80.3296 126.989C75.0642 126.989 74.0645 123.439 74.0645 119.059C74.0645 114.68 75.0642 111.129 80.3296 111.129C86.5948 114.26 88.2291 114.68 88.2291 119.059Z" fill="#FFE597"/>
<path d="M100.461 119.059C96.647 123.114 97.8265 126.989 92.561 126.989C87.2956 126.989 86.2959 123.439 86.2959 119.059C86.2959 114.68 87.2956 111.129 92.561 111.129C98.8262 114.26 100.461 114.68 100.461 119.059Z" fill="#FFE597"/>
<path d="M113.982 123.42C110.169 127.273 111.348 130.954 106.083 130.954C100.817 130.954 99.8174 127.581 99.8174 123.42C99.8174 119.26 100.817 115.887 106.083 115.887C112.348 118.86 113.982 119.26 113.982 123.42Z" fill="#FFE597"/>
<path d="M59.8995 144.832C58.6861 147.062 59.0614 149.193 57.386 149.193C55.7107 149.193 55.3926 147.241 55.3926 144.832C55.3926 142.423 55.7107 140.47 57.386 140.47C59.3795 142.192 59.8995 142.423 59.8995 144.832Z" fill="#FFE597"/>
<path d="M62.4747 145.623C61.2613 147.854 61.6366 149.985 59.9612 149.985C58.2859 149.985 57.9678 148.032 57.9678 145.623C57.9678 143.214 58.2859 141.262 59.9612 141.262C61.9547 142.983 62.4747 143.214 62.4747 145.623Z" fill="#FFE597"/>
<path d="M64.4054 144.832C63.192 147.062 63.5673 149.193 61.8919 149.193C60.2165 149.193 59.8984 147.241 59.8984 144.832C59.8984 142.423 60.2165 140.47 61.8919 140.47C63.8854 142.192 64.4054 142.423 64.4054 144.832Z" fill="#FFE597"/>
<path d="M62.4747 108.75C61.2613 111.183 61.6366 113.508 59.9612 113.508C58.2859 113.508 57.9678 111.377 57.9678 108.75C57.9678 106.122 58.2859 103.992 59.9612 103.992C61.9547 105.87 62.4747 106.122 62.4747 108.75Z" fill="#FFE597"/>
<path d="M66.337 110.336C65.1236 112.769 65.4989 115.094 63.8235 115.094C62.1482 115.094 61.8301 112.964 61.8301 110.336C61.8301 107.708 62.1482 105.578 63.8235 105.578C65.817 107.456 66.337 107.708 66.337 110.336Z" fill="#FFE597"/>
<path d="M68.9132 115.491C67.6998 117.721 68.0751 119.852 66.3997 119.852C64.7243 119.852 64.4062 117.9 64.4062 115.491C64.4062 113.082 64.7243 111.129 66.3997 111.129C68.3932 112.851 68.9132 113.082 68.9132 115.491Z" fill="#FFE597"/>
<path d="M43.1593 145.623C41.9459 147.854 42.3212 149.985 40.6458 149.985C38.9704 149.985 38.6523 148.032 38.6523 145.623C38.6523 143.214 38.9704 141.262 40.6458 141.262C42.6393 142.983 43.1593 143.214 43.1593 145.623Z" fill="#FFE597"/>
<path d="M59.8995 136.108C58.6861 138.339 59.0614 140.47 57.386 140.47C55.7107 140.47 55.3926 138.517 55.3926 136.108C55.3926 133.7 55.7107 131.747 57.386 131.747C59.3795 133.468 59.8995 133.7 59.8995 136.108Z" fill="#FFE597"/>
<path d="M81.1476 142.057C79.9342 144.084 80.3094 146.022 78.6341 146.022C76.9587 146.022 76.6406 144.246 76.6406 142.057C76.6406 139.867 76.9587 138.092 78.6341 138.092C80.6275 139.657 81.1476 139.867 81.1476 142.057Z" fill="#FFE597"/>
<path d="M90.8028 139.28C89.5894 141.511 89.9647 143.642 88.2894 143.642C86.614 143.642 86.2959 141.689 86.2959 139.28C86.2959 136.872 86.614 134.919 88.2894 134.919C90.2828 136.641 90.8028 136.872 90.8028 139.28Z" fill="#FFE597"/>
<path d="M110.12 140.073C108.733 142.304 109.162 144.435 107.247 144.435C105.332 144.435 104.969 142.482 104.969 140.073C104.969 137.665 105.332 135.712 107.247 135.712C109.525 137.434 110.12 137.665 110.12 140.073Z" fill="#FFE597"/>
<path d="M79.8585 106.767C78.6451 108.997 79.0204 111.128 77.345 111.128C75.6697 111.128 75.3516 109.175 75.3516 106.767C75.3516 104.358 75.6697 102.405 77.345 102.405C79.3385 104.127 79.8585 104.358 79.8585 106.767Z" fill="#FFE597"/>
<path d="M79.8586 145.623C75.6984 147.854 76.9851 149.985 71.241 149.985C65.4968 149.985 64.4062 148.032 64.4062 145.623C64.4062 143.214 65.4968 141.262 71.241 141.262C78.0757 142.983 79.8586 143.214 79.8586 145.623Z" fill="#FFE597"/>
<path d="M81.1476 147.209C79.9342 149.44 80.3094 151.571 78.6341 151.571C76.9587 151.571 76.6406 149.618 76.6406 147.209C76.6406 144.801 76.9587 142.848 78.6341 142.848C80.6275 144.57 81.1476 144.801 81.1476 147.209Z" fill="#FFE597"/>
<path d="M83.7208 146.417C82.5074 148.647 82.8827 150.779 81.2073 150.779C79.532 150.779 79.2139 148.826 79.2139 146.417C79.2139 144.008 79.532 142.056 81.2073 142.056C83.2008 143.777 83.7208 144.008 83.7208 146.417Z" fill="#FFE597"/>
<path d="M88.8713 145.623C86.4445 147.854 87.1951 149.985 83.8443 149.985C80.4936 149.985 79.8574 148.032 79.8574 145.623C79.8574 143.214 80.4936 141.262 83.8443 141.262C87.8312 142.983 88.8713 143.214 88.8713 145.623Z" fill="#FFE597"/>
<path d="M90.8028 144.832C89.5894 147.062 89.9647 149.193 88.2894 149.193C86.614 149.193 86.2959 147.241 86.2959 144.832C86.2959 142.423 86.614 140.47 88.2894 140.47C90.2828 142.192 90.8028 142.423 90.8028 144.832Z" fill="#FFE597"/>
<path d="M93.3771 144.832C92.1637 147.062 92.5389 149.193 90.8636 149.193C89.1882 149.193 88.8701 147.241 88.8701 144.832C88.8701 142.423 89.1882 140.47 90.8636 140.47C92.857 142.192 93.3771 142.423 93.3771 144.832Z" fill="#FFE597"/>
<path d="M101.748 145.228C98.8013 148.472 99.7127 151.572 95.644 151.572C91.5752 151.572 90.8027 148.732 90.8027 145.228C90.8027 141.724 91.5752 138.884 95.644 138.884C100.485 141.388 101.748 141.724 101.748 145.228Z" fill="#FFE597"/>
<path d="M110.12 145.625C106.999 149.477 107.964 153.159 103.656 153.159C99.3482 153.159 98.5303 149.786 98.5303 145.625C98.5303 141.464 99.3482 138.092 103.656 138.092C108.782 141.065 110.12 141.464 110.12 145.625Z" fill="#FFE597"/>
<path d="M119.776 145.228C116.83 148.472 117.741 151.572 113.672 151.572C109.604 151.572 108.831 148.732 108.831 145.228C108.831 141.724 109.604 138.884 113.672 138.884C118.514 141.388 119.776 141.724 119.776 145.228Z" fill="#FFE597"/>
<path d="M128.79 145.228C125.843 148.472 126.755 151.572 122.686 151.572C118.617 151.572 117.845 148.732 117.845 145.228C117.845 141.724 118.617 138.884 122.686 138.884C127.527 141.388 128.79 141.724 128.79 145.228Z" fill="#FFE597"/>
<path d="M89.517 135.712C86.3968 139.767 87.3619 143.642 83.0538 143.642C78.7457 143.642 77.9277 140.091 77.9277 135.712C77.9277 131.332 78.7457 127.782 83.0538 127.782C88.1798 130.912 89.517 131.332 89.517 135.712Z" fill="#FFE597"/>
<path d="M99.172 134.919C96.2252 138.163 97.1366 141.263 93.0678 141.263C88.9991 141.263 88.2266 138.422 88.2266 134.919C88.2266 131.415 88.9991 128.575 93.0678 128.575C97.9091 131.079 99.172 131.415 99.172 134.919Z" fill="#FFE597"/>
<path d="M108.187 135.712C104.547 138.956 105.672 142.056 100.646 142.056C95.6203 142.056 94.666 139.215 94.666 135.712C94.666 132.208 95.6203 129.368 100.646 129.368C106.627 131.872 108.187 132.208 108.187 135.712Z" fill="#FFE597"/>
<path d="M117.844 136.108C113.857 139.149 115.09 142.056 109.585 142.056C104.08 142.056 103.035 139.393 103.035 136.108C103.035 132.823 104.08 130.161 109.585 130.161C116.135 132.508 117.844 132.823 117.844 136.108Z" fill="#FFE597"/>
<path d="M86.2963 128.177C83.1761 131.219 84.1412 134.125 79.8331 134.125C75.525 134.125 74.707 131.462 74.707 128.177C74.707 124.893 75.525 122.23 79.8331 122.23C84.9591 124.578 86.2963 124.893 86.2963 128.177Z" fill="#FFE597"/>
<path fill-rule="evenodd" clip-rule="evenodd" d="M1.03117 122.603C15.3067 152.95 41.7827 173.743 72.4809 174.71C103.179 175.677 130.484 156.578 146 127.17L1.03117 122.603Z" fill="#804141"/>
<g filter="url(#filter0_d)">
<path d="M60.1755 8.04916C49.5066 7.67335 42 2.00931 42 21.4938C42 32.1522 49.3195 38.0084 54.8743 41.6608C62.0135 46.355 61.6901 54.8214 61.6901 65.189C61.6901 71.532 49.2332 87.7115 46.5439 79.754" stroke="url(#paint0_diamond)" stroke-width="6" stroke-linecap="round" stroke-linejoin="round"/>
</g>
<g filter="url(#filter1_d)">
<path d="M81.3807 12.531C70.2491 15.7443 69.2637 18.2046 69.2637 33.8184C69.2637 40.3654 74.1535 46.5522 77.5941 50.6242C84.4679 58.7597 83.8459 95.4397 72.2929 95.4397" stroke="url(#paint1_diamond)" stroke-width="6" stroke-linecap="round" stroke-linejoin="round"/>
</g>
<defs>
<filter id="filter0_d" x="31" y="0.000244141" width="41.6931" height="96.9084" filterUnits="userSpaceOnUse" color-interpolation-filters="sRGB">
<feFlood flood-opacity="0" result="BackgroundImageFix"/>
<feColorMatrix in="SourceAlpha" type="matrix" values="0 0 0 0 0 0 0 0 0 0 0 0 0 0 0 0 0 0 127 0"/>
<feOffset dy="4"/>
<feGaussianBlur stdDeviation="4"/>
<feColorMatrix type="matrix" values="0 0 0 0 0 0 0 0 0 0 0 0 0 0 0 0 0 0 0.25 0"/>
<feBlend mode="normal" in2="BackgroundImageFix" result="effect1_dropShadow"/>
<feBlend mode="normal" in="SourceGraphic" in2="effect1_dropShadow" result="shape"/>
</filter>
<filter id="filter1_d" x="58.2637" y="5.53027" width="34.7702" height="104.91" filterUnits="userSpaceOnUse" color-interpolation-filters="sRGB">
<feFlood flood-opacity="0" result="BackgroundImageFix"/>
<feColorMatrix in="SourceAlpha" type="matrix" values="0 0 0 0 0 0 0 0 0 0 0 0 0 0 0 0 0 0 127 0"/>
<feOffset dy="4"/>
<feGaussianBlur stdDeviation="4"/>
<feColorMatrix type="matrix" values="0 0 0 0 0 0 0 0 0 0 0 0 0 0 0 0 0 0 0.25 0"/>
<feBlend mode="normal" in2="BackgroundImageFix" result="effect1_dropShadow"/>
<feBlend mode="normal" in="SourceGraphic" in2="effect1_dropShadow" result="shape"/>
</filter>
<radialGradient id="paint0_diamond" cx="0" cy="0" r="1" gradientUnits="userSpaceOnUse" gradientTransform="translate(51.8462 44.4544) rotate(90) scale(37.4544 9.84616)">
<stop stop-color="#2D3055"/>
<stop offset="1" stop-opacity="0"/>
</radialGradient>
<radialGradient id="paint1_diamond" cx="0" cy="0" r="1" gradientUnits="userSpaceOnUse" gradientTransform="translate(75.6488 53.9854) rotate(90) scale(41.4544 6.3851)">
<stop stop-color="#2D3055"/>
<stop offset="1" stop-opacity="0"/>
</radialGradient>
</defs>
</svg>
