<svg width="193" height="220" viewBox="0 0 193 220" fill="none" xmlns="http://www.w3.org/2000/svg">
<path d="M152.375 72.1874C152.375 109.846 121.846 140.375 84.1874 140.375C46.5285 140.375 16 109.846 16 72.1874C16 34.5286 46.5285 4 84.1874 4C121.846 4 152.375 34.5286 152.375 72.1874Z" fill="#FFE597" stroke="#EC7C19" stroke-width="8"/>
<ellipse cx="59.8931" cy="54.1406" rx="10.4117" ry="10.8281" fill="#EC7C19"/>
<ellipse cx="102.928" cy="54.1406" rx="10.4117" ry="10.8281" fill="#EC7C19"/>
<path d="M61.9766 98.8965C73.0823 109.003 84.8822 107.559 84.8822 107.559" stroke="#EC7C19" stroke-width="12" stroke-linecap="round" stroke-linejoin="round"/>
<path d="M3.76211 159.6H16.9121C18.7454 159.6 20.4788 159.767 22.1121 160.1C23.7454 160.433 25.1621 161.017 26.3621 161.85C27.5954 162.65 28.5621 163.75 29.2621 165.15C29.9954 166.517 30.3621 168.25 30.3621 170.35C30.3621 172.417 30.0288 174.15 29.3621 175.55C28.6954 176.95 27.7788 178.067 26.6121 178.9C25.4454 179.733 24.0621 180.333 22.4621 180.7C20.8621 181.033 19.1288 181.2 17.2621 181.2H11.5621V195H3.76211V159.6ZM11.5621 174.6H16.7621C17.4621 174.6 18.1288 174.533 18.7621 174.4C19.4288 174.267 20.0121 174.05 20.5121 173.75C21.0454 173.417 21.4621 172.983 21.7621 172.45C22.0954 171.883 22.2621 171.183 22.2621 170.35C22.2621 169.45 22.0454 168.733 21.6121 168.2C21.2121 167.633 20.6788 167.2 20.0121 166.9C19.3788 166.6 18.6621 166.417 17.8621 166.35C17.0621 166.25 16.2954 166.2 15.5621 166.2H11.5621V174.6ZM49.5563 191.95H49.4563C48.6229 193.25 47.5063 194.183 46.1063 194.75C44.7396 195.317 43.2896 195.6 41.7563 195.6C40.6229 195.6 39.5229 195.433 38.4563 195.1C37.4229 194.8 36.5063 194.333 35.7063 193.7C34.9063 193.067 34.2729 192.283 33.8063 191.35C33.3396 190.417 33.1063 189.333 33.1063 188.1C33.1063 186.7 33.3563 185.517 33.8563 184.55C34.3896 183.583 35.0896 182.783 35.9563 182.15C36.8563 181.517 37.8729 181.033 39.0062 180.7C40.1396 180.333 41.3063 180.067 42.5063 179.9C43.7396 179.733 44.9563 179.633 46.1563 179.6C47.3896 179.567 48.5229 179.55 49.5563 179.55C49.5563 178.217 49.0729 177.167 48.1063 176.4C47.1729 175.6 46.0563 175.2 44.7563 175.2C43.5229 175.2 42.3896 175.467 41.3563 176C40.3563 176.5 39.4563 177.2 38.6563 178.1L34.6563 174C36.0563 172.7 37.6896 171.733 39.5563 171.1C41.4229 170.433 43.3563 170.1 45.3563 170.1C47.5563 170.1 49.3563 170.383 50.7563 170.95C52.1896 171.483 53.3229 172.283 54.1563 173.35C55.0229 174.417 55.6229 175.733 55.9563 177.3C56.2896 178.833 56.4563 180.617 56.4563 182.65V195H49.5563V191.95ZM47.7063 184.35C47.1396 184.35 46.4229 184.383 45.5563 184.45C44.7229 184.483 43.9063 184.617 43.1063 184.85C42.3396 185.083 41.6729 185.433 41.1063 185.9C40.5729 186.367 40.3063 187.017 40.3063 187.85C40.3063 188.75 40.6896 189.417 41.4563 189.85C42.2229 190.283 43.0229 190.5 43.8563 190.5C44.5896 190.5 45.2896 190.4 45.9563 190.2C46.6563 190 47.2729 189.717 47.8063 189.35C48.3396 188.983 48.7563 188.517 49.0563 187.95C49.3896 187.383 49.5563 186.717 49.5563 185.95V184.35H47.7063ZM61.1617 170.7H68.6617V174.6H68.7617C69.5617 173.1 70.5117 171.983 71.6117 171.25C72.7117 170.483 74.0951 170.1 75.7617 170.1C76.1951 170.1 76.6284 170.117 77.0617 170.15C77.4951 170.183 77.8951 170.25 78.2617 170.35V177.2C77.7284 177.033 77.1951 176.917 76.6617 176.85C76.1617 176.75 75.6284 176.7 75.0617 176.7C73.6284 176.7 72.4951 176.9 71.6617 177.3C70.8284 177.7 70.1784 178.267 69.7117 179C69.2784 179.7 68.9951 180.55 68.8617 181.55C68.7284 182.55 68.6617 183.65 68.6617 184.85V195H61.1617V170.7ZM98.073 176.7H91.473V184.8C91.473 185.467 91.5064 186.083 91.573 186.65C91.6397 187.183 91.7897 187.65 92.023 188.05C92.2564 188.45 92.6064 188.767 93.073 189C93.573 189.2 94.223 189.3 95.023 189.3C95.423 189.3 95.9397 189.267 96.573 189.2C97.2397 189.1 97.7397 188.9 98.073 188.6V194.85C97.2397 195.15 96.373 195.35 95.473 195.45C94.573 195.55 93.6897 195.6 92.823 195.6C91.5564 195.6 90.3897 195.467 89.323 195.2C88.2564 194.933 87.323 194.517 86.523 193.95C85.723 193.35 85.0897 192.583 84.623 191.65C84.1897 190.717 83.973 189.583 83.973 188.25V176.7H79.173V170.7H83.973V163.5H91.473V170.7H98.073V176.7ZM101.984 170.7H109.484V195H101.984V170.7ZM101.384 163.05C101.384 161.85 101.801 160.833 102.634 160C103.501 159.133 104.534 158.7 105.734 158.7C106.934 158.7 107.951 159.133 108.784 160C109.651 160.833 110.084 161.85 110.084 163.05C110.084 164.25 109.651 165.283 108.784 166.15C107.951 166.983 106.934 167.4 105.734 167.4C104.534 167.4 103.501 166.983 102.634 166.15C101.801 165.283 101.384 164.25 101.384 163.05ZM130.123 191.95H130.023C129.189 193.25 128.073 194.183 126.673 194.75C125.306 195.317 123.856 195.6 122.323 195.6C121.189 195.6 120.089 195.433 119.023 195.1C117.989 194.8 117.073 194.333 116.273 193.7C115.473 193.067 114.839 192.283 114.373 191.35C113.906 190.417 113.673 189.333 113.673 188.1C113.673 186.7 113.923 185.517 114.423 184.55C114.956 183.583 115.656 182.783 116.523 182.15C117.423 181.517 118.439 181.033 119.573 180.7C120.706 180.333 121.873 180.067 123.073 179.9C124.306 179.733 125.523 179.633 126.723 179.6C127.956 179.567 129.089 179.55 130.123 179.55C130.123 178.217 129.639 177.167 128.673 176.4C127.739 175.6 126.623 175.2 125.323 175.2C124.089 175.2 122.956 175.467 121.923 176C120.923 176.5 120.023 177.2 119.223 178.1L115.223 174C116.623 172.7 118.256 171.733 120.123 171.1C121.989 170.433 123.923 170.1 125.923 170.1C128.123 170.1 129.923 170.383 131.323 170.95C132.756 171.483 133.889 172.283 134.723 173.35C135.589 174.417 136.189 175.733 136.523 177.3C136.856 178.833 137.023 180.617 137.023 182.65V195H130.123V191.95ZM128.273 184.35C127.706 184.35 126.989 184.383 126.123 184.45C125.289 184.483 124.473 184.617 123.673 184.85C122.906 185.083 122.239 185.433 121.673 185.9C121.139 186.367 120.873 187.017 120.873 187.85C120.873 188.75 121.256 189.417 122.023 189.85C122.789 190.283 123.589 190.5 124.423 190.5C125.156 190.5 125.856 190.4 126.523 190.2C127.223 190 127.839 189.717 128.373 189.35C128.906 188.983 129.323 188.517 129.623 187.95C129.956 187.383 130.123 186.717 130.123 185.95V184.35H128.273ZM141.828 157.2H149.328V195H141.828V157.2ZM154.816 157.2H162.316V195H154.816V157.2ZM181.705 198.95C181.205 200.25 180.721 201.4 180.255 202.4C179.788 203.4 179.188 204.233 178.455 204.9C177.755 205.6 176.855 206.117 175.755 206.45C174.655 206.817 173.205 207 171.405 207C169.471 207 167.605 206.7 165.805 206.1L166.805 199.95C167.938 200.45 169.105 200.7 170.305 200.7C171.138 200.7 171.821 200.6 172.355 200.4C172.888 200.233 173.321 199.967 173.655 199.6C174.021 199.267 174.321 198.85 174.555 198.35C174.788 197.85 175.038 197.267 175.305 196.6L175.855 195.2L165.205 170.7H173.305L179.555 186.75H179.655L185.005 170.7H192.705L181.705 198.95Z" fill="#FF8D27"/>
</svg>
