<svg width="147" height="196" viewBox="0 0 147 196" fill="none" xmlns="http://www.w3.org/2000/svg">
<path d="M42.3615 139.443C40.7692 141.887 41.2617 144.223 39.0632 144.223C36.8647 144.223 36.4473 142.083 36.4473 139.443C36.4473 136.803 36.8647 134.662 39.0632 134.662C41.6791 136.549 42.3615 136.803 42.3615 139.443Z" fill="#FFE597"/>
<path d="M63.8007 138.573C55.0431 143.24 57.7517 147.699 45.66 147.699C33.5682 147.699 31.2725 143.613 31.2725 138.573C31.2725 133.533 33.5682 129.447 45.66 129.447C60.0475 133.05 63.8007 133.533 63.8007 138.573Z" fill="#FFE597"/>
<path d="M37.9243 139.443C33.5455 143.665 34.8998 147.699 28.8539 147.699C22.808 147.699 21.6602 144.003 21.6602 139.443C21.6602 134.882 22.808 131.186 28.8539 131.186C36.0477 134.445 37.9243 134.882 37.9243 139.443Z" fill="#FFE597"/>
<path d="M25.3569 139.877C21.1771 144.322 22.4698 148.569 16.6988 148.569C10.9277 148.569 9.83203 144.677 9.83203 139.877C9.83203 135.077 10.9277 131.186 16.6988 131.186C23.5656 134.617 25.3569 135.077 25.3569 139.877Z" fill="#FFE597"/>
<path d="M31.2719 128.578C26.8931 133.022 28.2474 137.269 22.2016 137.269C16.1557 137.269 15.0078 133.378 15.0078 128.578C15.0078 123.778 16.1557 119.886 22.2016 119.886C29.3953 123.317 31.2719 123.778 31.2719 128.578Z" fill="#FFE597"/>
<path d="M44.5795 128.578C40.3998 133.022 41.6925 137.269 35.9214 137.269C30.1504 137.269 29.0547 133.378 29.0547 128.578C29.0547 123.778 30.1504 119.886 35.9214 119.886C42.7882 123.317 44.5795 123.778 44.5795 128.578Z" fill="#FFE597"/>
<path d="M57.1469 128.578C52.9672 133.022 54.2599 137.269 48.4888 137.269C42.7178 137.269 41.6221 133.378 41.6221 128.578C41.6221 123.778 42.7178 119.886 48.4888 119.886C55.3556 123.317 57.1469 123.778 57.1469 128.578Z" fill="#FFE597"/>
<path d="M71.1948 135.966C67.015 140.188 68.3077 144.222 62.5367 144.222C56.7656 144.222 55.6699 140.526 55.6699 135.966C55.6699 131.405 56.7656 127.709 62.5367 127.709C69.4034 130.968 71.1948 131.405 71.1948 135.966Z" fill="#FFE597"/>
<path d="M83.0229 133.358C78.8431 137.58 80.1359 141.615 74.3648 141.615C68.5938 141.615 67.498 137.918 67.498 133.358C67.498 128.798 68.5938 125.101 74.3648 125.101C81.2316 128.361 83.0229 128.798 83.0229 133.358Z" fill="#FFE597"/>
<path d="M80.8052 122.059C75.6303 126.281 77.2308 130.316 70.0857 130.316C62.9406 130.316 61.584 126.619 61.584 122.059C61.584 117.499 62.9406 113.802 70.0857 113.802C78.5874 117.062 80.8052 117.499 80.8052 122.059Z" fill="#FFE597"/>
<path d="M66.7563 120.756C62.3775 125.2 63.7318 129.447 57.6859 129.447C51.6401 129.447 50.4922 125.556 50.4922 120.756C50.4922 115.956 51.6401 112.064 57.6859 112.064C64.8797 115.495 66.7563 115.956 66.7563 120.756Z" fill="#FFE597"/>
<path d="M55.6665 119.887C51.2877 124.331 52.642 128.578 46.5961 128.578C40.5502 128.578 39.4023 124.687 39.4023 119.887C39.4023 115.087 40.5502 111.196 46.5961 111.196C53.7898 114.626 55.6665 115.087 55.6665 119.887Z" fill="#FFE597"/>
<path d="M44.5795 118.583C40.3998 122.805 41.6925 126.839 35.9214 126.839C30.1504 126.839 29.0547 123.143 29.0547 118.583C29.0547 114.022 30.1504 110.326 35.9214 110.326C42.7882 113.585 44.5795 114.022 44.5795 118.583Z" fill="#FFE597"/>
<path d="M53.4497 108.587C49.0709 113.032 50.4252 117.279 44.3793 117.279C38.3334 117.279 37.1855 113.388 37.1855 108.587C37.1855 103.787 38.3334 99.896 44.3793 99.896C51.573 103.327 53.4497 103.787 53.4497 108.587Z" fill="#FFE597"/>
<path d="M61.5834 97.7236C57.4037 101.946 58.6964 105.98 52.9254 105.98C47.1543 105.98 46.0586 102.284 46.0586 97.7236C46.0586 93.1635 47.1543 89.4668 52.9254 89.4668C59.7921 92.7261 61.5834 93.1635 61.5834 97.7236Z" fill="#FFE597"/>
<path d="M70.4546 87.728C66.0758 92.1724 67.43 96.4194 61.3842 96.4194C55.3383 96.4194 54.1904 92.5281 54.1904 87.728C54.1904 82.9279 55.3383 79.0366 61.3842 79.0366C68.5779 82.4674 70.4546 82.9279 70.4546 87.728Z" fill="#FFE597"/>
<path d="M74.1509 97.7236C69.772 101.946 71.1263 105.98 65.0805 105.98C59.0346 105.98 57.8867 102.284 57.8867 97.7236C57.8867 93.1635 59.0346 89.4668 65.0805 89.4668C72.2742 92.7261 74.1509 93.1635 74.1509 97.7236Z" fill="#FFE597"/>
<path d="M83.7622 93.3779C79.3834 97.6001 80.7377 101.635 74.6918 101.635C68.6459 101.635 67.498 97.938 67.498 93.3779C67.498 88.8178 68.6459 85.1211 74.6918 85.1211C81.8855 88.3804 83.7622 88.8178 83.7622 93.3779Z" fill="#FFE597"/>
<path d="M97.0699 102.504C91.8949 108.281 93.4955 113.802 86.3503 113.802C79.2052 113.802 77.8486 108.744 77.8486 102.504C77.8486 96.2635 79.2052 91.2048 86.3503 91.2048C94.852 95.6649 97.0699 96.2635 97.0699 102.504Z" fill="#FFE597"/>
<path d="M111.115 119.887C106.935 124.331 108.228 128.578 102.457 128.578C96.6856 128.578 95.5898 124.687 95.5898 119.887C95.5898 115.087 96.6856 111.196 102.457 111.196C109.323 114.626 111.115 115.087 111.115 119.887Z" fill="#FFE597"/>
<path d="M98.5454 120.756C94.1666 125.2 95.5209 129.447 89.475 129.447C83.4291 129.447 82.2812 125.556 82.2812 120.756C82.2812 115.956 83.4291 112.064 89.475 112.064C96.6688 115.495 98.5454 115.956 98.5454 120.756Z" fill="#FFE597"/>
<path d="M66.7563 112.933C62.3775 117.378 63.7318 121.625 57.6859 121.625C51.6401 121.625 50.4922 117.733 50.4922 112.933C50.4922 108.133 51.6401 104.242 57.6859 104.242C64.8797 107.673 66.7563 108.133 66.7563 112.933Z" fill="#FFE597"/>
<path d="M82.2817 108.587C78.1019 113.032 79.3947 117.279 73.6236 117.279C67.8525 117.279 66.7568 113.388 66.7568 108.587C66.7568 103.787 67.8525 99.896 73.6236 99.896C80.4904 103.327 82.2817 103.787 82.2817 108.587Z" fill="#FFE597"/>
<path d="M91.1548 113.803C86.776 118.248 88.1302 122.495 82.0844 122.495C76.0385 122.495 74.8906 118.603 74.8906 113.803C74.8906 109.003 76.0385 105.112 82.0844 105.112C89.2781 108.543 91.1548 109.003 91.1548 113.803Z" fill="#FFE597"/>
<path d="M105.199 113.803C100.82 118.248 102.174 122.495 96.1283 122.495C90.0825 122.495 88.9346 118.603 88.9346 113.803C88.9346 109.003 90.0825 105.112 96.1283 105.112C103.322 108.543 105.199 109.003 105.199 113.803Z" fill="#FFE597"/>
<path d="M120.724 118.583C116.345 122.805 117.7 126.839 111.654 126.839C105.608 126.839 104.46 123.143 104.46 118.583C104.46 114.022 105.608 110.326 111.654 110.326C118.847 113.585 120.724 114.022 120.724 118.583Z" fill="#FFE597"/>
<path d="M58.6261 142.05C57.2329 144.494 57.6638 146.83 55.7401 146.83C53.8164 146.83 53.4512 144.69 53.4512 142.05C53.4512 139.41 53.8164 137.27 55.7401 137.27C58.029 139.157 58.6261 139.41 58.6261 142.05Z" fill="#FFE597"/>
<path d="M61.5832 142.918C60.1899 145.362 60.6208 147.698 58.6971 147.698C56.7734 147.698 56.4082 145.558 56.4082 142.918C56.4082 140.278 56.7734 138.138 58.6971 138.138C60.986 140.025 61.5832 140.278 61.5832 142.918Z" fill="#FFE597"/>
<path d="M63.8009 142.05C62.4077 144.494 62.8386 146.83 60.9149 146.83C58.9912 146.83 58.626 144.69 58.626 142.05C58.626 139.41 58.9912 137.27 60.9149 137.27C63.2038 139.157 63.8009 139.41 63.8009 142.05Z" fill="#FFE597"/>
<path d="M61.5832 102.504C60.1899 105.17 60.6208 107.718 58.6971 107.718C56.7734 107.718 56.4082 105.384 56.4082 102.504C56.4082 99.6236 56.7734 97.2888 58.6971 97.2888C60.986 99.3473 61.5832 99.6236 61.5832 102.504Z" fill="#FFE597"/>
<path d="M66.0177 104.242C64.6245 106.909 65.0554 109.457 63.1317 109.457C61.208 109.457 60.8428 107.122 60.8428 104.242C60.8428 101.362 61.208 99.0273 63.1317 99.0273C65.4206 101.086 66.0177 101.362 66.0177 104.242Z" fill="#FFE597"/>
<path d="M68.9757 109.892C67.5825 112.337 68.0134 114.672 66.0897 114.672C64.166 114.672 63.8008 112.532 63.8008 109.892C63.8008 107.252 64.166 105.112 66.0897 105.112C68.3786 106.999 68.9757 107.252 68.9757 109.892Z" fill="#FFE597"/>
<path d="M39.4054 142.918C38.0122 145.362 38.4431 147.698 36.5194 147.698C34.5957 147.698 34.2305 145.558 34.2305 142.918C34.2305 140.278 34.5957 138.138 36.5194 138.138C38.8083 140.025 39.4054 140.278 39.4054 142.918Z" fill="#FFE597"/>
<path d="M58.6261 132.489C57.2329 134.933 57.6638 137.269 55.7401 137.269C53.8164 137.269 53.4512 135.129 53.4512 132.489C53.4512 129.849 53.8164 127.709 55.7401 127.709C58.029 129.596 58.6261 129.849 58.6261 132.489Z" fill="#FFE597"/>
<path d="M83.0236 139.008C81.6303 141.23 82.0612 143.354 80.1376 143.354C78.2139 143.354 77.8486 141.408 77.8486 139.008C77.8486 136.608 78.2139 134.662 80.1376 134.662C82.4265 136.378 83.0236 136.608 83.0236 139.008Z" fill="#FFE597"/>
<path d="M94.1095 135.966C92.7163 138.41 93.1472 140.746 91.2235 140.746C89.2998 140.746 88.9346 138.606 88.9346 135.966C88.9346 133.326 89.2998 131.186 91.2235 131.186C93.5124 133.073 94.1095 133.326 94.1095 135.966Z" fill="#FFE597"/>
<path d="M116.289 136.835C114.697 139.279 115.189 141.615 112.991 141.615C110.792 141.615 110.375 139.475 110.375 136.835C110.375 134.195 110.792 132.054 112.991 132.054C115.607 133.941 116.289 134.195 116.289 136.835Z" fill="#FFE597"/>
<path d="M81.5431 100.33C80.1499 102.774 80.5808 105.11 78.6571 105.11C76.7334 105.11 76.3682 102.97 76.3682 100.33C76.3682 97.6898 76.7334 95.5496 78.6571 95.5496C80.946 97.4365 81.5431 97.6898 81.5431 100.33Z" fill="#FFE597"/>
<path d="M81.5435 142.918C76.7666 145.362 78.244 147.698 71.6485 147.698C65.053 147.698 63.8008 145.558 63.8008 142.918C63.8008 140.278 65.053 138.138 71.6485 138.138C79.4962 140.025 81.5435 140.278 81.5435 142.918Z" fill="#FFE597"/>
<path d="M83.0236 144.656C81.6303 147.1 82.0612 149.436 80.1376 149.436C78.2139 149.436 77.8486 147.296 77.8486 144.656C77.8486 142.016 78.2139 139.876 80.1376 139.876C82.4265 141.763 83.0236 142.016 83.0236 144.656Z" fill="#FFE597"/>
<path d="M85.9796 143.787C84.5864 146.232 85.0173 148.568 83.0936 148.568C81.1699 148.568 80.8047 146.427 80.8047 143.787C80.8047 141.147 81.1699 139.007 83.0936 139.007C85.3825 140.894 85.9796 141.147 85.9796 143.787Z" fill="#FFE597"/>
<path d="M91.8929 142.918C89.1064 145.362 89.9682 147.698 86.1208 147.698C82.2734 147.698 81.543 145.558 81.543 142.918C81.543 140.278 82.2734 138.138 86.1208 138.138C90.6987 140.025 91.8929 140.278 91.8929 142.918Z" fill="#FFE597"/>
<path d="M94.1095 142.05C92.7163 144.494 93.1472 146.83 91.2235 146.83C89.2998 146.83 88.9346 144.69 88.9346 142.05C88.9346 139.41 89.2998 137.27 91.2235 137.27C93.5124 139.157 94.1095 139.41 94.1095 142.05Z" fill="#FFE597"/>
<path d="M97.0666 142.05C95.6733 144.494 96.1042 146.83 94.1805 146.83C92.2568 146.83 91.8916 144.69 91.8916 142.05C91.8916 139.41 92.2568 137.27 94.1805 137.27C96.4694 139.157 97.0666 139.41 97.0666 142.05Z" fill="#FFE597"/>
<path d="M106.677 142.485C103.293 146.04 104.34 149.438 99.6682 149.438C94.9964 149.438 94.1094 146.325 94.1094 142.485C94.1094 138.645 94.9964 135.532 99.6682 135.532C105.227 138.276 106.677 138.645 106.677 142.485Z" fill="#FFE597"/>
<path d="M116.289 142.919C112.707 147.141 113.815 151.176 108.868 151.176C103.922 151.176 102.982 147.479 102.982 142.919C102.982 138.359 103.922 134.662 108.868 134.662C114.754 137.922 116.289 138.359 116.289 142.919Z" fill="#FFE597"/>
<path d="M127.378 142.485C123.995 146.04 125.041 149.438 120.369 149.438C115.698 149.438 114.811 146.325 114.811 142.485C114.811 138.645 115.698 135.532 120.369 135.532C125.928 138.276 127.378 138.645 127.378 142.485Z" fill="#FFE597"/>
<path d="M137.728 142.485C134.344 146.04 135.391 149.438 130.719 149.438C126.047 149.438 125.16 146.325 125.16 142.485C125.16 138.645 126.047 135.532 130.719 135.532C136.278 138.276 137.728 138.645 137.728 142.485Z" fill="#FFE597"/>
<path d="M92.6332 132.054C89.0505 136.499 90.1586 140.746 85.212 140.746C80.2653 140.746 79.3262 136.854 79.3262 132.054C79.3262 127.254 80.2653 123.363 85.212 123.363C91.0978 126.794 92.6332 127.254 92.6332 132.054Z" fill="#FFE597"/>
<path d="M103.721 131.185C100.337 134.741 101.384 138.138 96.7121 138.138C92.0403 138.138 91.1533 135.025 91.1533 131.185C91.1533 127.345 92.0403 124.232 96.7121 124.232C102.271 126.977 103.721 127.345 103.721 131.185Z" fill="#FFE597"/>
<path d="M114.071 132.054C109.891 135.61 111.184 139.008 105.413 139.008C99.6416 139.008 98.5459 135.895 98.5459 132.054C98.5459 128.214 99.6416 125.101 105.413 125.101C112.279 127.846 114.071 128.214 114.071 132.054Z" fill="#FFE597"/>
<path d="M125.16 132.489C120.582 135.823 121.998 139.008 115.677 139.008C109.356 139.008 108.156 136.089 108.156 132.489C108.156 128.889 109.356 125.971 115.677 125.971C123.198 128.544 125.16 128.889 125.16 132.489Z" fill="#FFE597"/>
<path d="M88.9359 123.797C85.3533 127.13 86.4613 130.315 81.5147 130.315C76.5681 130.315 75.6289 127.397 75.6289 123.797C75.6289 120.197 76.5681 117.278 81.5147 117.278C87.4005 119.851 88.9359 120.197 88.9359 123.797Z" fill="#FFE597"/>
<path fill-rule="evenodd" clip-rule="evenodd" d="M1.03684 142.817C15.3907 171.942 42.0121 191.899 72.8789 192.827C103.746 193.755 131.2 175.424 146.801 147.199L1.03684 142.817Z" fill="#804141"/>
<g filter="url(#filter0_d)">
<path d="M63.1374 8.11467C48.9689 7.71539 39 1.69768 39 22.3988C39 33.7227 48.7205 39.9446 56.0973 43.8251C65.5783 48.8124 65.1488 57.8075 65.1488 68.8224C65.1488 75.5615 48.6059 92.7512 45.0343 84.2969" stroke="url(#paint0_diamond)" stroke-width="6" stroke-linecap="round" stroke-linejoin="round"/>
</g>
<g filter="url(#filter1_d)">
<path d="M91.2957 12.8765C76.5128 16.2904 75.2041 18.9044 75.2041 35.4931C75.2041 42.4489 81.698 49.022 86.2671 53.3483C95.3957 61.9917 94.5695 100.962 79.227 100.962" stroke="url(#paint1_diamond)" stroke-width="6" stroke-linecap="round" stroke-linejoin="round"/>
</g>
<g filter="url(#filter2_d)">
<path d="M111.412 27.1599C102.485 35.4146 98.245 47.3508 102.919 60.4896C105.754 68.4595 111.652 74.0204 114.988 81.9159C124.556 104.566 106.951 106.068 95.3203 115.246" stroke="url(#paint2_diamond)" stroke-width="6" stroke-linecap="round" stroke-linejoin="round"/>
</g>
<defs>
<filter id="filter0_d" x="28" y="0.000244141" width="48.153" height="101.586" filterUnits="userSpaceOnUse" color-interpolation-filters="sRGB">
<feFlood flood-opacity="0" result="BackgroundImageFix"/>
<feColorMatrix in="SourceAlpha" type="matrix" values="0 0 0 0 0 0 0 0 0 0 0 0 0 0 0 0 0 0 127 0"/>
<feOffset dy="4"/>
<feGaussianBlur stdDeviation="4"/>
<feColorMatrix type="matrix" values="0 0 0 0 0 0 0 0 0 0 0 0 0 0 0 0 0 0 0.25 0"/>
<feBlend mode="normal" in2="BackgroundImageFix" result="effect1_dropShadow"/>
<feBlend mode="normal" in="SourceGraphic" in2="effect1_dropShadow" result="shape"/>
</filter>
<filter id="filter1_d" x="64.2041" y="5.87573" width="38.9591" height="110.086" filterUnits="userSpaceOnUse" color-interpolation-filters="sRGB">
<feFlood flood-opacity="0" result="BackgroundImageFix"/>
<feColorMatrix in="SourceAlpha" type="matrix" values="0 0 0 0 0 0 0 0 0 0 0 0 0 0 0 0 0 0 127 0"/>
<feOffset dy="4"/>
<feGaussianBlur stdDeviation="4"/>
<feColorMatrix type="matrix" values="0 0 0 0 0 0 0 0 0 0 0 0 0 0 0 0 0 0 0.25 0"/>
<feBlend mode="normal" in2="BackgroundImageFix" result="effect1_dropShadow"/>
<feBlend mode="normal" in="SourceGraphic" in2="effect1_dropShadow" result="shape"/>
</filter>
<filter id="filter2_d" x="84.3203" y="20.1599" width="44.4133" height="110.086" filterUnits="userSpaceOnUse" color-interpolation-filters="sRGB">
<feFlood flood-opacity="0" result="BackgroundImageFix"/>
<feColorMatrix in="SourceAlpha" type="matrix" values="0 0 0 0 0 0 0 0 0 0 0 0 0 0 0 0 0 0 127 0"/>
<feOffset dy="4"/>
<feGaussianBlur stdDeviation="4"/>
<feColorMatrix type="matrix" values="0 0 0 0 0 0 0 0 0 0 0 0 0 0 0 0 0 0 0.25 0"/>
<feBlend mode="normal" in2="BackgroundImageFix" result="effect1_dropShadow"/>
<feBlend mode="normal" in="SourceGraphic" in2="effect1_dropShadow" result="shape"/>
</filter>
<radialGradient id="paint0_diamond" cx="0" cy="0" r="1" gradientUnits="userSpaceOnUse" gradientTransform="translate(52.0759 46.7931) rotate(90) scale(39.7931 13.0759)">
<stop stop-color="#2D3055"/>
<stop offset="1" stop-color="#030302" stop-opacity="0"/>
</radialGradient>
<radialGradient id="paint1_diamond" cx="0" cy="0" r="1" gradientUnits="userSpaceOnUse" gradientTransform="translate(83.6836 56.9193) rotate(90) scale(44.0428 8.47954)">
<stop stop-color="#2D3055"/>
<stop offset="1" stop-color="#030302" stop-opacity="0"/>
</radialGradient>
<radialGradient id="paint2_diamond" cx="0" cy="0" r="1" gradientUnits="userSpaceOnUse" gradientTransform="translate(106.527 71.2028) rotate(90) scale(44.0428 11.2065)">
<stop stop-color="#2D3055"/>
<stop offset="1" stop-color="#030302" stop-opacity="0"/>
</radialGradient>
</defs>
</svg>
