<svg width="379" height="435" viewBox="0 0 379 435" fill="none" xmlns="http://www.w3.org/2000/svg">
<path fill-rule="evenodd" clip-rule="evenodd" d="M379 0H139.414V170.075H0V435H139.414V435H379V435V170.075V0Z" fill="#FFFDFD"/>
<rect x="25" y="347" width="50" height="55" fill="black"/>
<rect x="95" y="347" width="50" height="55" fill="black"/>
<rect x="165" y="347" width="50" height="55" fill="black"/>
<rect x="235" y="347" width="50" height="88" fill="black"/>
<rect x="305" y="347" width="50" height="55" fill="black"/>
<rect x="305" y="347" width="50" height="55" fill="black"/>
<rect x="305" y="273" width="50" height="55" fill="black"/>
<rect x="235" y="273" width="50" height="55" fill="black"/>
<rect x="165" y="273" width="50" height="55" fill="black"/>
<rect x="95" y="273" width="50" height="55" fill="black"/>
<rect x="25" y="273" width="50" height="55" fill="black"/>
<rect x="305" y="199" width="50" height="55" fill="black"/>
<rect x="235" y="199" width="50" height="55" fill="black"/>
<rect x="149" y="199" width="50" height="55" fill="black"/>
<path fill-rule="evenodd" clip-rule="evenodd" d="M277 28H242V72H199V107H242V150H277V107H321V72H277V28Z" fill="#AA1334"/>
</svg>
