<svg width="215" height="358" viewBox="0 0 215 358" fill="none" xmlns="http://www.w3.org/2000/svg">
<path d="M166.197 79.9611C166.197 121.682 130.126 155.922 85.0984 155.922C40.0707 155.922 4 121.682 4 79.9611C4 38.2399 40.0707 4 85.0984 4C130.126 4 166.197 38.2399 166.197 79.9611Z" fill="#CAC5EA" stroke="#1D3FB6" stroke-width="8"/>
<path d="M72.0059 93.5566C72.0059 90.7566 72.3792 88.3766 73.1259 86.4166C73.8726 84.4566 75.1326 82.6366 76.9059 80.9566C79.5192 78.4366 81.8992 76.2432 84.0459 74.3766C86.2859 72.5099 88.1992 70.7832 89.7859 69.1966C91.3726 67.5166 92.5859 65.9766 93.4259 64.5766C94.3592 63.0832 94.8259 61.5432 94.8259 59.9566C94.8259 56.8766 93.8459 54.4966 91.8859 52.8166C90.0192 51.0432 87.6392 50.1566 84.7459 50.1566C80.3592 50.1566 76.9992 51.3699 74.6659 53.7966C72.4259 56.2232 71.1659 59.1632 70.8859 62.6166L49.3259 61.2166C50.3526 51.3232 53.9926 43.8099 60.2459 38.6766C66.4992 33.4499 74.5259 30.8366 84.3259 30.8366C88.6192 30.8366 92.6326 31.4432 96.3659 32.6566C100.193 33.7766 103.553 35.5032 106.446 37.8366C109.339 40.1699 111.626 43.0632 113.306 46.5166C114.986 49.9699 115.826 53.9366 115.826 58.4166C115.826 61.1232 115.546 63.5966 114.986 65.8366C114.426 67.9832 113.446 70.1299 112.046 72.2766C110.739 74.4232 108.966 76.6166 106.726 78.8566C104.579 81.0032 101.826 83.3832 98.4659 85.9966C96.3192 87.6766 94.8726 89.3099 94.1259 90.8966C93.3792 92.4832 93.0059 94.0699 93.0059 95.6566V99.7166H72.0059V93.5566ZM69.6259 120.437C69.6259 118.663 69.9526 116.983 70.6059 115.397C71.2592 113.81 72.1459 112.457 73.2659 111.337C74.4792 110.123 75.8792 109.19 77.4659 108.537C79.0526 107.883 80.7326 107.557 82.5059 107.557C84.2792 107.557 85.9592 107.883 87.5459 108.537C89.1326 109.19 90.4859 110.123 91.6059 111.337C92.8192 112.457 93.7526 113.81 94.4059 115.397C95.0592 116.983 95.3859 118.663 95.3859 120.437C95.3859 122.21 95.0592 123.89 94.4059 125.477C93.7526 127.063 92.8192 128.463 91.6059 129.677C90.4859 130.797 89.1326 131.683 87.5459 132.337C85.9592 132.99 84.2792 133.317 82.5059 133.317C80.7326 133.317 79.0526 132.99 77.4659 132.337C75.8792 131.683 74.4792 130.797 73.2659 129.677C72.1459 128.463 71.2592 127.063 70.6059 125.477C69.9526 123.89 69.6259 122.21 69.6259 120.437Z" fill="#1D3FB6"/>
<path d="M33.8369 201.102H41.6369V236.502H33.8369V201.102ZM88.0767 236.502H81.1767V233.302H81.0767C80.7767 233.735 80.3767 234.185 79.8767 234.652C79.4101 235.085 78.8434 235.485 78.1767 235.852C77.5434 236.219 76.8267 236.519 76.0267 236.752C75.2601 236.985 74.4601 237.102 73.6267 237.102C71.8267 237.102 70.1934 236.802 68.7267 236.202C67.2601 235.569 65.9934 234.702 64.9267 233.602C63.8934 232.469 63.0934 231.135 62.5267 229.602C61.9601 228.069 61.6767 226.385 61.6767 224.552C61.6767 222.852 61.9267 221.235 62.4267 219.702C62.9601 218.135 63.6934 216.752 64.6267 215.552C65.5934 214.352 66.7601 213.402 68.1267 212.702C69.4934 211.969 71.0434 211.602 72.7767 211.602C74.3434 211.602 75.7934 211.852 77.1267 212.352C78.4934 212.819 79.6101 213.635 80.4767 214.802H80.5767V198.702H88.0767V236.502ZM81.1767 224.352C81.1767 222.519 80.6434 221.035 79.5767 219.902C78.5434 218.769 77.0767 218.202 75.1767 218.202C73.2767 218.202 71.7934 218.769 70.7267 219.902C69.6934 221.035 69.1767 222.519 69.1767 224.352C69.1767 226.185 69.6934 227.669 70.7267 228.802C71.7934 229.935 73.2767 230.502 75.1767 230.502C77.0767 230.502 78.5434 229.935 79.5767 228.802C80.6434 227.669 81.1767 226.185 81.1767 224.352ZM93.1709 224.352C93.1709 222.419 93.5209 220.669 94.2209 219.102C94.9209 217.535 95.8709 216.202 97.0709 215.102C98.3042 213.969 99.7376 213.102 101.371 212.502C103.038 211.902 104.804 211.602 106.671 211.602C108.538 211.602 110.288 211.902 111.921 212.502C113.588 213.102 115.021 213.969 116.221 215.102C117.454 216.202 118.421 217.535 119.121 219.102C119.821 220.669 120.171 222.419 120.171 224.352C120.171 226.285 119.821 228.035 119.121 229.602C118.421 231.169 117.454 232.519 116.221 233.652C115.021 234.752 113.588 235.602 111.921 236.202C110.288 236.802 108.538 237.102 106.671 237.102C104.804 237.102 103.038 236.802 101.371 236.202C99.7376 235.602 98.3042 234.752 97.0709 233.652C95.8709 232.519 94.9209 231.169 94.2209 229.602C93.5209 228.035 93.1709 226.285 93.1709 224.352ZM100.671 224.352C100.671 226.185 101.188 227.669 102.221 228.802C103.288 229.935 104.771 230.502 106.671 230.502C108.571 230.502 110.038 229.935 111.071 228.802C112.138 227.669 112.671 226.185 112.671 224.352C112.671 222.519 112.138 221.035 111.071 219.902C110.038 218.769 108.571 218.202 106.671 218.202C104.771 218.202 103.288 218.769 102.221 219.902C101.188 221.035 100.671 222.519 100.671 224.352ZM124.588 212.202H131.788V215.502H131.888C132.122 215.035 132.455 214.569 132.888 214.102C133.322 213.635 133.838 213.219 134.438 212.852C135.038 212.485 135.722 212.185 136.488 211.952C137.255 211.719 138.088 211.602 138.988 211.602C140.888 211.602 142.422 211.902 143.588 212.502C144.755 213.069 145.655 213.869 146.288 214.902C146.955 215.935 147.405 217.152 147.638 218.552C147.872 219.952 147.988 221.469 147.988 223.102V236.502H140.488V224.602C140.488 223.902 140.455 223.185 140.388 222.452C140.355 221.685 140.205 220.985 139.938 220.352C139.705 219.719 139.322 219.202 138.788 218.802C138.288 218.402 137.555 218.202 136.588 218.202C135.622 218.202 134.838 218.385 134.238 218.752C133.638 219.085 133.172 219.552 132.838 220.152C132.538 220.719 132.338 221.369 132.238 222.102C132.138 222.835 132.088 223.602 132.088 224.402V236.502H124.588V212.202ZM158.999 215.202H152.599L156.299 201.102H163.499L158.999 215.202ZM183.765 218.202H177.165V226.302C177.165 226.969 177.199 227.585 177.265 228.152C177.332 228.685 177.482 229.152 177.715 229.552C177.949 229.952 178.299 230.269 178.765 230.502C179.265 230.702 179.915 230.802 180.715 230.802C181.115 230.802 181.632 230.769 182.265 230.702C182.932 230.602 183.432 230.402 183.765 230.102V236.352C182.932 236.652 182.065 236.852 181.165 236.952C180.265 237.052 179.382 237.102 178.515 237.102C177.249 237.102 176.082 236.969 175.015 236.702C173.949 236.435 173.015 236.019 172.215 235.452C171.415 234.852 170.782 234.085 170.315 233.152C169.882 232.219 169.665 231.085 169.665 229.752V218.202H164.865V212.202H169.665V205.002H177.165V212.202H183.765V218.202ZM53.3482 280.702H60.8482V303.802L69.1482 294.202H78.3482L68.6982 305.152L78.5982 318.502H69.1482L60.9482 306.202H60.8482V318.502H53.3482V280.702ZM81.1314 294.202H88.3314V297.502H88.4314C88.6648 297.035 88.9981 296.569 89.4314 296.102C89.8648 295.635 90.3814 295.219 90.9814 294.852C91.5814 294.485 92.2648 294.185 93.0314 293.952C93.7981 293.719 94.6314 293.602 95.5314 293.602C97.4314 293.602 98.9648 293.902 100.131 294.502C101.298 295.069 102.198 295.869 102.831 296.902C103.498 297.935 103.948 299.152 104.181 300.552C104.415 301.952 104.531 303.469 104.531 305.102V318.502H97.0314V306.602C97.0314 305.902 96.9981 305.185 96.9314 304.452C96.8981 303.685 96.7481 302.985 96.4814 302.352C96.2481 301.719 95.8648 301.202 95.3314 300.802C94.8314 300.402 94.0981 300.202 93.1314 300.202C92.1648 300.202 91.3814 300.385 90.7814 300.752C90.1814 301.085 89.7148 301.552 89.3814 302.152C89.0814 302.719 88.8814 303.369 88.7814 304.102C88.6814 304.835 88.6314 305.602 88.6314 306.402V318.502H81.1314V294.202ZM108.942 306.352C108.942 304.419 109.292 302.669 109.992 301.102C110.692 299.535 111.642 298.202 112.842 297.102C114.076 295.969 115.509 295.102 117.142 294.502C118.809 293.902 120.576 293.602 122.442 293.602C124.309 293.602 126.059 293.902 127.692 294.502C129.359 295.102 130.792 295.969 131.992 297.102C133.226 298.202 134.192 299.535 134.892 301.102C135.592 302.669 135.942 304.419 135.942 306.352C135.942 308.285 135.592 310.035 134.892 311.602C134.192 313.169 133.226 314.519 131.992 315.652C130.792 316.752 129.359 317.602 127.692 318.202C126.059 318.802 124.309 319.102 122.442 319.102C120.576 319.102 118.809 318.802 117.142 318.202C115.509 317.602 114.076 316.752 112.842 315.652C111.642 314.519 110.692 313.169 109.992 311.602C109.292 310.035 108.942 308.285 108.942 306.352ZM116.442 306.352C116.442 308.185 116.959 309.669 117.992 310.802C119.059 311.935 120.542 312.502 122.442 312.502C124.342 312.502 125.809 311.935 126.842 310.802C127.909 309.669 128.442 308.185 128.442 306.352C128.442 304.519 127.909 303.035 126.842 301.902C125.809 300.769 124.342 300.202 122.442 300.202C120.542 300.202 119.059 300.769 117.992 301.902C116.959 303.035 116.442 304.519 116.442 306.352ZM137.46 294.202H145.46L150.41 309.452H150.51L154.66 294.202H162.86L167.36 309.452H167.46L172.01 294.202H179.61L170.96 318.502H163.56L158.51 302.352H158.41L153.91 318.502H146.36L137.46 294.202Z" fill="#1C00CE"/>
</svg>
