<svg width="145" height="220" viewBox="0 0 145 220" fill="none" xmlns="http://www.w3.org/2000/svg">
<path d="M140.375 72.1874C140.375 109.846 109.846 140.375 72.1874 140.375C34.5286 140.375 4 109.846 4 72.1874C4 34.5286 34.5286 4 72.1874 4C109.846 4 140.375 34.5286 140.375 72.1874Z" fill="#F8A8A8" stroke="#D10000" stroke-width="8"/>
<path d="M110.198 102.494C71.4386 68.2675 39.4501 105.29 39.4501 105.29" stroke="#D10000" stroke-width="12" stroke-linecap="round" stroke-linejoin="round"/>
<ellipse cx="55.5291" cy="53.4187" rx="9.71754" ry="17.325" fill="#D10000"/>
<ellipse cx="94.3992" cy="53.4187" rx="9.71754" ry="17.325" fill="#D10000"/>
<path d="M40.9555 159.6H51.5555L66.6055 184.2H66.7055V159.6H74.5055V195H64.3055L48.8555 169.8H48.7555V195H40.9555V159.6ZM79.877 182.85C79.877 180.917 80.227 179.167 80.927 177.6C81.627 176.033 82.577 174.7 83.777 173.6C85.0103 172.467 86.4436 171.6 88.077 171C89.7436 170.4 91.5103 170.1 93.377 170.1C95.2436 170.1 96.9936 170.4 98.627 171C100.294 171.6 101.727 172.467 102.927 173.6C104.16 174.7 105.127 176.033 105.827 177.6C106.527 179.167 106.877 180.917 106.877 182.85C106.877 184.783 106.527 186.533 105.827 188.1C105.127 189.667 104.16 191.017 102.927 192.15C101.727 193.25 100.294 194.1 98.627 194.7C96.9936 195.3 95.2436 195.6 93.377 195.6C91.5103 195.6 89.7436 195.3 88.077 194.7C86.4436 194.1 85.0103 193.25 83.777 192.15C82.577 191.017 81.627 189.667 80.927 188.1C80.227 186.533 79.877 184.783 79.877 182.85ZM87.377 182.85C87.377 184.683 87.8936 186.167 88.927 187.3C89.9936 188.433 91.477 189 93.377 189C95.277 189 96.7436 188.433 97.777 187.3C98.8436 186.167 99.377 184.683 99.377 182.85C99.377 181.017 98.8436 179.533 97.777 178.4C96.7436 177.267 95.277 176.7 93.377 176.7C91.477 176.7 89.9936 177.267 88.927 178.4C87.8936 179.533 87.377 181.017 87.377 182.85Z" fill="#970606"/>
</svg>
