<svg width="302" height="380" viewBox="0 0 302 380" fill="none" xmlns="http://www.w3.org/2000/svg">
<path fill-rule="evenodd" clip-rule="evenodd" d="M180.564 269.748C218.279 260.637 240.173 222.296 240.173 182.628C240.173 133.801 200.687 94.2178 151.979 94.2178C103.271 94.2178 63.7856 133.801 63.7856 182.628C63.7856 221.613 85.3961 258.047 121.741 268.483V284.412H180.564V269.748Z" fill="#FFE597"/>
<path d="M190.444 167.439L189.081 165.975L189.081 165.975L190.444 167.439ZM190.48 166.039L189.042 167.429L189.042 167.429L190.48 166.039ZM150.589 204.546L151.952 206.01L151.952 206.01L150.589 204.546ZM149.331 204.649L150.435 202.982L146.885 200.63L147.342 204.864L149.331 204.649ZM149.055 205.44L147.625 204.042L147.625 204.042L149.055 205.44ZM148.728 205.664L147.946 203.823L146.728 204.34V205.664H148.728ZM146.728 204.622H148.728V203.758L148.098 203.166L146.728 204.622ZM107.267 167.478L108.638 166.022L108.638 166.022L107.267 167.478ZM107.238 166.078L108.668 167.476L108.668 167.476L107.238 166.078ZM108.665 166.048L107.295 167.505L107.295 167.505L108.665 166.048ZM147.523 202.625L146.152 204.081L146.91 204.795L147.93 204.583L147.523 202.625ZM148.728 203.759H146.728V204.623L147.357 205.215L148.728 203.759ZM148.888 203.91L147.518 205.366L151.327 208.952L150.881 203.74L148.888 203.91ZM149.199 203.109L150.562 204.572L150.562 204.572L149.199 203.109ZM189.053 166.001L187.69 164.537L187.69 164.537L189.053 166.001ZM191.806 168.903C193.03 167.764 193.08 165.85 191.918 164.648L189.042 167.429C188.648 167.021 188.666 166.362 189.081 165.975L191.806 168.903ZM151.952 206.01L191.806 168.903L189.081 165.975L149.226 203.083L151.952 206.01ZM148.226 206.316C149.36 207.068 150.908 206.983 151.952 206.01L149.226 203.083C149.572 202.761 150.069 202.739 150.435 202.982L148.226 206.316ZM147.342 204.864C147.31 204.569 147.409 204.263 147.625 204.042L150.485 206.838C151.131 206.178 151.411 205.29 151.319 204.434L147.342 204.864ZM147.625 204.042C147.718 203.946 147.829 203.873 147.946 203.823L149.509 207.505C149.866 207.353 150.2 207.13 150.485 206.838L147.625 204.042ZM150.728 293.144V205.664H146.728V293.144H150.728ZM147.728 296.144C149.384 296.144 150.728 294.801 150.728 293.144H146.728C146.728 292.591 147.175 292.144 147.728 292.144V296.144ZM144.728 293.144C144.728 294.801 146.071 296.144 147.728 296.144V292.144C148.28 292.144 148.728 292.591 148.728 293.144H144.728ZM144.728 204.622V293.144H148.728V204.622H144.728ZM148.098 203.166L108.638 166.022L105.897 168.935L145.357 206.078L148.098 203.166ZM108.638 166.022C109.051 166.411 109.065 167.071 108.668 167.476L105.808 164.68C104.64 165.875 104.679 167.789 105.897 168.935L108.638 166.022ZM108.668 167.476C108.293 167.861 107.686 167.873 107.295 167.505L110.036 164.592C108.841 163.467 106.956 163.506 105.808 164.68L108.668 167.476ZM107.295 167.505L146.152 204.081L148.894 201.169L110.036 164.592L107.295 167.505ZM147.728 200.604C147.52 200.604 147.316 200.626 147.117 200.667L147.93 204.583C147.863 204.597 147.795 204.604 147.728 204.604V200.604ZM150.728 203.604C150.728 201.947 149.384 200.604 147.728 200.604V204.604C147.175 204.604 146.728 204.157 146.728 203.604H150.728ZM150.728 203.759V203.604H146.728V203.759H150.728ZM147.357 205.215L147.518 205.366L150.259 202.454L150.098 202.302L147.357 205.215ZM147.836 201.645C147.141 202.292 146.82 203.198 146.896 204.081L150.881 203.74C150.907 204.043 150.795 204.355 150.562 204.572L147.836 201.645ZM187.69 164.537L147.836 201.645L150.562 204.572L190.416 167.465L187.69 164.537ZM191.918 164.648C190.777 163.468 188.892 163.418 187.69 164.537L190.416 167.465C190.023 167.831 189.416 167.815 189.042 167.429L191.918 164.648Z" fill="white"/>
<rect x="99.749" y="274.293" width="107.25" height="27.897" rx="4" fill="#C4C4C4"/>
<rect x="112.125" y="314.146" width="82.4997" height="27.897" rx="3" fill="#C4C4C4"/>
<line x1="2.5" y1="-2.5" x2="58.3361" y2="-2.5" transform="matrix(0.71918 -0.694824 0.71918 0.694824 258 264.271)" stroke="#FFE597" stroke-width="5" stroke-linecap="round" stroke-linejoin="round"/>
<line x1="2.5" y1="-2.5" x2="58.3361" y2="-2.5" transform="matrix(0.71918 -0.694824 0.71918 0.694824 258 133.271)" stroke="#FFE597" stroke-width="5" stroke-linecap="round" stroke-linejoin="round"/>
<line x1="150.5" y1="57.2793" x2="150.5" y2="2.5" stroke="#FFE597" stroke-width="5" stroke-linecap="round" stroke-linejoin="round"/>
<line x1="2.5" y1="-2.5" x2="58.3087" y2="-2.5" transform="matrix(-0.710065 -0.704136 0.728164 -0.685403 46.1782 132.817)" stroke="#FFE597" stroke-width="5" stroke-linecap="round" stroke-linejoin="round"/>
<line x1="2.5" y1="-2.5" x2="58.3087" y2="-2.5" transform="matrix(-0.710065 -0.704136 0.728164 -0.685403 46.1782 263.817)" stroke="#FFE597" stroke-width="5" stroke-linecap="round" stroke-linejoin="round"/>
<path fill-rule="evenodd" clip-rule="evenodd" d="M120.096 353.783C119.358 353.775 118.868 354.542 119.202 355.2C126.536 369.67 139.36 379.307 154.049 379.452C168.738 379.597 181.763 370.215 189.402 355.893C189.749 355.242 189.275 354.466 188.537 354.458L120.096 353.783Z" fill="#C4C4C4"/>
</svg>
