<svg width="183" height="305" viewBox="0 0 183 305" fill="none" xmlns="http://www.w3.org/2000/svg">
<path d="M148.868 71.9993C148.868 109.332 116.666 139.999 76.4338 139.999C36.2011 139.999 4 109.332 4 71.9993C4 34.6662 36.2011 4 76.4338 4C116.666 4 148.868 34.6662 148.868 71.9993Z" fill="#CAC5EA" stroke="#1D3FB6" stroke-width="8"/>
<path d="M63.1753 85.2316C63.1753 82.2316 63.5753 79.6816 64.3753 77.5816C65.1753 75.4816 66.5253 73.5316 68.4253 71.7316C71.2253 69.0316 73.7753 66.6816 76.0753 64.6816C78.4753 62.6816 80.5253 60.8316 82.2253 59.1316C83.9253 57.3316 85.2253 55.6816 86.1253 54.1816C87.1253 52.5816 87.6253 50.9316 87.6253 49.2316C87.6253 45.9316 86.5753 43.3816 84.4753 41.5816C82.4753 39.6816 79.9253 38.7316 76.8253 38.7316C72.1253 38.7316 68.5253 40.0316 66.0253 42.6316C63.6253 45.2316 62.2753 48.3816 61.9753 52.0816L38.8753 50.5816C39.9753 39.9816 43.8753 31.9316 50.5753 26.4316C57.2753 20.8316 65.8753 18.0316 76.3753 18.0316C80.9753 18.0316 85.2753 18.6816 89.2753 19.9816C93.3753 21.1816 96.9753 23.0316 100.075 25.5316C103.175 28.0316 105.625 31.1316 107.425 34.8316C109.225 38.5316 110.125 42.7816 110.125 47.5816C110.125 50.4816 109.825 53.1316 109.225 55.5316C108.625 57.8316 107.575 60.1316 106.075 62.4316C104.675 64.7316 102.775 67.0816 100.375 69.4816C98.0753 71.7816 95.1253 74.3316 91.5253 77.1316C89.2253 78.9316 87.6753 80.6816 86.8753 82.3816C86.0753 84.0816 85.6753 85.7816 85.6753 87.4816V91.8316H63.1753V85.2316ZM60.6253 114.032C60.6253 112.132 60.9753 110.332 61.6753 108.632C62.3753 106.932 63.3253 105.482 64.5253 104.282C65.8253 102.982 67.3253 101.982 69.0253 101.282C70.7253 100.582 72.5253 100.232 74.4253 100.232C76.3253 100.232 78.1253 100.582 79.8253 101.282C81.5253 101.982 82.9753 102.982 84.1753 104.282C85.4753 105.482 86.4753 106.932 87.1753 108.632C87.8753 110.332 88.2253 112.132 88.2253 114.032C88.2253 115.932 87.8753 117.732 87.1753 119.432C86.4753 121.132 85.4753 122.632 84.1753 123.932C82.9753 125.132 81.5253 126.082 79.8253 126.782C78.1253 127.482 76.3253 127.832 74.4253 127.832C72.5253 127.832 70.7253 127.482 69.0253 126.782C67.3253 126.082 65.8253 125.132 64.5253 123.932C63.3253 122.632 62.3753 121.132 61.6753 119.432C60.9753 117.732 60.6253 115.932 60.6253 114.032Z" fill="#1D3FB6"/>
<path d="M16.8076 162.6H24.6076V198H16.8076V162.6ZM71.0475 198H64.1475V194.8H64.0475C63.7475 195.233 63.3475 195.683 62.8475 196.15C62.3808 196.583 61.8141 196.983 61.1475 197.35C60.5141 197.717 59.7975 198.017 58.9975 198.25C58.2308 198.483 57.4308 198.6 56.5975 198.6C54.7975 198.6 53.1641 198.3 51.6975 197.7C50.2308 197.067 48.9641 196.2 47.8975 195.1C46.8641 193.967 46.0641 192.633 45.4975 191.1C44.9308 189.567 44.6475 187.883 44.6475 186.05C44.6475 184.35 44.8975 182.733 45.3975 181.2C45.9308 179.633 46.6641 178.25 47.5975 177.05C48.5641 175.85 49.7308 174.9 51.0975 174.2C52.4641 173.467 54.0141 173.1 55.7475 173.1C57.3141 173.1 58.7641 173.35 60.0975 173.85C61.4641 174.317 62.5808 175.133 63.4475 176.3H63.5475V160.2H71.0475V198ZM64.1475 185.85C64.1475 184.017 63.6141 182.533 62.5475 181.4C61.5141 180.267 60.0475 179.7 58.1475 179.7C56.2475 179.7 54.7641 180.267 53.6975 181.4C52.6641 182.533 52.1475 184.017 52.1475 185.85C52.1475 187.683 52.6641 189.167 53.6975 190.3C54.7641 191.433 56.2475 192 58.1475 192C60.0475 192 61.5141 191.433 62.5475 190.3C63.6141 189.167 64.1475 187.683 64.1475 185.85ZM76.1416 185.85C76.1416 183.917 76.4916 182.167 77.1916 180.6C77.8916 179.033 78.8416 177.7 80.0416 176.6C81.2749 175.467 82.7083 174.6 84.3416 174C86.0083 173.4 87.7749 173.1 89.6416 173.1C91.5083 173.1 93.2583 173.4 94.8916 174C96.5583 174.6 97.9916 175.467 99.1916 176.6C100.425 177.7 101.392 179.033 102.092 180.6C102.792 182.167 103.142 183.917 103.142 185.85C103.142 187.783 102.792 189.533 102.092 191.1C101.392 192.667 100.425 194.017 99.1916 195.15C97.9916 196.25 96.5583 197.1 94.8916 197.7C93.2583 198.3 91.5083 198.6 89.6416 198.6C87.7749 198.6 86.0083 198.3 84.3416 197.7C82.7083 197.1 81.2749 196.25 80.0416 195.15C78.8416 194.017 77.8916 192.667 77.1916 191.1C76.4916 189.533 76.1416 187.783 76.1416 185.85ZM83.6416 185.85C83.6416 187.683 84.1583 189.167 85.1916 190.3C86.2583 191.433 87.7416 192 89.6416 192C91.5416 192 93.0083 191.433 94.0416 190.3C95.1083 189.167 95.6416 187.683 95.6416 185.85C95.6416 184.017 95.1083 182.533 94.0416 181.4C93.0083 180.267 91.5416 179.7 89.6416 179.7C87.7416 179.7 86.2583 180.267 85.1916 181.4C84.1583 182.533 83.6416 184.017 83.6416 185.85ZM107.559 173.7H114.759V177H114.859C115.093 176.533 115.426 176.067 115.859 175.6C116.293 175.133 116.809 174.717 117.409 174.35C118.009 173.983 118.693 173.683 119.459 173.45C120.226 173.217 121.059 173.1 121.959 173.1C123.859 173.1 125.393 173.4 126.559 174C127.726 174.567 128.626 175.367 129.259 176.4C129.926 177.433 130.376 178.65 130.609 180.05C130.843 181.45 130.959 182.967 130.959 184.6V198H123.459V186.1C123.459 185.4 123.426 184.683 123.359 183.95C123.326 183.183 123.176 182.483 122.909 181.85C122.676 181.217 122.293 180.7 121.759 180.3C121.259 179.9 120.526 179.7 119.559 179.7C118.593 179.7 117.809 179.883 117.209 180.25C116.609 180.583 116.143 181.05 115.809 181.65C115.509 182.217 115.309 182.867 115.209 183.6C115.109 184.333 115.059 185.1 115.059 185.9V198H107.559V173.7ZM141.97 176.7H135.57L139.27 162.6H146.47L141.97 176.7ZM166.736 179.7H160.136V187.8C160.136 188.467 160.169 189.083 160.236 189.65C160.303 190.183 160.453 190.65 160.686 191.05C160.919 191.45 161.269 191.767 161.736 192C162.236 192.2 162.886 192.3 163.686 192.3C164.086 192.3 164.603 192.267 165.236 192.2C165.903 192.1 166.403 191.9 166.736 191.6V197.85C165.903 198.15 165.036 198.35 164.136 198.45C163.236 198.55 162.353 198.6 161.486 198.6C160.219 198.6 159.053 198.467 157.986 198.2C156.919 197.933 155.986 197.517 155.186 196.95C154.386 196.35 153.753 195.583 153.286 194.65C152.853 193.717 152.636 192.583 152.636 191.25V179.7H147.836V173.7H152.636V166.5H160.136V173.7H166.736V179.7ZM36.3189 242.2H43.8189V265.3L52.1189 255.7H61.3189L51.6689 266.65L61.5689 280H52.1189L43.9189 267.7H43.8189V280H36.3189V242.2ZM64.1021 255.7H71.3021V259H71.4021C71.6355 258.533 71.9688 258.067 72.4021 257.6C72.8355 257.133 73.3521 256.717 73.9521 256.35C74.5521 255.983 75.2355 255.683 76.0021 255.45C76.7688 255.217 77.6021 255.1 78.5021 255.1C80.4021 255.1 81.9355 255.4 83.1021 256C84.2688 256.567 85.1688 257.367 85.8021 258.4C86.4688 259.433 86.9188 260.65 87.1521 262.05C87.3855 263.45 87.5021 264.967 87.5021 266.6V280H80.0021V268.1C80.0021 267.4 79.9688 266.683 79.9021 265.95C79.8688 265.183 79.7188 264.483 79.4521 263.85C79.2188 263.217 78.8355 262.7 78.3021 262.3C77.8021 261.9 77.0688 261.7 76.1021 261.7C75.1355 261.7 74.3521 261.883 73.7521 262.25C73.1521 262.583 72.6855 263.05 72.3521 263.65C72.0521 264.217 71.8521 264.867 71.7521 265.6C71.6521 266.333 71.6021 267.1 71.6021 267.9V280H64.1021V255.7ZM91.9131 267.85C91.9131 265.917 92.2631 264.167 92.9631 262.6C93.6631 261.033 94.6131 259.7 95.8131 258.6C97.0464 257.467 98.4798 256.6 100.113 256C101.78 255.4 103.546 255.1 105.413 255.1C107.28 255.1 109.03 255.4 110.663 256C112.33 256.6 113.763 257.467 114.963 258.6C116.196 259.7 117.163 261.033 117.863 262.6C118.563 264.167 118.913 265.917 118.913 267.85C118.913 269.783 118.563 271.533 117.863 273.1C117.163 274.667 116.196 276.017 114.963 277.15C113.763 278.25 112.33 279.1 110.663 279.7C109.03 280.3 107.28 280.6 105.413 280.6C103.546 280.6 101.78 280.3 100.113 279.7C98.4798 279.1 97.0464 278.25 95.8131 277.15C94.6131 276.017 93.6631 274.667 92.9631 273.1C92.2631 271.533 91.9131 269.783 91.9131 267.85ZM99.4131 267.85C99.4131 269.683 99.9298 271.167 100.963 272.3C102.03 273.433 103.513 274 105.413 274C107.313 274 108.78 273.433 109.813 272.3C110.88 271.167 111.413 269.683 111.413 267.85C111.413 266.017 110.88 264.533 109.813 263.4C108.78 262.267 107.313 261.7 105.413 261.7C103.513 261.7 102.03 262.267 100.963 263.4C99.9298 264.533 99.4131 266.017 99.4131 267.85ZM120.431 255.7H128.431L133.381 270.95H133.481L137.631 255.7H145.831L150.331 270.95H150.431L154.981 255.7H162.581L153.931 280H146.531L141.481 263.85H141.381L136.881 280H129.331L120.431 255.7Z" fill="#1C00CE"/>
</svg>
