<svg width="174" height="194" viewBox="0 0 174 194" fill="none" xmlns="http://www.w3.org/2000/svg">
<path fill-rule="evenodd" clip-rule="evenodd" d="M75.2786 143.153C90.9479 139.235 100.044 122.747 100.044 105.689C100.044 84.6916 83.6395 67.6699 63.403 67.6699C43.1666 67.6699 26.7617 84.6916 26.7617 105.689C26.7617 122.453 35.7399 138.121 50.8396 142.609V149.458H75.2786V143.153Z" fill="#FFE597"/>
<path d="M79.7773 99.5783L81.1651 101.018V101.018L79.7773 99.5783ZM79.8147 98.1536L81.2761 96.7883L79.8147 98.1536ZM63.2208 115.534L61.833 114.094L61.2208 114.684V115.534H63.2208ZM61.2208 115.951H63.2208V115.072L62.5734 114.478L61.2208 115.951ZM61.1989 115.93L59.8032 117.363L59.8033 117.363L61.1989 115.93ZM44.4306 99.5929L43.0349 101.025L44.4306 99.5929ZM44.401 98.1681L45.855 99.5413L45.855 99.5413L44.401 98.1681ZM45.8038 98.1389L44.4082 99.5714H44.4082L45.8038 98.1389ZM62.0076 113.926L60.6119 115.359L62 116.711L63.3954 115.366L62.0076 113.926ZM78.412 98.1168L79.7998 99.5569V99.5569L78.412 98.1168ZM81.1651 101.018C82.3494 99.8771 82.3989 97.9902 81.2761 96.7883L78.3532 99.519C77.9844 99.1242 78.0005 98.5131 78.3894 98.1382L81.1651 101.018ZM64.6087 116.974L81.1651 101.018L78.3894 98.1382L61.833 114.094L64.6087 116.974ZM65.2208 152.643V115.534H61.2208V152.643H65.2208ZM62.2208 155.643C63.8777 155.643 65.2208 154.3 65.2208 152.643H61.2208C61.2208 152.091 61.6685 151.643 62.2208 151.643V155.643ZM59.2208 152.643C59.2208 154.3 60.564 155.643 62.2208 155.643V151.643C62.7731 151.643 63.2208 152.091 63.2208 152.643H59.2208ZM59.2208 115.951V152.643H63.2208V115.951H59.2208ZM62.5734 114.478C62.5807 114.484 62.5877 114.491 62.5945 114.498L59.8033 117.363C59.8245 117.383 59.8462 117.404 59.8682 117.424L62.5734 114.478ZM62.5946 114.498L45.8263 98.1604L43.0349 101.025L59.8032 117.363L62.5946 114.498ZM45.8263 98.1604C46.2132 98.5374 46.2258 99.1487 45.855 99.5413L42.9469 96.7948C41.8177 97.9905 41.8568 99.8776 43.0349 101.025L45.8263 98.1604ZM45.855 99.5413C45.4675 99.9516 44.8125 99.9653 44.4082 99.5714L47.1995 96.7064C46.004 95.5416 44.0929 95.5815 42.9469 96.7948L45.855 99.5413ZM44.4082 99.5714L60.6119 115.359L63.4033 112.494L47.1995 96.7064L44.4082 99.5714ZM77.0241 96.6767L60.6197 112.486L63.3954 115.366L79.7998 99.5569L77.0241 96.6767ZM81.2761 96.7883C80.1368 95.5687 78.2259 95.5186 77.0241 96.6767L79.7998 99.5569C79.3934 99.9486 78.7385 99.9314 78.3532 99.519L81.2761 96.7883Z" fill="white"/>
<rect x="41.7031" y="145.106" width="44.5583" height="11.9965" rx="4" fill="#C4C4C4"/>
<rect x="46.8447" y="162.244" width="34.2757" height="11.9965" rx="3" fill="#C4C4C4"/>
<line x1="117.109" y1="140.897" x2="131.751" y2="126.255" stroke="#FFE597" stroke-width="5" stroke-linecap="round" stroke-linejoin="round"/>
<line x1="111.968" y1="84.3417" x2="126.61" y2="69.6998" stroke="#FFE597" stroke-width="5" stroke-linecap="round" stroke-linejoin="round"/>
<line x1="66.8232" y1="43.2068" x2="66.8232" y2="22.5" stroke="#FFE597" stroke-width="5" stroke-linecap="round" stroke-linejoin="round"/>
<line x1="18.4042" y1="78.4793" x2="3.9544" y2="63.6479" stroke="#FFE597" stroke-width="5" stroke-linecap="round" stroke-linejoin="round"/>
<line x1="18.4042" y1="136.569" x2="3.9544" y2="121.737" stroke="#FFE597" stroke-width="5" stroke-linecap="round" stroke-linejoin="round"/>
<path fill-rule="evenodd" clip-rule="evenodd" d="M78.5279 180.981C78.8872 180.344 78.4144 179.578 77.6823 179.571L51.0654 179.299C50.3333 179.291 49.8449 180.047 50.1911 180.692C53.2925 186.471 58.4227 190.269 64.2625 190.329C70.1023 190.388 75.3091 186.696 78.5279 180.981ZM47.076 167.527L47.0775 167.383C47.0772 167.407 47.0769 167.431 47.0766 167.455C47.0764 167.479 47.0762 167.503 47.076 167.527Z" fill="#C4C4C4"/>
<rect x="142.549" y="84.2903" width="23.9032" height="109.452" rx="3" fill="url(#paint0_linear)"/>
<path d="M149.325 0C154.225 23.2644 133.269 63.8274 156.79 77.4737C159.537 79.0673 179.494 16.997 149.325 0Z" fill="#E5B352"/>
<defs>
<linearGradient id="paint0_linear" x1="155" y1="194" x2="155" y2="84" gradientUnits="userSpaceOnUse">
<stop stop-color="#CDBFBF"/>
<stop offset="1" stop-color="#FFF2F2"/>
</linearGradient>
</defs>
</svg>
