<svg width="371" height="332" viewBox="0 0 371 332" fill="none" xmlns="http://www.w3.org/2000/svg">
<path fill-rule="evenodd" clip-rule="evenodd" d="M143.13 233.912C173.935 226.471 191.818 195.154 191.818 162.754C191.818 122.872 159.567 90.542 119.783 90.542C79.9992 90.542 47.748 122.872 47.748 162.754C47.748 194.596 65.3987 224.354 95.0842 232.879V245.889H143.13V233.912Z" fill="#FFE597"/>
<path d="M151.327 150.48L149.964 149.016V149.016L151.327 150.48ZM151.364 149.08L149.926 150.47L149.926 150.47L151.364 149.08ZM118.775 180.789L120.138 182.252L120.138 182.252L118.775 180.789ZM117.79 181.018L118.354 179.1L116.259 178.483L115.829 180.625L117.79 181.018ZM117.528 181.512L116.097 180.114L116.097 180.114L117.528 181.512ZM117.493 181.546L116.13 180.082L115.493 180.675V181.546H117.493ZM115.493 180.97H117.493V180.106L116.864 179.514L115.493 180.97ZM83.1346 150.511L84.5054 149.055L83.1346 150.511ZM83.1054 149.111L84.5356 150.509L84.5356 150.509L83.1054 149.111ZM84.5326 149.081L83.1618 150.538L83.1618 150.538L84.5326 149.081ZM116.397 179.075L115.026 180.531L115.685 181.152L116.587 181.065L116.397 179.075ZM117.285 179.459L115.703 180.682L117.258 182.694L118.846 180.708L117.285 179.459ZM117.385 179.351L118.747 180.815L118.747 180.815L117.385 179.351ZM149.937 149.042L148.574 147.578V147.578L149.937 149.042ZM152.69 151.944C153.913 150.805 153.963 148.891 152.801 147.689L149.926 150.47C149.532 150.062 149.549 149.403 149.964 149.016L152.69 151.944ZM120.138 182.252L152.69 151.944L149.964 149.016L117.412 179.325L120.138 182.252ZM117.225 182.937C118.203 183.225 119.323 183.011 120.138 182.252L117.412 179.325C117.683 179.073 118.046 179.009 118.354 179.1L117.225 182.937ZM115.829 180.625C115.867 180.433 115.96 180.254 116.097 180.114L118.958 182.91C119.372 182.486 119.64 181.963 119.751 181.412L115.829 180.625ZM116.097 180.114C116.108 180.103 116.119 180.092 116.13 180.082L118.856 183.01C118.89 182.978 118.924 182.945 118.958 182.91L116.097 180.114ZM119.493 252.838V181.546H115.493V252.838H119.493ZM116.493 255.838C118.15 255.838 119.493 254.495 119.493 252.838H115.493C115.493 252.286 115.941 251.838 116.493 251.838V255.838ZM113.493 252.838C113.493 254.495 114.836 255.838 116.493 255.838V251.838C117.045 251.838 117.493 252.286 117.493 252.838H113.493ZM113.493 180.97V252.838H117.493V180.97H113.493ZM116.864 179.514L84.5054 149.055L81.7638 151.968L114.122 182.427L116.864 179.514ZM84.5054 149.055C84.9183 149.444 84.9321 150.103 84.5356 150.509L81.6753 147.713C80.5067 148.908 80.5466 150.822 81.7638 151.968L84.5054 149.055ZM84.5356 150.509C84.1598 150.893 83.5532 150.906 83.1618 150.538L85.9035 147.625C84.7078 146.499 82.8232 146.538 81.6753 147.713L84.5356 150.509ZM83.1618 150.538L115.026 180.531L117.767 177.618L85.9035 147.625L83.1618 150.538ZM116.493 177.07C116.397 177.07 116.301 177.075 116.206 177.084L116.587 181.065C116.556 181.069 116.524 181.07 116.493 181.07V177.07ZM118.867 178.235C118.321 177.53 117.46 177.07 116.493 177.07V181.07C116.17 181.07 115.882 180.914 115.703 180.682L118.867 178.235ZM116.022 177.887C115.914 177.988 115.814 178.096 115.723 178.21L118.846 180.708C118.816 180.746 118.783 180.782 118.747 180.815L116.022 177.887ZM148.574 147.578L116.022 177.887L118.747 180.815L151.3 150.506L148.574 147.578ZM152.801 147.689C151.66 146.509 149.776 146.459 148.574 147.578L151.3 150.506C150.906 150.872 150.3 150.856 149.926 150.47L152.801 147.689Z" fill="white"/>
<rect x="77.1221" y="237.624" width="87.5995" height="22.7858" rx="4" fill="#C4C4C4"/>
<rect x="87.2305" y="270.175" width="67.3843" height="22.7858" rx="3" fill="#C4C4C4"/>
<line x1="2.5" y1="-2.5" x2="47.1898" y2="-2.5" transform="matrix(0.71918 -0.694824 0.71918 0.694824 225.367 236.342)" stroke="#FFE597" stroke-width="5" stroke-linecap="round" stroke-linejoin="round"/>
<line x1="2.5" y1="-2.5" x2="47.1898" y2="-2.5" transform="matrix(0.71918 -0.694824 0.71918 0.694824 215.259 128.923)" stroke="#FFE597" stroke-width="5" stroke-linecap="round" stroke-linejoin="round"/>
<line x1="128.922" y1="46.3262" x2="128.922" y2="2.49952" stroke="#FFE597" stroke-width="5" stroke-linecap="round" stroke-linejoin="round"/>
<line x1="2.5" y1="-2.5" x2="47.1675" y2="-2.5" transform="matrix(-0.710065 -0.704136 0.728164 -0.685403 38.2671 111.162)" stroke="#FFE597" stroke-width="5" stroke-linecap="round" stroke-linejoin="round"/>
<line x1="2.5" y1="-2.5" x2="47.1675" y2="-2.5" transform="matrix(-0.710065 -0.704136 0.728164 -0.685403 38.2671 221.496)" stroke="#FFE597" stroke-width="5" stroke-linecap="round" stroke-linejoin="round"/>
<path fill-rule="evenodd" clip-rule="evenodd" d="M94.0329 302.553C93.295 302.545 92.8053 303.313 93.1431 303.969C99.1553 315.642 109.563 323.399 121.472 323.516C133.381 323.634 143.951 316.084 150.209 304.532C150.561 303.883 150.088 303.106 149.35 303.099L94.0329 302.553Z" fill="#C4C4C4"/>
<rect x="297" y="180" width="74" height="152" rx="3" fill="white"/>
<path d="M322.163 24C331.795 68.1877 290.598 145.232 336.839 171.151C342.239 174.178 381.473 56.2836 322.163 24Z" fill="#EC7C19"/>
</svg>
