<svg width="136" height="171" viewBox="0 0 136 171" fill="none" xmlns="http://www.w3.org/2000/svg">
<path fill-rule="evenodd" clip-rule="evenodd" d="M75.2786 123.153C90.9479 119.235 100.044 102.747 100.044 85.6889C100.044 64.6916 83.6395 47.6699 63.403 47.6699C43.1666 47.6699 26.7617 64.6916 26.7617 85.6889C26.7617 102.453 35.7399 118.121 50.8396 122.609V129.458H75.2786V123.153Z" fill="#FFE597"/>
<path d="M79.7773 79.5783L81.1651 81.0184V81.0184L79.7773 79.5783ZM79.8147 78.1536L81.2761 76.7883V76.7883L79.8147 78.1536ZM63.2208 95.5341L61.833 94.094L61.2208 94.684V95.5341H63.2208ZM61.2208 95.9509H63.2208V95.072L62.5734 94.4776L61.2208 95.9509ZM61.1989 95.9302L59.8032 97.3627L59.8033 97.3628L61.1989 95.9302ZM44.4306 79.5929L45.8263 78.1604L45.8263 78.1604L44.4306 79.5929ZM44.401 78.1681L45.855 79.5413L45.855 79.5413L44.401 78.1681ZM45.8038 78.1389L47.1995 76.7064L47.1995 76.7064L45.8038 78.1389ZM62.0076 93.9261L60.6119 95.3586L62 96.711L63.3954 95.3662L62.0076 93.9261ZM78.412 78.1168L79.7998 79.5569V79.5569L78.412 78.1168ZM81.1651 81.0184C82.3494 79.8771 82.3989 77.9902 81.2761 76.7883L78.3532 79.519C77.9844 79.1242 78.0005 78.5131 78.3894 78.1382L81.1651 81.0184ZM64.6087 96.9742L81.1651 81.0184L78.3894 78.1382L61.833 94.094L64.6087 96.9742ZM65.2208 132.643V95.5341H61.2208V132.643H65.2208ZM62.2208 135.643C63.8777 135.643 65.2208 134.3 65.2208 132.643H61.2208C61.2208 132.091 61.6685 131.643 62.2208 131.643V135.643ZM59.2208 132.643C59.2208 134.3 60.564 135.643 62.2208 135.643V131.643C62.7731 131.643 63.2208 132.091 63.2208 132.643H59.2208ZM59.2208 95.9509V132.643H63.2208V95.9509H59.2208ZM62.5734 94.4776C62.5807 94.4844 62.5877 94.491 62.5945 94.4976L59.8033 97.3628C59.8245 97.3835 59.8462 97.4039 59.8682 97.4242L62.5734 94.4776ZM62.5946 94.4977L45.8263 78.1604L43.0349 81.0254L59.8032 97.3627L62.5946 94.4977ZM45.8263 78.1604C46.2132 78.5374 46.2258 79.1487 45.855 79.5413L42.9469 76.7948C41.8177 77.9905 41.8568 79.8776 43.0349 81.0254L45.8263 78.1604ZM45.855 79.5413C45.4675 79.9516 44.8125 79.9653 44.4082 79.5714L47.1995 76.7064C46.004 75.5416 44.0929 75.5815 42.9469 76.7948L45.855 79.5413ZM44.4082 79.5714L60.6119 95.3586L63.4033 92.4936L47.1995 76.7064L44.4082 79.5714ZM77.0241 76.6767L60.6197 92.486L63.3954 95.3662L79.7998 79.5569L77.0241 76.6767ZM81.2761 76.7883C80.1368 75.5687 78.2259 75.5186 77.0241 76.6767L79.7998 79.5569C79.3934 79.9486 78.7385 79.9314 78.3532 79.519L81.2761 76.7883Z" fill="white"/>
<rect x="41.7031" y="125.106" width="44.5583" height="11.9965" rx="4" fill="#C4C4C4"/>
<rect x="46.8447" y="142.244" width="34.2757" height="11.9965" rx="3" fill="#C4C4C4"/>
<line x1="117.109" y1="120.897" x2="131.751" y2="106.255" stroke="#FFE597" stroke-width="5" stroke-linecap="round" stroke-linejoin="round"/>
<line x1="111.968" y1="64.3417" x2="126.61" y2="49.6998" stroke="#FFE597" stroke-width="5" stroke-linecap="round" stroke-linejoin="round"/>
<line x1="66.8232" y1="23.2068" x2="66.8232" y2="2.50005" stroke="#FFE597" stroke-width="5" stroke-linecap="round" stroke-linejoin="round"/>
<line x1="18.4042" y1="58.4793" x2="3.9544" y2="43.6479" stroke="#FFE597" stroke-width="5" stroke-linecap="round" stroke-linejoin="round"/>
<line x1="18.4042" y1="116.569" x2="3.9544" y2="101.737" stroke="#FFE597" stroke-width="5" stroke-linecap="round" stroke-linejoin="round"/>
<path fill-rule="evenodd" clip-rule="evenodd" d="M78.5279 160.981C78.8872 160.344 78.4144 159.578 77.6823 159.571L51.0654 159.299C50.3333 159.291 49.8449 160.047 50.1911 160.692C53.2925 166.471 58.4227 170.269 64.2625 170.329C70.1023 170.388 75.3091 166.696 78.5279 160.981ZM47.076 147.527L47.0775 147.383C47.0772 147.407 47.0769 147.431 47.0766 147.455C47.0764 147.479 47.0762 147.503 47.076 147.527Z" fill="#C4C4C4"/>
</svg>
