<svg width="153" height="252" viewBox="0 0 153 252" fill="none" xmlns="http://www.w3.org/2000/svg">
<path d="M148.868 71.9993C148.868 109.332 116.666 139.999 76.4338 139.999C36.2011 139.999 4 109.332 4 71.9993C4 34.6662 36.2011 4 76.4338 4C116.666 4 148.868 34.6662 148.868 71.9993Z" fill="#CAC5EA" stroke="#1D3FB6" stroke-width="8"/>
<path d="M63.1753 85.2316C63.1753 82.2316 63.5753 79.6816 64.3753 77.5816C65.1753 75.4816 66.5253 73.5316 68.4253 71.7316C71.2253 69.0316 73.7753 66.6816 76.0753 64.6816C78.4753 62.6816 80.5253 60.8316 82.2253 59.1316C83.9253 57.3316 85.2253 55.6816 86.1253 54.1816C87.1253 52.5816 87.6253 50.9316 87.6253 49.2316C87.6253 45.9316 86.5753 43.3816 84.4753 41.5816C82.4753 39.6816 79.9253 38.7316 76.8253 38.7316C72.1253 38.7316 68.5253 40.0316 66.0253 42.6316C63.6253 45.2316 62.2753 48.3816 61.9753 52.0816L38.8753 50.5816C39.9753 39.9816 43.8753 31.9316 50.5753 26.4316C57.2753 20.8316 65.8753 18.0316 76.3753 18.0316C80.9753 18.0316 85.2753 18.6816 89.2753 19.9816C93.3753 21.1816 96.9753 23.0316 100.075 25.5316C103.175 28.0316 105.625 31.1316 107.425 34.8316C109.225 38.5316 110.125 42.7816 110.125 47.5816C110.125 50.4816 109.825 53.1316 109.225 55.5316C108.625 57.8316 107.575 60.1316 106.075 62.4316C104.675 64.7316 102.775 67.0816 100.375 69.4816C98.0753 71.7816 95.1253 74.3316 91.5253 77.1316C89.2253 78.9316 87.6753 80.6816 86.8753 82.3816C86.0753 84.0816 85.6753 85.7816 85.6753 87.4816V91.8316H63.1753V85.2316ZM60.6253 114.032C60.6253 112.132 60.9753 110.332 61.6753 108.632C62.3753 106.932 63.3253 105.482 64.5253 104.282C65.8253 102.982 67.3253 101.982 69.0253 101.282C70.7253 100.582 72.5253 100.232 74.4253 100.232C76.3253 100.232 78.1253 100.582 79.8253 101.282C81.5253 101.982 82.9753 102.982 84.1753 104.282C85.4753 105.482 86.4753 106.932 87.1753 108.632C87.8753 110.332 88.2253 112.132 88.2253 114.032C88.2253 115.932 87.8753 117.732 87.1753 119.432C86.4753 121.132 85.4753 122.632 84.1753 123.932C82.9753 125.132 81.5253 126.082 79.8253 126.782C78.1253 127.482 76.3253 127.832 74.4253 127.832C72.5253 127.832 70.7253 127.482 69.0253 126.782C67.3253 126.082 65.8253 125.132 64.5253 123.932C63.3253 122.632 62.3753 121.132 61.6753 119.432C60.9753 117.732 60.6253 115.932 60.6253 114.032Z" fill="#1D3FB6"/>
<path d="M30.2846 165.76H34.9646V187H30.2846V165.76ZM62.8285 187H58.6885V185.08H58.6285C58.4485 185.34 58.2085 185.61 57.9085 185.89C57.6285 186.15 57.2885 186.39 56.8885 186.61C56.5085 186.83 56.0785 187.01 55.5985 187.15C55.1385 187.29 54.6585 187.36 54.1585 187.36C53.0785 187.36 52.0985 187.18 51.2185 186.82C50.3385 186.44 49.5785 185.92 48.9385 185.26C48.3185 184.58 47.8385 183.78 47.4985 182.86C47.1585 181.94 46.9885 180.93 46.9885 179.83C46.9885 178.81 47.1385 177.84 47.4385 176.92C47.7585 175.98 48.1985 175.15 48.7585 174.43C49.3385 173.71 50.0385 173.14 50.8585 172.72C51.6785 172.28 52.6085 172.06 53.6485 172.06C54.5885 172.06 55.4585 172.21 56.2585 172.51C57.0785 172.79 57.7485 173.28 58.2685 173.98H58.3285V164.32H62.8285V187ZM58.6885 179.71C58.6885 178.61 58.3685 177.72 57.7285 177.04C57.1085 176.36 56.2285 176.02 55.0885 176.02C53.9485 176.02 53.0585 176.36 52.4185 177.04C51.7985 177.72 51.4885 178.61 51.4885 179.71C51.4885 180.81 51.7985 181.7 52.4185 182.38C53.0585 183.06 53.9485 183.4 55.0885 183.4C56.2285 183.4 57.1085 183.06 57.7285 182.38C58.3685 181.7 58.6885 180.81 58.6885 179.71ZM65.885 179.71C65.885 178.55 66.095 177.5 66.515 176.56C66.935 175.62 67.505 174.82 68.225 174.16C68.965 173.48 69.825 172.96 70.805 172.6C71.805 172.24 72.865 172.06 73.985 172.06C75.105 172.06 76.155 172.24 77.135 172.6C78.135 172.96 78.995 173.48 79.715 174.16C80.455 174.82 81.035 175.62 81.455 176.56C81.875 177.5 82.085 178.55 82.085 179.71C82.085 180.87 81.875 181.92 81.455 182.86C81.035 183.8 80.455 184.61 79.715 185.29C78.995 185.95 78.135 186.46 77.135 186.82C76.155 187.18 75.105 187.36 73.985 187.36C72.865 187.36 71.805 187.18 70.805 186.82C69.825 186.46 68.965 185.95 68.225 185.29C67.505 184.61 66.935 183.8 66.515 182.86C66.095 181.92 65.885 180.87 65.885 179.71ZM70.385 179.71C70.385 180.81 70.695 181.7 71.315 182.38C71.955 183.06 72.845 183.4 73.985 183.4C75.125 183.4 76.005 183.06 76.625 182.38C77.265 181.7 77.585 180.81 77.585 179.71C77.585 178.61 77.265 177.72 76.625 177.04C76.005 176.36 75.125 176.02 73.985 176.02C72.845 176.02 71.955 176.36 71.315 177.04C70.695 177.72 70.385 178.61 70.385 179.71ZM84.7355 172.42H89.0555V174.4H89.1155C89.2555 174.12 89.4555 173.84 89.7155 173.56C89.9755 173.28 90.2855 173.03 90.6455 172.81C91.0055 172.59 91.4155 172.41 91.8755 172.27C92.3355 172.13 92.8355 172.06 93.3755 172.06C94.5155 172.06 95.4355 172.24 96.1355 172.6C96.8355 172.94 97.3755 173.42 97.7555 174.04C98.1555 174.66 98.4255 175.39 98.5655 176.23C98.7055 177.07 98.7755 177.98 98.7755 178.96V187H94.2755V179.86C94.2755 179.44 94.2555 179.01 94.2155 178.57C94.1955 178.11 94.1055 177.69 93.9455 177.31C93.8055 176.93 93.5755 176.62 93.2555 176.38C92.9555 176.14 92.5155 176.02 91.9355 176.02C91.3555 176.02 90.8855 176.13 90.5255 176.35C90.1655 176.55 89.8855 176.83 89.6855 177.19C89.5055 177.53 89.3855 177.92 89.3255 178.36C89.2655 178.8 89.2355 179.26 89.2355 179.74V187H84.7355V172.42ZM105.382 174.22H101.542L103.762 165.76H108.082L105.382 174.22ZM120.242 176.02H116.282V180.88C116.282 181.28 116.302 181.65 116.342 181.99C116.382 182.31 116.472 182.59 116.612 182.83C116.752 183.07 116.962 183.26 117.242 183.4C117.542 183.52 117.932 183.58 118.412 183.58C118.652 183.58 118.962 183.56 119.342 183.52C119.742 183.46 120.042 183.34 120.242 183.16V186.91C119.742 187.09 119.222 187.21 118.682 187.27C118.142 187.33 117.612 187.36 117.092 187.36C116.332 187.36 115.632 187.28 114.992 187.12C114.352 186.96 113.792 186.71 113.312 186.37C112.832 186.01 112.452 185.55 112.172 184.99C111.912 184.43 111.782 183.75 111.782 182.95V176.02H108.902V172.42H111.782V168.1H116.282V172.42H120.242V176.02ZM41.9914 213.32H46.4914V227.18L51.4714 221.42H56.9914L51.2014 227.99L57.1414 236H51.4714L46.5514 228.62H46.4914V236H41.9914V213.32ZM58.6613 221.42H62.9813V223.4H63.0413C63.1813 223.12 63.3813 222.84 63.6413 222.56C63.9013 222.28 64.2113 222.03 64.5713 221.81C64.9313 221.59 65.3413 221.41 65.8013 221.27C66.2613 221.13 66.7613 221.06 67.3013 221.06C68.4413 221.06 69.3613 221.24 70.0613 221.6C70.7613 221.94 71.3013 222.42 71.6813 223.04C72.0813 223.66 72.3513 224.39 72.4913 225.23C72.6313 226.07 72.7013 226.98 72.7013 227.96V236H68.2013V228.86C68.2013 228.44 68.1813 228.01 68.1413 227.57C68.1213 227.11 68.0313 226.69 67.8713 226.31C67.7313 225.93 67.5013 225.62 67.1813 225.38C66.8813 225.14 66.4413 225.02 65.8613 225.02C65.2813 225.02 64.8113 225.13 64.4513 225.35C64.0913 225.55 63.8113 225.83 63.6113 226.19C63.4313 226.53 63.3113 226.92 63.2513 227.36C63.1913 227.8 63.1613 228.26 63.1613 228.74V236H58.6613V221.42ZM75.3479 228.71C75.3479 227.55 75.5579 226.5 75.9779 225.56C76.3979 224.62 76.9679 223.82 77.6879 223.16C78.4279 222.48 79.2879 221.96 80.2679 221.6C81.2679 221.24 82.3279 221.06 83.4479 221.06C84.5679 221.06 85.6179 221.24 86.5979 221.6C87.5979 221.96 88.4579 222.48 89.1779 223.16C89.9179 223.82 90.4979 224.62 90.9179 225.56C91.3379 226.5 91.5479 227.55 91.5479 228.71C91.5479 229.87 91.3379 230.92 90.9179 231.86C90.4979 232.8 89.9179 233.61 89.1779 234.29C88.4579 234.95 87.5979 235.46 86.5979 235.82C85.6179 236.18 84.5679 236.36 83.4479 236.36C82.3279 236.36 81.2679 236.18 80.2679 235.82C79.2879 235.46 78.4279 234.95 77.6879 234.29C76.9679 233.61 76.3979 232.8 75.9779 231.86C75.5579 230.92 75.3479 229.87 75.3479 228.71ZM79.8479 228.71C79.8479 229.81 80.1579 230.7 80.7779 231.38C81.4179 232.06 82.3079 232.4 83.4479 232.4C84.5879 232.4 85.4679 232.06 86.0879 231.38C86.7279 230.7 87.0479 229.81 87.0479 228.71C87.0479 227.61 86.7279 226.72 86.0879 226.04C85.4679 225.36 84.5879 225.02 83.4479 225.02C82.3079 225.02 81.4179 225.36 80.7779 226.04C80.1579 226.72 79.8479 227.61 79.8479 228.71ZM92.4584 221.42H97.2584L100.228 230.57H100.288L102.778 221.42H107.698L110.398 230.57H110.458L113.188 221.42H117.748L112.558 236H108.118L105.088 226.31H105.028L102.328 236H97.7984L92.4584 221.42Z" fill="#1D3FB5"/>
</svg>
