<svg width="183" height="293" viewBox="0 0 183 293" fill="none" xmlns="http://www.w3.org/2000/svg">
<path d="M148.868 71.9993C148.868 109.332 116.666 139.999 76.4338 139.999C36.2011 139.999 4 109.332 4 71.9993C4 34.6662 36.2011 4 76.4338 4C116.666 4 148.868 34.6662 148.868 71.9993Z" fill="#CAC5EA" stroke="#1D3FB6" stroke-width="8"/>
<path d="M63.1753 85.2316C63.1753 82.2316 63.5753 79.6816 64.3753 77.5816C65.1753 75.4816 66.5253 73.5316 68.4253 71.7316C71.2253 69.0316 73.7753 66.6816 76.0753 64.6816C78.4753 62.6816 80.5253 60.8316 82.2253 59.1316C83.9253 57.3316 85.2253 55.6816 86.1253 54.1816C87.1253 52.5816 87.6253 50.9316 87.6253 49.2316C87.6253 45.9316 86.5753 43.3816 84.4753 41.5816C82.4753 39.6816 79.9253 38.7316 76.8253 38.7316C72.1253 38.7316 68.5253 40.0316 66.0253 42.6316C63.6253 45.2316 62.2753 48.3816 61.9753 52.0816L38.8753 50.5816C39.9753 39.9816 43.8753 31.9316 50.5753 26.4316C57.2753 20.8316 65.8753 18.0316 76.3753 18.0316C80.9753 18.0316 85.2753 18.6816 89.2753 19.9816C93.3753 21.1816 96.9753 23.0316 100.075 25.5316C103.175 28.0316 105.625 31.1316 107.425 34.8316C109.225 38.5316 110.125 42.7816 110.125 47.5816C110.125 50.4816 109.825 53.1316 109.225 55.5316C108.625 57.8316 107.575 60.1316 106.075 62.4316C104.675 64.7316 102.775 67.0816 100.375 69.4816C98.0753 71.7816 95.1253 74.3316 91.5253 77.1316C89.2253 78.9316 87.6753 80.6816 86.8753 82.3816C86.0753 84.0816 85.6753 85.7816 85.6753 87.4816V91.8316H63.1753V85.2316ZM60.6253 114.032C60.6253 112.132 60.9753 110.332 61.6753 108.632C62.3753 106.932 63.3253 105.482 64.5253 104.282C65.8253 102.982 67.3253 101.982 69.0253 101.282C70.7253 100.582 72.5253 100.232 74.4253 100.232C76.3253 100.232 78.1253 100.582 79.8253 101.282C81.5253 101.982 82.9753 102.982 84.1753 104.282C85.4753 105.482 86.4753 106.932 87.1753 108.632C87.8753 110.332 88.2253 112.132 88.2253 114.032C88.2253 115.932 87.8753 117.732 87.1753 119.432C86.4753 121.132 85.4753 122.632 84.1753 123.932C82.9753 125.132 81.5253 126.082 79.8253 126.782C78.1253 127.482 76.3253 127.832 74.4253 127.832C72.5253 127.832 70.7253 127.482 69.0253 126.782C67.3253 126.082 65.8253 125.132 64.5253 123.932C63.3253 122.632 62.3753 121.132 61.6753 119.432C60.9753 117.732 60.6253 115.932 60.6253 114.032Z" fill="#1D3FB6"/>
<path d="M16.8076 150.6H24.6076V186H16.8076V150.6ZM71.0475 186H64.1475V182.8H64.0475C63.7475 183.233 63.3475 183.683 62.8475 184.15C62.3808 184.583 61.8141 184.983 61.1475 185.35C60.5141 185.717 59.7975 186.017 58.9975 186.25C58.2308 186.483 57.4308 186.6 56.5975 186.6C54.7975 186.6 53.1641 186.3 51.6975 185.7C50.2308 185.067 48.9641 184.2 47.8975 183.1C46.8641 181.967 46.0641 180.633 45.4975 179.1C44.9308 177.567 44.6475 175.883 44.6475 174.05C44.6475 172.35 44.8975 170.733 45.3975 169.2C45.9308 167.633 46.6641 166.25 47.5975 165.05C48.5641 163.85 49.7308 162.9 51.0975 162.2C52.4641 161.467 54.0141 161.1 55.7475 161.1C57.3141 161.1 58.7641 161.35 60.0975 161.85C61.4641 162.317 62.5808 163.133 63.4475 164.3H63.5475V148.2H71.0475V186ZM64.1475 173.85C64.1475 172.017 63.6141 170.533 62.5475 169.4C61.5141 168.267 60.0475 167.7 58.1475 167.7C56.2475 167.7 54.7641 168.267 53.6975 169.4C52.6641 170.533 52.1475 172.017 52.1475 173.85C52.1475 175.683 52.6641 177.167 53.6975 178.3C54.7641 179.433 56.2475 180 58.1475 180C60.0475 180 61.5141 179.433 62.5475 178.3C63.6141 177.167 64.1475 175.683 64.1475 173.85ZM76.1416 173.85C76.1416 171.917 76.4916 170.167 77.1916 168.6C77.8916 167.033 78.8416 165.7 80.0416 164.6C81.2749 163.467 82.7083 162.6 84.3416 162C86.0083 161.4 87.7749 161.1 89.6416 161.1C91.5083 161.1 93.2583 161.4 94.8916 162C96.5583 162.6 97.9916 163.467 99.1916 164.6C100.425 165.7 101.392 167.033 102.092 168.6C102.792 170.167 103.142 171.917 103.142 173.85C103.142 175.783 102.792 177.533 102.092 179.1C101.392 180.667 100.425 182.017 99.1916 183.15C97.9916 184.25 96.5583 185.1 94.8916 185.7C93.2583 186.3 91.5083 186.6 89.6416 186.6C87.7749 186.6 86.0083 186.3 84.3416 185.7C82.7083 185.1 81.2749 184.25 80.0416 183.15C78.8416 182.017 77.8916 180.667 77.1916 179.1C76.4916 177.533 76.1416 175.783 76.1416 173.85ZM83.6416 173.85C83.6416 175.683 84.1583 177.167 85.1916 178.3C86.2583 179.433 87.7416 180 89.6416 180C91.5416 180 93.0083 179.433 94.0416 178.3C95.1083 177.167 95.6416 175.683 95.6416 173.85C95.6416 172.017 95.1083 170.533 94.0416 169.4C93.0083 168.267 91.5416 167.7 89.6416 167.7C87.7416 167.7 86.2583 168.267 85.1916 169.4C84.1583 170.533 83.6416 172.017 83.6416 173.85ZM107.559 161.7H114.759V165H114.859C115.093 164.533 115.426 164.067 115.859 163.6C116.293 163.133 116.809 162.717 117.409 162.35C118.009 161.983 118.693 161.683 119.459 161.45C120.226 161.217 121.059 161.1 121.959 161.1C123.859 161.1 125.393 161.4 126.559 162C127.726 162.567 128.626 163.367 129.259 164.4C129.926 165.433 130.376 166.65 130.609 168.05C130.843 169.45 130.959 170.967 130.959 172.6V186H123.459V174.1C123.459 173.4 123.426 172.683 123.359 171.95C123.326 171.183 123.176 170.483 122.909 169.85C122.676 169.217 122.293 168.7 121.759 168.3C121.259 167.9 120.526 167.7 119.559 167.7C118.593 167.7 117.809 167.883 117.209 168.25C116.609 168.583 116.143 169.05 115.809 169.65C115.509 170.217 115.309 170.867 115.209 171.6C115.109 172.333 115.059 173.1 115.059 173.9V186H107.559V161.7ZM141.97 164.7H135.57L139.27 150.6H146.47L141.97 164.7ZM166.736 167.7H160.136V175.8C160.136 176.467 160.169 177.083 160.236 177.65C160.303 178.183 160.453 178.65 160.686 179.05C160.919 179.45 161.269 179.767 161.736 180C162.236 180.2 162.886 180.3 163.686 180.3C164.086 180.3 164.603 180.267 165.236 180.2C165.903 180.1 166.403 179.9 166.736 179.6V185.85C165.903 186.15 165.036 186.35 164.136 186.45C163.236 186.55 162.353 186.6 161.486 186.6C160.219 186.6 159.053 186.467 157.986 186.2C156.919 185.933 155.986 185.517 155.186 184.95C154.386 184.35 153.753 183.583 153.286 182.65C152.853 181.717 152.636 180.583 152.636 179.25V167.7H147.836V161.7H152.636V154.5H160.136V161.7H166.736V167.7ZM36.3189 230.2H43.8189V253.3L52.1189 243.7H61.3189L51.6689 254.65L61.5689 268H52.1189L43.9189 255.7H43.8189V268H36.3189V230.2ZM64.1021 243.7H71.3021V247H71.4021C71.6355 246.533 71.9688 246.067 72.4021 245.6C72.8355 245.133 73.3521 244.717 73.9521 244.35C74.5521 243.983 75.2355 243.683 76.0021 243.45C76.7688 243.217 77.6021 243.1 78.5021 243.1C80.4021 243.1 81.9355 243.4 83.1021 244C84.2688 244.567 85.1688 245.367 85.8021 246.4C86.4688 247.433 86.9188 248.65 87.1521 250.05C87.3855 251.45 87.5021 252.967 87.5021 254.6V268H80.0021V256.1C80.0021 255.4 79.9688 254.683 79.9021 253.95C79.8688 253.183 79.7188 252.483 79.4521 251.85C79.2188 251.217 78.8355 250.7 78.3021 250.3C77.8021 249.9 77.0688 249.7 76.1021 249.7C75.1355 249.7 74.3521 249.883 73.7521 250.25C73.1521 250.583 72.6855 251.05 72.3521 251.65C72.0521 252.217 71.8521 252.867 71.7521 253.6C71.6521 254.333 71.6021 255.1 71.6021 255.9V268H64.1021V243.7ZM91.9131 255.85C91.9131 253.917 92.2631 252.167 92.9631 250.6C93.6631 249.033 94.6131 247.7 95.8131 246.6C97.0464 245.467 98.4798 244.6 100.113 244C101.78 243.4 103.546 243.1 105.413 243.1C107.28 243.1 109.03 243.4 110.663 244C112.33 244.6 113.763 245.467 114.963 246.6C116.196 247.7 117.163 249.033 117.863 250.6C118.563 252.167 118.913 253.917 118.913 255.85C118.913 257.783 118.563 259.533 117.863 261.1C117.163 262.667 116.196 264.017 114.963 265.15C113.763 266.25 112.33 267.1 110.663 267.7C109.03 268.3 107.28 268.6 105.413 268.6C103.546 268.6 101.78 268.3 100.113 267.7C98.4798 267.1 97.0464 266.25 95.8131 265.15C94.6131 264.017 93.6631 262.667 92.9631 261.1C92.2631 259.533 91.9131 257.783 91.9131 255.85ZM99.4131 255.85C99.4131 257.683 99.9298 259.167 100.963 260.3C102.03 261.433 103.513 262 105.413 262C107.313 262 108.78 261.433 109.813 260.3C110.88 259.167 111.413 257.683 111.413 255.85C111.413 254.017 110.88 252.533 109.813 251.4C108.78 250.267 107.313 249.7 105.413 249.7C103.513 249.7 102.03 250.267 100.963 251.4C99.9298 252.533 99.4131 254.017 99.4131 255.85ZM120.431 243.7H128.431L133.381 258.95H133.481L137.631 243.7H145.831L150.331 258.95H150.431L154.981 243.7H162.581L153.931 268H146.531L141.481 251.85H141.381L136.881 268H129.331L120.431 243.7Z" fill="#2C2178"/>
</svg>
