<svg width="145" height="203" viewBox="0 0 145 203" fill="none" xmlns="http://www.w3.org/2000/svg">
<path d="M140.375 72.1874C140.375 109.846 109.846 140.375 72.1874 140.375C34.5286 140.375 4 109.846 4 72.1874C4 34.5286 34.5286 4 72.1874 4C109.846 4 140.375 34.5286 140.375 72.1874Z" fill="#F8A8A8" stroke="#D10000" stroke-width="8"/>
<path d="M110.198 102.494C71.4386 68.2675 39.4501 105.29 39.4501 105.29" stroke="#D10000" stroke-width="12" stroke-linecap="round" stroke-linejoin="round"/>
<ellipse cx="55.5291" cy="53.4187" rx="9.71754" ry="17.325" fill="#D10000"/>
<ellipse cx="94.3992" cy="53.4187" rx="9.71754" ry="17.325" fill="#D10000"/>
<path d="M51.2733 165.76H57.6333L66.6633 180.52H66.7233V165.76H71.4033V187H65.2833L56.0133 171.88H55.9533V187H51.2733V165.76ZM74.6262 179.71C74.6262 178.55 74.8362 177.5 75.2562 176.56C75.6762 175.62 76.2462 174.82 76.9662 174.16C77.7062 173.48 78.5662 172.96 79.5462 172.6C80.5462 172.24 81.6062 172.06 82.7262 172.06C83.8462 172.06 84.8962 172.24 85.8762 172.6C86.8762 172.96 87.7362 173.48 88.4562 174.16C89.1962 174.82 89.7762 175.62 90.1962 176.56C90.6162 177.5 90.8262 178.55 90.8262 179.71C90.8262 180.87 90.6162 181.92 90.1962 182.86C89.7762 183.8 89.1962 184.61 88.4562 185.29C87.7362 185.95 86.8762 186.46 85.8762 186.82C84.8962 187.18 83.8462 187.36 82.7262 187.36C81.6062 187.36 80.5462 187.18 79.5462 186.82C78.5662 186.46 77.7062 185.95 76.9662 185.29C76.2462 184.61 75.6762 183.8 75.2562 182.86C74.8362 181.92 74.6262 180.87 74.6262 179.71ZM79.1262 179.71C79.1262 180.81 79.4362 181.7 80.0562 182.38C80.6962 183.06 81.5862 183.4 82.7262 183.4C83.8662 183.4 84.7462 183.06 85.3662 182.38C86.0062 181.7 86.3262 180.81 86.3262 179.71C86.3262 178.61 86.0062 177.72 85.3662 177.04C84.7462 176.36 83.8662 176.02 82.7262 176.02C81.5862 176.02 80.6962 176.36 80.0562 177.04C79.4362 177.72 79.1262 178.61 79.1262 179.71Z" fill="#D10000"/>
</svg>
