<svg width="145" height="203" viewBox="0 0 145 203" fill="none" xmlns="http://www.w3.org/2000/svg">
<path d="M140.375 72.1874C140.375 109.846 109.846 140.375 72.1874 140.375C34.5285 140.375 4 109.846 4 72.1874C4 34.5286 34.5285 4 72.1874 4C109.846 4 140.375 34.5286 140.375 72.1874Z" fill="#FFE597" stroke="#EC7C19" stroke-width="8"/>
<ellipse cx="47.8933" cy="54.1406" rx="10.4117" ry="10.8281" fill="#EC7C19"/>
<ellipse cx="90.9285" cy="54.1406" rx="10.4117" ry="10.8281" fill="#EC7C19"/>
<path d="M49.9761 98.8965C61.0818 109.003 72.8817 107.559 72.8817 107.559" stroke="#EC7C19" stroke-width="12" stroke-linecap="round" stroke-linejoin="round"/>
<path d="M25.3573 165.76H33.2473C34.3473 165.76 35.3873 165.86 36.3673 166.06C37.3473 166.26 38.1973 166.61 38.9173 167.11C39.6573 167.59 40.2373 168.25 40.6573 169.09C41.0973 169.91 41.3173 170.95 41.3173 172.21C41.3173 173.45 41.1173 174.49 40.7173 175.33C40.3173 176.17 39.7673 176.84 39.0673 177.34C38.3673 177.84 37.5373 178.2 36.5773 178.42C35.6173 178.62 34.5773 178.72 33.4573 178.72H30.0373V187H25.3573V165.76ZM30.0373 174.76H33.1573C33.5773 174.76 33.9773 174.72 34.3573 174.64C34.7573 174.56 35.1073 174.43 35.4073 174.25C35.7273 174.05 35.9773 173.79 36.1573 173.47C36.3573 173.13 36.4573 172.71 36.4573 172.21C36.4573 171.67 36.3273 171.24 36.0673 170.92C35.8273 170.58 35.5073 170.32 35.1073 170.14C34.7273 169.96 34.2973 169.85 33.8173 169.81C33.3373 169.75 32.8773 169.72 32.4373 169.72H30.0373V174.76ZM52.8338 185.17H52.7738C52.2738 185.95 51.6038 186.51 50.7638 186.85C49.9438 187.19 49.0738 187.36 48.1538 187.36C47.4738 187.36 46.8138 187.26 46.1738 187.06C45.5538 186.88 45.0038 186.6 44.5238 186.22C44.0438 185.84 43.6638 185.37 43.3838 184.81C43.1038 184.25 42.9638 183.6 42.9638 182.86C42.9638 182.02 43.1138 181.31 43.4138 180.73C43.7338 180.15 44.1538 179.67 44.6738 179.29C45.2138 178.91 45.8238 178.62 46.5037 178.42C47.1838 178.2 47.8838 178.04 48.6038 177.94C49.3438 177.84 50.0738 177.78 50.7938 177.76C51.5338 177.74 52.2138 177.73 52.8338 177.73C52.8338 176.93 52.5438 176.3 51.9638 175.84C51.4038 175.36 50.7338 175.12 49.9538 175.12C49.2138 175.12 48.5338 175.28 47.9138 175.6C47.3138 175.9 46.7738 176.32 46.2938 176.86L43.8938 174.4C44.7338 173.62 45.7138 173.04 46.8338 172.66C47.9538 172.26 49.1138 172.06 50.3138 172.06C51.6338 172.06 52.7138 172.23 53.5538 172.57C54.4138 172.89 55.0938 173.37 55.5938 174.01C56.1138 174.65 56.4738 175.44 56.6738 176.38C56.8738 177.3 56.9738 178.37 56.9738 179.59V187H52.8338V185.17ZM51.7238 180.61C51.3838 180.61 50.9538 180.63 50.4338 180.67C49.9338 180.69 49.4438 180.77 48.9638 180.91C48.5038 181.05 48.1038 181.26 47.7638 181.54C47.4438 181.82 47.2838 182.21 47.2838 182.71C47.2838 183.25 47.5138 183.65 47.9738 183.91C48.4338 184.17 48.9138 184.3 49.4138 184.3C49.8538 184.3 50.2738 184.24 50.6738 184.12C51.0938 184 51.4638 183.83 51.7838 183.61C52.1038 183.39 52.3538 183.11 52.5338 182.77C52.7338 182.43 52.8338 182.03 52.8338 181.57V180.61H51.7238ZM59.797 172.42H64.297V174.76H64.357C64.837 173.86 65.407 173.19 66.067 172.75C66.727 172.29 67.557 172.06 68.557 172.06C68.817 172.06 69.077 172.07 69.337 172.09C69.597 172.11 69.837 172.15 70.057 172.21V176.32C69.737 176.22 69.417 176.15 69.097 176.11C68.797 176.05 68.477 176.02 68.137 176.02C67.277 176.02 66.597 176.14 66.097 176.38C65.597 176.62 65.207 176.96 64.927 177.4C64.667 177.82 64.497 178.33 64.417 178.93C64.337 179.53 64.297 180.19 64.297 180.91V187H59.797V172.42ZM81.9438 176.02H77.9838V180.88C77.9838 181.28 78.0038 181.65 78.0438 181.99C78.0838 182.31 78.1738 182.59 78.3138 182.83C78.4538 183.07 78.6638 183.26 78.9438 183.4C79.2438 183.52 79.6338 183.58 80.1138 183.58C80.3538 183.58 80.6638 183.56 81.0438 183.52C81.4438 183.46 81.7438 183.34 81.9438 183.16V186.91C81.4438 187.09 80.9238 187.21 80.3838 187.27C79.8438 187.33 79.3138 187.36 78.7938 187.36C78.0338 187.36 77.3338 187.28 76.6938 187.12C76.0538 186.96 75.4938 186.71 75.0138 186.37C74.5338 186.01 74.1538 185.55 73.8738 184.99C73.6138 184.43 73.4838 183.75 73.4838 182.95V176.02H70.6038V172.42H73.4838V168.1H77.9838V172.42H81.9438V176.02ZM84.2906 172.42H88.7906V187H84.2906V172.42ZM83.9306 167.83C83.9306 167.11 84.1806 166.5 84.6806 166C85.2006 165.48 85.8206 165.22 86.5406 165.22C87.2606 165.22 87.8706 165.48 88.3706 166C88.8906 166.5 89.1506 167.11 89.1506 167.83C89.1506 168.55 88.8906 169.17 88.3706 169.69C87.8706 170.19 87.2606 170.44 86.5406 170.44C85.8206 170.44 85.2006 170.19 84.6806 169.69C84.1806 169.17 83.9306 168.55 83.9306 167.83ZM101.174 185.17H101.114C100.614 185.95 99.9436 186.51 99.1036 186.85C98.2836 187.19 97.4136 187.36 96.4936 187.36C95.8136 187.36 95.1536 187.26 94.5136 187.06C93.8936 186.88 93.3436 186.6 92.8636 186.22C92.3836 185.84 92.0036 185.37 91.7236 184.81C91.4436 184.25 91.3036 183.6 91.3036 182.86C91.3036 182.02 91.4536 181.31 91.7536 180.73C92.0736 180.15 92.4936 179.67 93.0136 179.29C93.5536 178.91 94.1636 178.62 94.8436 178.42C95.5236 178.2 96.2236 178.04 96.9436 177.94C97.6836 177.84 98.4136 177.78 99.1336 177.76C99.8736 177.74 100.554 177.73 101.174 177.73C101.174 176.93 100.884 176.3 100.304 175.84C99.7436 175.36 99.0736 175.12 98.2936 175.12C97.5536 175.12 96.8736 175.28 96.2536 175.6C95.6536 175.9 95.1136 176.32 94.6336 176.86L92.2336 174.4C93.0736 173.62 94.0536 173.04 95.1736 172.66C96.2936 172.26 97.4536 172.06 98.6536 172.06C99.9736 172.06 101.054 172.23 101.894 172.57C102.754 172.89 103.434 173.37 103.934 174.01C104.454 174.65 104.814 175.44 105.014 176.38C105.214 177.3 105.314 178.37 105.314 179.59V187H101.174V185.17ZM100.064 180.61C99.7236 180.61 99.2936 180.63 98.7736 180.67C98.2736 180.69 97.7836 180.77 97.3036 180.91C96.8436 181.05 96.4436 181.26 96.1036 181.54C95.7836 181.82 95.6236 182.21 95.6236 182.71C95.6236 183.25 95.8536 183.65 96.3136 183.91C96.7736 184.17 97.2536 184.3 97.7536 184.3C98.1936 184.3 98.6136 184.24 99.0136 184.12C99.4336 184 99.8036 183.83 100.124 183.61C100.444 183.39 100.694 183.11 100.874 182.77C101.074 182.43 101.174 182.03 101.174 181.57V180.61H100.064ZM108.197 164.32H112.697V187H108.197V164.32ZM115.99 164.32H120.49V187H115.99V164.32ZM132.123 189.37C131.823 190.15 131.533 190.84 131.253 191.44C130.973 192.04 130.613 192.54 130.173 192.94C129.753 193.36 129.213 193.67 128.553 193.87C127.893 194.09 127.023 194.2 125.943 194.2C124.783 194.2 123.663 194.02 122.583 193.66L123.183 189.97C123.863 190.27 124.563 190.42 125.283 190.42C125.783 190.42 126.193 190.36 126.513 190.24C126.833 190.14 127.093 189.98 127.293 189.76C127.513 189.56 127.693 189.31 127.833 189.01C127.973 188.71 128.123 188.36 128.283 187.96L128.613 187.12L122.223 172.42H127.083L130.833 182.05H130.893L134.103 172.42H138.723L132.123 189.37Z" fill="#EC7C19"/>
</svg>
