<svg width="145" height="203" viewBox="0 0 145 203" fill="none" xmlns="http://www.w3.org/2000/svg">
<path d="M140.375 72.1874C140.375 109.846 109.846 140.375 72.1874 140.375C34.5286 140.375 4 109.846 4 72.1874C4 34.5286 34.5286 4 72.1874 4C109.846 4 140.375 34.5286 140.375 72.1874Z" fill="#8BE8B2" stroke="#219653" stroke-width="8"/>
<path d="M108.846 83.0111C106.738 88.6524 97.1064 110.869 75.772 112.175C51.1691 113.682 39.9652 88.7752 37.5941 82.6646C37.342 82.0148 37.8182 81.3312 38.4968 81.3349L107.972 81.7096C108.633 81.7132 109.086 82.3702 108.846 83.0111Z" fill="#219653"/>
<ellipse cx="50.6695" cy="52.6963" rx="10.4117" ry="10.8281" fill="#219653"/>
<ellipse cx="93.7046" cy="52.6963" rx="10.4117" ry="10.8281" fill="#219653"/>
<path d="M55.4738 177.94L47.4937 165.76H53.3138L57.8138 173.71L62.5838 165.76H68.1338L60.1538 177.94V187H55.4738V177.94ZM80.183 184.48C79.463 185.4 78.553 186.11 77.453 186.61C76.353 187.11 75.213 187.36 74.033 187.36C72.913 187.36 71.853 187.18 70.853 186.82C69.873 186.46 69.013 185.95 68.273 185.29C67.553 184.61 66.983 183.8 66.563 182.86C66.143 181.92 65.933 180.87 65.933 179.71C65.933 178.55 66.143 177.5 66.563 176.56C66.983 175.62 67.553 174.82 68.273 174.16C69.013 173.48 69.873 172.96 70.853 172.6C71.853 172.24 72.913 172.06 74.033 172.06C75.073 172.06 76.013 172.24 76.853 172.6C77.713 172.96 78.433 173.48 79.013 174.16C79.613 174.82 80.073 175.62 80.393 176.56C80.713 177.5 80.873 178.55 80.873 179.71V181.12H70.433C70.613 181.98 71.003 182.67 71.603 183.19C72.203 183.69 72.943 183.94 73.823 183.94C74.563 183.94 75.183 183.78 75.683 183.46C76.203 183.12 76.653 182.69 77.033 182.17L80.183 184.48ZM76.373 178.06C76.393 177.3 76.143 176.65 75.623 176.11C75.103 175.57 74.433 175.3 73.613 175.3C73.113 175.3 72.673 175.38 72.293 175.54C71.913 175.7 71.583 175.91 71.303 176.17C71.043 176.41 70.833 176.7 70.673 177.04C70.533 177.36 70.453 177.7 70.433 178.06H76.373ZM91.8595 176.71C91.1995 175.89 90.3295 175.48 89.2495 175.48C88.8695 175.48 88.4995 175.57 88.1395 175.75C87.7795 175.93 87.5995 176.24 87.5995 176.68C87.5995 177.04 87.7795 177.31 88.1395 177.49C88.5195 177.65 88.9895 177.8 89.5495 177.94C90.1295 178.06 90.7395 178.2 91.3795 178.36C92.0395 178.5 92.6495 178.73 93.2095 179.05C93.7895 179.37 94.2595 179.81 94.6195 180.37C94.9995 180.91 95.1895 181.64 95.1895 182.56C95.1895 183.5 94.9795 184.28 94.5595 184.9C94.1595 185.5 93.6395 185.99 92.9995 186.37C92.3595 186.73 91.6395 186.98 90.8395 187.12C90.0395 187.28 89.2495 187.36 88.4695 187.36C87.4495 187.36 86.4195 187.22 85.3795 186.94C84.3395 186.64 83.4595 186.12 82.7395 185.38L85.4695 182.35C85.8895 182.87 86.3495 183.27 86.8495 183.55C87.3695 183.81 87.9695 183.94 88.6495 183.94C89.1695 183.94 89.6395 183.87 90.0595 183.73C90.4795 183.57 90.6895 183.29 90.6895 182.89C90.6895 182.51 90.4995 182.23 90.1195 182.05C89.7595 181.85 89.2895 181.69 88.7095 181.57C88.1495 181.43 87.5395 181.29 86.8795 181.15C86.2395 180.99 85.6295 180.76 85.0495 180.46C84.4895 180.16 84.0195 179.74 83.6395 179.2C83.2795 178.64 83.0995 177.9 83.0995 176.98C83.0995 176.12 83.2695 175.38 83.6095 174.76C83.9695 174.14 84.4295 173.63 84.9895 173.23C85.5695 172.83 86.2295 172.54 86.9695 172.36C87.7095 172.16 88.4595 172.06 89.2195 172.06C90.1795 172.06 91.1495 172.2 92.1295 172.48C93.1095 172.76 93.9395 173.26 94.6195 173.98L91.8595 176.71Z" fill="#219653"/>
</svg>
