<svg width="173" height="176" viewBox="0 0 173 176" fill="none" xmlns="http://www.w3.org/2000/svg">
<path fill-rule="evenodd" clip-rule="evenodd" d="M124.797 32L96.0417 119.688C95.8297 120.335 96.3114 121 96.992 121H166.027C166.707 121 167.189 120.335 166.977 119.688L138.221 32H124.797Z" fill="#E5B352"/>
<path d="M141.483 25.1276C139.008 28.0068 135.79 29.4464 131.829 29.4464C127.869 29.4464 124.527 28.0068 121.804 25.1276C119.328 22.2484 118.091 18.7148 118.091 14.5269C118.091 10.3389 119.328 6.93625 121.804 4.3188C124.527 1.4396 127.869 0 131.829 0C135.79 0 139.008 1.4396 141.483 4.3188C144.206 6.93625 145.568 10.3389 145.568 14.5269C145.568 18.7148 144.206 22.2484 141.483 25.1276ZM145.568 32.5873C150.518 32.5873 154.603 34.5504 157.821 38.4766C161.286 42.141 163.019 46.4598 163.019 51.433L173 94.6995C173 97.3169 172.01 99.28 170.03 100.589C168.049 101.636 166.069 101.636 164.089 100.589C162.108 99.28 161.118 97.3169 161.118 94.6995L149.919 54.9665H146.592L149.281 167.255C149.281 170.658 147.919 173.145 145.196 174.715C142.721 176.286 140.122 176.416 137.399 175.108C134.923 173.799 133.562 171.182 133.314 167.255V102.473H130.344V167.255C130.344 170.92 128.982 173.406 126.26 174.715C123.537 176.286 120.814 176.286 118.091 174.715C115.615 173.406 114.378 170.92 114.378 167.255L116.65 54.9665H112.15L102.511 94.6995C102.511 97.3169 101.52 99.28 99.5401 100.589C97.8073 101.636 95.9508 101.636 93.9705 100.589C91.9902 99.28 91 97.3169 91 94.6995L100.639 51.433C100.639 46.4598 102.248 42.141 105.466 38.4766C108.932 34.5504 113.14 32.5873 118.091 32.5873H145.568Z" fill="#E5B352"/>
<path d="M42.9688 25C40.3646 27.8646 36.9792 29.2969 32.8125 29.2969C28.6458 29.2969 25.1302 27.8646 22.2656 25C19.6615 22.1354 18.3594 18.6198 18.3594 14.4531C18.3594 10.2865 19.6615 6.90104 22.2656 4.29688C25.1302 1.43229 28.6458 0 32.8125 0C36.9792 0 40.3646 1.43229 42.9688 4.29688C45.8333 6.90104 47.2656 10.2865 47.2656 14.4531C47.2656 18.6198 45.8333 22.1354 42.9688 25ZM47.2656 32.4219C52.474 32.4219 56.7708 34.375 60.1562 38.2812C63.8021 41.9271 65.625 46.224 65.625 51.1719V95.7031C65.625 98.3073 64.5833 100.26 62.5 101.562C60.4167 102.604 58.3333 102.604 56.25 101.562C54.1667 100.26 53.125 98.3073 53.125 95.7031V54.6875H51.1719V166.406C51.1719 169.792 49.7396 172.266 46.875 173.828C44.2708 175.391 41.5365 175.521 38.6719 174.219C36.0677 172.917 34.6354 170.312 34.375 166.406V101.953H31.25V166.406C31.25 170.052 29.8177 172.526 26.9531 173.828C24.0885 175.391 21.224 175.391 18.3594 173.828C15.7552 172.526 14.4531 170.052 14.4531 166.406V54.6875H12.1094V95.7031C12.1094 98.3073 11.0677 100.26 8.98438 101.562C7.16146 102.604 5.20833 102.604 3.125 101.562C1.04167 100.26 0 98.3073 0 95.7031V51.1719C0 46.224 1.69271 41.9271 5.07812 38.2812C8.72396 34.375 13.151 32.4219 18.3594 32.4219H47.2656Z" fill="#E5B352"/>
</svg>
