<svg width="118" height="279" viewBox="0 0 118 279" fill="none" xmlns="http://www.w3.org/2000/svg">
<path d="M12.5645 221.344L26.5098 256.148L40.4551 221.344H47.75V264H42.125V247.389L42.6523 229.459L28.6484 264H24.3418L10.3672 229.547L10.9238 247.389V264H5.29883V221.344H12.5645ZM69.9863 264.586C65.6895 264.586 62.1934 263.18 59.498 260.367C56.8027 257.535 55.4551 253.756 55.4551 249.029V248.033C55.4551 244.889 56.0508 242.086 57.2422 239.625C58.4531 237.145 60.1328 235.211 62.2812 233.824C64.4492 232.418 66.793 231.715 69.3125 231.715C73.4336 231.715 76.6367 233.072 78.9219 235.787C81.207 238.502 82.3496 242.389 82.3496 247.447V249.703H60.875C60.9531 252.828 61.8613 255.357 63.5996 257.291C65.3574 259.205 67.584 260.162 70.2793 260.162C72.1934 260.162 73.8145 259.771 75.1426 258.99C76.4707 258.209 77.6328 257.174 78.6289 255.885L81.9395 258.463C79.2832 262.545 75.2988 264.586 69.9863 264.586ZM69.3125 236.168C67.125 236.168 65.2891 236.969 63.8047 238.57C62.3203 240.152 61.4023 242.379 61.0508 245.25H76.9297V244.84C76.7734 242.086 76.0312 239.957 74.7031 238.453C73.375 236.93 71.5781 236.168 69.3125 236.168ZM93.7754 232.301L93.9512 236.285C96.373 233.238 99.5371 231.715 103.443 231.715C110.143 231.715 113.521 235.494 113.58 243.053V264H108.16V243.023C108.141 240.738 107.613 239.049 106.578 237.955C105.562 236.861 103.971 236.314 101.803 236.314C100.045 236.314 98.502 236.783 97.1738 237.721C95.8457 238.658 94.8105 239.889 94.0684 241.412V264H88.6484V232.301H93.7754Z" fill="black"/>
<path d="M69.3574 25C66.7533 27.8646 63.3678 29.2969 59.2012 29.2969C55.0345 29.2969 51.5189 27.8646 48.6543 25C46.0501 22.1354 44.748 18.6198 44.748 14.4531C44.748 10.2865 46.0501 6.90104 48.6543 4.29688C51.5189 1.43229 55.0345 0 59.2012 0C63.3678 0 66.7533 1.43229 69.3574 4.29688C72.222 6.90104 73.6543 10.2865 73.6543 14.4531C73.6543 18.6198 72.222 22.1354 69.3574 25ZM73.6543 32.4219C78.8626 32.4219 83.1595 34.375 86.5449 38.2812C90.1908 41.9271 92.0137 46.224 92.0137 51.1719V95.7031C92.0137 98.3073 90.972 100.26 88.8887 101.562C86.8053 102.604 84.722 102.604 82.6387 101.562C80.5553 100.26 79.5137 98.3073 79.5137 95.7031V54.6875H77.5605V166.406C77.5605 169.792 76.1283 172.266 73.2637 173.828C70.6595 175.391 67.9251 175.521 65.0605 174.219C62.4564 172.917 61.0241 170.312 60.7637 166.406V101.953H57.6387V166.406C57.6387 170.052 56.2064 172.526 53.3418 173.828C50.4772 175.391 47.6126 175.391 44.748 173.828C42.1439 172.526 40.8418 170.052 40.8418 166.406V54.6875H38.498V95.7031C38.498 98.3073 37.4564 100.26 35.373 101.562C33.5501 102.604 31.597 102.604 29.5137 101.562C27.4303 100.26 26.3887 98.3073 26.3887 95.7031V51.1719C26.3887 46.224 28.0814 41.9271 31.4668 38.2812C35.1126 34.375 39.5397 32.4219 44.748 32.4219H73.6543Z" fill="black"/>
</svg>
