<svg width="119" height="268" viewBox="0 0 119 268" fill="none" xmlns="http://www.w3.org/2000/svg">
<path d="M15.4668 210.344L26.4238 241.281L37.3223 210.344H48.8652V253H40.0469V241.34L40.9258 221.213L29.4121 253H23.377L11.8926 221.242L12.7715 241.34V253H3.98242V210.344H15.4668ZM70.5742 253.586C65.9258 253.586 62.1367 252.16 59.207 249.309C56.2969 246.457 54.8418 242.658 54.8418 237.912V237.092C54.8418 233.908 55.457 231.066 56.6875 228.566C57.918 226.047 59.6562 224.113 61.9023 222.766C64.168 221.398 66.7461 220.715 69.6367 220.715C73.9727 220.715 77.3809 222.082 79.8613 224.816C82.3613 227.551 83.6113 231.428 83.6113 236.447V239.904H63.4258C63.6992 241.975 64.5195 243.635 65.8867 244.885C67.2734 246.135 69.0215 246.76 71.1309 246.76C74.3926 246.76 76.9414 245.578 78.7773 243.215L82.9375 247.873C81.668 249.67 79.9492 251.076 77.7812 252.092C75.6133 253.088 73.2109 253.586 70.5742 253.586ZM69.6074 227.57C67.9277 227.57 66.5605 228.137 65.5059 229.27C64.4707 230.402 63.8066 232.023 63.5137 234.133H75.291V233.459C75.252 231.584 74.7441 230.139 73.7676 229.123C72.791 228.088 71.4043 227.57 69.6074 227.57ZM96.2383 221.301L96.502 224.963C98.7676 222.131 101.805 220.715 105.613 220.715C108.973 220.715 111.473 221.701 113.113 223.674C114.754 225.646 115.594 228.596 115.633 232.521V253H107.166V232.727C107.166 230.93 106.775 229.631 105.994 228.83C105.213 228.01 103.914 227.6 102.098 227.6C99.7148 227.6 97.9277 228.615 96.7363 230.646V253H88.2695V221.301H96.2383Z" fill="#FFEFD5"/>
<path d="M68.9688 25C66.3646 27.8646 62.9792 29.2969 58.8125 29.2969C54.6458 29.2969 51.1302 27.8646 48.2656 25C45.6615 22.1354 44.3594 18.6198 44.3594 14.4531C44.3594 10.2865 45.6615 6.90104 48.2656 4.29688C51.1302 1.43229 54.6458 0 58.8125 0C62.9792 0 66.3646 1.43229 68.9688 4.29688C71.8333 6.90104 73.2656 10.2865 73.2656 14.4531C73.2656 18.6198 71.8333 22.1354 68.9688 25ZM73.2656 32.4219C78.474 32.4219 82.7708 34.375 86.1562 38.2812C89.8021 41.9271 91.625 46.224 91.625 51.1719V95.7031C91.625 98.3073 90.5833 100.26 88.5 101.562C86.4167 102.604 84.3333 102.604 82.25 101.562C80.1667 100.26 79.125 98.3073 79.125 95.7031V54.6875H77.1719V166.406C77.1719 169.792 75.7396 172.266 72.875 173.828C70.2708 175.391 67.5365 175.521 64.6719 174.219C62.0677 172.917 60.6354 170.312 60.375 166.406V101.953H57.25V166.406C57.25 170.052 55.8177 172.526 52.9531 173.828C50.0885 175.391 47.224 175.391 44.3594 173.828C41.7552 172.526 40.4531 170.052 40.4531 166.406V54.6875H38.1094V95.7031C38.1094 98.3073 37.0677 100.26 34.9844 101.562C33.1615 102.604 31.2083 102.604 29.125 101.562C27.0417 100.26 26 98.3073 26 95.7031V51.1719C26 46.224 27.6927 41.9271 31.0781 38.2812C34.724 34.375 39.151 32.4219 44.3594 32.4219H73.2656Z" fill="#D19D61"/>
</svg>
