<svg width="191" height="273" viewBox="0 0 191 273" fill="none" xmlns="http://www.w3.org/2000/svg">
<rect x="77" y="34" width="6" height="141" rx="3" fill="#D19D61"/>
<path d="M42.9688 25C40.3646 27.8646 36.9792 29.2969 32.8125 29.2969C28.6458 29.2969 25.1302 27.8646 22.2656 25C19.6615 22.1354 18.3594 18.6198 18.3594 14.4531C18.3594 10.2865 19.6615 6.90104 22.2656 4.29688C25.1302 1.43229 28.6458 0 32.8125 0C36.9792 0 40.3646 1.43229 42.9688 4.29688C45.8333 6.90104 47.2656 10.2865 47.2656 14.4531C47.2656 18.6198 45.8333 22.1354 42.9688 25ZM47.2656 32.4219C52.474 32.4219 56.7708 34.375 60.1562 38.2812C63.8021 41.9271 65.625 46.224 65.625 51.1719V95.7031C65.625 98.3073 64.5833 100.26 62.5 101.562C60.4167 102.604 58.3333 102.604 56.25 101.562C54.1667 100.26 53.125 98.3073 53.125 95.7031V54.6875H51.1719V166.406C51.1719 169.792 49.7396 172.266 46.875 173.828C44.2708 175.391 41.5365 175.521 38.6719 174.219C36.0677 172.917 34.6354 170.312 34.375 166.406V101.953H31.25V166.406C31.25 170.052 29.8177 172.526 26.9531 173.828C24.0885 175.391 21.224 175.391 18.3594 173.828C15.7552 172.526 14.4531 170.052 14.4531 166.406V54.6875H12.1094V95.7031C12.1094 98.3073 11.0677 100.26 8.98438 101.562C7.16146 102.604 5.20833 102.604 3.125 101.562C1.04167 100.26 0 98.3073 0 95.7031V51.1719C0 46.224 1.69271 41.9271 5.07812 38.2812C8.72396 34.375 13.151 32.4219 18.3594 32.4219H47.2656Z" fill="#D19D61"/>
<path d="M49.084 237.639C49.084 241.838 48.3418 245.52 46.8574 248.684C45.373 251.848 43.2441 254.289 40.4707 256.008C37.7168 257.727 34.5527 258.586 30.9785 258.586C27.4434 258.586 24.2891 257.736 21.5156 256.037C18.7422 254.338 16.5938 251.916 15.0703 248.771C13.5469 245.607 12.7754 241.975 12.7559 237.873V235.764C12.7559 231.564 13.5078 227.873 15.0117 224.689C16.5352 221.486 18.6738 219.035 21.4277 217.336C24.2012 215.617 27.3652 214.758 30.9199 214.758C34.4746 214.758 37.6289 215.617 40.3828 217.336C43.1562 219.035 45.2949 221.486 46.7988 224.689C48.3223 227.873 49.084 231.555 49.084 235.734V237.639ZM40.1777 235.705C40.1777 231.232 39.377 227.834 37.7754 225.51C36.1738 223.186 33.8887 222.023 30.9199 222.023C27.9707 222.023 25.6953 223.176 24.0938 225.48C22.4922 227.766 21.6816 231.125 21.6621 235.559V237.639C21.6621 241.994 22.4629 245.373 24.0645 247.775C25.666 250.178 27.9707 251.379 30.9785 251.379C33.9277 251.379 36.1934 250.227 37.7754 247.922C39.3574 245.598 40.1582 242.219 40.1777 237.785V235.705ZM65.0508 218.508V226.301H70.4707V232.512H65.0508V248.332C65.0508 249.504 65.2754 250.344 65.7246 250.852C66.1738 251.359 67.0332 251.613 68.3027 251.613C69.2402 251.613 70.0703 251.545 70.793 251.408V257.824C69.1328 258.332 67.4238 258.586 65.666 258.586C59.7285 258.586 56.7012 255.588 56.584 249.592V232.512H51.9551V226.301H56.584V218.508H65.0508ZM83.4492 229.758C85.6953 227.062 88.5176 225.715 91.916 225.715C98.791 225.715 102.277 229.709 102.375 237.697V258H93.9082V237.932C93.9082 236.115 93.5176 234.777 92.7363 233.918C91.9551 233.039 90.6562 232.6 88.8398 232.6C86.3594 232.6 84.5625 233.557 83.4492 235.471V258H74.9824V213H83.4492V229.758ZM123.352 258.586C118.703 258.586 114.914 257.16 111.984 254.309C109.074 251.457 107.619 247.658 107.619 242.912V242.092C107.619 238.908 108.234 236.066 109.465 233.566C110.695 231.047 112.434 229.113 114.68 227.766C116.945 226.398 119.523 225.715 122.414 225.715C126.75 225.715 130.158 227.082 132.639 229.816C135.139 232.551 136.389 236.428 136.389 241.447V244.904H116.203C116.477 246.975 117.297 248.635 118.664 249.885C120.051 251.135 121.799 251.76 123.908 251.76C127.17 251.76 129.719 250.578 131.555 248.215L135.715 252.873C134.445 254.67 132.727 256.076 130.559 257.092C128.391 258.088 125.988 258.586 123.352 258.586ZM122.385 232.57C120.705 232.57 119.338 233.137 118.283 234.27C117.248 235.402 116.584 237.023 116.291 239.133H128.068V238.459C128.029 236.584 127.521 235.139 126.545 234.123C125.568 233.088 124.182 232.57 122.385 232.57ZM159.035 234.24C157.883 234.084 156.867 234.006 155.988 234.006C152.785 234.006 150.686 235.09 149.689 237.258V258H141.223V226.301H149.221L149.455 230.08C151.154 227.17 153.508 225.715 156.516 225.715C157.453 225.715 158.332 225.842 159.152 226.096L159.035 234.24ZM180.305 249.24C180.305 248.205 179.787 247.395 178.752 246.809C177.736 246.203 176.096 245.666 173.83 245.197C166.291 243.615 162.521 240.412 162.521 235.588C162.521 232.775 163.684 230.432 166.008 228.557C168.352 226.662 171.408 225.715 175.178 225.715C179.201 225.715 182.414 226.662 184.816 228.557C187.238 230.451 188.449 232.912 188.449 235.939H179.982C179.982 234.729 179.592 233.732 178.811 232.951C178.029 232.15 176.809 231.75 175.148 231.75C173.723 231.75 172.619 232.072 171.838 232.717C171.057 233.361 170.666 234.182 170.666 235.178C170.666 236.115 171.105 236.877 171.984 237.463C172.883 238.029 174.387 238.527 176.496 238.957C178.605 239.367 180.383 239.836 181.828 240.363C186.301 242.004 188.537 244.846 188.537 248.889C188.537 251.779 187.297 254.123 184.816 255.92C182.336 257.697 179.133 258.586 175.207 258.586C172.551 258.586 170.188 258.117 168.117 257.18C166.066 256.223 164.455 254.924 163.283 253.283C162.111 251.623 161.525 249.836 161.525 247.922H169.553C169.631 249.426 170.188 250.578 171.223 251.379C172.258 252.18 173.645 252.58 175.383 252.58C177.004 252.58 178.225 252.277 179.045 251.672C179.885 251.047 180.305 250.236 180.305 249.24Z" fill="#FFEFD5"/>
<path fill-rule="evenodd" clip-rule="evenodd" d="M129.806 34L101.051 121.688C100.838 122.335 101.32 123 102.001 123H171.035C171.716 123 172.198 122.335 171.986 121.688L143.23 34H129.806Z" fill="#D19D61"/>
<path d="M146.483 25.1276C144.008 28.0068 140.79 29.4464 136.829 29.4464C132.869 29.4464 129.527 28.0068 126.804 25.1276C124.328 22.2484 123.091 18.7148 123.091 14.5269C123.091 10.3389 124.328 6.93625 126.804 4.3188C129.527 1.4396 132.869 0 136.829 0C140.79 0 144.008 1.4396 146.483 4.3188C149.206 6.93625 150.568 10.3389 150.568 14.5269C150.568 18.7148 149.206 22.2484 146.483 25.1276ZM150.568 32.5873C155.518 32.5873 159.603 34.5504 162.821 38.4766C166.286 42.141 168.019 46.4598 168.019 51.433L178 94.6995C178 97.3169 177.01 99.28 175.03 100.589C173.049 101.636 171.069 101.636 169.089 100.589C167.108 99.28 166.118 97.3169 166.118 94.6995L154.919 54.9665H151.592L154.281 167.255C154.281 170.658 152.919 173.145 150.196 174.715C147.721 176.286 145.122 176.416 142.399 175.108C139.923 173.799 138.562 171.182 138.314 167.255V102.473H135.344V167.255C135.344 170.92 133.982 173.406 131.26 174.715C128.537 176.286 125.814 176.286 123.091 174.715C120.615 173.406 119.378 170.92 119.378 167.255L121.65 54.9665H117.15L107.511 94.6995C107.511 97.3169 106.52 99.28 104.54 100.589C102.807 101.636 100.951 101.636 98.9705 100.589C96.9902 99.28 96 97.3169 96 94.6995L105.639 51.433C105.639 46.4598 107.248 42.141 110.466 38.4766C113.932 34.5504 118.14 32.5873 123.091 32.5873H150.568Z" fill="#D19D61"/>
</svg>
