<svg width="205" height="279" viewBox="0 0 205 279" fill="none" xmlns="http://www.w3.org/2000/svg">
<path fill-rule="evenodd" clip-rule="evenodd" d="M95.7973 32L67.0417 119.688C66.8297 120.335 67.3114 121 67.992 121H137.027C137.707 121 138.189 120.335 137.977 119.688L109.221 32H95.7973Z" fill="black"/>
<path d="M112.483 25.1276C110.008 28.0068 106.79 29.4464 102.829 29.4464C98.8686 29.4464 95.5268 28.0068 92.8038 25.1276C90.3284 22.2484 89.0907 18.7148 89.0907 14.5269C89.0907 10.3389 90.3284 6.93625 92.8038 4.3188C95.5268 1.4396 98.8686 0 102.829 0C106.79 0 110.008 1.4396 112.483 4.3188C115.206 6.93625 116.568 10.3389 116.568 14.5269C116.568 18.7148 115.206 22.2484 112.483 25.1276ZM116.568 32.5873C121.518 32.5873 125.603 34.5504 128.821 38.4766C132.286 42.141 134.019 46.4598 134.019 51.433L144 94.6995C144 97.3169 143.01 99.28 141.03 100.589C139.049 101.636 137.069 101.636 135.089 100.589C133.108 99.28 132.118 97.3169 132.118 94.6995L120.919 54.9665H117.592L120.281 167.255C120.281 170.658 118.919 173.145 116.196 174.715C113.721 176.286 111.122 176.416 108.399 175.108C105.923 173.799 104.562 171.182 104.314 167.255V102.473H101.344V167.255C101.344 170.92 99.9825 173.406 97.2596 174.715C94.5366 176.286 91.8137 176.286 89.0907 174.715C86.6153 173.406 85.3776 170.92 85.3776 167.255L87.6501 54.9665H83.1498L73.5106 94.6995C73.5106 97.3169 72.5204 99.28 70.5401 100.589C68.8073 101.636 66.9508 101.636 64.9705 100.589C62.9902 99.28 62 97.3169 62 94.6995L71.6392 51.433C71.6392 46.4598 73.2482 42.141 76.4662 38.4766C79.9318 34.5504 84.14 32.5873 89.0907 32.5873H116.568Z" fill="black"/>
<path d="M14.6094 250.553L15.4297 256.178L16.6309 251.109L25.0684 221.344H29.8145L38.0469 251.109L39.2188 256.266L40.127 250.523L46.748 221.344H52.4023L42.0605 264H36.9336L28.1445 232.916L27.4707 229.664L26.7969 232.916L17.6855 264H12.5586L2.24609 221.344H7.87109L14.6094 250.553ZM55.4492 247.857C55.4492 244.752 56.0547 241.959 57.2656 239.479C58.4961 236.998 60.1953 235.084 62.3633 233.736C64.5508 232.389 67.041 231.715 69.834 231.715C74.1504 231.715 77.6367 233.209 80.293 236.197C82.9688 239.186 84.3066 243.16 84.3066 248.121V248.502C84.3066 251.588 83.7109 254.361 82.5195 256.822C81.3477 259.264 79.6582 261.168 77.4512 262.535C75.2637 263.902 72.7441 264.586 69.8926 264.586C65.5957 264.586 62.1094 263.092 59.4336 260.104C56.7773 257.115 55.4492 253.16 55.4492 248.238V247.857ZM60.8984 248.502C60.8984 252.018 61.709 254.84 63.3301 256.969C64.9707 259.098 67.1582 260.162 69.8926 260.162C72.6465 260.162 74.834 259.088 76.4551 256.939C78.0762 254.771 78.8867 251.744 78.8867 247.857C78.8867 244.381 78.0566 241.568 76.3965 239.42C74.7559 237.252 72.5684 236.168 69.834 236.168C67.1582 236.168 65 237.232 63.3594 239.361C61.7188 241.49 60.8984 244.537 60.8984 248.502ZM96.2012 232.301L96.3477 235.816C98.6719 233.082 101.807 231.715 105.752 231.715C110.186 231.715 113.203 233.414 114.805 236.812C115.859 235.289 117.227 234.059 118.906 233.121C120.605 232.184 122.607 231.715 124.912 231.715C131.865 231.715 135.4 235.396 135.518 242.76V264H130.098V243.082C130.098 240.816 129.58 239.127 128.545 238.014C127.51 236.881 125.771 236.314 123.33 236.314C121.318 236.314 119.648 236.92 118.32 238.131C116.992 239.322 116.221 240.934 116.006 242.965V264H110.557V243.229C110.557 238.619 108.301 236.314 103.789 236.314C100.234 236.314 97.8027 237.828 96.4941 240.855V264H91.0742V232.301H96.2012ZM156.875 264.586C152.578 264.586 149.082 263.18 146.387 260.367C143.691 257.535 142.344 253.756 142.344 249.029V248.033C142.344 244.889 142.939 242.086 144.131 239.625C145.342 237.145 147.021 235.211 149.17 233.824C151.338 232.418 153.682 231.715 156.201 231.715C160.322 231.715 163.525 233.072 165.811 235.787C168.096 238.502 169.238 242.389 169.238 247.447V249.703H147.764C147.842 252.828 148.75 255.357 150.488 257.291C152.246 259.205 154.473 260.162 157.168 260.162C159.082 260.162 160.703 259.771 162.031 258.99C163.359 258.209 164.521 257.174 165.518 255.885L168.828 258.463C166.172 262.545 162.188 264.586 156.875 264.586ZM156.201 236.168C154.014 236.168 152.178 236.969 150.693 238.57C149.209 240.152 148.291 242.379 147.939 245.25H163.818V244.84C163.662 242.086 162.92 239.957 161.592 238.453C160.264 236.93 158.467 236.168 156.201 236.168ZM180.664 232.301L180.84 236.285C183.262 233.238 186.426 231.715 190.332 231.715C197.031 231.715 200.41 235.494 200.469 243.053V264H195.049V243.023C195.029 240.738 194.502 239.049 193.467 237.955C192.451 236.861 190.859 236.314 188.691 236.314C186.934 236.314 185.391 236.783 184.062 237.721C182.734 238.658 181.699 239.889 180.957 241.412V264H175.537V232.301H180.664Z" fill="black"/>
</svg>
