<svg width="204" height="269" viewBox="0 0 204 269" fill="none" xmlns="http://www.w3.org/2000/svg">
<path fill-rule="evenodd" clip-rule="evenodd" d="M70.8061 34L42.0505 121.688C41.8385 122.335 42.3202 123 43.0007 123H112.035C112.716 123 113.198 122.335 112.986 121.688L84.2301 34H70.8061Z" fill="#D19D61"/>
<path d="M87.4832 25.1276C85.0079 28.0068 81.7898 29.4464 77.8292 29.4464C73.8686 29.4464 70.5268 28.0068 67.8038 25.1276C65.3284 22.2484 64.0907 18.7148 64.0907 14.5269C64.0907 10.3389 65.3284 6.93625 67.8038 4.3188C70.5268 1.4396 73.8686 0 77.8292 0C81.7898 0 85.0079 1.4396 87.4832 4.3188C90.2062 6.93625 91.5677 10.3389 91.5677 14.5269C91.5677 18.7148 90.2062 22.2484 87.4832 25.1276ZM91.5677 32.5873C96.5184 32.5873 100.603 34.5504 103.821 38.4766C107.286 42.141 109.019 46.4598 109.019 51.433L119 94.6995C119 97.3169 118.01 99.28 116.03 100.589C114.049 101.636 112.069 101.636 110.089 100.589C108.108 99.28 107.118 97.3169 107.118 94.6995L95.9194 54.9665H92.5925L95.2807 167.255C95.2807 170.658 93.9193 173.145 91.1963 174.715C88.7209 176.286 86.1218 176.416 83.3988 175.108C80.9234 173.799 79.562 171.182 79.3144 167.255V102.473H76.344V167.255C76.344 170.92 74.9825 173.406 72.2596 174.715C69.5366 176.286 66.8137 176.286 64.0907 174.715C61.6153 173.406 60.3776 170.92 60.3776 167.255L62.6501 54.9665H58.1498L48.5106 94.6995C48.5106 97.3169 47.5204 99.28 45.5401 100.589C43.8073 101.636 41.9508 101.636 39.9705 100.589C37.9902 99.28 37 97.3169 37 94.6995L46.6392 51.433C46.6392 46.4598 48.2482 42.141 51.4662 38.4766C54.9318 34.5504 59.14 32.5873 64.0907 32.5873H91.5677Z" fill="#D19D61"/>
<path d="M37.2539 241.695L42.9961 211.344H51.7559L42.293 254H33.4453L26.502 225.465L19.5586 254H10.7109L1.24805 211.344H10.0078L15.7793 241.637L22.8105 211.344H30.252L37.2539 241.695ZM53.7188 237.857C53.7188 234.713 54.3242 231.91 55.5352 229.449C56.7461 226.988 58.4844 225.084 60.75 223.736C63.0352 222.389 65.6816 221.715 68.6895 221.715C72.9668 221.715 76.4531 223.023 79.1484 225.641C81.8633 228.258 83.377 231.812 83.6895 236.305L83.748 238.473C83.748 243.336 82.3906 247.242 79.6758 250.191C76.9609 253.121 73.3184 254.586 68.748 254.586C64.1777 254.586 60.5254 253.121 57.791 250.191C55.0762 247.262 53.7188 243.277 53.7188 238.238V237.857ZM62.1855 238.473C62.1855 241.48 62.752 243.785 63.8848 245.387C65.0176 246.969 66.6387 247.76 68.748 247.76C70.7988 247.76 72.4004 246.979 73.5527 245.416C74.7051 243.834 75.2812 241.314 75.2812 237.857C75.2812 234.908 74.7051 232.623 73.5527 231.002C72.4004 229.381 70.7793 228.57 68.6895 228.57C66.6191 228.57 65.0176 229.381 63.8848 231.002C62.752 232.604 62.1855 235.094 62.1855 238.473ZM96.9023 222.301L97.166 225.846C99.4121 223.092 102.449 221.715 106.277 221.715C110.359 221.715 113.162 223.326 114.686 226.549C116.912 223.326 120.086 221.715 124.207 221.715C127.645 221.715 130.203 222.721 131.883 224.732C133.562 226.725 134.402 229.732 134.402 233.756V254H125.906V233.785C125.906 231.988 125.555 230.68 124.852 229.859C124.148 229.02 122.908 228.6 121.131 228.6C118.592 228.6 116.834 229.811 115.857 232.232L115.887 254H107.42V233.814C107.42 231.979 107.059 230.65 106.336 229.83C105.613 229.01 104.383 228.6 102.645 228.6C100.242 228.6 98.5039 229.596 97.4297 231.588V254H88.9629V222.301H96.9023ZM155.525 254.586C150.877 254.586 147.088 253.16 144.158 250.309C141.248 247.457 139.793 243.658 139.793 238.912V238.092C139.793 234.908 140.408 232.066 141.639 229.566C142.869 227.047 144.607 225.113 146.854 223.766C149.119 222.398 151.697 221.715 154.588 221.715C158.924 221.715 162.332 223.082 164.812 225.816C167.312 228.551 168.562 232.428 168.562 237.447V240.904H148.377C148.65 242.975 149.471 244.635 150.838 245.885C152.225 247.135 153.973 247.76 156.082 247.76C159.344 247.76 161.893 246.578 163.729 244.215L167.889 248.873C166.619 250.67 164.9 252.076 162.732 253.092C160.564 254.088 158.162 254.586 155.525 254.586ZM154.559 228.57C152.879 228.57 151.512 229.137 150.457 230.27C149.422 231.402 148.758 233.023 148.465 235.133H160.242V234.459C160.203 232.584 159.695 231.139 158.719 230.123C157.742 229.088 156.355 228.57 154.559 228.57ZM181.189 222.301L181.453 225.963C183.719 223.131 186.756 221.715 190.564 221.715C193.924 221.715 196.424 222.701 198.064 224.674C199.705 226.646 200.545 229.596 200.584 233.521V254H192.117V233.727C192.117 231.93 191.727 230.631 190.945 229.83C190.164 229.01 188.865 228.6 187.049 228.6C184.666 228.6 182.879 229.615 181.688 231.646V254H173.221V222.301H181.189Z" fill="#FFEFD5"/>
</svg>
