<svg width="187" height="338" viewBox="0 0 187 338" fill="none" xmlns="http://www.w3.org/2000/svg">
<circle cx="83" cy="80" r="75.5" fill="#CAC5EA" stroke="#1D3FB6" stroke-width="9"/>
<path d="M73.2915 92.3C73.2915 89.3 73.6915 86.75 74.4915 84.65C75.2915 82.55 76.6415 80.6 78.5415 78.8C81.3415 76.1 83.8915 73.75 86.1915 71.75C88.5915 69.75 90.6415 67.9 92.3415 66.2C94.0415 64.4 95.3415 62.75 96.2415 61.25C97.2415 59.65 97.7415 58 97.7415 56.3C97.7415 53 96.6915 50.45 94.5915 48.65C92.5915 46.75 90.0415 45.8 86.9415 45.8C82.2415 45.8 78.6415 47.1 76.1415 49.7C73.7415 52.3 72.3915 55.45 72.0915 59.15L48.9915 57.65C50.0915 47.05 53.9915 39 60.6915 33.5C67.3915 27.9 75.9915 25.1 86.4915 25.1C91.0915 25.1 95.3915 25.75 99.3915 27.05C103.491 28.25 107.091 30.1 110.191 32.6C113.291 35.1 115.741 38.2 117.541 41.9C119.341 45.6 120.241 49.85 120.241 54.65C120.241 57.55 119.941 60.2 119.341 62.6C118.741 64.9 117.691 67.2 116.191 69.5C114.791 71.8 112.891 74.15 110.491 76.55C108.191 78.85 105.241 81.4 101.641 84.2C99.3415 86 97.7915 87.75 96.9915 89.45C96.1915 91.15 95.7915 92.85 95.7915 94.55V98.9H73.2915V92.3ZM70.7415 121.1C70.7415 119.2 71.0915 117.4 71.7915 115.7C72.4915 114 73.4415 112.55 74.6415 111.35C75.9415 110.05 77.4415 109.05 79.1415 108.35C80.8415 107.65 82.6415 107.3 84.5415 107.3C86.4415 107.3 88.2415 107.65 89.9415 108.35C91.6415 109.05 93.0915 110.05 94.2915 111.35C95.5915 112.55 96.5915 114 97.2915 115.7C97.9915 117.4 98.3415 119.2 98.3415 121.1C98.3415 123 97.9915 124.8 97.2915 126.5C96.5915 128.2 95.5915 129.7 94.2915 131C93.0915 132.2 91.6415 133.15 89.9415 133.85C88.2415 134.55 86.4415 134.9 84.5415 134.9C82.6415 134.9 80.8415 134.55 79.1415 133.85C77.4415 133.15 75.9415 132.2 74.6415 131C73.4415 129.7 72.4915 128.2 71.7915 126.5C71.0915 124.8 70.7415 123 70.7415 121.1Z" fill="#1D3FB6"/>
<path d="M4.18838 181.06H12.7684V220H4.18838V181.06ZM63.8522 220H56.2622V216.48H56.1522C55.8222 216.957 55.3822 217.452 54.8322 217.965C54.3189 218.442 53.6955 218.882 52.9622 219.285C52.2655 219.688 51.4772 220.018 50.5972 220.275C49.7539 220.532 48.8739 220.66 47.9572 220.66C45.9772 220.66 44.1805 220.33 42.5672 219.67C40.9539 218.973 39.5605 218.02 38.3872 216.81C37.2505 215.563 36.3705 214.097 35.7472 212.41C35.1239 210.723 34.8122 208.872 34.8122 206.855C34.8122 204.985 35.0872 203.207 35.6372 201.52C36.2239 199.797 37.0305 198.275 38.0572 196.955C39.1205 195.635 40.4039 194.59 41.9072 193.82C43.4105 193.013 45.1155 192.61 47.0222 192.61C48.7455 192.61 50.3405 192.885 51.8072 193.435C53.3105 193.948 54.5389 194.847 55.4922 196.13H55.6022V178.42H63.8522V220ZM56.2622 206.635C56.2622 204.618 55.6755 202.987 54.5022 201.74C53.3655 200.493 51.7522 199.87 49.6622 199.87C47.5722 199.87 45.9405 200.493 44.7672 201.74C43.6305 202.987 43.0622 204.618 43.0622 206.635C43.0622 208.652 43.6305 210.283 44.7672 211.53C45.9405 212.777 47.5722 213.4 49.6622 213.4C51.7522 213.4 53.3655 212.777 54.5022 211.53C55.6755 210.283 56.2622 208.652 56.2622 206.635ZM69.4558 206.635C69.4558 204.508 69.8408 202.583 70.6108 200.86C71.3808 199.137 72.4258 197.67 73.7458 196.46C75.1024 195.213 76.6791 194.26 78.4758 193.6C80.3091 192.94 82.2524 192.61 84.3058 192.61C86.3591 192.61 88.2841 192.94 90.0808 193.6C91.9141 194.26 93.4908 195.213 94.8108 196.46C96.1674 197.67 97.2308 199.137 98.0008 200.86C98.7708 202.583 99.1558 204.508 99.1558 206.635C99.1558 208.762 98.7708 210.687 98.0008 212.41C97.2308 214.133 96.1674 215.618 94.8108 216.865C93.4908 218.075 91.9141 219.01 90.0808 219.67C88.2841 220.33 86.3591 220.66 84.3058 220.66C82.2524 220.66 80.3091 220.33 78.4758 219.67C76.6791 219.01 75.1024 218.075 73.7458 216.865C72.4258 215.618 71.3808 214.133 70.6108 212.41C69.8408 210.687 69.4558 208.762 69.4558 206.635ZM77.7058 206.635C77.7058 208.652 78.2741 210.283 79.4108 211.53C80.5841 212.777 82.2158 213.4 84.3058 213.4C86.3958 213.4 88.0091 212.777 89.1458 211.53C90.3191 210.283 90.9058 208.652 90.9058 206.635C90.9058 204.618 90.3191 202.987 89.1458 201.74C88.0091 200.493 86.3958 199.87 84.3058 199.87C82.2158 199.87 80.5841 200.493 79.4108 201.74C78.2741 202.987 77.7058 204.618 77.7058 206.635ZM104.015 193.27H111.935V196.9H112.045C112.302 196.387 112.668 195.873 113.145 195.36C113.622 194.847 114.19 194.388 114.85 193.985C115.51 193.582 116.262 193.252 117.105 192.995C117.948 192.738 118.865 192.61 119.855 192.61C121.945 192.61 123.632 192.94 124.915 193.6C126.198 194.223 127.188 195.103 127.885 196.24C128.618 197.377 129.113 198.715 129.37 200.255C129.627 201.795 129.755 203.463 129.755 205.26V220H121.505V206.91C121.505 206.14 121.468 205.352 121.395 204.545C121.358 203.702 121.193 202.932 120.9 202.235C120.643 201.538 120.222 200.97 119.635 200.53C119.085 200.09 118.278 199.87 117.215 199.87C116.152 199.87 115.29 200.072 114.63 200.475C113.97 200.842 113.457 201.355 113.09 202.015C112.76 202.638 112.54 203.353 112.43 204.16C112.32 204.967 112.265 205.81 112.265 206.69V220H104.015V193.27ZM141.867 196.57H134.827L138.897 181.06H146.817L141.867 196.57ZM169.11 199.87H161.85V208.78C161.85 209.513 161.886 210.192 161.96 210.815C162.033 211.402 162.198 211.915 162.455 212.355C162.711 212.795 163.096 213.143 163.61 213.4C164.16 213.62 164.875 213.73 165.755 213.73C166.195 213.73 166.763 213.693 167.46 213.62C168.193 213.51 168.743 213.29 169.11 212.96V219.835C168.193 220.165 167.24 220.385 166.25 220.495C165.26 220.605 164.288 220.66 163.335 220.66C161.941 220.66 160.658 220.513 159.485 220.22C158.311 219.927 157.285 219.468 156.405 218.845C155.525 218.185 154.828 217.342 154.315 216.315C153.838 215.288 153.6 214.042 153.6 212.575V199.87H148.32V193.27H153.6V185.35H161.85V193.27H169.11V199.87ZM25.6508 268.42H33.9008V293.83L43.0308 283.27H53.1508L42.5358 295.315L53.4258 310H43.0308L34.0108 296.47H33.9008V310H25.6508V268.42ZM56.2124 283.27H64.1324V286.9H64.2424C64.499 286.387 64.8657 285.873 65.3424 285.36C65.819 284.847 66.3874 284.388 67.0474 283.985C67.7074 283.582 68.459 283.252 69.3024 282.995C70.1457 282.738 71.0624 282.61 72.0524 282.61C74.1424 282.61 75.829 282.94 77.1124 283.6C78.3957 284.223 79.3857 285.103 80.0824 286.24C80.8157 287.377 81.3107 288.715 81.5674 290.255C81.824 291.795 81.9524 293.463 81.9524 295.26V310H73.7024V296.91C73.7024 296.14 73.6657 295.352 73.5924 294.545C73.5557 293.702 73.3907 292.932 73.0974 292.235C72.8407 291.538 72.419 290.97 71.8324 290.53C71.2824 290.09 70.4757 289.87 69.4124 289.87C68.349 289.87 67.4874 290.072 66.8274 290.475C66.1674 290.842 65.654 291.355 65.2874 292.015C64.9574 292.638 64.7374 293.353 64.6274 294.16C64.5174 294.967 64.4624 295.81 64.4624 296.69V310H56.2124V283.27ZM86.8044 296.635C86.8044 294.508 87.1894 292.583 87.9594 290.86C88.7294 289.137 89.7744 287.67 91.0944 286.46C92.4511 285.213 94.0277 284.26 95.8244 283.6C97.6577 282.94 99.6011 282.61 101.654 282.61C103.708 282.61 105.633 282.94 107.429 283.6C109.263 284.26 110.839 285.213 112.159 286.46C113.516 287.67 114.579 289.137 115.349 290.86C116.119 292.583 116.504 294.508 116.504 296.635C116.504 298.762 116.119 300.687 115.349 302.41C114.579 304.133 113.516 305.618 112.159 306.865C110.839 308.075 109.263 309.01 107.429 309.67C105.633 310.33 103.708 310.66 101.654 310.66C99.6011 310.66 97.6577 310.33 95.8244 309.67C94.0277 309.01 92.4511 308.075 91.0944 306.865C89.7744 305.618 88.7294 304.133 87.9594 302.41C87.1894 300.687 86.8044 298.762 86.8044 296.635ZM95.0544 296.635C95.0544 298.652 95.6227 300.283 96.7594 301.53C97.9327 302.777 99.5644 303.4 101.654 303.4C103.744 303.4 105.358 302.777 106.494 301.53C107.668 300.283 108.254 298.652 108.254 296.635C108.254 294.618 107.668 292.987 106.494 291.74C105.358 290.493 103.744 289.87 101.654 289.87C99.5644 289.87 97.9327 290.493 96.7594 291.74C95.6227 292.987 95.0544 294.618 95.0544 296.635ZM118.174 283.27H126.974L132.419 300.045H132.529L137.094 283.27H146.114L151.064 300.045H151.174L156.179 283.27H164.539L155.024 310H146.884L141.329 292.235H141.219L136.269 310H127.964L118.174 283.27Z" fill="#08B2FB"/>
</svg>
