<svg width="145" height="220" viewBox="0 0 145 220" fill="none" xmlns="http://www.w3.org/2000/svg">
<path d="M140.375 72.1874C140.375 109.846 109.846 140.375 72.1874 140.375C34.5286 140.375 4 109.846 4 72.1874C4 34.5286 34.5286 4 72.1874 4C109.846 4 140.375 34.5286 140.375 72.1874Z" fill="#8BE8B2" stroke="#219653" stroke-width="8"/>
<path d="M108.846 83.0111C106.738 88.6524 97.1064 110.869 75.772 112.175C51.1691 113.682 39.9652 88.7752 37.5941 82.6646C37.342 82.0148 37.8182 81.3312 38.4968 81.3349L107.972 81.7096C108.633 81.7132 109.086 82.3702 108.846 83.0111Z" fill="#219653"/>
<ellipse cx="50.6695" cy="52.6963" rx="10.4117" ry="10.8281" fill="#219653"/>
<ellipse cx="93.7046" cy="52.6963" rx="10.4117" ry="10.8281" fill="#219653"/>
<path d="M47.4563 179.9L34.1562 159.6H43.8563L51.3563 172.85L59.3063 159.6H68.5563L55.2563 179.9V195H47.4563V179.9ZM88.6383 190.8C87.4383 192.333 85.9216 193.517 84.0883 194.35C82.2549 195.183 80.3549 195.6 78.3883 195.6C76.5216 195.6 74.7549 195.3 73.0883 194.7C71.4549 194.1 70.0216 193.25 68.7883 192.15C67.5883 191.017 66.6383 189.667 65.9383 188.1C65.2383 186.533 64.8883 184.783 64.8883 182.85C64.8883 180.917 65.2383 179.167 65.9383 177.6C66.6383 176.033 67.5883 174.7 68.7883 173.6C70.0216 172.467 71.4549 171.6 73.0883 171C74.7549 170.4 76.5216 170.1 78.3883 170.1C80.1216 170.1 81.6883 170.4 83.0883 171C84.5216 171.6 85.7216 172.467 86.6883 173.6C87.6883 174.7 88.4549 176.033 88.9883 177.6C89.5216 179.167 89.7883 180.917 89.7883 182.85V185.2H72.3883C72.6883 186.633 73.3383 187.783 74.3383 188.65C75.3383 189.483 76.5716 189.9 78.0383 189.9C79.2716 189.9 80.3049 189.633 81.1383 189.1C82.0049 188.533 82.7549 187.817 83.3883 186.95L88.6383 190.8ZM82.2883 180.1C82.3216 178.833 81.9049 177.75 81.0383 176.85C80.1716 175.95 79.0549 175.5 77.6883 175.5C76.8549 175.5 76.1216 175.633 75.4883 175.9C74.8549 176.167 74.3049 176.517 73.8383 176.95C73.4049 177.35 73.0549 177.833 72.7883 178.4C72.5549 178.933 72.4216 179.5 72.3883 180.1H82.2883ZM108.099 177.85C106.999 176.483 105.549 175.8 103.749 175.8C103.116 175.8 102.499 175.95 101.899 176.25C101.299 176.55 100.999 177.067 100.999 177.8C100.999 178.4 101.299 178.85 101.899 179.15C102.533 179.417 103.316 179.667 104.249 179.9C105.216 180.1 106.233 180.333 107.299 180.6C108.399 180.833 109.416 181.217 110.349 181.75C111.316 182.283 112.099 183.017 112.699 183.95C113.333 184.85 113.649 186.067 113.649 187.6C113.649 189.167 113.299 190.467 112.599 191.5C111.933 192.5 111.066 193.317 109.999 193.95C108.933 194.55 107.733 194.967 106.399 195.2C105.066 195.467 103.749 195.6 102.449 195.6C100.749 195.6 99.0326 195.367 97.2992 194.9C95.5659 194.4 94.0992 193.533 92.8992 192.3L97.4492 187.25C98.1492 188.117 98.9159 188.783 99.7492 189.25C100.616 189.683 101.616 189.9 102.749 189.9C103.616 189.9 104.399 189.783 105.099 189.55C105.799 189.283 106.149 188.817 106.149 188.15C106.149 187.517 105.833 187.05 105.199 186.75C104.599 186.417 103.816 186.15 102.849 185.95C101.916 185.717 100.899 185.483 99.7992 185.25C98.7326 184.983 97.7159 184.6 96.7492 184.1C95.8159 183.6 95.0326 182.9 94.3992 182C93.7992 181.067 93.4992 179.833 93.4992 178.3C93.4992 176.867 93.7826 175.633 94.3492 174.6C94.9492 173.567 95.7159 172.717 96.6492 172.05C97.6159 171.383 98.7159 170.9 99.9492 170.6C101.183 170.267 102.433 170.1 103.699 170.1C105.299 170.1 106.916 170.333 108.549 170.8C110.183 171.267 111.566 172.1 112.699 173.3L108.099 177.85Z" fill="#11F772"/>
</svg>
