<svg width="701" height="549" viewBox="0 0 701 549" fill="none" xmlns="http://www.w3.org/2000/svg">
<rect x="48.2588" y="319.721" width="629.117" height="22.1973" rx="5" fill="black"/>
<path d="M355.517 329.328C359.12 324.625 366.205 324.625 369.807 329.328L482.92 477.001C487.455 482.922 483.233 491.474 475.775 491.474H249.549C242.091 491.474 237.869 482.922 242.405 477.001L355.517 329.328Z" fill="black"/>
<path d="M617.839 171.5C615.235 174.365 611.849 175.797 607.682 175.797C603.516 175.797 600 174.365 597.136 171.5C594.531 168.635 593.229 165.12 593.229 160.953C593.229 156.786 594.531 153.401 597.136 150.797C600 147.932 603.516 146.5 607.682 146.5C611.849 146.5 615.235 147.932 617.839 150.797C620.703 153.401 622.136 156.786 622.136 160.953C622.136 165.12 620.703 168.635 617.839 171.5ZM622.136 178.922C627.344 178.922 631.641 180.875 635.026 184.781C638.672 188.427 640.495 192.724 640.495 197.672V242.203C640.495 244.807 639.453 246.76 637.37 248.062C635.287 249.104 633.203 249.104 631.12 248.062C629.037 246.76 627.995 244.807 627.995 242.203V201.188H626.042V312.906C626.042 316.292 624.61 318.766 621.745 320.328C619.141 321.891 616.406 322.021 613.542 320.719C610.938 319.417 609.505 316.812 609.245 312.906V248.453H608.854H606.12V312.906C606.12 316.552 604.688 319.026 601.823 320.328C598.958 321.891 596.094 321.891 593.229 320.328C590.625 319.026 589.323 316.552 589.323 312.906V201.188H586.979V242.203C586.979 244.807 585.938 246.76 583.854 248.062C582.031 249.104 580.078 249.104 577.995 248.062C575.912 246.76 574.87 244.807 574.87 242.203V197.672C574.87 192.724 576.563 188.427 579.948 184.781C583.594 180.875 588.021 178.922 593.229 178.922H607.682H622.136Z" fill="black"/>
<path d="M79.5397 191.203C80.3209 188.339 82.1438 185.474 85.0084 182.609C87.873 179.745 91.5188 178.182 95.9459 177.922H114.696C118.863 178.182 122.378 179.745 125.243 182.609C128.107 185.214 130.061 188.078 131.102 191.203L142.43 231.828C143.212 234.693 142.821 237.036 141.258 238.859C139.956 240.422 138.264 240.943 136.18 240.422C134.097 239.901 132.665 238.339 131.883 235.734L121.727 198.234H118.212L136.18 264.25H119.383V313.859C119.383 316.724 118.342 318.677 116.258 319.719C114.175 321.021 112.092 321.021 110.008 319.719C108.186 318.677 107.274 316.724 107.274 313.859V264.25H103.368V313.859C103.368 316.724 102.326 318.677 100.243 319.719C98.1595 321.021 96.0761 321.021 93.9928 319.719C91.9095 318.677 90.8678 316.724 90.8678 313.859V264.25H74.4616L92.0397 198.234H89.3053L78.7584 235.734C77.9772 238.339 76.5449 239.901 74.4616 240.422C72.3782 240.943 70.5553 240.422 68.9928 238.859C67.6907 237.036 67.4303 234.693 68.2116 231.828L79.5397 191.203ZM115.477 149.797C118.342 152.401 119.774 155.786 119.774 159.953C119.774 164.12 118.342 167.635 115.477 170.5C112.613 173.104 109.227 174.406 105.321 174.406C101.415 174.406 98.0293 173.104 95.1647 170.5C92.3001 167.635 90.8678 164.12 90.8678 159.953C90.8678 155.786 92.3001 152.401 95.1647 149.797C98.0293 146.932 101.415 145.5 105.321 145.5C109.227 145.5 112.613 146.932 115.477 149.797Z" fill="black"/>
</svg>
