<svg width="434" height="362" viewBox="0 0 434 362" fill="none" xmlns="http://www.w3.org/2000/svg">
<path d="M75.119 111.702C73.2937 113.96 70.9206 115.089 68 115.089C65.0794 115.089 62.6151 113.96 60.6071 111.702C58.7817 109.445 57.869 106.674 57.869 103.39C57.869 100.107 58.7817 97.4387 60.6071 95.3863C62.6151 93.1288 65.0794 92 68 92C70.9206 92 73.2937 93.1288 75.119 95.3863C77.127 97.4387 78.131 100.107 78.131 103.39C78.131 106.674 77.127 109.445 75.119 111.702ZM78.131 117.551C81.7817 117.551 84.7937 119.091 87.1667 122.169C89.7222 125.042 91 128.429 91 132.328V167.423C91 169.475 90.2698 171.014 88.8095 172.041C87.3492 172.861 85.8889 172.861 84.4286 172.041C82.9683 171.014 82.2381 169.475 82.2381 167.423V135.099H80.869V223.143C80.869 225.811 79.8651 227.761 77.8571 228.992C76.0317 230.224 74.1151 230.327 72.1071 229.3C70.2817 228.274 69.2778 226.222 69.0952 223.143V172.348H66.9048V223.143C66.9048 226.017 65.9008 227.966 63.8929 228.992C61.8849 230.224 59.877 230.224 57.869 228.992C56.0437 227.966 55.131 226.017 55.131 223.143V135.099H53.4881V167.423C53.4881 169.475 52.7579 171.014 51.2976 172.041C50.0198 172.861 48.6508 172.861 47.1905 172.041C45.7302 171.014 45 169.475 45 167.423V132.328C45 128.429 46.1865 125.042 48.5595 122.169C51.1151 119.091 54.2183 117.551 57.869 117.551H78.131Z" fill="#1D4884"/>
<path fill-rule="evenodd" clip-rule="evenodd" d="M360.081 117.034L340.514 185.388C340.331 186.027 340.811 186.663 341.475 186.663H387.853C388.518 186.663 388.998 186.027 388.815 185.388L369.248 117.034H360.081Z" fill="#DF3337"/>
<path d="M371.476 111.658C369.786 113.911 367.588 115.037 364.883 115.037C362.179 115.037 359.896 113.911 358.037 111.658C356.346 109.406 355.501 106.641 355.501 103.365C355.501 100.089 356.346 97.4265 358.037 95.3788C359.896 93.1263 362.179 92 364.883 92C367.588 92 369.786 93.1263 371.476 95.3788C373.336 97.4265 374.266 100.089 374.266 103.365C374.266 106.641 373.336 109.406 371.476 111.658ZM374.266 117.494C377.647 117.494 380.436 119.03 382.634 122.102C385 124.969 386.184 128.348 386.184 132.238L393 166.088C393 168.135 392.324 169.671 390.971 170.695C389.619 171.514 388.267 171.514 386.914 170.695C385.562 169.671 384.886 168.135 384.886 166.088L377.238 135.003H374.966L376.801 222.851C376.801 225.513 375.872 227.459 374.012 228.687C372.322 229.916 370.547 230.018 368.687 228.994C366.996 227.971 366.067 225.923 365.898 222.851V172.169H363.869V222.851C363.869 225.718 362.939 227.663 361.08 228.687C359.22 229.916 357.361 229.916 355.501 228.687C353.81 227.663 352.965 225.718 352.965 222.851L354.517 135.003H351.444L344.861 166.088C344.861 168.135 344.185 169.671 342.832 170.695C341.649 171.514 340.381 171.514 339.029 170.695C337.676 169.671 337 168.135 337 166.088L343.583 132.238C343.583 128.348 344.682 124.969 346.879 122.102C349.246 119.03 352.12 117.494 355.501 117.494H374.266Z" fill="#DF3337"/>
<rect x="58.9424" y="58.9424" width="40.0972" height="20.0486" rx="10.0243" transform="rotate(-90 58.9424 58.9424)" fill="black"/>
<rect x="354.86" y="54.9326" width="40.0972" height="20.0486" rx="10.0243" transform="rotate(-90 354.86 54.9326)" fill="black"/>
<rect x="34.0825" width="359.672" height="26.0632" rx="13.0316" fill="black"/>
<rect x="155.577" y="335.213" width="120.292" height="26.0632" rx="13.0316" fill="black"/>
<rect x="200.887" y="347.241" width="347.242" height="26.0632" rx="13.0316" transform="rotate(-90 200.887 347.241)" fill="black"/>
<rect width="197.405" height="8.01944" rx="4.00972" transform="matrix(0.311502 -0.950245 0.809399 0.587259 0 232.893)" fill="black"/>
<rect width="197.404" height="8.01944" rx="4.00972" transform="matrix(0.311525 0.950238 -0.809376 0.587291 76.5869 48.9844)" fill="black"/>
<path fill-rule="evenodd" clip-rule="evenodd" d="M2.01514 233.701C17.9785 265.391 42.2245 285.9 69.3734 286.456C96.5224 287.012 120.768 267.496 136.732 236.459L2.01514 233.701Z" fill="black"/>
<rect width="197.405" height="8.01944" rx="4.00972" transform="matrix(0.311502 -0.950245 0.809399 0.587259 295.917 232.893)" fill="black"/>
<rect width="197.404" height="8.01944" rx="4.00972" transform="matrix(0.311525 0.950238 -0.809376 0.587291 372.504 48.9844)" fill="black"/>
<path fill-rule="evenodd" clip-rule="evenodd" d="M297.922 232.965C313.883 264.655 338.126 285.164 365.271 285.72C392.416 286.275 416.659 266.759 432.62 235.722L297.922 232.965Z" fill="black"/>
<circle cx="68.1648" cy="61.3484" r="16.0389" fill="black"/>
<circle cx="364.885" cy="58.9422" r="16.0389" fill="black"/>
</svg>
