<svg width="166" height="175" viewBox="0 0 166 175" fill="none" xmlns="http://www.w3.org/2000/svg">
<rect x="14.1123" y="152.156" width="152.252" height="5.37192" rx="2.68596" transform="rotate(-23.4746 14.1123 152.156)" fill="black"/>
<path d="M77.8633 128.252C81.4657 123.549 88.5507 123.549 92.1531 128.252L105.709 145.95C110.244 151.871 106.022 160.422 98.5639 160.422H71.4525C63.994 160.422 59.7723 151.871 64.3077 145.95L77.8633 128.252Z" fill="black"/>
<path d="M148.508 23.25C147.206 24.6823 145.513 25.3984 143.43 25.3984C141.347 25.3984 139.589 24.6823 138.156 23.25C136.854 21.8177 136.203 20.0599 136.203 17.9766C136.203 15.8932 136.854 14.2005 138.156 12.8984C139.589 11.4661 141.347 10.75 143.43 10.75C145.513 10.75 147.206 11.4661 148.508 12.8984C149.94 14.2005 150.656 15.8932 150.656 17.9766C150.656 20.0599 149.94 21.8177 148.508 23.25ZM150.656 26.9609C153.261 26.9609 155.409 27.9375 157.102 29.8906C158.925 31.7135 159.836 33.862 159.836 36.3359V58.6016C159.836 59.9036 159.315 60.8802 158.274 61.5312C157.232 62.0521 156.19 62.0521 155.149 61.5312C154.107 60.8802 153.586 59.9036 153.586 58.6016V38.0938H152.61V93.9531C152.61 95.6458 151.893 96.8828 150.461 97.6641C149.159 98.4453 147.792 98.5104 146.36 97.8594C145.058 97.2083 144.341 95.9062 144.211 93.9531V61.7266H144.016H142.649V93.9531C142.649 95.776 141.933 97.013 140.5 97.6641C139.068 98.4453 137.636 98.4453 136.203 97.6641C134.901 97.013 134.25 95.776 134.25 93.9531V38.0938H133.078V58.6016C133.078 59.9036 132.558 60.8802 131.516 61.5312C130.604 62.0521 129.628 62.0521 128.586 61.5312C127.545 60.8802 127.024 59.9036 127.024 58.6016V36.3359C127.024 33.862 127.87 31.7135 129.563 29.8906C131.386 27.9375 133.599 26.9609 136.203 26.9609H143.43H150.656Z" fill="black"/>
<path d="M12.5979 85.6016C12.9885 84.1693 13.9 82.737 15.3323 81.3047C16.7646 79.8724 18.5875 79.0911 20.801 78.9609H30.176C32.2594 79.0911 34.0172 79.8724 35.4495 81.3047C36.8818 82.6068 37.8583 84.0391 38.3792 85.6016L44.0432 105.914C44.4339 107.346 44.2385 108.518 43.4573 109.43C42.8063 110.211 41.9599 110.471 40.9182 110.211C39.8766 109.951 39.1604 109.169 38.7698 107.867L33.6917 89.1172H31.9339L40.9182 122.125H32.5198V146.93C32.5198 148.362 31.999 149.339 30.9573 149.859C29.9156 150.51 28.874 150.51 27.8323 149.859C26.9208 149.339 26.4651 148.362 26.4651 146.93V122.125H24.512V146.93C24.512 148.362 23.9912 149.339 22.9495 149.859C21.9078 150.51 20.8662 150.51 19.8245 149.859C18.7828 149.339 18.262 148.362 18.262 146.93V122.125H10.0589L18.8479 89.1172H17.4807L12.2073 107.867C11.8167 109.169 11.1005 109.951 10.0589 110.211C9.01719 110.471 8.10573 110.211 7.32448 109.43C6.67344 108.518 6.54323 107.346 6.93386 105.914L12.5979 85.6016ZM30.5667 64.8984C31.999 66.2005 32.7151 67.8932 32.7151 69.9766C32.7151 72.0599 31.999 73.8177 30.5667 75.25C29.1344 76.5521 27.4417 77.2031 25.4885 77.2031C23.5354 77.2031 21.8427 76.5521 20.4104 75.25C18.9781 73.8177 18.262 72.0599 18.262 69.9766C18.262 67.8932 18.9781 66.2005 20.4104 64.8984C21.8427 63.4661 23.5354 62.75 25.4885 62.75C27.4417 62.75 29.1344 63.4661 30.5667 64.8984Z" fill="black"/>
</svg>
