<svg width="433" height="446" viewBox="0 0 433 446" fill="none" xmlns="http://www.w3.org/2000/svg">
<path d="M74.9767 287.929C73.1787 289.903 70.8413 290.89 67.9645 290.89C65.0877 290.89 62.6604 289.903 60.6825 287.929C58.8845 285.954 57.9855 283.531 57.9855 280.659C57.9855 277.787 58.8845 275.454 60.6825 273.659C62.6604 271.684 65.0877 270.697 67.9645 270.697C70.8413 270.697 73.1787 271.684 74.9767 273.659C76.9545 275.454 77.9434 277.787 77.9434 280.659C77.9434 283.531 76.9545 285.954 74.9767 287.929ZM77.9434 293.044C81.5394 293.044 84.5062 294.39 86.8436 297.083C89.3608 299.596 90.6194 302.557 90.6194 305.968V336.661C90.6194 338.456 89.9002 339.802 88.4618 340.699C87.0234 341.417 85.585 341.417 84.1466 340.699C82.7082 339.802 81.9889 338.456 81.9889 336.661V308.391H80.6404V385.393C80.6404 387.727 79.6515 389.432 77.6737 390.509C75.8757 391.586 73.9878 391.675 72.01 390.778C70.212 389.88 69.2231 388.085 69.0433 385.393V340.969H66.8857V385.393C66.8857 387.906 65.8968 389.611 63.919 390.509C61.9412 391.586 59.9633 391.586 57.9855 390.509C56.1875 389.611 55.2885 387.906 55.2885 385.393V308.391H53.6703V336.661C53.6703 338.456 52.9511 339.802 51.5127 340.699C50.2541 341.417 48.9056 341.417 47.4672 340.699C46.0288 339.802 45.3096 338.456 45.3096 336.661V305.968C45.3096 302.557 46.4783 299.596 48.8157 297.083C51.3329 294.39 54.3895 293.044 57.9855 293.044H77.9434Z" fill="#1D4884"/>
<path fill-rule="evenodd" clip-rule="evenodd" d="M360.287 141.697L341.444 201.429C341.24 202.073 341.721 202.73 342.397 202.73H387.031C387.707 202.73 388.188 202.073 387.985 201.429L369.142 141.697H360.287Z" fill="#DF3337"/>
<path d="M371.294 136.985C369.661 138.96 367.538 139.947 364.925 139.947C362.313 139.947 360.108 138.96 358.312 136.985C356.679 135.011 355.862 132.588 355.862 129.716C355.862 126.844 356.679 124.51 358.312 122.716C360.108 120.741 362.313 119.754 364.925 119.754C367.538 119.754 369.661 120.741 371.294 122.716C373.09 124.51 373.988 126.844 373.988 129.716C373.988 132.588 373.09 135.011 371.294 136.985ZM373.988 142.101C377.254 142.101 379.949 143.447 382.072 146.139C384.358 148.652 385.501 151.614 385.501 155.024L392.085 184.694C392.085 186.489 391.432 187.835 390.125 188.733C388.819 189.451 387.513 189.451 386.206 188.733C384.9 187.835 384.247 186.489 384.247 184.694L376.859 157.447H374.664L376.438 234.45C376.438 236.783 375.54 238.488 373.743 239.565C372.111 240.642 370.396 240.732 368.6 239.835C366.967 238.937 366.069 237.142 365.905 234.45V190.025H363.946V234.45C363.946 236.963 363.048 238.668 361.251 239.565C359.455 240.642 357.659 240.642 355.862 239.565C354.229 238.668 353.413 236.963 353.413 234.45L354.912 157.447H351.943L345.585 184.694C345.585 186.489 344.931 187.835 343.625 188.733C342.482 189.451 341.257 189.451 339.951 188.733C338.644 187.835 337.991 186.489 337.991 184.694L344.35 155.024C344.35 151.614 345.411 148.652 347.534 146.139C349.82 143.447 352.597 142.101 355.862 142.101H373.988Z" fill="#DF3337"/>
<rect x="58.9424" y="216.165" width="40.0972" height="20.0486" rx="10.0243" transform="rotate(-90 58.9424 216.165)" fill="black"/>
<rect x="352.943" y="62.167" width="40.0972" height="20.0486" rx="10.0243" transform="rotate(-90 352.943 62.167)" fill="black"/>
<rect x="51.5771" y="171.283" width="359.672" height="26.0632" rx="13.0316" transform="rotate(-28.4389 51.5771 171.283)" fill="black"/>
<rect x="157.577" y="419.28" width="120.292" height="26.0632" rx="13.0316" fill="black"/>
<rect x="202.887" y="431.31" width="347.242" height="26.0632" rx="13.0316" transform="rotate(-90 202.887 431.31)" fill="black"/>
<rect width="197.405" height="8.01944" rx="4.00972" transform="matrix(0.311502 -0.950245 0.809399 0.587259 0 390.115)" fill="black"/>
<rect width="197.404" height="8.01944" rx="4.00972" transform="matrix(0.311525 0.950238 -0.809376 0.587291 76.5869 206.207)" fill="black"/>
<path fill-rule="evenodd" clip-rule="evenodd" d="M2.01563 390.924C17.979 422.614 42.225 443.123 69.3739 443.679C96.5229 444.235 120.769 424.718 136.732 393.682L2.01563 390.924Z" fill="black"/>
<rect width="197.405" height="8.01944" rx="4.00972" transform="matrix(0.311502 -0.950245 0.809399 0.587259 294 240.128)" fill="black"/>
<rect width="197.404" height="8.01944" rx="4.00972" transform="matrix(0.311525 0.950238 -0.809376 0.587291 370.587 56.2197)" fill="black"/>
<path fill-rule="evenodd" clip-rule="evenodd" d="M296.005 240.199C311.966 271.889 336.209 292.398 363.354 292.954C390.499 293.51 414.742 273.993 430.703 242.957L296.005 240.199Z" fill="black"/>
<circle cx="68.1648" cy="218.571" r="16.0389" fill="black"/>
<circle cx="362.968" cy="66.1766" r="16.0389" fill="black"/>
</svg>
