<svg width="445" height="384" viewBox="0 0 445 384" fill="none" xmlns="http://www.w3.org/2000/svg">
<path d="M74.9767 163.397C73.1787 165.372 70.8413 166.359 67.9645 166.359C65.0877 166.359 62.6604 165.372 60.6825 163.397C58.8845 161.423 57.9855 159 57.9855 156.128C57.9855 153.256 58.8845 150.923 60.6825 149.128C62.6604 147.153 65.0877 146.166 67.9645 146.166C70.8413 146.166 73.1787 147.153 74.9767 149.128C76.9545 150.923 77.9434 153.256 77.9434 156.128C77.9434 159 76.9545 161.423 74.9767 163.397ZM77.9434 168.513C81.5394 168.513 84.5062 169.859 86.8436 172.551C89.3608 175.064 90.6194 178.026 90.6194 181.436V212.13C90.6194 213.925 89.9002 215.271 88.4618 216.168C87.0234 216.886 85.585 216.886 84.1466 216.168C82.7082 215.271 81.9889 213.925 81.9889 212.13V183.859H80.6404V260.862C80.6404 263.195 79.6515 264.9 77.6737 265.977C75.8757 267.054 73.9878 267.144 72.01 266.247C70.212 265.349 69.2231 263.554 69.0433 260.862V216.437H66.8857V260.862C66.8857 263.375 65.8968 265.08 63.919 265.977C61.9412 267.054 59.9633 267.054 57.9855 265.977C56.1875 265.08 55.2885 263.375 55.2885 260.862V183.859H53.6703V212.13C53.6703 213.925 52.9511 215.271 51.5127 216.168C50.2541 216.886 48.9056 216.886 47.4672 216.168C46.0288 215.271 45.3096 213.925 45.3096 212.13V181.436C45.3096 178.026 46.4783 175.064 48.8157 172.551C51.3329 169.859 54.3895 168.513 57.9855 168.513H77.9434Z" fill="#1D4884"/>
<path fill-rule="evenodd" clip-rule="evenodd" d="M372.287 133.628L353.444 193.36C353.24 194.004 353.721 194.66 354.397 194.66H399.031C399.707 194.66 400.188 194.004 399.985 193.36L381.142 133.628H372.287Z" fill="#DF3337"/>
<path d="M383.294 128.916C381.661 130.89 379.538 131.877 376.925 131.877C374.313 131.877 372.108 130.89 370.312 128.916C368.679 126.941 367.862 124.518 367.862 121.646C367.862 118.775 368.679 116.441 370.312 114.646C372.108 112.672 374.313 111.685 376.925 111.685C379.538 111.685 381.661 112.672 383.294 114.646C385.09 116.441 385.988 118.775 385.988 121.646C385.988 124.518 385.09 126.941 383.294 128.916ZM385.988 134.031C389.254 134.031 391.949 135.378 394.072 138.07C396.358 140.583 397.501 143.545 397.501 146.955L404.085 176.625C404.085 178.42 403.432 179.766 402.125 180.664C400.819 181.382 399.513 181.382 398.206 180.664C396.9 179.766 396.247 178.42 396.247 176.625L388.859 149.378H386.664L388.438 226.38C388.438 228.714 387.54 230.419 385.743 231.496C384.111 232.573 382.396 232.663 380.6 231.765C378.967 230.868 378.069 229.073 377.905 226.38V181.956H375.946V226.38C375.946 228.893 375.048 230.598 373.251 231.496C371.455 232.573 369.659 232.573 367.862 231.496C366.229 230.598 365.413 228.893 365.413 226.38L366.912 149.378H363.943L357.585 176.625C357.585 178.42 356.931 179.766 355.625 180.664C354.482 181.382 353.257 181.382 351.951 180.664C350.644 179.766 349.991 178.42 349.991 176.625L356.35 146.955C356.35 143.545 357.411 140.583 359.534 138.07C361.82 135.378 364.597 134.031 367.862 134.031H385.988Z" fill="#DF3337"/>
<path d="M68.9667 87.0977C63.4304 87.0977 58.9424 82.6096 58.9424 77.0734V57.0248C58.9424 51.4885 63.4304 47.0005 68.9667 47.0005V47.0005C74.5029 47.0005 78.991 51.4885 78.991 57.0248V77.0734C78.991 82.6096 74.5029 87.0977 68.9667 87.0977V87.0977Z" fill="black"/>
<rect x="364.943" y="54.0977" width="40.0972" height="20.0486" rx="10.0243" transform="rotate(-90 364.943 54.0977)" fill="black"/>
<rect x="35.8057" y="43.416" width="359.672" height="26.0632" rx="13.0316" transform="rotate(-6.81016 35.8057 43.416)" fill="black"/>
<rect x="157.577" y="357.212" width="120.292" height="26.0632" rx="13.0316" fill="black"/>
<rect x="202.887" y="369.24" width="347.242" height="26.0632" rx="13.0316" transform="rotate(-90 202.887 369.24)" fill="black"/>
<rect width="197.405" height="8.01944" rx="4.00972" transform="matrix(0.311502 -0.950245 0.809399 0.587259 0 265.584)" fill="black"/>
<rect width="197.404" height="8.01944" rx="4.00972" transform="matrix(0.311525 0.950238 -0.809376 0.587291 76.5869 81.6758)" fill="black"/>
<path fill-rule="evenodd" clip-rule="evenodd" d="M2.01563 266.392C17.979 298.083 42.225 318.592 69.3739 319.148C96.5229 319.703 120.769 300.187 136.732 269.15L2.01563 266.392Z" fill="black"/>
<rect width="197.405" height="8.01944" rx="4.00972" transform="matrix(0.311502 -0.950245 0.809399 0.587259 306 232.058)" fill="black"/>
<rect width="197.404" height="8.01944" rx="4.00972" transform="matrix(0.311525 0.950238 -0.809376 0.587291 382.587 48.1494)" fill="black"/>
<path fill-rule="evenodd" clip-rule="evenodd" d="M308.005 232.129C323.966 263.819 348.209 284.328 375.354 284.884C402.499 285.439 426.742 265.923 442.703 234.886L308.005 232.129Z" fill="black"/>
<circle cx="68.1648" cy="94.0398" r="16.0389" fill="black"/>
<circle cx="374.968" cy="58.1072" r="16.0389" fill="black"/>
</svg>
