<svg width="172" height="157" viewBox="0 0 172 157" fill="none" xmlns="http://www.w3.org/2000/svg">
<rect x="8.89355" y="109.297" width="152.252" height="5.37192" rx="2.68596" transform="rotate(-4.27878 8.89355 109.297)" fill="black"/>
<path d="M77.8633 110.252C81.4657 105.549 88.5507 105.549 92.1531 110.252L105.709 127.95C110.244 133.871 106.022 142.422 98.5639 142.422H71.4525C63.994 142.422 59.7723 133.871 64.3077 127.95L77.8633 110.252Z" fill="black"/>
<path d="M154.508 23.25C153.206 24.6823 151.513 25.3984 149.43 25.3984C147.347 25.3984 145.589 24.6823 144.156 23.25C142.854 21.8177 142.203 20.0599 142.203 17.9766C142.203 15.8932 142.854 14.2005 144.156 12.8984C145.589 11.4661 147.347 10.75 149.43 10.75C151.513 10.75 153.206 11.4661 154.508 12.8984C155.94 14.2005 156.656 15.8932 156.656 17.9766C156.656 20.0599 155.94 21.8177 154.508 23.25ZM156.656 26.9609C159.261 26.9609 161.409 27.9375 163.102 29.8906C164.925 31.7135 165.836 33.862 165.836 36.3359V58.6016C165.836 59.9036 165.315 60.8802 164.274 61.5312C163.232 62.0521 162.19 62.0521 161.149 61.5312C160.107 60.8802 159.586 59.9036 159.586 58.6016V38.0938H158.61V93.9531C158.61 95.6458 157.893 96.8828 156.461 97.6641C155.159 98.4453 153.792 98.5104 152.36 97.8594C151.058 97.2083 150.341 95.9062 150.211 93.9531V61.7266H150.016H148.649V93.9531C148.649 95.776 147.933 97.013 146.5 97.6641C145.068 98.4453 143.636 98.4453 142.203 97.6641C140.901 97.013 140.25 95.776 140.25 93.9531V38.0938H139.078V58.6016C139.078 59.9036 138.558 60.8802 137.516 61.5312C136.604 62.0521 135.628 62.0521 134.586 61.5312C133.545 60.8802 133.024 59.9036 133.024 58.6016V36.3359C133.024 33.862 133.87 31.7135 135.563 29.8906C137.386 27.9375 139.599 26.9609 142.203 26.9609H149.43H156.656Z" fill="black"/>
<path d="M12.5979 45.6016C12.9885 44.1693 13.9 42.737 15.3323 41.3047C16.7646 39.8724 18.5875 39.0911 20.801 38.9609H30.176C32.2594 39.0911 34.0172 39.8724 35.4495 41.3047C36.8818 42.6068 37.8583 44.0391 38.3792 45.6016L44.0432 65.9141C44.4339 67.3464 44.2385 68.5182 43.4573 69.4297C42.8063 70.2109 41.9599 70.4714 40.9182 70.2109C39.8766 69.9505 39.1604 69.1693 38.7698 67.8672L33.6917 49.1172H31.9339L40.9182 82.125H32.5198V106.93C32.5198 108.362 31.999 109.339 30.9573 109.859C29.9156 110.51 28.874 110.51 27.8323 109.859C26.9208 109.339 26.4651 108.362 26.4651 106.93V82.125H24.512V106.93C24.512 108.362 23.9912 109.339 22.9495 109.859C21.9078 110.51 20.8662 110.51 19.8245 109.859C18.7828 109.339 18.262 108.362 18.262 106.93V82.125H10.0589L18.8479 49.1172H17.4807L12.2073 67.8672C11.8167 69.1693 11.1005 69.9505 10.0589 70.2109C9.01719 70.4714 8.10573 70.2109 7.32448 69.4297C6.67344 68.5182 6.54323 67.3464 6.93386 65.9141L12.5979 45.6016ZM30.5667 24.8984C31.999 26.2005 32.7151 27.8932 32.7151 29.9766C32.7151 32.0599 31.999 33.8177 30.5667 35.25C29.1344 36.5521 27.4417 37.2031 25.4885 37.2031C23.5354 37.2031 21.8427 36.5521 20.4104 35.25C18.9781 33.8177 18.262 32.0599 18.262 29.9766C18.262 27.8932 18.9781 26.2005 20.4104 24.8984C21.8427 23.4661 23.5354 22.75 25.4885 22.75C27.4417 22.75 29.1344 23.4661 30.5667 24.8984Z" fill="black"/>
</svg>
