<svg width="175" height="151" viewBox="0 0 175 151" fill="none" xmlns="http://www.w3.org/2000/svg">
<rect x="10.8818" y="97.6099" width="152.252" height="5.37192" rx="2.68596" fill="black"/>
<path d="M79.8633 104.252C83.4657 99.5492 90.5507 99.5492 94.1531 104.252L107.709 121.95C112.244 127.871 108.022 136.422 100.564 136.422H73.4525C65.994 136.422 61.7723 127.871 66.3077 121.95L79.8633 104.252Z" fill="black"/>
<path d="M157.051 23.25C155.749 24.6823 154.056 25.3984 151.973 25.3984C149.89 25.3984 148.132 24.6823 146.699 23.25C145.397 21.8177 144.746 20.0599 144.746 17.9766C144.746 15.8932 145.397 14.2005 146.699 12.8984C148.132 11.4661 149.89 10.75 151.973 10.75C154.056 10.75 155.749 11.4661 157.051 12.8984C158.483 14.2005 159.199 15.8932 159.199 17.9766C159.199 20.0599 158.483 21.8177 157.051 23.25ZM159.199 26.9609C161.804 26.9609 163.952 27.9375 165.645 29.8906C167.468 31.7135 168.379 33.862 168.379 36.3359V58.6016C168.379 59.9036 167.858 60.8802 166.817 61.5312C165.775 62.0521 164.733 62.0521 163.692 61.5312C162.65 60.8802 162.129 59.9036 162.129 58.6016V38.0938H161.153V93.9531C161.153 95.6458 160.436 96.8828 159.004 97.6641C157.702 98.4453 156.335 98.5104 154.903 97.8594C153.6 97.2083 152.884 95.9062 152.754 93.9531V61.7266H152.559H151.192V93.9531C151.192 95.776 150.475 97.013 149.043 97.6641C147.611 98.4453 146.179 98.4453 144.746 97.6641C143.444 97.013 142.793 95.776 142.793 93.9531V38.0938H141.621V58.6016C141.621 59.9036 141.1 60.8802 140.059 61.5312C139.147 62.0521 138.171 62.0521 137.129 61.5312C136.087 60.8802 135.567 59.9036 135.567 58.6016V36.3359C135.567 33.862 136.413 31.7135 138.106 29.8906C139.929 27.9375 142.142 26.9609 144.746 26.9609H151.973H159.199Z" fill="black"/>
<path d="M12.5979 33.6016C12.9885 32.1693 13.9 30.737 15.3323 29.3047C16.7646 27.8724 18.5875 27.0911 20.801 26.9609H30.176C32.2594 27.0911 34.0172 27.8724 35.4495 29.3047C36.8818 30.6068 37.8583 32.0391 38.3792 33.6016L44.0432 53.9141C44.4339 55.3464 44.2385 56.5182 43.4573 57.4297C42.8063 58.2109 41.9599 58.4714 40.9182 58.2109C39.8766 57.9505 39.1604 57.1693 38.7698 55.8672L33.6917 37.1172H31.9339L40.9182 70.125H32.5198V94.9297C32.5198 96.362 31.999 97.3385 30.9573 97.8594C29.9156 98.5104 28.874 98.5104 27.8323 97.8594C26.9208 97.3385 26.4651 96.362 26.4651 94.9297V70.125H24.512V94.9297C24.512 96.362 23.9912 97.3385 22.9495 97.8594C21.9078 98.5104 20.8662 98.5104 19.8245 97.8594C18.7828 97.3385 18.262 96.362 18.262 94.9297V70.125H10.0589L18.8479 37.1172H17.4807L12.2073 55.8672C11.8167 57.1693 11.1005 57.9505 10.0589 58.2109C9.01719 58.4714 8.10573 58.2109 7.32448 57.4297C6.67344 56.5182 6.54323 55.3464 6.93386 53.9141L12.5979 33.6016ZM30.5667 12.8984C31.999 14.2005 32.7151 15.8932 32.7151 17.9766C32.7151 20.0599 31.999 21.8177 30.5667 23.25C29.1344 24.5521 27.4417 25.2031 25.4885 25.2031C23.5354 25.2031 21.8427 24.5521 20.4104 23.25C18.9781 21.8177 18.262 20.0599 18.262 17.9766C18.262 15.8932 18.9781 14.2005 20.4104 12.8984C21.8427 11.4661 23.5354 10.75 25.4885 10.75C27.4417 10.75 29.1344 11.4661 30.5667 12.8984Z" fill="black"/>
</svg>
