<svg width="434" height="362" viewBox="0 0 434 362" fill="none" xmlns="http://www.w3.org/2000/svg">
<path d="M74.9772 130.706C73.1792 132.68 70.8418 133.668 67.965 133.668C65.0882 133.668 62.6608 132.68 60.683 130.706C58.885 128.731 57.986 126.308 57.986 123.436C57.986 120.565 58.885 118.231 60.683 116.436C62.6608 114.462 65.0882 113.475 67.965 113.475C70.8418 113.475 73.1792 114.462 74.9772 116.436C76.955 118.231 77.9439 120.565 77.9439 123.436C77.9439 126.308 76.955 128.731 74.9772 130.706ZM77.9439 135.821C81.5399 135.821 84.5066 137.168 86.8441 139.86C89.3613 142.373 90.6199 145.335 90.6199 148.745V179.438C90.6199 181.233 89.9007 182.579 88.4623 183.477C87.0239 184.195 85.5855 184.195 84.147 183.477C82.7086 182.579 81.9894 181.233 81.9894 179.438V151.168H80.6409V228.17C80.6409 230.504 79.652 232.209 77.6742 233.286C75.8762 234.363 73.9883 234.453 72.0105 233.555C70.2125 232.658 69.2236 230.863 69.0438 228.17V183.746H66.8862V228.17C66.8862 230.683 65.8973 232.389 63.9194 233.286C61.9416 234.363 59.9638 234.363 57.986 233.286C56.188 232.389 55.289 230.683 55.289 228.17V151.168H53.6708V179.438C53.6708 181.233 52.9516 182.579 51.5132 183.477C50.2546 184.195 48.9061 184.195 47.4677 183.477C46.0293 182.579 45.3101 181.233 45.3101 179.438V148.745C45.3101 145.335 46.4788 142.373 48.8162 139.86C51.3334 137.168 54.39 135.821 57.986 135.821H77.9439Z" fill="#1D4884"/>
<path fill-rule="evenodd" clip-rule="evenodd" d="M362.204 134.463L343.361 194.194C343.157 194.839 343.638 195.495 344.314 195.495H388.948C389.624 195.495 390.105 194.839 389.902 194.194L371.059 134.463H362.204Z" fill="#DF3337"/>
<path d="M373.211 129.751C371.578 131.725 369.455 132.712 366.842 132.712C364.23 132.712 362.025 131.725 360.229 129.751C358.596 127.776 357.779 125.353 357.779 122.481C357.779 119.609 358.596 117.276 360.229 115.481C362.025 113.507 364.23 112.52 366.842 112.52C369.455 112.52 371.578 113.507 373.211 115.481C375.007 117.276 375.905 119.609 375.905 122.481C375.905 125.353 375.007 127.776 373.211 129.751ZM375.905 134.866C379.171 134.866 381.866 136.213 383.989 138.905C386.275 141.418 387.418 144.379 387.418 147.79L394.002 177.46C394.002 179.255 393.349 180.601 392.042 181.499C390.736 182.217 389.43 182.217 388.123 181.499C386.817 180.601 386.164 179.255 386.164 177.46L378.776 150.213H376.581L378.355 227.215C378.355 229.549 377.457 231.254 375.66 232.331C374.028 233.408 372.313 233.498 370.517 232.6C368.884 231.703 367.986 229.908 367.822 227.215V182.791H365.863V227.215C365.863 229.728 364.965 231.433 363.168 232.331C361.372 233.408 359.576 233.408 357.779 232.331C356.146 231.433 355.33 229.728 355.33 227.215L356.829 150.213H353.86L347.502 177.46C347.502 179.255 346.848 180.601 345.542 181.499C344.399 182.217 343.174 182.217 341.868 181.499C340.561 180.601 339.908 179.255 339.908 177.46L346.267 147.79C346.267 144.379 347.328 141.418 349.451 138.905C351.737 136.213 354.514 134.866 357.779 134.866H375.905Z" fill="#DF3337"/>
<rect x="58.9424" y="58.9424" width="40.0972" height="20.0486" rx="10.0243" transform="rotate(-90 58.9424 58.9424)" fill="black"/>
<rect x="354.86" y="54.9326" width="40.0972" height="20.0486" rx="10.0243" transform="rotate(-90 354.86 54.9326)" fill="black"/>
<rect x="34.0825" width="359.672" height="26.0632" rx="13.0316" fill="black"/>
<rect x="155.577" y="335.213" width="120.292" height="26.0632" rx="13.0316" fill="black"/>
<rect x="200.887" y="347.241" width="347.242" height="26.0632" rx="13.0316" transform="rotate(-90 200.887 347.241)" fill="black"/>
<rect width="197.405" height="8.01944" rx="4.00972" transform="matrix(0.311502 -0.950245 0.809399 0.587259 0 232.893)" fill="black"/>
<rect width="197.404" height="8.01944" rx="4.00972" transform="matrix(0.311525 0.950238 -0.809376 0.587291 76.5869 48.9844)" fill="black"/>
<path fill-rule="evenodd" clip-rule="evenodd" d="M2.01514 233.701C17.9785 265.391 42.2245 285.9 69.3735 286.456C96.5224 287.012 120.768 267.496 136.732 236.459L2.01514 233.701Z" fill="black"/>
<rect width="197.405" height="8.01944" rx="4.00972" transform="matrix(0.311502 -0.950245 0.809399 0.587259 295.917 232.893)" fill="black"/>
<rect width="197.404" height="8.01944" rx="4.00972" transform="matrix(0.311525 0.950238 -0.809376 0.587291 372.504 48.9844)" fill="black"/>
<path fill-rule="evenodd" clip-rule="evenodd" d="M297.922 232.965C313.883 264.655 338.126 285.164 365.271 285.72C392.416 286.275 416.659 266.759 432.62 235.722L297.922 232.965Z" fill="black"/>
<circle cx="68.1648" cy="61.3484" r="16.0389" fill="black"/>
<circle cx="364.885" cy="58.9422" r="16.0389" fill="black"/>
</svg>
