<svg width="555" height="340" viewBox="0 0 555 340" fill="none" xmlns="http://www.w3.org/2000/svg">
<path d="M8.08471 289.74C11.0526 285.971 17.3328 278.4 22.88 272.957C23.6252 272.226 24.8082 272.221 25.5791 272.925L42.3478 288.237C43.4065 289.204 43.134 290.938 41.8298 291.533L26.7187 298.432C25.4823 298.997 25.157 300.604 26.0764 301.605L43.8336 320.937C44.2991 321.444 44.4714 322.155 44.2896 322.818L42.4386 329.579C42.2006 330.449 41.4108 331.051 40.5096 331.051H34.0791C33.4753 331.051 32.9038 330.779 32.5241 330.309L8.1091 300.126C7.82116 299.77 7.66406 299.326 7.66406 298.869V290.963C7.66406 290.518 7.80933 290.089 8.08471 289.74Z" fill="black" stroke="#FFEFD5"/>
<path d="M81.8821 289.74C78.9142 285.971 72.634 278.4 67.0868 272.957C66.3416 272.226 65.1586 272.221 64.3877 272.925L47.619 288.237C46.5603 289.204 46.8328 290.938 48.137 291.533L63.2481 298.432C64.4845 298.997 64.8098 300.604 63.8904 301.605L46.1332 320.937C45.6677 321.444 45.4954 322.155 45.6772 322.818L47.5282 329.579C47.7662 330.449 48.556 331.051 49.4572 331.051H55.8877C56.4915 331.051 57.063 330.779 57.4427 330.309L81.8577 300.126C82.1456 299.77 82.3027 299.326 82.3027 298.869V290.963C82.3027 290.518 82.1575 290.089 81.8821 289.74Z" fill="black" stroke="#FFEFD5"/>
<mask id="path-3-inside-1" fill="white">
<path fill-rule="evenodd" clip-rule="evenodd" d="M45.6913 212.677C56.1742 212.677 64.6724 203.795 64.6724 192.838C64.6724 181.882 56.1742 173 45.6913 173C35.2083 173 26.7101 181.882 26.7101 192.838C26.7101 203.795 35.2083 212.677 45.6913 212.677ZM63.8637 218.266C65.7665 218.26 67.3572 218.255 68.6195 218.252C70.1267 218.248 71.501 219.094 72.1824 220.439L83.1062 241.99L89.4993 256.312C90.4005 258.331 89.4927 260.698 87.4724 261.597L84.097 263.099C82.307 263.895 80.2037 263.278 79.1281 261.64L67.1821 243.455C67.1073 243.341 67.0517 243.216 67.0176 243.084C66.6527 241.672 64.5737 241.936 64.5737 243.395V261C64.5737 262.921 63.0157 264.479 61.0939 264.479H28.5196C26.3105 264.479 24.5196 262.689 24.5196 260.479V246.441C24.5196 243.83 20.9994 242.999 19.8325 245.335L11.3582 261.303C10.3995 263.109 8.23269 263.902 6.33486 263.14L2.51124 261.605C0.324842 260.727 -0.633282 258.16 0.443753 256.064L18.7163 220.515C19.4016 219.182 20.7766 218.344 22.2757 218.343C41.2019 218.339 55.5272 218.293 63.8637 218.266Z"/>
</mask>
<path fill-rule="evenodd" clip-rule="evenodd" d="M45.6913 212.677C56.1742 212.677 64.6724 203.795 64.6724 192.838C64.6724 181.882 56.1742 173 45.6913 173C35.2083 173 26.7101 181.882 26.7101 192.838C26.7101 203.795 35.2083 212.677 45.6913 212.677ZM63.8637 218.266C65.7665 218.26 67.3572 218.255 68.6195 218.252C70.1267 218.248 71.501 219.094 72.1824 220.439L83.1062 241.99L89.4993 256.312C90.4005 258.331 89.4927 260.698 87.4724 261.597L84.097 263.099C82.307 263.895 80.2037 263.278 79.1281 261.64L67.1821 243.455C67.1073 243.341 67.0517 243.216 67.0176 243.084C66.6527 241.672 64.5737 241.936 64.5737 243.395V261C64.5737 262.921 63.0157 264.479 61.0939 264.479H28.5196C26.3105 264.479 24.5196 262.689 24.5196 260.479V246.441C24.5196 243.83 20.9994 242.999 19.8325 245.335L11.3582 261.303C10.3995 263.109 8.23269 263.902 6.33486 263.14L2.51124 261.605C0.324842 260.727 -0.633282 258.16 0.443753 256.064L18.7163 220.515C19.4016 219.182 20.7766 218.344 22.2757 218.343C41.2019 218.339 55.5272 218.293 63.8637 218.266Z" fill="black"/>
<path d="M68.6195 218.252L68.6168 217.252L68.6168 217.252L68.6195 218.252ZM63.8637 218.266L63.8605 217.266L63.8605 217.266L63.8637 218.266ZM72.1824 220.439L73.0744 219.987L73.0744 219.987L72.1824 220.439ZM83.1062 241.99L84.0194 241.582L84.0093 241.56L83.9982 241.538L83.1062 241.99ZM89.4993 256.312L90.4124 255.904L90.4124 255.904L89.4993 256.312ZM87.4724 261.597L87.066 260.683L87.066 260.683L87.4724 261.597ZM84.097 263.099L84.5035 264.012L84.5035 264.012L84.097 263.099ZM79.1281 261.64L79.9639 261.091L79.9639 261.091L79.1281 261.64ZM67.1821 243.455L68.0178 242.906L68.0178 242.906L67.1821 243.455ZM67.0176 243.084L66.0495 243.334L66.0495 243.334L67.0176 243.084ZM19.8325 245.335L20.7158 245.804L20.7215 245.793L20.727 245.782L19.8325 245.335ZM11.3582 261.303L10.4749 260.834L10.4749 260.834L11.3582 261.303ZM6.33486 263.14L6.70738 262.212L6.70738 262.212L6.33486 263.14ZM2.51124 261.605L2.88376 260.677L2.88376 260.677L2.51124 261.605ZM0.443753 256.064L1.33314 256.521L1.33314 256.521L0.443753 256.064ZM18.7163 220.515L17.827 220.058L17.827 220.058L18.7163 220.515ZM22.2757 218.343L22.2759 219.343L22.2759 219.343L22.2757 218.343ZM63.6724 192.838C63.6724 203.285 55.5808 211.677 45.6913 211.677V213.677C56.7677 213.677 65.6724 204.305 65.6724 192.838H63.6724ZM45.6913 174C55.5808 174 63.6724 182.392 63.6724 192.838H65.6724C65.6724 181.372 56.7677 172 45.6913 172V174ZM27.7101 192.838C27.7101 182.392 35.8017 174 45.6913 174V172C34.6148 172 25.7101 181.372 25.7101 192.838H27.7101ZM45.6913 211.677C35.8017 211.677 27.7101 203.285 27.7101 192.838H25.7101C25.7101 204.305 34.6148 213.677 45.6913 213.677V211.677ZM68.6168 217.252C67.3542 217.255 65.7631 217.26 63.8605 217.266L63.867 219.266C65.7698 219.26 67.3602 219.255 68.6222 219.252L68.6168 217.252ZM73.0744 219.987C72.2233 218.307 70.5041 217.247 68.6168 217.252L68.6222 219.252C69.7492 219.249 70.7788 219.881 71.2905 220.891L73.0744 219.987ZM83.9982 241.538L73.0744 219.987L71.2905 220.891L82.2143 242.442L83.9982 241.538ZM90.4124 255.904L84.0194 241.582L82.1931 242.398L88.5861 256.72L90.4124 255.904ZM87.8789 262.511C90.4042 261.387 91.539 258.428 90.4124 255.904L88.5861 256.72C89.2621 258.234 88.5812 260.009 87.066 260.683L87.8789 262.511ZM84.5035 264.012L87.8789 262.511L87.066 260.683L83.6906 262.185L84.5035 264.012ZM78.2923 262.189C79.6368 264.236 82.266 265.008 84.5035 264.012L83.6906 262.185C82.3481 262.782 80.7706 262.319 79.9639 261.091L78.2923 262.189ZM66.3463 244.004L78.2923 262.189L79.9639 261.091L68.0178 242.906L66.3463 244.004ZM66.0495 243.334C66.111 243.572 66.2112 243.799 66.3463 244.004L68.0178 242.906C68.0033 242.884 67.9925 242.86 67.9858 242.834L66.0495 243.334ZM65.5737 243.395C65.5737 243.284 65.6068 243.245 65.6237 243.227C65.6516 243.198 65.7064 243.165 65.7849 243.155C65.8634 243.145 65.9248 243.163 65.959 243.184C65.9798 243.197 66.0217 243.227 66.0495 243.334L67.9858 242.834C67.327 240.285 63.5737 240.762 63.5737 243.395H65.5737ZM65.5737 261V243.395H63.5737V261H65.5737ZM61.0939 265.479C63.568 265.479 65.5737 263.474 65.5737 261H63.5737C63.5737 262.369 62.4635 263.479 61.0939 263.479V265.479ZM28.5196 265.479H61.0939V263.479H28.5196V265.479ZM23.5196 260.479C23.5196 263.241 25.7582 265.479 28.5196 265.479V263.479C26.8627 263.479 25.5196 262.136 25.5196 260.479H23.5196ZM23.5196 246.441V260.479H25.5196V246.441H23.5196ZM20.727 245.782C21.4223 244.39 23.5196 244.885 23.5196 246.441H25.5196C25.5196 242.774 20.5765 241.608 18.9379 244.888L20.727 245.782ZM12.2415 261.772L20.7158 245.804L18.9491 244.866L10.4749 260.834L12.2415 261.772ZM5.96235 264.068C8.33463 265.02 11.0432 264.03 12.2415 261.772L10.4749 260.834C9.75586 262.189 8.13075 262.783 6.70738 262.212L5.96235 264.068ZM2.13873 262.533L5.96235 264.068L6.70738 262.212L2.88376 260.677L2.13873 262.533ZM-0.445636 255.607C-1.79193 258.226 -0.594274 261.436 2.13873 262.533L2.88376 260.677C1.24396 260.019 0.525365 258.093 1.33314 256.521L-0.445636 255.607ZM17.827 220.058L-0.445636 255.607L1.33314 256.521L19.6057 220.972L17.827 220.058ZM22.2755 217.343C20.4024 217.344 18.6838 218.391 17.827 220.058L19.6057 220.972C20.1195 219.973 21.1509 219.343 22.2759 219.343L22.2755 217.343ZM63.8605 217.266C55.5242 217.293 41.2002 217.339 22.2755 217.343L22.2759 219.343C41.2037 219.339 55.5302 219.293 63.867 219.266L63.8605 217.266Z" fill="#FFEFD5" mask="url(#path-3-inside-1)"/>
<path d="M176.103 165.328C169.671 165.341 151.011 165.428 123.639 165.431C122.773 165.431 121.998 165.988 121.73 166.811L107.563 210.227L98.1515 239.144C97.5301 241.053 99.7945 242.585 101.335 241.298L107.154 236.439C107.422 236.215 107.627 235.924 107.748 235.595L126.533 184.627L127.533 182.412C128.461 180.357 131.55 181.169 131.348 183.415L117.991 331.622C117.886 332.793 118.808 333.801 119.983 333.801H127.805C128.778 333.801 129.61 333.101 129.776 332.143L146.16 237.58C146.553 235.31 149.842 235.396 150.116 237.684L161.434 332.04C161.554 333.045 162.407 333.801 163.42 333.801H168.415C169.52 333.801 170.415 332.906 170.415 331.801V183.943C170.415 182.005 172.894 181.2 174.033 182.767L175.243 184.432C175.337 184.562 175.416 184.702 175.476 184.85L196.892 237.155C197.356 238.289 198.724 238.743 199.774 238.11L203.482 235.878C204.305 235.383 204.659 234.373 204.327 233.472L197.776 215.723L185.563 184.627L177.936 166.549C177.624 165.808 176.908 165.326 176.103 165.328Z" fill="black" stroke="#FFEFD5" stroke-linecap="round" stroke-linejoin="round"/>
<ellipse cx="150.046" cy="137.626" rx="20.4634" ry="21.6255" fill="black"/>
<path d="M311.153 79.5555C302.366 79.5674 273.176 79.7112 229.646 79.7135C228.988 79.7135 228.363 80.0371 227.99 80.5788L190.987 134.284C190.421 135.105 190.547 136.219 191.283 136.893L232.553 174.73C233.859 175.927 235.961 174.961 235.903 173.19L235.346 156.158C235.328 155.602 235.079 155.078 234.659 154.713L214.342 137.057C213.496 136.322 213.419 135.034 214.173 134.204L240.254 105.463C241.547 104.038 243.91 105.082 243.726 106.998L222.16 332.304C222.048 333.479 222.971 334.495 224.151 334.495H237.962C238.935 334.495 239.767 333.795 239.933 332.836L266.069 181.988C266.462 179.717 269.751 179.803 270.025 182.091L288.094 332.733C288.215 333.738 289.068 334.495 290.08 334.495H299.577C300.681 334.495 301.577 333.6 301.577 332.495V131.597V104.371C301.577 102.454 304.015 101.635 305.172 103.165L328.613 134.148C329.271 135.019 329.11 136.257 328.251 136.93L305.567 154.685C305.083 155.064 304.8 155.645 304.8 156.26V170.673C304.8 172.371 306.781 173.296 308.083 172.207L350.289 136.897C351.087 136.23 351.24 135.063 350.641 134.212L312.775 80.4037C312.4 79.8714 311.804 79.5546 311.153 79.5555Z" fill="black" stroke="#FFEFD5" stroke-linecap="round" stroke-linejoin="round"/>
<path d="M301.569 32.7241C301.569 50.5474 287.903 64.9483 271.103 64.9483C254.303 64.9483 240.638 50.5474 240.638 32.7241C240.638 14.9008 254.303 0.499884 271.103 0.499884C287.903 0.499884 301.569 14.9008 301.569 32.7241Z" fill="black" stroke="#FFEFD5"/>
<path d="M469.565 95.7004C459.674 95.7143 428.356 95.8457 381.926 95.8479C381.216 95.8479 380.55 96.2238 380.191 96.8358L353.626 142.112C353.523 142.287 353.447 142.477 353.402 142.675L339.195 204.422C338.781 206.222 340.821 207.573 342.317 206.49L356.308 196.359C356.685 196.086 356.955 195.69 357.072 195.239L368.847 149.597C368.909 149.356 369.017 149.128 369.163 148.925L387.797 123.155C387.854 123.076 387.905 122.993 387.95 122.907L392.639 113.906C393.658 111.949 396.63 112.842 396.402 115.036L373.837 332.116C373.714 333.296 374.639 334.323 375.826 334.323H391.064C392.021 334.323 392.843 333.646 393.027 332.707L423.011 179.2C423.458 176.912 426.794 177.109 426.968 179.434L429.468 212.767L445.02 332.581C445.15 333.577 445.999 334.323 447.004 334.323H457.574C458.679 334.323 459.574 333.428 459.574 332.323V121.514C459.574 121.71 459.603 121.906 459.66 122.094L470.905 159.139C470.98 159.387 471.103 159.618 471.266 159.819L503.244 199.224C503.843 199.962 504.88 200.177 505.723 199.737L514.838 194.979C515.499 194.634 515.913 193.951 515.913 193.206V187.63C515.913 187.18 515.761 186.743 515.482 186.39L489.068 152.949C488.917 152.757 488.802 152.54 488.729 152.306L471.458 97.1021C471.197 96.2674 470.439 95.6992 469.565 95.7004Z" fill="black"/>
<path d="M459.574 113.351V332.323C459.574 333.428 458.679 334.323 457.574 334.323H447.004C445.999 334.323 445.15 333.577 445.02 332.581L429.468 212.767L426.968 179.434C426.794 177.109 423.458 176.912 423.011 179.2L393.027 332.707C392.843 333.646 392.021 334.323 391.064 334.323H375.826C374.639 334.323 373.714 333.296 373.837 332.116L396.402 115.036C396.63 112.842 393.658 111.949 392.639 113.906L387.95 122.907C387.905 122.993 387.854 123.076 387.797 123.155L369.163 148.925C369.017 149.128 368.909 149.356 368.847 149.597L357.072 195.239C356.955 195.69 356.685 196.086 356.308 196.359L342.317 206.49C340.821 207.573 338.781 206.222 339.195 204.422L353.402 142.675C353.447 142.477 353.523 142.287 353.626 142.112L380.191 96.8358C380.55 96.2238 381.216 95.8479 381.926 95.8479C428.356 95.8457 459.674 95.7143 469.565 95.7004C470.439 95.6992 471.197 96.2674 471.458 97.1021L488.729 152.306C488.802 152.54 488.917 152.757 489.068 152.949L515.482 186.39C515.761 186.743 515.913 187.18 515.913 187.63V193.206C515.913 193.951 515.499 194.634 514.838 194.979L505.723 199.737C504.88 200.177 503.843 199.962 503.244 199.224L471.266 159.819C471.103 159.618 470.98 159.387 470.905 159.139L459.66 122.094C459.603 121.906 459.574 121.71 459.574 121.514V113.351Z" stroke="#FFEFD5" stroke-linecap="round" stroke-linejoin="round"/>
<path d="M493.782 50.3088C493.782 67.2906 478.969 81.1177 460.619 81.1177C442.268 81.1177 427.455 67.2906 427.455 50.3088C427.455 33.3271 442.268 19.5 460.619 19.5C478.969 19.5 493.782 33.3271 493.782 50.3088Z" fill="black" stroke="#FFEFD5"/>
<path d="M528.609 189.031C525.312 188.695 522.367 191.095 522.031 194.391C521.695 197.688 524.095 200.633 527.391 200.969L528.609 189.031ZM542.925 333.667C542.925 336.981 545.611 339.667 548.925 339.667C552.239 339.667 554.925 336.981 554.925 333.667H542.925ZM528 195C527.391 200.969 527.391 200.969 527.391 200.969C527.391 200.969 527.39 200.969 527.39 200.969C527.39 200.969 527.391 200.969 527.391 200.969C527.393 200.969 527.395 200.969 527.399 200.97C527.406 200.971 527.418 200.972 527.436 200.974C527.47 200.977 527.523 200.983 527.594 200.99C527.735 201.006 527.947 201.029 528.22 201.06C528.766 201.122 529.552 201.215 530.497 201.338C532.397 201.585 534.897 201.945 537.368 202.404C539.901 202.874 542.147 203.402 543.659 203.935C544.454 204.215 544.695 204.378 544.627 204.331C544.583 204.301 544.236 204.064 543.86 203.554C543.452 203.001 542.925 201.996 542.925 200.634H554.925C554.925 197.057 552.345 195.075 551.425 194.443C550.212 193.609 548.819 193.031 547.652 192.619C545.24 191.768 542.255 191.106 539.557 190.605C536.797 190.093 534.065 189.701 532.042 189.438C531.026 189.306 530.177 189.205 529.578 189.137C529.279 189.103 529.041 189.077 528.876 189.059C528.794 189.05 528.73 189.044 528.685 189.039C528.662 189.036 528.644 189.035 528.632 189.033C528.625 189.033 528.62 189.032 528.616 189.032C528.614 189.032 528.613 189.031 528.611 189.031C528.611 189.031 528.61 189.031 528.61 189.031C528.609 189.031 528.609 189.031 528 195ZM542.925 200.634V333.667H554.925V200.634H542.925Z" fill="black"/>
</svg>
