<svg width="341" height="229" viewBox="0 0 341 229" fill="none" xmlns="http://www.w3.org/2000/svg">
<path d="M100.53 97.5503C96.0911 97.5642 84.9513 97.6233 68.9492 97.6269C68.0444 97.6271 67.2501 98.2346 67.0155 99.1085L58.2757 131.657L53.0067 151.329C52.4752 153.313 54.9217 154.714 56.3632 153.251L57.9296 151.661C58.157 151.43 58.3249 151.147 58.4189 150.838L70.1343 112.21C70.7378 110.586 73.1574 111.114 73.0293 112.842L64.8313 223.385C64.7453 224.545 65.6629 225.533 66.8258 225.533H70.247C71.2425 225.533 72.0864 224.801 72.227 223.815L81.5199 158.638C81.8536 156.297 85.2579 156.371 85.4902 158.724L91.9068 223.729C92.0078 224.753 92.8686 225.533 93.8971 225.533H95.5674C96.6719 225.533 97.5674 224.637 97.5674 223.533V112.893C97.5674 111.245 99.7388 110.646 100.585 112.06C100.644 112.16 100.693 112.265 100.73 112.375L113.8 151.165C114.232 152.447 115.784 152.939 116.876 152.141L117.98 151.333C118.666 150.831 118.96 149.95 118.713 149.137L114.672 135.832L107.037 112.21L102.413 98.8915C102.134 98.0868 101.382 97.5476 100.53 97.5503Z" fill="#2D3055" stroke="#FFEFD5" stroke-linecap="round" stroke-linejoin="round"/>
<path d="M97.1268 76.5055C97.1268 85.4261 91.514 92.4338 84.8342 92.4338C78.1543 92.4338 72.5415 85.4261 72.5415 76.5055C72.5415 67.585 78.1543 60.5773 84.8342 60.5773C91.514 60.5773 97.1268 67.585 97.1268 76.5055Z" fill="#2D3055" stroke="#FFEFD5"/>
<path d="M135.615 54.4203C161.887 54.4177 179.722 54.3254 185.675 54.3132C186.355 54.3118 186.985 54.6571 187.353 55.2285L210.5 91.1491C211.052 92.0057 210.872 93.1402 210.082 93.7835L180.135 118.162V226.359C180.135 227.463 179.24 228.359 178.135 228.359H173.631C172.611 228.359 171.755 227.591 171.643 226.577L161.022 129.877C160.767 127.558 157.424 127.478 157.059 129.782L141.687 226.672C141.532 227.643 140.695 228.359 139.711 228.359H132.529C131.36 228.359 130.44 227.36 130.536 226.194L139.327 119.664L111.594 93.783C110.891 93.1277 110.754 92.0659 111.267 91.2536L133.917 55.3531C134.283 54.7725 134.929 54.4204 135.615 54.4203Z" fill="#2D3055" stroke="#FFEFD5" stroke-linecap="round" stroke-linejoin="round"/>
<path d="M179.942 22.3406C179.942 34.4726 171.434 44.1813 161.084 44.1813C150.734 44.1813 142.226 34.4726 142.226 22.3406C142.226 10.2087 150.734 0.499921 161.084 0.499921C171.434 0.499921 179.942 10.2087 179.942 22.3406Z" fill="#2D3055" stroke="#FFEFD5"/>
<path d="M291.66 65.3655C284.929 65.3791 265.842 65.4627 237.942 65.4651C237.205 65.4652 236.521 65.8698 236.172 66.5186L219.807 96.9767C219.717 97.1446 219.652 97.3245 219.612 97.511L211.14 137.723C210.754 139.554 212.87 140.865 214.338 139.704L221.264 134.227C221.618 133.947 221.866 133.557 221.97 133.118L229.261 102.257C229.315 102.027 229.41 101.809 229.54 101.613L241.184 84.0268L242.321 81.6434C243.284 79.625 246.329 80.4677 246.117 82.694L232.468 226.082C232.356 227.256 233.28 228.271 234.459 228.271H242.528C243.497 228.271 244.327 227.577 244.497 226.623L262.07 128.374C262.486 126.053 265.873 126.237 266.034 128.589L267.181 145.285L276.835 226.507C276.955 227.514 277.808 228.271 278.821 228.271H284.002C285.106 228.271 286.002 227.376 286.002 226.271V82.9169C286.002 83.0979 286.026 83.2781 286.075 83.4525L293.057 108.571C293.123 108.808 293.232 109.031 293.379 109.229L312.889 135.484C313.492 136.296 314.606 136.529 315.485 136.029L320.212 133.334C320.837 132.978 321.222 132.315 321.222 131.596V128.298C321.222 127.877 321.089 127.467 320.842 127.126L304.502 104.534C304.366 104.346 304.264 104.136 304.2 103.913L293.572 66.8128C293.326 65.9549 292.552 65.3637 291.66 65.3655Z" fill="#2D3055" stroke="#FFEFD5" stroke-linecap="round" stroke-linejoin="round"/>
<path d="M307.201 34.3744C307.201 45.9104 297.995 55.2488 286.656 55.2488C275.317 55.2488 266.111 45.9104 266.111 34.3744C266.111 22.8384 275.317 13.5 286.656 13.5C297.995 13.5 307.201 22.8384 307.201 34.3744Z" fill="#2D3055" stroke="#FFEFD5"/>
<path d="M325.1 128.526C323.728 128.373 322.491 129.362 322.339 130.734C322.186 132.106 323.174 133.342 324.547 133.495L325.1 128.526ZM335.404 225.678C335.404 227.058 336.524 228.178 337.904 228.178C339.285 228.178 340.404 227.058 340.404 225.678H335.404ZM324.823 131.01C324.547 133.495 324.546 133.495 324.546 133.495C324.546 133.495 324.546 133.495 324.546 133.495C324.546 133.495 324.547 133.495 324.547 133.495C324.548 133.495 324.55 133.495 324.553 133.496C324.558 133.496 324.566 133.497 324.577 133.498C324.599 133.501 324.633 133.505 324.679 133.51C324.769 133.521 324.904 133.537 325.077 133.559C325.423 133.602 325.919 133.666 326.516 133.751C327.715 133.92 329.297 134.169 330.867 134.488C332.464 134.811 333.935 135.185 334.961 135.58C335.489 135.784 335.753 135.939 335.841 136.005C336.008 136.13 335.404 135.765 335.404 134.857H340.404C340.404 133.351 339.392 132.418 338.843 132.006C338.216 131.535 337.458 131.184 336.76 130.915C335.334 130.365 333.534 129.926 331.86 129.587C330.16 129.242 328.472 128.978 327.218 128.8C326.589 128.711 326.064 128.643 325.694 128.597C325.509 128.574 325.363 128.556 325.262 128.544C325.211 128.538 325.172 128.534 325.145 128.531C325.131 128.529 325.12 128.528 325.113 128.527C325.109 128.527 325.106 128.526 325.104 128.526C325.103 128.526 325.102 128.526 325.101 128.526C325.101 128.526 325.101 128.526 325.1 128.526C325.1 128.526 325.1 128.526 324.823 131.01ZM335.404 134.857C335.404 134.861 335.404 134.866 335.404 134.872C335.404 134.877 335.404 134.883 335.404 134.889C335.404 134.895 335.404 134.901 335.404 134.908C335.404 134.914 335.404 134.921 335.404 134.929C335.404 134.936 335.404 134.943 335.404 134.951C335.404 134.959 335.404 134.967 335.404 134.976C335.404 134.985 335.404 134.993 335.404 135.003C335.404 135.012 335.404 135.021 335.404 135.031C335.404 135.041 335.404 135.051 335.404 135.062C335.404 135.072 335.404 135.083 335.404 135.094C335.404 135.105 335.404 135.117 335.404 135.128C335.404 135.14 335.404 135.152 335.404 135.164C335.404 135.177 335.404 135.189 335.404 135.202C335.404 135.215 335.404 135.229 335.404 135.242C335.404 135.256 335.404 135.27 335.404 135.284C335.404 135.298 335.404 135.313 335.404 135.328C335.404 135.342 335.404 135.358 335.404 135.373C335.404 135.389 335.404 135.404 335.404 135.42C335.404 135.436 335.404 135.453 335.404 135.469C335.404 135.486 335.404 135.503 335.404 135.52C335.404 135.538 335.404 135.555 335.404 135.573C335.404 135.591 335.404 135.609 335.404 135.628C335.404 135.646 335.404 135.665 335.404 135.684C335.404 135.703 335.404 135.722 335.404 135.742C335.404 135.762 335.404 135.782 335.404 135.802C335.404 135.822 335.404 135.843 335.404 135.864C335.404 135.885 335.404 135.906 335.404 135.927C335.404 135.949 335.404 135.97 335.404 135.992C335.404 136.014 335.404 136.037 335.404 136.059C335.404 136.082 335.404 136.105 335.404 136.128C335.404 136.151 335.404 136.175 335.404 136.198C335.404 136.222 335.404 136.246 335.404 136.271C335.404 136.295 335.404 136.32 335.404 136.345C335.404 136.369 335.404 136.395 335.404 136.42C335.404 136.446 335.404 136.471 335.404 136.497C335.404 136.523 335.404 136.55 335.404 136.576C335.404 136.603 335.404 136.63 335.404 136.657C335.404 136.684 335.404 136.712 335.404 136.739C335.404 136.767 335.404 136.795 335.404 136.824C335.404 136.852 335.404 136.88 335.404 136.909C335.404 136.938 335.404 136.967 335.404 136.997C335.404 137.026 335.404 137.056 335.404 137.086C335.404 137.116 335.404 137.146 335.404 137.176C335.404 137.207 335.404 137.238 335.404 137.269C335.404 137.3 335.404 137.331 335.404 137.362C335.404 137.394 335.404 137.426 335.404 137.458C335.404 137.49 335.404 137.523 335.404 137.555C335.404 137.588 335.404 137.621 335.404 137.654C335.404 137.687 335.404 137.721 335.404 137.754C335.404 137.788 335.404 137.822 335.404 137.856C335.404 137.89 335.404 137.925 335.404 137.96C335.404 137.994 335.404 138.029 335.404 138.065C335.404 138.1 335.404 138.136 335.404 138.171C335.404 138.207 335.404 138.243 335.404 138.28C335.404 138.316 335.404 138.353 335.404 138.389C335.404 138.426 335.404 138.463 335.404 138.501C335.404 138.538 335.404 138.576 335.404 138.613C335.404 138.651 335.404 138.689 335.404 138.728C335.404 138.766 335.404 138.805 335.404 138.844C335.404 138.883 335.404 138.922 335.404 138.961C335.404 139 335.404 139.04 335.404 139.08C335.404 139.12 335.404 139.16 335.404 139.2C335.404 139.241 335.404 139.281 335.404 139.322C335.404 139.363 335.404 139.404 335.404 139.445C335.404 139.487 335.404 139.528 335.404 139.57C335.404 139.612 335.404 139.654 335.404 139.697C335.404 139.739 335.404 139.781 335.404 139.824C335.404 139.867 335.404 139.91 335.404 139.953C335.404 139.997 335.404 140.04 335.404 140.084C335.404 140.128 335.404 140.172 335.404 140.216C335.404 140.26 335.404 140.305 335.404 140.35C335.404 140.394 335.404 140.439 335.404 140.484C335.404 140.53 335.404 140.575 335.404 140.621C335.404 140.666 335.404 140.712 335.404 140.758C335.404 140.804 335.404 140.851 335.404 140.897C335.404 140.944 335.404 140.991 335.404 141.038C335.404 141.085 335.404 141.132 335.404 141.18C335.404 141.227 335.404 141.275 335.404 141.323C335.404 141.371 335.404 141.419 335.404 141.467C335.404 141.516 335.404 141.565 335.404 141.613C335.404 141.662 335.404 141.711 335.404 141.761C335.404 141.81 335.404 141.86 335.404 141.909C335.404 141.959 335.404 142.009 335.404 142.059C335.404 142.109 335.404 142.16 335.404 142.21C335.404 142.261 335.404 142.312 335.404 142.363C335.404 142.414 335.404 142.465 335.404 142.517C335.404 142.568 335.404 142.62 335.404 142.672C335.404 142.724 335.404 142.776 335.404 142.829C335.404 142.881 335.404 142.933 335.404 142.986C335.404 143.039 335.404 143.092 335.404 143.145C335.404 143.199 335.404 143.252 335.404 143.306C335.404 143.359 335.404 143.413 335.404 143.467C335.404 143.521 335.404 143.575 335.404 143.63C335.404 143.684 335.404 143.739 335.404 143.794C335.404 143.849 335.404 143.904 335.404 143.959C335.404 144.015 335.404 144.07 335.404 144.126C335.404 144.181 335.404 144.237 335.404 144.293C335.404 144.35 335.404 144.406 335.404 144.462C335.404 144.519 335.404 144.576 335.404 144.633C335.404 144.689 335.404 144.747 335.404 144.804C335.404 144.861 335.404 144.919 335.404 144.976C335.404 145.034 335.404 145.092 335.404 145.15C335.404 145.208 335.404 145.267 335.404 145.325C335.404 145.384 335.404 145.442 335.404 145.501C335.404 145.56 335.404 145.619 335.404 145.678C335.404 145.738 335.404 145.797 335.404 145.857C335.404 145.916 335.404 145.976 335.404 146.036C335.404 146.096 335.404 146.156 335.404 146.217C335.404 146.277 335.404 146.338 335.404 146.399C335.404 146.459 335.404 146.52 335.404 146.581C335.404 146.643 335.404 146.704 335.404 146.765C335.404 146.827 335.404 146.889 335.404 146.951C335.404 147.012 335.404 147.074 335.404 147.137C335.404 147.199 335.404 147.261 335.404 147.324C335.404 147.387 335.404 147.449 335.404 147.512C335.404 147.575 335.404 147.639 335.404 147.702C335.404 147.765 335.404 147.829 335.404 147.892C335.404 147.956 335.404 148.02 335.404 148.084C335.404 148.148 335.404 148.212 335.404 148.276C335.404 148.341 335.404 148.405 335.404 148.47C335.404 148.535 335.404 148.6 335.404 148.665C335.404 148.73 335.404 148.795 335.404 148.861C335.404 148.926 335.404 148.992 335.404 149.057C335.404 149.123 335.404 149.189 335.404 149.255C335.404 149.321 335.404 149.387 335.404 149.454C335.404 149.52 335.404 149.587 335.404 149.653C335.404 149.72 335.404 149.787 335.404 149.854C335.404 149.921 335.404 149.988 335.404 150.056C335.404 150.123 335.404 150.191 335.404 150.259C335.404 150.326 335.404 150.394 335.404 150.462C335.404 150.53 335.404 150.598 335.404 150.667C335.404 150.735 335.404 150.804 335.404 150.872C335.404 150.941 335.404 151.01 335.404 151.079C335.404 151.148 335.404 151.217 335.404 151.286C335.404 151.355 335.404 151.425 335.404 151.494C335.404 151.564 335.404 151.634 335.404 151.704C335.404 151.774 335.404 151.844 335.404 151.914C335.404 151.984 335.404 152.054 335.404 152.125C335.404 152.195 335.404 152.266 335.404 152.337C335.404 152.408 335.404 152.479 335.404 152.55C335.404 152.621 335.404 152.692 335.404 152.763C335.404 152.835 335.404 152.906 335.404 152.978C335.404 153.05 335.404 153.122 335.404 153.193C335.404 153.265 335.404 153.338 335.404 153.41C335.404 153.482 335.404 153.554 335.404 153.627C335.404 153.699 335.404 153.772 335.404 153.845C335.404 153.918 335.404 153.991 335.404 154.064C335.404 154.137 335.404 154.21 335.404 154.283C335.404 154.357 335.404 154.43 335.404 154.504C335.404 154.577 335.404 154.651 335.404 154.725C335.404 154.799 335.404 154.873 335.404 154.947C335.404 155.021 335.404 155.096 335.404 155.17C335.404 155.244 335.404 155.319 335.404 155.394C335.404 155.468 335.404 155.543 335.404 155.618C335.404 155.693 335.404 155.768 335.404 155.843C335.404 155.918 335.404 155.994 335.404 156.069C335.404 156.145 335.404 156.22 335.404 156.296C335.404 156.371 335.404 156.447 335.404 156.523C335.404 156.599 335.404 156.675 335.404 156.751C335.404 156.828 335.404 156.904 335.404 156.98C335.404 157.057 335.404 157.133 335.404 157.21C335.404 157.287 335.404 157.363 335.404 157.44C335.404 157.517 335.404 157.594 335.404 157.671C335.404 157.748 335.404 157.826 335.404 157.903C335.404 157.98 335.404 158.058 335.404 158.135C335.404 158.213 335.404 158.291 335.404 158.369C335.404 158.446 335.404 158.524 335.404 158.602C335.404 158.68 335.404 158.759 335.404 158.837C335.404 158.915 335.404 158.993 335.404 159.072C335.404 159.15 335.404 159.229 335.404 159.308C335.404 159.386 335.404 159.465 335.404 159.544C335.404 159.623 335.404 159.702 335.404 159.781C335.404 159.86 335.404 159.939 335.404 160.019C335.404 160.098 335.404 160.178 335.404 160.257C335.404 160.337 335.404 160.416 335.404 160.496C335.404 160.576 335.404 160.656 335.404 160.735C335.404 160.815 335.404 160.895 335.404 160.976C335.404 161.056 335.404 161.136 335.404 161.216C335.404 161.297 335.404 161.377 335.404 161.458C335.404 161.538 335.404 161.619 335.404 161.699C335.404 161.78 335.404 161.861 335.404 161.942C335.404 162.023 335.404 162.104 335.404 162.185C335.404 162.266 335.404 162.347 335.404 162.428C335.404 162.51 335.404 162.591 335.404 162.672C335.404 162.754 335.404 162.835 335.404 162.917C335.404 162.999 335.404 163.08 335.404 163.162C335.404 163.244 335.404 163.326 335.404 163.408C335.404 163.49 335.404 163.572 335.404 163.654C335.404 163.736 335.404 163.818 335.404 163.901C335.404 163.983 335.404 164.065 335.404 164.148C335.404 164.23 335.404 164.313 335.404 164.395C335.404 164.478 335.404 164.561 335.404 164.643C335.404 164.726 335.404 164.809 335.404 164.892C335.404 164.975 335.404 165.058 335.404 165.141C335.404 165.224 335.404 165.307 335.404 165.391C335.404 165.474 335.404 165.557 335.404 165.641C335.404 165.724 335.404 165.807 335.404 165.891C335.404 165.974 335.404 166.058 335.404 166.142C335.404 166.225 335.404 166.309 335.404 166.393C335.404 166.477 335.404 166.561 335.404 166.645C335.404 166.729 335.404 166.813 335.404 166.897C335.404 166.981 335.404 167.065 335.404 167.149C335.404 167.233 335.404 167.318 335.404 167.402C335.404 167.486 335.404 167.571 335.404 167.655C335.404 167.74 335.404 167.824 335.404 167.909C335.404 167.994 335.404 168.078 335.404 168.163C335.404 168.248 335.404 168.333 335.404 168.417C335.404 168.502 335.404 168.587 335.404 168.672C335.404 168.757 335.404 168.842 335.404 168.927C335.404 169.012 335.404 169.097 335.404 169.183C335.404 169.268 335.404 169.353 335.404 169.438C335.404 169.524 335.404 169.609 335.404 169.694C335.404 169.78 335.404 169.865 335.404 169.951C335.404 170.036 335.404 170.122 335.404 170.208C335.404 170.293 335.404 170.379 335.404 170.465C335.404 170.55 335.404 170.636 335.404 170.722C335.404 170.808 335.404 170.893 335.404 170.979C335.404 171.065 335.404 171.151 335.404 171.237C335.404 171.323 335.404 171.409 335.404 171.495C335.404 171.581 335.404 171.668 335.404 171.754C335.404 171.84 335.404 171.926 335.404 172.012C335.404 172.099 335.404 172.185 335.404 172.271C335.404 172.358 335.404 172.444 335.404 172.53C335.404 172.617 335.404 172.703 335.404 172.79C335.404 172.876 335.404 172.963 335.404 173.049C335.404 173.136 335.404 173.222 335.404 173.309C335.404 173.396 335.404 173.482 335.404 173.569C335.404 173.656 335.404 173.742 335.404 173.829C335.404 173.916 335.404 174.003 335.404 174.09C335.404 174.176 335.404 174.263 335.404 174.35C335.404 174.437 335.404 174.524 335.404 174.611C335.404 174.698 335.404 174.785 335.404 174.872C335.404 174.959 335.404 175.046 335.404 175.133C335.404 175.22 335.404 175.307 335.404 175.394C335.404 175.481 335.404 175.568 335.404 175.655C335.404 175.743 335.404 175.83 335.404 175.917C335.404 176.004 335.404 176.091 335.404 176.179C335.404 176.266 335.404 176.353 335.404 176.44C335.404 176.528 335.404 176.615 335.404 176.702C335.404 176.789 335.404 176.877 335.404 176.964C335.404 177.051 335.404 177.139 335.404 177.226C335.404 177.314 335.404 177.401 335.404 177.488C335.404 177.576 335.404 177.663 335.404 177.751C335.404 177.838 335.404 177.925 335.404 178.013C335.404 178.1 335.404 178.188 335.404 178.275C335.404 178.363 335.404 178.45 335.404 178.538C335.404 178.625 335.404 178.713 335.404 178.8C335.404 178.888 335.404 178.975 335.404 179.063C335.404 179.15 335.404 179.238 335.404 179.325C335.404 179.413 335.404 179.5 335.404 179.588C335.404 179.675 335.404 179.763 335.404 179.85C335.404 179.938 335.404 180.026 335.404 180.113C335.404 180.201 335.404 180.288 335.404 180.376C335.404 180.463 335.404 180.551 335.404 180.638C335.404 180.726 335.404 180.813 335.404 180.901C335.404 180.988 335.404 181.076 335.404 181.164C335.404 181.251 335.404 181.339 335.404 181.426C335.404 181.514 335.404 181.601 335.404 181.689C335.404 181.776 335.404 181.864 335.404 181.951C335.404 182.039 335.404 182.126 335.404 182.214C335.404 182.301 335.404 182.388 335.404 182.476C335.404 182.563 335.404 182.651 335.404 182.738C335.404 182.826 335.404 182.913 335.404 183C335.404 183.088 335.404 183.175 335.404 183.263C335.404 183.35 335.404 183.437 335.404 183.525C335.404 183.612 335.404 183.699 335.404 183.787C335.404 183.874 335.404 183.961 335.404 184.048C335.404 184.136 335.404 184.223 335.404 184.31C335.404 184.397 335.404 184.485 335.404 184.572C335.404 184.659 335.404 184.746 335.404 184.833C335.404 184.92 335.404 185.008 335.404 185.095C335.404 185.182 335.404 185.269 335.404 185.356C335.404 185.443 335.404 185.53 335.404 185.617C335.404 185.704 335.404 185.791 335.404 185.878C335.404 185.965 335.404 186.052 335.404 186.139C335.404 186.225 335.404 186.312 335.404 186.399C335.404 186.486 335.404 186.573 335.404 186.66C335.404 186.746 335.404 186.833 335.404 186.92C335.404 187.006 335.404 187.093 335.404 187.18C335.404 187.266 335.404 187.353 335.404 187.439C335.404 187.526 335.404 187.613 335.404 187.699C335.404 187.786 335.404 187.872 335.404 187.958C335.404 188.045 335.404 188.131 335.404 188.217C335.404 188.304 335.404 188.39 335.404 188.476C335.404 188.563 335.404 188.649 335.404 188.735C335.404 188.821 335.404 188.907 335.404 188.993C335.404 189.079 335.404 189.165 335.404 189.251C335.404 189.337 335.404 189.423 335.404 189.509C335.404 189.595 335.404 189.681 335.404 189.767C335.404 189.853 335.404 189.938 335.404 190.024C335.404 190.11 335.404 190.196 335.404 190.281C335.404 190.367 335.404 190.452 335.404 190.538C335.404 190.623 335.404 190.709 335.404 190.794C335.404 190.88 335.404 190.965 335.404 191.05C335.404 191.136 335.404 191.221 335.404 191.306C335.404 191.391 335.404 191.476 335.404 191.561C335.404 191.647 335.404 191.732 335.404 191.817C335.404 191.902 335.404 191.986 335.404 192.071C335.404 192.156 335.404 192.241 335.404 192.326C335.404 192.41 335.404 192.495 335.404 192.58C335.404 192.664 335.404 192.749 335.404 192.833C335.404 192.918 335.404 193.002 335.404 193.087C335.404 193.171 335.404 193.255 335.404 193.339C335.404 193.424 335.404 193.508 335.404 193.592C335.404 193.676 335.404 193.76 335.404 193.844C335.404 193.928 335.404 194.012 335.404 194.096C335.404 194.179 335.404 194.263 335.404 194.347C335.404 194.431 335.404 194.514 335.404 194.598C335.404 194.681 335.404 194.765 335.404 194.848C335.404 194.931 335.404 195.015 335.404 195.098C335.404 195.181 335.404 195.264 335.404 195.348C335.404 195.431 335.404 195.514 335.404 195.597C335.404 195.68 335.404 195.762 335.404 195.845C335.404 195.928 335.404 196.011 335.404 196.093C335.404 196.176 335.404 196.258 335.404 196.341C335.404 196.423 335.404 196.506 335.404 196.588C335.404 196.67 335.404 196.753 335.404 196.835C335.404 196.917 335.404 196.999 335.404 197.081C335.404 197.163 335.404 197.245 335.404 197.326C335.404 197.408 335.404 197.49 335.404 197.572C335.404 197.653 335.404 197.735 335.404 197.816C335.404 197.898 335.404 197.979 335.404 198.06C335.404 198.141 335.404 198.223 335.404 198.304C335.404 198.385 335.404 198.466 335.404 198.547C335.404 198.628 335.404 198.708 335.404 198.789C335.404 198.87 335.404 198.95 335.404 199.031C335.404 199.111 335.404 199.192 335.404 199.272C335.404 199.353 335.404 199.433 335.404 199.513C335.404 199.593 335.404 199.673 335.404 199.753C335.404 199.833 335.404 199.913 335.404 199.992C335.404 200.072 335.404 200.152 335.404 200.231C335.404 200.311 335.404 200.39 335.404 200.47C335.404 200.549 335.404 200.628 335.404 200.707C335.404 200.786 335.404 200.865 335.404 200.944C335.404 201.023 335.404 201.102 335.404 201.181C335.404 201.259 335.404 201.338 335.404 201.416C335.404 201.495 335.404 201.573 335.404 201.652C335.404 201.73 335.404 201.808 335.404 201.886C335.404 201.964 335.404 202.042 335.404 202.12C335.404 202.198 335.404 202.275 335.404 202.353C335.404 202.43 335.404 202.508 335.404 202.585C335.404 202.663 335.404 202.74 335.404 202.817C335.404 202.894 335.404 202.971 335.404 203.048C335.404 203.125 335.404 203.202 335.404 203.278C335.404 203.355 335.404 203.432 335.404 203.508C335.404 203.584 335.404 203.661 335.404 203.737C335.404 203.813 335.404 203.889 335.404 203.965C335.404 204.041 335.404 204.117 335.404 204.192C335.404 204.268 335.404 204.344 335.404 204.419C335.404 204.495 335.404 204.57 335.404 204.645C335.404 204.72 335.404 204.795 335.404 204.87C335.404 204.945 335.404 205.02 335.404 205.095C335.404 205.169 335.404 205.244 335.404 205.318C335.404 205.393 335.404 205.467 335.404 205.541C335.404 205.615 335.404 205.689 335.404 205.763C335.404 205.837 335.404 205.911 335.404 205.984C335.404 206.058 335.404 206.132 335.404 206.205C335.404 206.278 335.404 206.351 335.404 206.424C335.404 206.498 335.404 206.57 335.404 206.643C335.404 206.716 335.404 206.789 335.404 206.861C335.404 206.934 335.404 207.006 335.404 207.078C335.404 207.151 335.404 207.223 335.404 207.295C335.404 207.367 335.404 207.438 335.404 207.51C335.404 207.582 335.404 207.653 335.404 207.725C335.404 207.796 335.404 207.867 335.404 207.938C335.404 208.009 335.404 208.08 335.404 208.151C335.404 208.222 335.404 208.293 335.404 208.363C335.404 208.434 335.404 208.504 335.404 208.574C335.404 208.644 335.404 208.714 335.404 208.784C335.404 208.854 335.404 208.924 335.404 208.994C335.404 209.063 335.404 209.133 335.404 209.202C335.404 209.271 335.404 209.34 335.404 209.409C335.404 209.478 335.404 209.547 335.404 209.616C335.404 209.684 335.404 209.753 335.404 209.821C335.404 209.89 335.404 209.958 335.404 210.026C335.404 210.094 335.404 210.162 335.404 210.229C335.404 210.297 335.404 210.365 335.404 210.432C335.404 210.499 335.404 210.567 335.404 210.634C335.404 210.701 335.404 210.768 335.404 210.834C335.404 210.901 335.404 210.968 335.404 211.034C335.404 211.101 335.404 211.167 335.404 211.233C335.404 211.299 335.404 211.365 335.404 211.431C335.404 211.496 335.404 211.562 335.404 211.627C335.404 211.693 335.404 211.758 335.404 211.823C335.404 211.888 335.404 211.953 335.404 212.018C335.404 212.082 335.404 212.147 335.404 212.211C335.404 212.276 335.404 212.34 335.404 212.404C335.404 212.468 335.404 212.532 335.404 212.595C335.404 212.659 335.404 212.723 335.404 212.786C335.404 212.849 335.404 212.912 335.404 212.975C335.404 213.038 335.404 213.101 335.404 213.164C335.404 213.226 335.404 213.289 335.404 213.351C335.404 213.413 335.404 213.475 335.404 213.537C335.404 213.599 335.404 213.661 335.404 213.722C335.404 213.784 335.404 213.845 335.404 213.906C335.404 213.967 335.404 214.028 335.404 214.089C335.404 214.15 335.404 214.21 335.404 214.271C335.404 214.331 335.404 214.391 335.404 214.451C335.404 214.511 335.404 214.571 335.404 214.631C335.404 214.691 335.404 214.75 335.404 214.809C335.404 214.869 335.404 214.928 335.404 214.987C335.404 215.045 335.404 215.104 335.404 215.163C335.404 215.221 335.404 215.279 335.404 215.337C335.404 215.396 335.404 215.453 335.404 215.511C335.404 215.569 335.404 215.626 335.404 215.684C335.404 215.741 335.404 215.798 335.404 215.855C335.404 215.912 335.404 215.969 335.404 216.025C335.404 216.082 335.404 216.138 335.404 216.194C335.404 216.25 335.404 216.306 335.404 216.362C335.404 216.417 335.404 216.473 335.404 216.528C335.404 216.583 335.404 216.639 335.404 216.693C335.404 216.748 335.404 216.803 335.404 216.857C335.404 216.912 335.404 216.966 335.404 217.02C335.404 217.074 335.404 217.128 335.404 217.182C335.404 217.235 335.404 217.289 335.404 217.342C335.404 217.395 335.404 217.448 335.404 217.501C335.404 217.554 335.404 217.606 335.404 217.659C335.404 217.711 335.404 217.763 335.404 217.815C335.404 217.867 335.404 217.919 335.404 217.97C335.404 218.022 335.404 218.073 335.404 218.124C335.404 218.175 335.404 218.226 335.404 218.277C335.404 218.327 335.404 218.378 335.404 218.428C335.404 218.478 335.404 218.528 335.404 218.578C335.404 218.628 335.404 218.677 335.404 218.727C335.404 218.776 335.404 218.825 335.404 218.874C335.404 218.923 335.404 218.971 335.404 219.02C335.404 219.068 335.404 219.116 335.404 219.164C335.404 219.212 335.404 219.26 335.404 219.307C335.404 219.355 335.404 219.402 335.404 219.449C335.404 219.496 335.404 219.543 335.404 219.59C335.404 219.636 335.404 219.683 335.404 219.729C335.404 219.775 335.404 219.821 335.404 219.866C335.404 219.912 335.404 219.957 335.404 220.003C335.404 220.048 335.404 220.093 335.404 220.137C335.404 220.182 335.404 220.227 335.404 220.271C335.404 220.315 335.404 220.359 335.404 220.403C335.404 220.447 335.404 220.49 335.404 220.534C335.404 220.577 335.404 220.62 335.404 220.663C335.404 220.705 335.404 220.748 335.404 220.79C335.404 220.833 335.404 220.875 335.404 220.917C335.404 220.958 335.404 221 335.404 221.041C335.404 221.083 335.404 221.124 335.404 221.165C335.404 221.206 335.404 221.246 335.404 221.287C335.404 221.327 335.404 221.367 335.404 221.407C335.404 221.447 335.404 221.486 335.404 221.526C335.404 221.565 335.404 221.604 335.404 221.643C335.404 221.682 335.404 221.721 335.404 221.759C335.404 221.797 335.404 221.835 335.404 221.873C335.404 221.911 335.404 221.949 335.404 221.986C335.404 222.023 335.404 222.06 335.404 222.097C335.404 222.134 335.404 222.171 335.404 222.207C335.404 222.243 335.404 222.279 335.404 222.315C335.404 222.351 335.404 222.387 335.404 222.422C335.404 222.457 335.404 222.492 335.404 222.527C335.404 222.562 335.404 222.596 335.404 222.63C335.404 222.665 335.404 222.699 335.404 222.732C335.404 222.766 335.404 222.799 335.404 222.833C335.404 222.866 335.404 222.899 335.404 222.931C335.404 222.964 335.404 222.996 335.404 223.028C335.404 223.061 335.404 223.092 335.404 223.124C335.404 223.156 335.404 223.187 335.404 223.218C335.404 223.249 335.404 223.28 335.404 223.31C335.404 223.341 335.404 223.371 335.404 223.401C335.404 223.431 335.404 223.46 335.404 223.49C335.404 223.519 335.404 223.548 335.404 223.577C335.404 223.606 335.404 223.635 335.404 223.663C335.404 223.691 335.404 223.719 335.404 223.747C335.404 223.775 335.404 223.802 335.404 223.829C335.404 223.856 335.404 223.883 335.404 223.91C335.404 223.936 335.404 223.963 335.404 223.989C335.404 224.015 335.404 224.041 335.404 224.066C335.404 224.092 335.404 224.117 335.404 224.142C335.404 224.167 335.404 224.191 335.404 224.216C335.404 224.24 335.404 224.264 335.404 224.288C335.404 224.311 335.404 224.335 335.404 224.358C335.404 224.381 335.404 224.404 335.404 224.427C335.404 224.449 335.404 224.472 335.404 224.494C335.404 224.516 335.404 224.537 335.404 224.559C335.404 224.58 335.404 224.601 335.404 224.622C335.404 224.643 335.404 224.664 335.404 224.684C335.404 224.704 335.404 224.724 335.404 224.744C335.404 224.764 335.404 224.783 335.404 224.802C335.404 224.821 335.404 224.84 335.404 224.858C335.404 224.877 335.404 224.895 335.404 224.913C335.404 224.931 335.404 224.948 335.404 224.966C335.404 224.983 335.404 225 335.404 225.016C335.404 225.033 335.404 225.049 335.404 225.065C335.404 225.082 335.404 225.097 335.404 225.113C335.404 225.128 335.404 225.143 335.404 225.158C335.404 225.173 335.404 225.187 335.404 225.202C335.404 225.216 335.404 225.23 335.404 225.243C335.404 225.257 335.404 225.27 335.404 225.283C335.404 225.296 335.404 225.309 335.404 225.321C335.404 225.334 335.404 225.346 335.404 225.357C335.404 225.369 335.404 225.381 335.404 225.392C335.404 225.403 335.404 225.413 335.404 225.424C335.404 225.434 335.404 225.445 335.404 225.454C335.404 225.464 335.404 225.474 335.404 225.483C335.404 225.492 335.404 225.501 335.404 225.51C335.404 225.518 335.404 225.526 335.404 225.534C335.404 225.542 335.404 225.55 335.404 225.557C335.404 225.564 335.404 225.571 335.404 225.578C335.404 225.584 335.404 225.591 335.404 225.597C335.404 225.603 335.404 225.608 335.404 225.614C335.404 225.619 335.404 225.624 335.404 225.629C335.404 225.633 335.404 225.638 335.404 225.642C335.404 225.646 335.404 225.649 335.404 225.653C335.404 225.656 335.404 225.659 335.404 225.662C335.404 225.664 335.404 225.667 335.404 225.669C335.404 225.671 335.404 225.672 335.404 225.674C335.404 225.675 335.404 225.676 335.404 225.677C335.404 225.677 335.404 225.678 337.904 225.678C340.404 225.678 340.404 225.677 340.404 225.677C340.404 225.676 340.404 225.675 340.404 225.674C340.404 225.672 340.404 225.671 340.404 225.669C340.404 225.667 340.404 225.664 340.404 225.662C340.404 225.659 340.404 225.656 340.404 225.653C340.404 225.649 340.404 225.646 340.404 225.642C340.404 225.638 340.404 225.633 340.404 225.629C340.404 225.624 340.404 225.619 340.404 225.614C340.404 225.608 340.404 225.603 340.404 225.597C340.404 225.591 340.404 225.584 340.404 225.578C340.404 225.571 340.404 225.564 340.404 225.557C340.404 225.55 340.404 225.542 340.404 225.534C340.404 225.526 340.404 225.518 340.404 225.51C340.404 225.501 340.404 225.492 340.404 225.483C340.404 225.474 340.404 225.464 340.404 225.454C340.404 225.445 340.404 225.434 340.404 225.424C340.404 225.413 340.404 225.403 340.404 225.392C340.404 225.381 340.404 225.369 340.404 225.357C340.404 225.346 340.404 225.334 340.404 225.321C340.404 225.309 340.404 225.296 340.404 225.283C340.404 225.27 340.404 225.257 340.404 225.243C340.404 225.23 340.404 225.216 340.404 225.202C340.404 225.187 340.404 225.173 340.404 225.158C340.404 225.143 340.404 225.128 340.404 225.113C340.404 225.097 340.404 225.082 340.404 225.065C340.404 225.049 340.404 225.033 340.404 225.016C340.404 225 340.404 224.983 340.404 224.966C340.404 224.948 340.404 224.931 340.404 224.913C340.404 224.895 340.404 224.877 340.404 224.858C340.404 224.84 340.404 224.821 340.404 224.802C340.404 224.783 340.404 224.764 340.404 224.744C340.404 224.724 340.404 224.704 340.404 224.684C340.404 224.664 340.404 224.643 340.404 224.622C340.404 224.601 340.404 224.58 340.404 224.559C340.404 224.537 340.404 224.516 340.404 224.494C340.404 224.472 340.404 224.449 340.404 224.427C340.404 224.404 340.404 224.381 340.404 224.358C340.404 224.335 340.404 224.311 340.404 224.288C340.404 224.264 340.404 224.24 340.404 224.216C340.404 224.191 340.404 224.167 340.404 224.142C340.404 224.117 340.404 224.092 340.404 224.066C340.404 224.041 340.404 224.015 340.404 223.989C340.404 223.963 340.404 223.936 340.404 223.91C340.404 223.883 340.404 223.856 340.404 223.829C340.404 223.802 340.404 223.775 340.404 223.747C340.404 223.719 340.404 223.691 340.404 223.663C340.404 223.635 340.404 223.606 340.404 223.577C340.404 223.548 340.404 223.519 340.404 223.49C340.404 223.46 340.404 223.431 340.404 223.401C340.404 223.371 340.404 223.341 340.404 223.31C340.404 223.28 340.404 223.249 340.404 223.218C340.404 223.187 340.404 223.156 340.404 223.124C340.404 223.092 340.404 223.061 340.404 223.028C340.404 222.996 340.404 222.964 340.404 222.931C340.404 222.899 340.404 222.866 340.404 222.833C340.404 222.799 340.404 222.766 340.404 222.732C340.404 222.699 340.404 222.665 340.404 222.63C340.404 222.596 340.404 222.562 340.404 222.527C340.404 222.492 340.404 222.457 340.404 222.422C340.404 222.387 340.404 222.351 340.404 222.315C340.404 222.279 340.404 222.243 340.404 222.207C340.404 222.171 340.404 222.134 340.404 222.097C340.404 222.06 340.404 222.023 340.404 221.986C340.404 221.949 340.404 221.911 340.404 221.873C340.404 221.835 340.404 221.797 340.404 221.759C340.404 221.721 340.404 221.682 340.404 221.643C340.404 221.604 340.404 221.565 340.404 221.526C340.404 221.486 340.404 221.447 340.404 221.407C340.404 221.367 340.404 221.327 340.404 221.287C340.404 221.246 340.404 221.206 340.404 221.165C340.404 221.124 340.404 221.083 340.404 221.041C340.404 221 340.404 220.958 340.404 220.917C340.404 220.875 340.404 220.833 340.404 220.79C340.404 220.748 340.404 220.705 340.404 220.663C340.404 220.62 340.404 220.577 340.404 220.534C340.404 220.49 340.404 220.447 340.404 220.403C340.404 220.359 340.404 220.315 340.404 220.271C340.404 220.227 340.404 220.182 340.404 220.137C340.404 220.093 340.404 220.048 340.404 220.003C340.404 219.957 340.404 219.912 340.404 219.866C340.404 219.821 340.404 219.775 340.404 219.729C340.404 219.683 340.404 219.636 340.404 219.59C340.404 219.543 340.404 219.496 340.404 219.449C340.404 219.402 340.404 219.355 340.404 219.307C340.404 219.26 340.404 219.212 340.404 219.164C340.404 219.116 340.404 219.068 340.404 219.02C340.404 218.971 340.404 218.923 340.404 218.874C340.404 218.825 340.404 218.776 340.404 218.727C340.404 218.677 340.404 218.628 340.404 218.578C340.404 218.528 340.404 218.478 340.404 218.428C340.404 218.378 340.404 218.327 340.404 218.277C340.404 218.226 340.404 218.175 340.404 218.124C340.404 218.073 340.404 218.022 340.404 217.97C340.404 217.919 340.404 217.867 340.404 217.815C340.404 217.763 340.404 217.711 340.404 217.659C340.404 217.606 340.404 217.554 340.404 217.501C340.404 217.448 340.404 217.395 340.404 217.342C340.404 217.289 340.404 217.235 340.404 217.182C340.404 217.128 340.404 217.074 340.404 217.02C340.404 216.966 340.404 216.912 340.404 216.857C340.404 216.803 340.404 216.748 340.404 216.693C340.404 216.639 340.404 216.583 340.404 216.528C340.404 216.473 340.404 216.417 340.404 216.362C340.404 216.306 340.404 216.25 340.404 216.194C340.404 216.138 340.404 216.082 340.404 216.025C340.404 215.969 340.404 215.912 340.404 215.855C340.404 215.798 340.404 215.741 340.404 215.684C340.404 215.626 340.404 215.569 340.404 215.511C340.404 215.453 340.404 215.396 340.404 215.337C340.404 215.279 340.404 215.221 340.404 215.163C340.404 215.104 340.404 215.045 340.404 214.987C340.404 214.928 340.404 214.869 340.404 214.809C340.404 214.75 340.404 214.691 340.404 214.631C340.404 214.571 340.404 214.511 340.404 214.451C340.404 214.391 340.404 214.331 340.404 214.271C340.404 214.21 340.404 214.15 340.404 214.089C340.404 214.028 340.404 213.967 340.404 213.906C340.404 213.845 340.404 213.784 340.404 213.722C340.404 213.661 340.404 213.599 340.404 213.537C340.404 213.475 340.404 213.413 340.404 213.351C340.404 213.289 340.404 213.226 340.404 213.164C340.404 213.101 340.404 213.038 340.404 212.975C340.404 212.912 340.404 212.849 340.404 212.786C340.404 212.723 340.404 212.659 340.404 212.595C340.404 212.532 340.404 212.468 340.404 212.404C340.404 212.34 340.404 212.276 340.404 212.211C340.404 212.147 340.404 212.082 340.404 212.018C340.404 211.953 340.404 211.888 340.404 211.823C340.404 211.758 340.404 211.693 340.404 211.627C340.404 211.562 340.404 211.496 340.404 211.431C340.404 211.365 340.404 211.299 340.404 211.233C340.404 211.167 340.404 211.101 340.404 211.034C340.404 210.968 340.404 210.901 340.404 210.834C340.404 210.768 340.404 210.701 340.404 210.634C340.404 210.567 340.404 210.499 340.404 210.432C340.404 210.365 340.404 210.297 340.404 210.229C340.404 210.162 340.404 210.094 340.404 210.026C340.404 209.958 340.404 209.89 340.404 209.821C340.404 209.753 340.404 209.684 340.404 209.616C340.404 209.547 340.404 209.478 340.404 209.409C340.404 209.34 340.404 209.271 340.404 209.202C340.404 209.133 340.404 209.063 340.404 208.994C340.404 208.924 340.404 208.854 340.404 208.784C340.404 208.714 340.404 208.644 340.404 208.574C340.404 208.504 340.404 208.434 340.404 208.363C340.404 208.293 340.404 208.222 340.404 208.151C340.404 208.08 340.404 208.009 340.404 207.938C340.404 207.867 340.404 207.796 340.404 207.725C340.404 207.653 340.404 207.582 340.404 207.51C340.404 207.438 340.404 207.367 340.404 207.295C340.404 207.223 340.404 207.151 340.404 207.078C340.404 207.006 340.404 206.934 340.404 206.861C340.404 206.789 340.404 206.716 340.404 206.643C340.404 206.57 340.404 206.498 340.404 206.424C340.404 206.351 340.404 206.278 340.404 206.205C340.404 206.132 340.404 206.058 340.404 205.984C340.404 205.911 340.404 205.837 340.404 205.763C340.404 205.689 340.404 205.615 340.404 205.541C340.404 205.467 340.404 205.393 340.404 205.318C340.404 205.244 340.404 205.169 340.404 205.095C340.404 205.02 340.404 204.945 340.404 204.87C340.404 204.795 340.404 204.72 340.404 204.645C340.404 204.57 340.404 204.495 340.404 204.419C340.404 204.344 340.404 204.268 340.404 204.192C340.404 204.117 340.404 204.041 340.404 203.965C340.404 203.889 340.404 203.813 340.404 203.737C340.404 203.661 340.404 203.584 340.404 203.508C340.404 203.432 340.404 203.355 340.404 203.278C340.404 203.202 340.404 203.125 340.404 203.048C340.404 202.971 340.404 202.894 340.404 202.817C340.404 202.74 340.404 202.663 340.404 202.585C340.404 202.508 340.404 202.43 340.404 202.353C340.404 202.275 340.404 202.198 340.404 202.12C340.404 202.042 340.404 201.964 340.404 201.886C340.404 201.808 340.404 201.73 340.404 201.652C340.404 201.573 340.404 201.495 340.404 201.416C340.404 201.338 340.404 201.259 340.404 201.181C340.404 201.102 340.404 201.023 340.404 200.944C340.404 200.865 340.404 200.786 340.404 200.707C340.404 200.628 340.404 200.549 340.404 200.47C340.404 200.39 340.404 200.311 340.404 200.231C340.404 200.152 340.404 200.072 340.404 199.992C340.404 199.913 340.404 199.833 340.404 199.753C340.404 199.673 340.404 199.593 340.404 199.513C340.404 199.433 340.404 199.353 340.404 199.272C340.404 199.192 340.404 199.111 340.404 199.031C340.404 198.95 340.404 198.87 340.404 198.789C340.404 198.708 340.404 198.628 340.404 198.547C340.404 198.466 340.404 198.385 340.404 198.304C340.404 198.223 340.404 198.141 340.404 198.06C340.404 197.979 340.404 197.898 340.404 197.816C340.404 197.735 340.404 197.653 340.404 197.572C340.404 197.49 340.404 197.408 340.404 197.326C340.404 197.245 340.404 197.163 340.404 197.081C340.404 196.999 340.404 196.917 340.404 196.835C340.404 196.753 340.404 196.67 340.404 196.588C340.404 196.506 340.404 196.423 340.404 196.341C340.404 196.258 340.404 196.176 340.404 196.093C340.404 196.011 340.404 195.928 340.404 195.845C340.404 195.762 340.404 195.68 340.404 195.597C340.404 195.514 340.404 195.431 340.404 195.348C340.404 195.264 340.404 195.181 340.404 195.098C340.404 195.015 340.404 194.931 340.404 194.848C340.404 194.765 340.404 194.681 340.404 194.598C340.404 194.514 340.404 194.431 340.404 194.347C340.404 194.263 340.404 194.179 340.404 194.096C340.404 194.012 340.404 193.928 340.404 193.844C340.404 193.76 340.404 193.676 340.404 193.592C340.404 193.508 340.404 193.424 340.404 193.339C340.404 193.255 340.404 193.171 340.404 193.087C340.404 193.002 340.404 192.918 340.404 192.833C340.404 192.749 340.404 192.664 340.404 192.58C340.404 192.495 340.404 192.41 340.404 192.326C340.404 192.241 340.404 192.156 340.404 192.071C340.404 191.986 340.404 191.902 340.404 191.817C340.404 191.732 340.404 191.647 340.404 191.561C340.404 191.476 340.404 191.391 340.404 191.306C340.404 191.221 340.404 191.136 340.404 191.05C340.404 190.965 340.404 190.88 340.404 190.794C340.404 190.709 340.404 190.623 340.404 190.538C340.404 190.452 340.404 190.367 340.404 190.281C340.404 190.196 340.404 190.11 340.404 190.024C340.404 189.938 340.404 189.853 340.404 189.767C340.404 189.681 340.404 189.595 340.404 189.509C340.404 189.423 340.404 189.337 340.404 189.251C340.404 189.165 340.404 189.079 340.404 188.993C340.404 188.907 340.404 188.821 340.404 188.735C340.404 188.649 340.404 188.563 340.404 188.476C340.404 188.39 340.404 188.304 340.404 188.217C340.404 188.131 340.404 188.045 340.404 187.958C340.404 187.872 340.404 187.786 340.404 187.699C340.404 187.613 340.404 187.526 340.404 187.439C340.404 187.353 340.404 187.266 340.404 187.18C340.404 187.093 340.404 187.006 340.404 186.92C340.404 186.833 340.404 186.746 340.404 186.66C340.404 186.573 340.404 186.486 340.404 186.399C340.404 186.312 340.404 186.225 340.404 186.139C340.404 186.052 340.404 185.965 340.404 185.878C340.404 185.791 340.404 185.704 340.404 185.617C340.404 185.53 340.404 185.443 340.404 185.356C340.404 185.269 340.404 185.182 340.404 185.095C340.404 185.008 340.404 184.92 340.404 184.833C340.404 184.746 340.404 184.659 340.404 184.572C340.404 184.485 340.404 184.397 340.404 184.31C340.404 184.223 340.404 184.136 340.404 184.048C340.404 183.961 340.404 183.874 340.404 183.787C340.404 183.699 340.404 183.612 340.404 183.525C340.404 183.437 340.404 183.35 340.404 183.263C340.404 183.175 340.404 183.088 340.404 183C340.404 182.913 340.404 182.826 340.404 182.738C340.404 182.651 340.404 182.563 340.404 182.476C340.404 182.388 340.404 182.301 340.404 182.214C340.404 182.126 340.404 182.039 340.404 181.951C340.404 181.864 340.404 181.776 340.404 181.689C340.404 181.601 340.404 181.514 340.404 181.426C340.404 181.339 340.404 181.251 340.404 181.164C340.404 181.076 340.404 180.988 340.404 180.901C340.404 180.813 340.404 180.726 340.404 180.638C340.404 180.551 340.404 180.463 340.404 180.376C340.404 180.288 340.404 180.201 340.404 180.113C340.404 180.026 340.404 179.938 340.404 179.85C340.404 179.763 340.404 179.675 340.404 179.588C340.404 179.5 340.404 179.413 340.404 179.325C340.404 179.238 340.404 179.15 340.404 179.063C340.404 178.975 340.404 178.888 340.404 178.8C340.404 178.713 340.404 178.625 340.404 178.538C340.404 178.45 340.404 178.363 340.404 178.275C340.404 178.188 340.404 178.1 340.404 178.013C340.404 177.925 340.404 177.838 340.404 177.751C340.404 177.663 340.404 177.576 340.404 177.488C340.404 177.401 340.404 177.314 340.404 177.226C340.404 177.139 340.404 177.051 340.404 176.964C340.404 176.877 340.404 176.789 340.404 176.702C340.404 176.615 340.404 176.528 340.404 176.44C340.404 176.353 340.404 176.266 340.404 176.179C340.404 176.091 340.404 176.004 340.404 175.917C340.404 175.83 340.404 175.743 340.404 175.655C340.404 175.568 340.404 175.481 340.404 175.394C340.404 175.307 340.404 175.22 340.404 175.133C340.404 175.046 340.404 174.959 340.404 174.872C340.404 174.785 340.404 174.698 340.404 174.611C340.404 174.524 340.404 174.437 340.404 174.35C340.404 174.263 340.404 174.176 340.404 174.09C340.404 174.003 340.404 173.916 340.404 173.829C340.404 173.742 340.404 173.656 340.404 173.569C340.404 173.482 340.404 173.396 340.404 173.309C340.404 173.222 340.404 173.136 340.404 173.049C340.404 172.963 340.404 172.876 340.404 172.79C340.404 172.703 340.404 172.617 340.404 172.53C340.404 172.444 340.404 172.358 340.404 172.271C340.404 172.185 340.404 172.099 340.404 172.012C340.404 171.926 340.404 171.84 340.404 171.754C340.404 171.668 340.404 171.581 340.404 171.495C340.404 171.409 340.404 171.323 340.404 171.237C340.404 171.151 340.404 171.065 340.404 170.979C340.404 170.893 340.404 170.808 340.404 170.722C340.404 170.636 340.404 170.55 340.404 170.465C340.404 170.379 340.404 170.293 340.404 170.208C340.404 170.122 340.404 170.036 340.404 169.951C340.404 169.865 340.404 169.78 340.404 169.694C340.404 169.609 340.404 169.524 340.404 169.438C340.404 169.353 340.404 169.268 340.404 169.183C340.404 169.097 340.404 169.012 340.404 168.927C340.404 168.842 340.404 168.757 340.404 168.672C340.404 168.587 340.404 168.502 340.404 168.417C340.404 168.333 340.404 168.248 340.404 168.163C340.404 168.078 340.404 167.994 340.404 167.909C340.404 167.824 340.404 167.74 340.404 167.655C340.404 167.571 340.404 167.486 340.404 167.402C340.404 167.318 340.404 167.233 340.404 167.149C340.404 167.065 340.404 166.981 340.404 166.897C340.404 166.813 340.404 166.729 340.404 166.645C340.404 166.561 340.404 166.477 340.404 166.393C340.404 166.309 340.404 166.225 340.404 166.142C340.404 166.058 340.404 165.974 340.404 165.891C340.404 165.807 340.404 165.724 340.404 165.641C340.404 165.557 340.404 165.474 340.404 165.391C340.404 165.307 340.404 165.224 340.404 165.141C340.404 165.058 340.404 164.975 340.404 164.892C340.404 164.809 340.404 164.726 340.404 164.643C340.404 164.561 340.404 164.478 340.404 164.395C340.404 164.313 340.404 164.23 340.404 164.148C340.404 164.065 340.404 163.983 340.404 163.901C340.404 163.818 340.404 163.736 340.404 163.654C340.404 163.572 340.404 163.49 340.404 163.408C340.404 163.326 340.404 163.244 340.404 163.162C340.404 163.08 340.404 162.999 340.404 162.917C340.404 162.835 340.404 162.754 340.404 162.672C340.404 162.591 340.404 162.51 340.404 162.428C340.404 162.347 340.404 162.266 340.404 162.185C340.404 162.104 340.404 162.023 340.404 161.942C340.404 161.861 340.404 161.78 340.404 161.699C340.404 161.619 340.404 161.538 340.404 161.458C340.404 161.377 340.404 161.297 340.404 161.216C340.404 161.136 340.404 161.056 340.404 160.976C340.404 160.895 340.404 160.815 340.404 160.735C340.404 160.656 340.404 160.576 340.404 160.496C340.404 160.416 340.404 160.337 340.404 160.257C340.404 160.178 340.404 160.098 340.404 160.019C340.404 159.939 340.404 159.86 340.404 159.781C340.404 159.702 340.404 159.623 340.404 159.544C340.404 159.465 340.404 159.386 340.404 159.308C340.404 159.229 340.404 159.15 340.404 159.072C340.404 158.993 340.404 158.915 340.404 158.837C340.404 158.759 340.404 158.68 340.404 158.602C340.404 158.524 340.404 158.446 340.404 158.369C340.404 158.291 340.404 158.213 340.404 158.135C340.404 158.058 340.404 157.98 340.404 157.903C340.404 157.826 340.404 157.748 340.404 157.671C340.404 157.594 340.404 157.517 340.404 157.44C340.404 157.363 340.404 157.287 340.404 157.21C340.404 157.133 340.404 157.057 340.404 156.98C340.404 156.904 340.404 156.828 340.404 156.751C340.404 156.675 340.404 156.599 340.404 156.523C340.404 156.447 340.404 156.371 340.404 156.296C340.404 156.22 340.404 156.145 340.404 156.069C340.404 155.994 340.404 155.918 340.404 155.843C340.404 155.768 340.404 155.693 340.404 155.618C340.404 155.543 340.404 155.468 340.404 155.394C340.404 155.319 340.404 155.244 340.404 155.17C340.404 155.096 340.404 155.021 340.404 154.947C340.404 154.873 340.404 154.799 340.404 154.725C340.404 154.651 340.404 154.577 340.404 154.504C340.404 154.43 340.404 154.357 340.404 154.283C340.404 154.21 340.404 154.137 340.404 154.064C340.404 153.991 340.404 153.918 340.404 153.845C340.404 153.772 340.404 153.699 340.404 153.627C340.404 153.554 340.404 153.482 340.404 153.41C340.404 153.338 340.404 153.265 340.404 153.193C340.404 153.122 340.404 153.05 340.404 152.978C340.404 152.906 340.404 152.835 340.404 152.763C340.404 152.692 340.404 152.621 340.404 152.55C340.404 152.479 340.404 152.408 340.404 152.337C340.404 152.266 340.404 152.195 340.404 152.125C340.404 152.054 340.404 151.984 340.404 151.914C340.404 151.844 340.404 151.774 340.404 151.704C340.404 151.634 340.404 151.564 340.404 151.494C340.404 151.425 340.404 151.355 340.404 151.286C340.404 151.217 340.404 151.148 340.404 151.079C340.404 151.01 340.404 150.941 340.404 150.872C340.404 150.804 340.404 150.735 340.404 150.667C340.404 150.598 340.404 150.53 340.404 150.462C340.404 150.394 340.404 150.326 340.404 150.259C340.404 150.191 340.404 150.123 340.404 150.056C340.404 149.988 340.404 149.921 340.404 149.854C340.404 149.787 340.404 149.72 340.404 149.653C340.404 149.587 340.404 149.52 340.404 149.454C340.404 149.387 340.404 149.321 340.404 149.255C340.404 149.189 340.404 149.123 340.404 149.057C340.404 148.992 340.404 148.926 340.404 148.861C340.404 148.795 340.404 148.73 340.404 148.665C340.404 148.6 340.404 148.535 340.404 148.47C340.404 148.405 340.404 148.341 340.404 148.276C340.404 148.212 340.404 148.148 340.404 148.084C340.404 148.02 340.404 147.956 340.404 147.892C340.404 147.829 340.404 147.765 340.404 147.702C340.404 147.639 340.404 147.575 340.404 147.512C340.404 147.449 340.404 147.387 340.404 147.324C340.404 147.261 340.404 147.199 340.404 147.137C340.404 147.074 340.404 147.012 340.404 146.951C340.404 146.889 340.404 146.827 340.404 146.765C340.404 146.704 340.404 146.643 340.404 146.581C340.404 146.52 340.404 146.459 340.404 146.399C340.404 146.338 340.404 146.277 340.404 146.217C340.404 146.156 340.404 146.096 340.404 146.036C340.404 145.976 340.404 145.916 340.404 145.857C340.404 145.797 340.404 145.738 340.404 145.678C340.404 145.619 340.404 145.56 340.404 145.501C340.404 145.442 340.404 145.384 340.404 145.325C340.404 145.267 340.404 145.208 340.404 145.15C340.404 145.092 340.404 145.034 340.404 144.976C340.404 144.919 340.404 144.861 340.404 144.804C340.404 144.747 340.404 144.689 340.404 144.633C340.404 144.576 340.404 144.519 340.404 144.462C340.404 144.406 340.404 144.35 340.404 144.293C340.404 144.237 340.404 144.181 340.404 144.126C340.404 144.07 340.404 144.015 340.404 143.959C340.404 143.904 340.404 143.849 340.404 143.794C340.404 143.739 340.404 143.684 340.404 143.63C340.404 143.575 340.404 143.521 340.404 143.467C340.404 143.413 340.404 143.359 340.404 143.306C340.404 143.252 340.404 143.199 340.404 143.145C340.404 143.092 340.404 143.039 340.404 142.986C340.404 142.933 340.404 142.881 340.404 142.829C340.404 142.776 340.404 142.724 340.404 142.672C340.404 142.62 340.404 142.568 340.404 142.517C340.404 142.465 340.404 142.414 340.404 142.363C340.404 142.312 340.404 142.261 340.404 142.21C340.404 142.16 340.404 142.109 340.404 142.059C340.404 142.009 340.404 141.959 340.404 141.909C340.404 141.86 340.404 141.81 340.404 141.761C340.404 141.711 340.404 141.662 340.404 141.613C340.404 141.565 340.404 141.516 340.404 141.467C340.404 141.419 340.404 141.371 340.404 141.323C340.404 141.275 340.404 141.227 340.404 141.18C340.404 141.132 340.404 141.085 340.404 141.038C340.404 140.991 340.404 140.944 340.404 140.897C340.404 140.851 340.404 140.804 340.404 140.758C340.404 140.712 340.404 140.666 340.404 140.621C340.404 140.575 340.404 140.53 340.404 140.484C340.404 140.439 340.404 140.394 340.404 140.35C340.404 140.305 340.404 140.26 340.404 140.216C340.404 140.172 340.404 140.128 340.404 140.084C340.404 140.04 340.404 139.997 340.404 139.953C340.404 139.91 340.404 139.867 340.404 139.824C340.404 139.781 340.404 139.739 340.404 139.697C340.404 139.654 340.404 139.612 340.404 139.57C340.404 139.528 340.404 139.487 340.404 139.445C340.404 139.404 340.404 139.363 340.404 139.322C340.404 139.281 340.404 139.241 340.404 139.2C340.404 139.16 340.404 139.12 340.404 139.08C340.404 139.04 340.404 139 340.404 138.961C340.404 138.922 340.404 138.883 340.404 138.844C340.404 138.805 340.404 138.766 340.404 138.728C340.404 138.689 340.404 138.651 340.404 138.613C340.404 138.576 340.404 138.538 340.404 138.501C340.404 138.463 340.404 138.426 340.404 138.389C340.404 138.353 340.404 138.316 340.404 138.28C340.404 138.243 340.404 138.207 340.404 138.171C340.404 138.136 340.404 138.1 340.404 138.065C340.404 138.029 340.404 137.994 340.404 137.96C340.404 137.925 340.404 137.89 340.404 137.856C340.404 137.822 340.404 137.788 340.404 137.754C340.404 137.721 340.404 137.687 340.404 137.654C340.404 137.621 340.404 137.588 340.404 137.555C340.404 137.523 340.404 137.49 340.404 137.458C340.404 137.426 340.404 137.394 340.404 137.362C340.404 137.331 340.404 137.3 340.404 137.269C340.404 137.238 340.404 137.207 340.404 137.176C340.404 137.146 340.404 137.116 340.404 137.086C340.404 137.056 340.404 137.026 340.404 136.997C340.404 136.967 340.404 136.938 340.404 136.909C340.404 136.88 340.404 136.852 340.404 136.824C340.404 136.795 340.404 136.767 340.404 136.739C340.404 136.712 340.404 136.684 340.404 136.657C340.404 136.63 340.404 136.603 340.404 136.576C340.404 136.55 340.404 136.523 340.404 136.497C340.404 136.471 340.404 136.446 340.404 136.42C340.404 136.395 340.404 136.369 340.404 136.345C340.404 136.32 340.404 136.295 340.404 136.271C340.404 136.246 340.404 136.222 340.404 136.198C340.404 136.175 340.404 136.151 340.404 136.128C340.404 136.105 340.404 136.082 340.404 136.059C340.404 136.037 340.404 136.014 340.404 135.992C340.404 135.97 340.404 135.949 340.404 135.927C340.404 135.906 340.404 135.885 340.404 135.864C340.404 135.843 340.404 135.822 340.404 135.802C340.404 135.782 340.404 135.762 340.404 135.742C340.404 135.722 340.404 135.703 340.404 135.684C340.404 135.665 340.404 135.646 340.404 135.628C340.404 135.609 340.404 135.591 340.404 135.573C340.404 135.555 340.404 135.538 340.404 135.52C340.404 135.503 340.404 135.486 340.404 135.469C340.404 135.453 340.404 135.436 340.404 135.42C340.404 135.404 340.404 135.389 340.404 135.373C340.404 135.358 340.404 135.342 340.404 135.328C340.404 135.313 340.404 135.298 340.404 135.284C340.404 135.27 340.404 135.256 340.404 135.242C340.404 135.229 340.404 135.215 340.404 135.202C340.404 135.189 340.404 135.177 340.404 135.164C340.404 135.152 340.404 135.14 340.404 135.128C340.404 135.117 340.404 135.105 340.404 135.094C340.404 135.083 340.404 135.072 340.404 135.062C340.404 135.051 340.404 135.041 340.404 135.031C340.404 135.021 340.404 135.012 340.404 135.003C340.404 134.993 340.404 134.985 340.404 134.976C340.404 134.967 340.404 134.959 340.404 134.951C340.404 134.943 340.404 134.936 340.404 134.929C340.404 134.921 340.404 134.914 340.404 134.908C340.404 134.901 340.404 134.895 340.404 134.889C340.404 134.883 340.404 134.877 340.404 134.872C340.404 134.866 340.404 134.861 340.404 134.857H335.404Z" fill="#2D3055"/>
<path d="M4.45793 189.5C6.03404 187.126 9.11549 182.708 11.9929 179.229C12.7451 178.319 14.1181 178.311 14.9172 179.179L23.1322 188.11C24.0136 189.068 23.7592 190.599 22.6153 191.221L15.4886 195.094C14.4069 195.682 14.1081 197.099 14.8602 198.073L24.2904 210.296C24.656 210.77 24.7902 211.383 24.6561 211.966L23.7946 215.711C23.5858 216.62 22.7774 217.263 21.8455 217.263H19.4912C18.8287 217.263 18.2093 216.935 17.837 216.387L4.47612 196.724C4.25083 196.392 4.13037 196.001 4.13037 195.6V190.592C4.13037 190.204 4.24283 189.824 4.45793 189.5Z" fill="#2D3055" stroke="#FFEFD5"/>
<path d="M45.7291 189.5C44.153 187.126 41.0715 182.708 38.1941 179.229C37.4419 178.319 36.0689 178.311 35.2698 179.179L27.0548 188.11C26.1735 189.068 26.4278 190.599 27.5717 191.221L34.6985 195.094C35.7801 195.682 36.0789 197.099 35.3268 198.073L25.8966 210.296C25.531 210.77 25.3968 211.383 25.531 211.966L26.3924 215.711C26.6012 216.62 27.4096 217.263 28.3415 217.263H30.6958C31.3583 217.263 31.9777 216.935 32.3501 216.387L45.7109 196.724C45.9362 196.392 46.0566 196.001 46.0566 195.6V190.592C46.0566 190.204 45.9442 189.824 45.7291 189.5Z" fill="#2D3055" stroke="#FFEFD5"/>
<mask id="path-10-inside-1" fill="white">
<path fill-rule="evenodd" clip-rule="evenodd" d="M25.4879 138.105C31.3765 138.105 36.1501 132.165 36.1501 124.838C36.1501 117.511 31.3765 111.572 25.4879 111.572C19.5993 111.572 14.8257 117.511 14.8257 124.838C14.8257 132.165 19.5993 138.105 25.4879 138.105ZM35.6988 141.843C36.2087 141.841 36.6787 141.839 37.1078 141.837C38.7113 141.831 40.156 142.788 40.7842 144.263L46.5084 157.707L49.9449 166.872C50.5578 168.507 49.8617 170.342 48.3191 171.159C46.6525 172.041 44.586 171.432 43.6651 169.786L42.2256 167.214C40.9122 163.977 36.0982 164.917 36.0982 168.41V169.377C36.0982 171.238 34.5897 172.746 32.729 172.746H16.7957C15.0301 172.746 13.5988 171.315 13.5988 169.549V160.474C13.5988 158.979 11.5445 158.565 10.9659 159.944L6.72873 169.449C5.92318 171.256 3.78604 172.043 2.00098 171.19C0.295882 170.375 -0.460282 168.358 0.288817 166.623L9.9234 144.309C10.5561 142.843 12.002 141.894 13.5982 141.894C23.6059 141.889 31.2027 141.86 35.6988 141.843Z"/>
</mask>
<path fill-rule="evenodd" clip-rule="evenodd" d="M25.4879 138.105C31.3765 138.105 36.1501 132.165 36.1501 124.838C36.1501 117.511 31.3765 111.572 25.4879 111.572C19.5993 111.572 14.8257 117.511 14.8257 124.838C14.8257 132.165 19.5993 138.105 25.4879 138.105ZM35.6988 141.843C36.2087 141.841 36.6787 141.839 37.1078 141.837C38.7113 141.831 40.156 142.788 40.7842 144.263L46.5084 157.707L49.9449 166.872C50.5578 168.507 49.8617 170.342 48.3191 171.159C46.6525 172.041 44.586 171.432 43.6651 169.786L42.2256 167.214C40.9122 163.977 36.0982 164.917 36.0982 168.41V169.377C36.0982 171.238 34.5897 172.746 32.729 172.746H16.7957C15.0301 172.746 13.5988 171.315 13.5988 169.549V160.474C13.5988 158.979 11.5445 158.565 10.9659 159.944L6.72873 169.449C5.92318 171.256 3.78604 172.043 2.00098 171.19C0.295882 170.375 -0.460282 168.358 0.288817 166.623L9.9234 144.309C10.5561 142.843 12.002 141.894 13.5982 141.894C23.6059 141.889 31.2027 141.86 35.6988 141.843Z" fill="#2D3055"/>
<path d="M37.1078 141.837L37.1115 142.837L37.1115 142.837L37.1078 141.837ZM35.6988 141.843L35.695 140.843L35.695 140.843L35.6988 141.843ZM40.7842 144.263L39.8641 144.655L39.8641 144.655L40.7842 144.263ZM46.5084 157.707L47.4447 157.356L47.4371 157.336L47.4285 157.315L46.5084 157.707ZM49.9449 166.872L50.8813 166.521L50.8813 166.521L49.9449 166.872ZM48.3191 171.159L47.8511 170.275L47.8511 170.275L48.3191 171.159ZM43.6651 169.786L44.5377 169.298L44.5377 169.298L43.6651 169.786ZM42.2256 167.214L41.299 167.59L41.3225 167.648L41.353 167.702L42.2256 167.214ZM10.9659 159.944L11.8792 160.351L11.8837 160.341L11.888 160.331L10.9659 159.944ZM6.72873 169.449L5.81538 169.041L5.81538 169.041L6.72873 169.449ZM2.00098 171.19L1.56981 172.092L1.56981 172.092L2.00098 171.19ZM0.288817 166.623L1.2069 167.019L1.2069 167.019L0.288817 166.623ZM9.9234 144.309L9.00532 143.912L9.9234 144.309ZM13.5982 141.894L13.5978 140.894L13.5978 140.894L13.5982 141.894ZM35.1501 124.838C35.1501 131.828 30.6313 137.105 25.4879 137.105V139.105C32.1217 139.105 37.1501 132.502 37.1501 124.838H35.1501ZM25.4879 112.572C30.6313 112.572 35.1501 117.849 35.1501 124.838H37.1501C37.1501 117.174 32.1217 110.572 25.4879 110.572V112.572ZM15.8257 124.838C15.8257 117.849 20.3446 112.572 25.4879 112.572V110.572C18.8541 110.572 13.8257 117.174 13.8257 124.838H15.8257ZM25.4879 137.105C20.3446 137.105 15.8257 131.828 15.8257 124.838H13.8257C13.8257 132.502 18.8541 139.105 25.4879 139.105V137.105ZM37.1041 140.837C36.6749 140.839 36.2048 140.841 35.695 140.843L35.7027 142.843C36.2125 142.841 36.6825 142.839 37.1115 142.837L37.1041 140.837ZM41.7042 143.871C40.9193 142.028 39.112 140.83 37.104 140.837L37.1115 142.837C38.3106 142.833 39.3926 143.547 39.8641 144.655L41.7042 143.871ZM47.4285 157.315L41.7042 143.871L39.8641 144.655L45.5883 158.099L47.4285 157.315ZM50.8813 166.521L47.4447 157.356L45.5721 158.058L49.0086 167.223L50.8813 166.521ZM48.7871 172.043C50.774 170.99 51.6706 168.626 50.8813 166.521L49.0086 167.223C49.4449 168.387 48.9493 169.694 47.8511 170.275L48.7871 172.043ZM42.7924 170.275C43.9786 172.394 46.6404 173.179 48.7871 172.043L47.8511 170.275C46.6646 170.903 45.1934 170.47 44.5377 169.298L42.7924 170.275ZM41.353 167.702L42.7924 170.275L44.5377 169.298L43.0983 166.726L41.353 167.702ZM37.0982 168.41C37.0982 166.015 40.3986 165.371 41.299 167.59L43.1523 166.838C41.4258 162.584 35.0982 163.819 35.0982 168.41H37.0982ZM37.0982 169.377V168.41H35.0982V169.377H37.0982ZM32.729 173.746C35.142 173.746 37.0982 171.79 37.0982 169.377H35.0982C35.0982 170.686 34.0375 171.746 32.729 171.746V173.746ZM16.7957 173.746H32.729V171.746H16.7957V173.746ZM12.5988 169.549C12.5988 171.867 14.4778 173.746 16.7957 173.746V171.746C15.5823 171.746 14.5988 170.763 14.5988 169.549H12.5988ZM12.5988 160.474V169.549H14.5988V160.474H12.5988ZM11.888 160.331C11.9389 160.21 12.003 160.161 12.0548 160.136C12.1175 160.106 12.2052 160.092 12.3019 160.112C12.3987 160.131 12.4742 160.178 12.5203 160.23C12.5585 160.273 12.5988 160.343 12.5988 160.474H14.5988C14.5988 157.887 11.0449 157.172 10.0438 159.557L11.888 160.331ZM7.64208 169.856L11.8792 160.351L10.0525 159.537L5.81538 169.041L7.64208 169.856ZM1.56981 172.092C3.86253 173.187 6.60745 172.177 7.64208 169.856L5.81538 169.041C5.23892 170.335 3.70955 170.898 2.43214 170.287L1.56981 172.092ZM-0.629262 166.227C-1.5914 168.455 -0.620187 171.045 1.56981 172.092L2.43214 170.287C1.21195 169.704 0.670832 168.261 1.2069 167.019L-0.629262 166.227ZM9.00532 143.912L-0.629263 166.227L1.2069 167.019L10.8415 144.705L9.00532 143.912ZM13.5978 140.894C11.6037 140.895 9.79655 142.08 9.00532 143.912L10.8415 144.705C11.3157 143.607 12.4004 142.894 13.5987 142.894L13.5978 140.894ZM35.695 140.843C31.1991 140.86 23.6037 140.889 13.5978 140.894L13.5987 142.894C23.6081 142.889 31.2063 142.86 35.7027 142.843L35.695 140.843Z" fill="#FFEFD5" mask="url(#path-10-inside-1)"/>
</svg>
