<svg width="167" height="278" viewBox="0 0 167 278" fill="none" xmlns="http://www.w3.org/2000/svg">
<path d="M28.6421 209.9H22.5821V205.76H39.3821V209.9H33.3221V227H28.6421V209.9ZM45.6886 204.32V214.4H45.7486C45.8486 214.12 46.0186 213.84 46.2586 213.56C46.4986 213.28 46.7886 213.03 47.1286 212.81C47.4686 212.59 47.8686 212.41 48.3286 212.27C48.7886 212.13 49.2886 212.06 49.8286 212.06C50.9686 212.06 51.8886 212.24 52.5886 212.6C53.2886 212.94 53.8286 213.42 54.2086 214.04C54.6086 214.66 54.8786 215.39 55.0186 216.23C55.1586 217.07 55.2286 217.98 55.2286 218.96V227H50.7286V219.86C50.7286 219.44 50.7086 219.01 50.6686 218.57C50.6486 218.11 50.5586 217.69 50.3986 217.31C50.2586 216.93 50.0286 216.62 49.7086 216.38C49.4086 216.14 48.9686 216.02 48.3886 216.02C47.8086 216.02 47.3386 216.13 46.9786 216.35C46.6186 216.55 46.3386 216.83 46.1386 217.19C45.9586 217.53 45.8386 217.92 45.7786 218.36C45.7186 218.8 45.6886 219.26 45.6886 219.74V227H41.1886V204.32H45.6886ZM72.2152 224.48C71.4952 225.4 70.5852 226.11 69.4852 226.61C68.3852 227.11 67.2452 227.36 66.0652 227.36C64.9452 227.36 63.8852 227.18 62.8852 226.82C61.9052 226.46 61.0452 225.95 60.3052 225.29C59.5852 224.61 59.0152 223.8 58.5952 222.86C58.1752 221.92 57.9652 220.87 57.9652 219.71C57.9652 218.55 58.1752 217.5 58.5952 216.56C59.0152 215.62 59.5852 214.82 60.3052 214.16C61.0452 213.48 61.9052 212.96 62.8852 212.6C63.8852 212.24 64.9452 212.06 66.0652 212.06C67.1052 212.06 68.0452 212.24 68.8852 212.6C69.7452 212.96 70.4652 213.48 71.0452 214.16C71.6452 214.82 72.1052 215.62 72.4252 216.56C72.7452 217.5 72.9052 218.55 72.9052 219.71V221.12H62.4652C62.6452 221.98 63.0352 222.67 63.6352 223.19C64.2352 223.69 64.9752 223.94 65.8552 223.94C66.5952 223.94 67.2152 223.78 67.7152 223.46C68.2352 223.12 68.6852 222.69 69.0652 222.17L72.2152 224.48ZM68.4052 218.06C68.4252 217.3 68.1752 216.65 67.6552 216.11C67.1352 215.57 66.4652 215.3 65.6452 215.3C65.1452 215.3 64.7052 215.38 64.3252 215.54C63.9452 215.7 63.6152 215.91 63.3352 216.17C63.0752 216.41 62.8652 216.7 62.7052 217.04C62.5652 217.36 62.4852 217.7 62.4652 218.06H68.4052ZM84.0418 229.37C83.7418 230.15 83.4518 230.84 83.1718 231.44C82.8918 232.04 82.5318 232.54 82.0918 232.94C81.6718 233.36 81.1318 233.67 80.4718 233.87C79.8118 234.09 78.9418 234.2 77.8618 234.2C76.7018 234.2 75.5818 234.02 74.5018 233.66L75.1018 229.97C75.7818 230.27 76.4818 230.42 77.2018 230.42C77.7018 230.42 78.1118 230.36 78.4318 230.24C78.7518 230.14 79.0118 229.98 79.2118 229.76C79.4318 229.56 79.6118 229.31 79.7518 229.01C79.8918 228.71 80.0418 228.36 80.2018 227.96L80.5318 227.12L74.1418 212.42H79.0018L82.7518 222.05H82.8118L86.0218 212.42H90.6418L84.0418 229.37ZM110.339 225.17H110.279C109.779 225.95 109.109 226.51 108.269 226.85C107.449 227.19 106.579 227.36 105.659 227.36C104.979 227.36 104.319 227.26 103.679 227.06C103.059 226.88 102.509 226.6 102.029 226.22C101.549 225.84 101.169 225.37 100.889 224.81C100.609 224.25 100.469 223.6 100.469 222.86C100.469 222.02 100.619 221.31 100.919 220.73C101.239 220.15 101.659 219.67 102.179 219.29C102.719 218.91 103.329 218.62 104.009 218.42C104.689 218.2 105.389 218.04 106.109 217.94C106.849 217.84 107.579 217.78 108.299 217.76C109.039 217.74 109.719 217.73 110.339 217.73C110.339 216.93 110.049 216.3 109.469 215.84C108.909 215.36 108.239 215.12 107.459 215.12C106.719 215.12 106.039 215.28 105.419 215.6C104.819 215.9 104.279 216.32 103.799 216.86L101.399 214.4C102.239 213.62 103.219 213.04 104.339 212.66C105.459 212.26 106.619 212.06 107.819 212.06C109.139 212.06 110.219 212.23 111.059 212.57C111.919 212.89 112.599 213.37 113.099 214.01C113.619 214.65 113.979 215.44 114.179 216.38C114.379 217.3 114.479 218.37 114.479 219.59V227H110.339V225.17ZM109.229 220.61C108.889 220.61 108.459 220.63 107.939 220.67C107.439 220.69 106.949 220.77 106.469 220.91C106.009 221.05 105.609 221.26 105.269 221.54C104.949 221.82 104.789 222.21 104.789 222.71C104.789 223.25 105.019 223.65 105.479 223.91C105.939 224.17 106.419 224.3 106.919 224.3C107.359 224.3 107.779 224.24 108.179 224.12C108.599 224 108.969 223.83 109.289 223.61C109.609 223.39 109.859 223.11 110.039 222.77C110.239 222.43 110.339 222.03 110.339 221.57V220.61H109.229ZM117.302 212.42H121.802V214.76H121.862C122.342 213.86 122.912 213.19 123.572 212.75C124.232 212.29 125.062 212.06 126.062 212.06C126.322 212.06 126.582 212.07 126.842 212.09C127.102 212.11 127.342 212.15 127.562 212.21V216.32C127.242 216.22 126.922 216.15 126.602 216.11C126.302 216.05 125.982 216.02 125.642 216.02C124.782 216.02 124.102 216.14 123.602 216.38C123.102 216.62 122.712 216.96 122.432 217.4C122.172 217.82 122.002 218.33 121.922 218.93C121.842 219.53 121.802 220.19 121.802 220.91V227H117.302V212.42ZM142.791 224.48C142.071 225.4 141.161 226.11 140.061 226.61C138.961 227.11 137.821 227.36 136.641 227.36C135.521 227.36 134.461 227.18 133.461 226.82C132.481 226.46 131.621 225.95 130.881 225.29C130.161 224.61 129.591 223.8 129.171 222.86C128.751 221.92 128.541 220.87 128.541 219.71C128.541 218.55 128.751 217.5 129.171 216.56C129.591 215.62 130.161 214.82 130.881 214.16C131.621 213.48 132.481 212.96 133.461 212.6C134.461 212.24 135.521 212.06 136.641 212.06C137.681 212.06 138.621 212.24 139.461 212.6C140.321 212.96 141.041 213.48 141.621 214.16C142.221 214.82 142.681 215.62 143.001 216.56C143.321 217.5 143.481 218.55 143.481 219.71V221.12H133.041C133.221 221.98 133.611 222.67 134.211 223.19C134.811 223.69 135.551 223.94 136.431 223.94C137.171 223.94 137.791 223.78 138.291 223.46C138.811 223.12 139.261 222.69 139.641 222.17L142.791 224.48ZM138.981 218.06C139.001 217.3 138.751 216.65 138.231 216.11C137.711 215.57 137.041 215.3 136.221 215.3C135.721 215.3 135.281 215.38 134.901 215.54C134.521 215.7 134.191 215.91 133.911 216.17C133.651 216.41 133.441 216.7 133.281 217.04C133.141 217.36 133.061 217.7 133.041 218.06H138.981ZM44.4181 276H40.0981V274.02H40.0381C39.8781 274.3 39.6681 274.58 39.4081 274.86C39.1681 275.14 38.8681 275.39 38.5081 275.61C38.1481 275.83 37.7381 276.01 37.2781 276.15C36.8181 276.29 36.3181 276.36 35.7781 276.36C34.6381 276.36 33.7081 276.19 32.9881 275.85C32.2881 275.49 31.7381 275 31.3381 274.38C30.9581 273.76 30.6981 273.03 30.5581 272.19C30.4381 271.35 30.3781 270.44 30.3781 269.46V261.42H34.8781V268.56C34.8781 268.98 34.8881 269.42 34.9081 269.88C34.9481 270.32 35.0381 270.73 35.1781 271.11C35.3381 271.49 35.5681 271.8 35.8681 272.04C36.1881 272.28 36.6381 272.4 37.2181 272.4C37.7981 272.4 38.2681 272.3 38.6281 272.1C38.9881 271.88 39.2581 271.6 39.4381 271.26C39.6381 270.9 39.7681 270.5 39.8281 270.06C39.8881 269.62 39.9181 269.16 39.9181 268.68V261.42H44.4181V276ZM47.6046 261.42H51.9246V263.4H51.9846C52.1246 263.12 52.3246 262.84 52.5846 262.56C52.8446 262.28 53.1546 262.03 53.5146 261.81C53.8746 261.59 54.2846 261.41 54.7446 261.27C55.2046 261.13 55.7046 261.06 56.2446 261.06C57.3846 261.06 58.3046 261.24 59.0046 261.6C59.7046 261.94 60.2446 262.42 60.6246 263.04C61.0246 263.66 61.2946 264.39 61.4346 265.23C61.5746 266.07 61.6446 266.98 61.6446 267.96V276H57.1446V268.86C57.1446 268.44 57.1246 268.01 57.0846 267.57C57.0646 267.11 56.9746 266.69 56.8146 266.31C56.6746 265.93 56.4446 265.62 56.1246 265.38C55.8246 265.14 55.3846 265.02 54.8046 265.02C54.2246 265.02 53.7546 265.13 53.3946 265.35C53.0346 265.55 52.7546 265.83 52.5546 266.19C52.3746 266.53 52.2546 266.92 52.1946 267.36C52.1346 267.8 52.1046 268.26 52.1046 268.74V276H47.6046V261.42ZM80.1312 276H75.9912V274.08H75.9312C75.7512 274.34 75.5112 274.61 75.2112 274.89C74.9312 275.15 74.5912 275.39 74.1912 275.61C73.8112 275.83 73.3812 276.01 72.9012 276.15C72.4412 276.29 71.9612 276.36 71.4612 276.36C70.3812 276.36 69.4012 276.18 68.5212 275.82C67.6412 275.44 66.8812 274.92 66.2412 274.26C65.6212 273.58 65.1412 272.78 64.8012 271.86C64.4612 270.94 64.2912 269.93 64.2912 268.83C64.2912 267.81 64.4412 266.84 64.7412 265.92C65.0612 264.98 65.5012 264.15 66.0612 263.43C66.6412 262.71 67.3412 262.14 68.1612 261.72C68.9812 261.28 69.9112 261.06 70.9512 261.06C71.8912 261.06 72.7612 261.21 73.5612 261.51C74.3812 261.79 75.0512 262.28 75.5712 262.98H75.6312V253.32H80.1312V276ZM75.9912 268.71C75.9912 267.61 75.6712 266.72 75.0312 266.04C74.4112 265.36 73.5312 265.02 72.3912 265.02C71.2512 265.02 70.3612 265.36 69.7212 266.04C69.1012 266.72 68.7912 267.61 68.7912 268.71C68.7912 269.81 69.1012 270.7 69.7212 271.38C70.3612 272.06 71.2512 272.4 72.3912 272.4C73.5312 272.4 74.4112 272.06 75.0312 271.38C75.6712 270.7 75.9912 269.81 75.9912 268.71ZM97.5277 273.48C96.8077 274.4 95.8977 275.11 94.7977 275.61C93.6977 276.11 92.5577 276.36 91.3777 276.36C90.2577 276.36 89.1977 276.18 88.1977 275.82C87.2177 275.46 86.3577 274.95 85.6177 274.29C84.8977 273.61 84.3277 272.8 83.9077 271.86C83.4877 270.92 83.2777 269.87 83.2777 268.71C83.2777 267.55 83.4877 266.5 83.9077 265.56C84.3277 264.62 84.8977 263.82 85.6177 263.16C86.3577 262.48 87.2177 261.96 88.1977 261.6C89.1977 261.24 90.2577 261.06 91.3777 261.06C92.4177 261.06 93.3577 261.24 94.1977 261.6C95.0577 261.96 95.7777 262.48 96.3577 263.16C96.9577 263.82 97.4177 264.62 97.7377 265.56C98.0577 266.5 98.2177 267.55 98.2177 268.71V270.12H87.7777C87.9577 270.98 88.3477 271.67 88.9477 272.19C89.5477 272.69 90.2877 272.94 91.1677 272.94C91.9077 272.94 92.5277 272.78 93.0277 272.46C93.5477 272.12 93.9977 271.69 94.3777 271.17L97.5277 273.48ZM93.7177 267.06C93.7377 266.3 93.4877 265.65 92.9677 265.11C92.4477 264.57 91.7777 264.3 90.9577 264.3C90.4577 264.3 90.0177 264.38 89.6377 264.54C89.2577 264.7 88.9277 264.91 88.6477 265.17C88.3877 265.41 88.1777 265.7 88.0177 266.04C87.8777 266.36 87.7977 266.7 87.7777 267.06H93.7177ZM100.954 261.42H105.454V263.76H105.514C105.994 262.86 106.564 262.19 107.224 261.75C107.884 261.29 108.714 261.06 109.714 261.06C109.974 261.06 110.234 261.07 110.494 261.09C110.754 261.11 110.994 261.15 111.214 261.21V265.32C110.894 265.22 110.574 265.15 110.254 265.11C109.954 265.05 109.634 265.02 109.294 265.02C108.434 265.02 107.754 265.14 107.254 265.38C106.754 265.62 106.364 265.96 106.084 266.4C105.824 266.82 105.654 267.33 105.574 267.93C105.494 268.53 105.454 269.19 105.454 269.91V276H100.954V261.42ZM129.068 262.35C129.308 262.29 129.548 262.24 129.788 262.2C130.028 262.16 130.278 262.14 130.538 262.14C131.538 262.14 132.448 262.32 133.268 262.68C134.088 263.04 134.788 263.53 135.368 264.15C135.948 264.77 136.398 265.51 136.718 266.37C137.038 267.21 137.198 268.11 137.198 269.07C137.198 270.17 136.988 271.17 136.568 272.07C136.168 272.95 135.608 273.71 134.888 274.35C134.188 274.99 133.348 275.49 132.368 275.85C131.408 276.19 130.378 276.36 129.278 276.36C128.158 276.36 127.118 276.19 126.158 275.85C125.198 275.49 124.358 274.99 123.638 274.35C122.938 273.71 122.378 272.95 121.958 272.07C121.558 271.17 121.358 270.17 121.358 269.07C121.358 268.31 121.428 267.62 121.568 267C121.708 266.36 121.888 265.76 122.108 265.2C122.348 264.64 122.618 264.11 122.918 263.61C123.238 263.09 123.568 262.56 123.908 262.02L128.558 254.76H134.048L129.068 262.35ZM132.698 268.89C132.698 267.93 132.378 267.14 131.738 266.52C131.118 265.88 130.298 265.56 129.278 265.56C128.258 265.56 127.428 265.88 126.788 266.52C126.168 267.14 125.858 267.93 125.858 268.89C125.858 269.85 126.168 270.65 126.788 271.29C127.428 271.91 128.258 272.22 129.278 272.22C130.298 272.22 131.118 271.91 131.738 271.29C132.378 270.65 132.698 269.85 132.698 268.89Z" fill="#1D3FB5"/>
<path d="M46.1454 133.688C49.1064 129.431 55.4826 120.731 61.1266 114.46C61.8887 113.613 63.2032 113.607 63.9959 114.425L81.2805 132.263C82.2139 133.226 81.9532 134.817 80.7613 135.432L64.7286 143.705C63.6007 144.287 63.2932 145.758 64.0937 146.743L82.5296 169.428C82.9235 169.913 83.0684 170.553 82.9214 171.16L80.9484 179.304C80.7311 180.202 79.9279 180.833 79.0047 180.833H72.5877C71.9425 180.833 71.3369 180.522 70.9613 179.998L46.1666 145.355C45.9236 145.016 45.793 144.609 45.793 144.191V134.819C45.793 134.414 45.914 134.02 46.1454 133.688Z" fill="#2D3055" stroke="#FFEFD5"/>
<path d="M120.977 133.688C118.016 129.431 111.639 120.731 105.995 114.46C105.233 113.613 103.919 113.607 103.126 114.425L85.8416 132.263C84.9082 133.226 85.1688 134.817 86.3608 135.432L102.393 143.705C103.521 144.287 103.829 145.758 103.028 146.743L84.5924 169.428C84.1986 169.913 84.0537 170.553 84.2007 171.16L86.1736 179.304C86.391 180.202 87.1942 180.833 88.1174 180.833H94.5344C95.1796 180.833 95.7852 180.522 96.1607 179.998L120.955 145.355C121.198 145.016 121.329 144.609 121.329 144.191V134.819C121.329 134.414 121.208 134.02 120.977 133.688Z" fill="#2D3055" stroke="#FFEFD5"/>
<mask id="path-4-inside-1" fill="white">
<path fill-rule="evenodd" clip-rule="evenodd" d="M84.2784 45.4407C94.8875 45.4407 103.488 35.2818 103.488 22.7501C103.488 10.2185 94.8875 0.0595703 84.2784 0.0595703C73.6693 0.0595703 65.0689 10.2185 65.0689 22.7501C65.0689 35.2818 73.6693 45.4407 84.2784 45.4407ZM102.67 51.8334C104.545 51.8265 106.121 51.8208 107.382 51.8169C108.958 51.812 110.379 52.7367 111.023 54.1746L122.143 78.9678L128.922 96.1312C129.682 98.0568 128.848 100.244 126.998 101.174L123.368 103C121.478 103.95 119.176 103.264 118.113 101.436L106.009 80.6124C105.945 80.5029 105.899 80.3843 105.87 80.2608C105.537 78.8008 103.388 79.0433 103.388 80.5411V101.111C103.388 103.088 101.785 104.691 99.8084 104.691H66.8516C64.6425 104.691 62.8516 102.9 62.8516 100.691V83.7954C62.8516 81.1167 59.1911 80.3438 58.1081 82.7937L49.5037 101.117C48.5734 103.098 46.2237 103.964 44.2305 103.06L40.1009 101.186C38.0877 100.273 37.1971 97.8997 38.1123 95.8874L57.042 54.2657C57.6913 52.8381 59.1156 51.9217 60.6839 51.9214C79.7872 51.9169 94.2481 51.8641 102.67 51.8334Z"/>
</mask>
<path fill-rule="evenodd" clip-rule="evenodd" d="M84.2784 45.4407C94.8875 45.4407 103.488 35.2818 103.488 22.7501C103.488 10.2185 94.8875 0.0595703 84.2784 0.0595703C73.6693 0.0595703 65.0689 10.2185 65.0689 22.7501C65.0689 35.2818 73.6693 45.4407 84.2784 45.4407ZM102.67 51.8334C104.545 51.8265 106.121 51.8208 107.382 51.8169C108.958 51.812 110.379 52.7367 111.023 54.1746L122.143 78.9678L128.922 96.1312C129.682 98.0568 128.848 100.244 126.998 101.174L123.368 103C121.478 103.95 119.176 103.264 118.113 101.436L106.009 80.6124C105.945 80.5029 105.899 80.3843 105.87 80.2608C105.537 78.8008 103.388 79.0433 103.388 80.5411V101.111C103.388 103.088 101.785 104.691 99.8084 104.691H66.8516C64.6425 104.691 62.8516 102.9 62.8516 100.691V83.7954C62.8516 81.1167 59.1911 80.3438 58.1081 82.7937L49.5037 101.117C48.5734 103.098 46.2237 103.964 44.2305 103.06L40.1009 101.186C38.0877 100.273 37.1971 97.8997 38.1123 95.8874L57.042 54.2657C57.6913 52.8381 59.1156 51.9217 60.6839 51.9214C79.7872 51.9169 94.2481 51.8641 102.67 51.8334Z" fill="#2D3055"/>
<path d="M107.382 51.8169L107.379 50.8169L107.379 50.8169L107.382 51.8169ZM102.67 51.8334L102.673 52.8334L102.673 52.8334L102.67 51.8334ZM111.023 54.1746L110.111 54.5838L111.023 54.1746ZM122.143 78.9678L123.073 78.6005L123.065 78.5793L123.055 78.5586L122.143 78.9678ZM128.922 96.1312L127.992 96.4986L127.992 96.4986L128.922 96.1312ZM126.998 101.174L127.448 102.068L127.448 102.068L126.998 101.174ZM123.368 103L123.817 103.893L123.817 103.893L123.368 103ZM118.113 101.436L118.977 100.933L118.977 100.933L118.113 101.436ZM106.009 80.6124L105.144 81.1149L105.144 81.1149L106.009 80.6124ZM105.87 80.2608L106.845 80.0379L106.845 80.0379L105.87 80.2608ZM58.1081 82.7937L59.0132 83.2188L59.0181 83.2084L59.0227 83.198L58.1081 82.7937ZM49.5037 101.117L48.5986 100.692L48.5986 100.692L49.5037 101.117ZM44.2305 103.06L44.6437 102.149L44.6437 102.149L44.2305 103.06ZM40.1009 101.186L39.6878 102.097L39.6878 102.097L40.1009 101.186ZM38.1123 95.8874L37.202 95.4734L37.202 95.4734L38.1123 95.8874ZM57.042 54.2657L57.9523 54.6797L57.9523 54.6797L57.042 54.2657ZM60.6839 51.9214L60.6837 50.9214L60.6837 50.9214L60.6839 51.9214ZM102.488 22.7501C102.488 34.8921 94.1855 44.4407 84.2784 44.4407V46.4407C95.5894 46.4407 104.488 35.6714 104.488 22.7501H102.488ZM84.2784 1.05957C94.1855 1.05957 102.488 10.6082 102.488 22.7501H104.488C104.488 9.82878 95.5894 -0.94043 84.2784 -0.94043V1.05957ZM66.0689 22.7501C66.0689 10.6082 74.3712 1.05957 84.2784 1.05957V-0.94043C72.9673 -0.94043 64.0689 9.82878 64.0689 22.7501H66.0689ZM84.2784 44.4407C74.3712 44.4407 66.0689 34.8921 66.0689 22.7501H64.0689C64.0689 35.6714 72.9673 46.4407 84.2784 46.4407V44.4407ZM107.379 50.8169C106.117 50.8208 104.541 50.8265 102.666 50.8334L102.673 52.8334C104.549 52.8265 106.124 52.8208 107.385 52.8169L107.379 50.8169ZM111.936 53.7654C111.131 51.9702 109.353 50.8108 107.379 50.8169L107.385 52.8169C108.562 52.8132 109.626 53.5033 110.111 54.5838L111.936 53.7654ZM123.055 78.5586L111.936 53.7654L110.111 54.5838L121.231 79.377L123.055 78.5586ZM129.852 95.7639L123.073 78.6005L121.213 79.3352L127.992 96.4986L129.852 95.7639ZM127.448 102.068C129.76 100.905 130.803 98.1708 129.852 95.7639L127.992 96.4986C128.562 97.9427 127.936 99.5835 126.549 100.281L127.448 102.068ZM123.817 103.893L127.448 102.068L126.549 100.281L122.919 102.106L123.817 103.893ZM117.248 101.939C118.577 104.224 121.455 105.081 123.817 103.893L122.919 102.106C121.501 102.819 119.775 102.305 118.977 100.933L117.248 101.939ZM105.144 81.1149L117.248 101.939L118.977 100.933L106.874 80.1098L105.144 81.1149ZM104.896 80.4837C104.946 80.7055 105.03 80.9183 105.144 81.1149L106.874 80.1099C106.861 80.0874 106.851 80.0632 106.845 80.0379L104.896 80.4837ZM104.388 80.5411C104.388 80.4225 104.423 80.3799 104.442 80.3606C104.473 80.3296 104.532 80.295 104.616 80.2855C104.7 80.276 104.765 80.2965 104.802 80.32C104.825 80.3346 104.869 80.3682 104.896 80.4838L106.845 80.0379C106.246 77.4166 102.388 77.852 102.388 80.5411H104.388ZM104.388 101.111V80.5411H102.388V101.111H104.388ZM99.8084 105.691C102.337 105.691 104.388 103.64 104.388 101.111H102.388C102.388 102.536 101.233 103.691 99.8084 103.691V105.691ZM66.8516 105.691H99.8084V103.691H66.8516V105.691ZM61.8516 100.691C61.8516 103.452 64.0902 105.691 66.8516 105.691V103.691C65.1948 103.691 63.8516 102.347 63.8516 100.691H61.8516ZM61.8516 83.7954V100.691H63.8516V83.7954H61.8516ZM59.0227 83.198C59.6686 81.7369 61.8516 82.1979 61.8516 83.7954H63.8516C63.8516 80.0356 58.7136 78.9506 57.1935 82.3894L59.0227 83.198ZM50.4089 101.542L59.0132 83.2188L57.2029 82.3686L48.5986 100.692L50.4089 101.542ZM43.8174 103.97C46.3088 105.1 49.246 104.019 50.4089 101.542L48.5986 100.692C47.9009 102.178 46.1385 102.827 44.6437 102.149L43.8174 103.97ZM39.6878 102.097L43.8174 103.97L44.6437 102.149L40.514 100.275L39.6878 102.097ZM37.202 95.4734C36.058 97.9888 37.1713 100.955 39.6878 102.097L40.514 100.275C39.0042 99.5905 38.3362 97.8106 39.0226 96.3014L37.202 95.4734ZM56.1317 53.8517L37.202 95.4734L39.0226 96.3014L57.9523 54.6797L56.1317 53.8517ZM60.6837 50.9214C58.7238 50.9218 56.9434 52.067 56.1317 53.8517L57.9523 54.6797C58.4391 53.6092 59.5075 52.9216 60.6841 52.9214L60.6837 50.9214ZM102.666 50.8334C94.2447 50.8641 79.7852 50.9169 60.6837 50.9214L60.6841 52.9214C79.7891 52.9169 94.2514 52.8641 102.673 52.8334L102.666 50.8334Z" fill="#FFEFD5" mask="url(#path-4-inside-1)"/>
</svg>
