<svg width="382" height="442" viewBox="0 0 382 442" fill="none" xmlns="http://www.w3.org/2000/svg">
<path d="M122.898 365.006C122.898 367.316 122.549 369.442 121.853 371.386C121.156 373.329 120.111 375.016 118.718 376.446C117.361 377.876 115.656 378.994 113.603 379.801C111.549 380.607 109.184 381.011 106.508 381.011C103.794 381.011 101.411 380.607 99.3575 379.801C97.3042 378.994 95.5809 377.876 94.1875 376.446C92.8309 375.016 91.8042 373.329 91.1075 371.386C90.4109 369.442 90.0625 367.316 90.0625 365.006V341.081H98.6425V364.676C98.6425 365.886 98.8259 367.004 99.1925 368.031C99.5959 369.057 100.146 369.956 100.843 370.726C101.539 371.459 102.364 372.046 103.318 372.486C104.308 372.889 105.371 373.091 106.508 373.091C107.644 373.091 108.689 372.889 109.643 372.486C110.596 372.046 111.421 371.459 112.118 370.726C112.814 369.956 113.346 369.057 113.713 368.031C114.116 367.004 114.318 365.886 114.318 364.676V341.081H122.898V365.006ZM129.784 353.291H137.704V356.921H137.814C138.071 356.407 138.437 355.894 138.914 355.381C139.391 354.867 139.959 354.409 140.619 354.006C141.279 353.602 142.031 353.272 142.874 353.016C143.717 352.759 144.634 352.631 145.624 352.631C147.714 352.631 149.401 352.961 150.684 353.621C151.967 354.244 152.957 355.124 153.654 356.261C154.387 357.397 154.882 358.736 155.139 360.276C155.396 361.816 155.524 363.484 155.524 365.281V380.021H147.274V366.931C147.274 366.161 147.237 365.372 147.164 364.566C147.127 363.722 146.962 362.952 146.669 362.256C146.412 361.559 145.991 360.991 145.404 360.551C144.854 360.111 144.047 359.891 142.984 359.891C141.921 359.891 141.059 360.092 140.399 360.496C139.739 360.862 139.226 361.376 138.859 362.036C138.529 362.659 138.309 363.374 138.199 364.181C138.089 364.987 138.034 365.831 138.034 366.711V380.021H129.784V353.291ZM189.416 380.021H181.826V376.501H181.716C181.386 376.977 180.946 377.472 180.396 377.986C179.883 378.462 179.26 378.902 178.526 379.306C177.83 379.709 177.041 380.039 176.161 380.296C175.318 380.552 174.438 380.681 173.521 380.681C171.541 380.681 169.745 380.351 168.131 379.691C166.518 378.994 165.125 378.041 163.951 376.831C162.815 375.584 161.935 374.117 161.311 372.431C160.688 370.744 160.376 368.892 160.376 366.876C160.376 365.006 160.651 363.227 161.201 361.541C161.788 359.817 162.595 358.296 163.621 356.976C164.685 355.656 165.968 354.611 167.471 353.841C168.975 353.034 170.68 352.631 172.586 352.631C174.31 352.631 175.905 352.906 177.371 353.456C178.875 353.969 180.103 354.867 181.056 356.151H181.166V338.441H189.416V380.021ZM181.826 366.656C181.826 364.639 181.24 363.007 180.066 361.761C178.93 360.514 177.316 359.891 175.226 359.891C173.136 359.891 171.505 360.514 170.331 361.761C169.195 363.007 168.626 364.639 168.626 366.656C168.626 368.672 169.195 370.304 170.331 371.551C171.505 372.797 173.136 373.421 175.226 373.421C177.316 373.421 178.93 372.797 180.066 371.551C181.24 370.304 181.826 368.672 181.826 366.656ZM221.31 375.401C219.99 377.087 218.321 378.389 216.305 379.306C214.288 380.222 212.198 380.681 210.035 380.681C207.981 380.681 206.038 380.351 204.205 379.691C202.408 379.031 200.831 378.096 199.475 376.886C198.155 375.639 197.11 374.154 196.34 372.431C195.57 370.707 195.185 368.782 195.185 366.656C195.185 364.529 195.57 362.604 196.34 360.881C197.11 359.157 198.155 357.691 199.475 356.481C200.831 355.234 202.408 354.281 204.205 353.621C206.038 352.961 207.981 352.631 210.035 352.631C211.941 352.631 213.665 352.961 215.205 353.621C216.781 354.281 218.101 355.234 219.165 356.481C220.265 357.691 221.108 359.157 221.695 360.881C222.281 362.604 222.575 364.529 222.575 366.656V369.241H203.435C203.765 370.817 204.48 372.082 205.58 373.036C206.68 373.952 208.036 374.411 209.65 374.411C211.006 374.411 212.143 374.117 213.06 373.531C214.013 372.907 214.838 372.119 215.535 371.166L221.31 375.401ZM214.325 363.631C214.361 362.237 213.903 361.046 212.95 360.056C211.996 359.066 210.768 358.571 209.265 358.571C208.348 358.571 207.541 358.717 206.845 359.011C206.148 359.304 205.543 359.689 205.03 360.166C204.553 360.606 204.168 361.137 203.875 361.761C203.618 362.347 203.471 362.971 203.435 363.631H214.325ZM227.592 353.291H235.842V357.581H235.952C236.832 355.931 237.877 354.702 239.087 353.896C240.297 353.052 241.818 352.631 243.652 352.631C244.128 352.631 244.605 352.649 245.082 352.686C245.558 352.722 245.998 352.796 246.402 352.906V360.441C245.815 360.257 245.228 360.129 244.642 360.056C244.092 359.946 243.505 359.891 242.882 359.891C241.305 359.891 240.058 360.111 239.142 360.551C238.225 360.991 237.51 361.614 236.997 362.421C236.52 363.191 236.208 364.126 236.062 365.226C235.915 366.326 235.842 367.536 235.842 368.856V380.021H227.592V353.291ZM279.134 354.996C279.574 354.886 280.014 354.794 280.454 354.721C280.894 354.647 281.352 354.611 281.829 354.611C283.662 354.611 285.33 354.941 286.834 355.601C288.337 356.261 289.62 357.159 290.684 358.296C291.747 359.432 292.572 360.789 293.159 362.366C293.745 363.906 294.039 365.556 294.039 367.316C294.039 369.332 293.654 371.166 292.884 372.816C292.15 374.429 291.124 375.822 289.804 376.996C288.52 378.169 286.98 379.086 285.184 379.746C283.424 380.369 281.535 380.681 279.519 380.681C277.465 380.681 275.559 380.369 273.799 379.746C272.039 379.086 270.499 378.169 269.179 376.996C267.895 375.822 266.869 374.429 266.099 372.816C265.365 371.166 264.999 369.332 264.999 367.316C264.999 365.922 265.127 364.657 265.384 363.521C265.64 362.347 265.97 361.247 266.374 360.221C266.814 359.194 267.309 358.222 267.859 357.306C268.445 356.352 269.05 355.381 269.674 354.391L278.199 341.081H288.264L279.134 354.996ZM285.789 366.986C285.789 365.226 285.202 363.777 284.029 362.641C282.892 361.467 281.389 360.881 279.519 360.881C277.649 360.881 276.127 361.467 274.954 362.641C273.817 363.777 273.249 365.226 273.249 366.986C273.249 368.746 273.817 370.212 274.954 371.386C276.127 372.522 277.649 373.091 279.519 373.091C281.389 373.091 282.892 372.522 284.029 371.386C285.202 370.212 285.789 368.746 285.789 366.986Z" fill="#1139C6"/>
<path d="M131.82 216.664C136.91 209.655 148.506 194.525 158.459 184.166C159.223 183.37 160.485 183.366 161.27 184.14L192.804 215.207C193.784 216.173 193.518 217.818 192.284 218.426L162.153 233.269C160.984 233.845 160.669 235.367 161.514 236.36L194.139 274.684C194.559 275.177 194.714 275.844 194.554 276.472L190.821 291.184C190.596 292.071 189.798 292.692 188.882 292.692H176.144C175.514 292.692 174.921 292.396 174.544 291.892L131.844 234.937C131.585 234.591 131.444 234.17 131.444 233.737V217.829C131.444 217.408 131.573 217.004 131.82 216.664Z" fill="#2D3055" stroke="#FFEFD5"/>
<path d="M259.176 216.664C254.086 209.655 242.489 194.525 232.537 184.166C231.772 183.37 230.51 183.366 229.725 184.14L198.192 215.207C197.211 216.173 197.477 217.818 198.711 218.426L228.842 233.269C230.011 233.845 230.326 235.367 229.481 236.36L196.857 274.684C196.436 275.177 196.282 275.844 196.441 276.472L200.174 291.184C200.399 292.071 201.198 292.692 202.113 292.692H214.851C215.481 292.692 216.074 292.396 216.451 291.892L259.151 234.937C259.411 234.591 259.551 234.17 259.551 233.737V217.829C259.551 217.408 259.422 217.004 259.176 216.664Z" fill="#2D3055" stroke="#FFEFD5"/>
<mask id="path-4-inside-1" fill="white">
<path fill-rule="evenodd" clip-rule="evenodd" d="M196.713 73.4768C214.706 73.4768 229.292 57.0285 229.292 36.7384C229.292 16.4483 214.706 0 196.713 0C178.721 0 164.135 16.4483 164.135 36.7384C164.135 57.0285 178.721 73.4768 196.713 73.4768ZM227.904 83.8276C232.081 83.813 235.382 83.8015 237.747 83.7959C239.298 83.7922 240.696 84.6881 241.355 86.0914L260.931 127.761L273.258 157.559C274.07 159.521 273.207 161.776 271.293 162.695L260.568 167.842C258.715 168.732 256.49 168.072 255.421 166.316L233.579 130.443C233.464 130.253 233.379 130.046 233.327 129.83C232.739 127.373 229.122 127.801 229.122 130.327V165.409C229.122 167.618 227.331 169.409 225.122 169.409H164.375C162.166 169.409 160.375 167.618 160.375 165.409V134.74C160.375 130.454 154.546 129.17 152.745 133.059L152.33 133.956L136.573 165.989C135.632 167.904 133.353 168.742 131.394 167.894L119.411 162.705C117.333 161.804 116.416 159.359 117.39 157.314L151.244 86.2502C151.907 84.8575 153.325 83.9705 154.867 83.9703C188.173 83.9661 213.353 83.8783 227.904 83.8276Z"/>
</mask>
<path fill-rule="evenodd" clip-rule="evenodd" d="M196.713 73.4768C214.706 73.4768 229.292 57.0285 229.292 36.7384C229.292 16.4483 214.706 0 196.713 0C178.721 0 164.135 16.4483 164.135 36.7384C164.135 57.0285 178.721 73.4768 196.713 73.4768ZM227.904 83.8276C232.081 83.813 235.382 83.8015 237.747 83.7959C239.298 83.7922 240.696 84.6881 241.355 86.0914L260.931 127.761L273.258 157.559C274.07 159.521 273.207 161.776 271.293 162.695L260.568 167.842C258.715 168.732 256.49 168.072 255.421 166.316L233.579 130.443C233.464 130.253 233.379 130.046 233.327 129.83C232.739 127.373 229.122 127.801 229.122 130.327V165.409C229.122 167.618 227.331 169.409 225.122 169.409H164.375C162.166 169.409 160.375 167.618 160.375 165.409V134.74C160.375 130.454 154.546 129.17 152.745 133.059L152.33 133.956L136.573 165.989C135.632 167.904 133.353 168.742 131.394 167.894L119.411 162.705C117.333 161.804 116.416 159.359 117.39 157.314L151.244 86.2502C151.907 84.8575 153.325 83.9705 154.867 83.9703C188.173 83.9661 213.353 83.8783 227.904 83.8276Z" fill="#2D3055"/>
<path d="M237.747 83.7959L237.745 82.7959L237.745 82.7959L237.747 83.7959ZM227.904 83.8276L227.9 82.8276L227.9 82.8276L227.904 83.8276ZM241.355 86.0914L242.26 85.6662L242.26 85.6662L241.355 86.0914ZM260.931 127.761L261.855 127.379L261.846 127.357L261.836 127.336L260.931 127.761ZM273.258 157.559L272.334 157.942L272.334 157.942L273.258 157.559ZM271.293 162.695L271.726 163.596L271.726 163.596L271.293 162.695ZM260.568 167.842L260.136 166.941L260.136 166.941L260.568 167.842ZM255.421 166.316L256.275 165.796L256.275 165.796L255.421 166.316ZM233.579 130.443L234.434 129.922L234.434 129.922L233.579 130.443ZM233.327 129.83L234.3 129.598L234.3 129.598L233.327 129.83ZM152.745 133.059L151.838 132.639L151.838 132.639L152.745 133.059ZM152.33 133.956L153.227 134.397L153.232 134.386L153.237 134.376L152.33 133.956ZM136.573 165.989L135.676 165.548L135.676 165.548L136.573 165.989ZM131.394 167.894L131.792 166.977L131.792 166.977L131.394 167.894ZM119.411 162.705L119.014 163.622L119.014 163.622L119.411 162.705ZM117.39 157.314L116.487 156.884L116.487 156.884L117.39 157.314ZM151.244 86.2502L152.147 86.6803L152.147 86.6803L151.244 86.2502ZM154.867 83.9703L154.867 84.9703L154.867 84.9703L154.867 83.9703ZM228.292 36.7384C228.292 56.5925 214.044 72.4768 196.713 72.4768V74.4768C215.368 74.4768 230.292 57.4644 230.292 36.7384H228.292ZM196.713 1C214.044 1 228.292 16.8843 228.292 36.7384H230.292C230.292 16.0124 215.368 -1 196.713 -1V1ZM165.135 36.7384C165.135 16.8843 179.383 1 196.713 1V-1C178.059 -1 163.135 16.0124 163.135 36.7384H165.135ZM196.713 72.4768C179.383 72.4768 165.135 56.5925 165.135 36.7384H163.135C163.135 57.4644 178.059 74.4768 196.713 74.4768V72.4768ZM237.745 82.7959C235.379 82.8015 232.077 82.813 227.9 82.8276L227.907 84.8275C232.085 84.813 235.385 84.8015 237.75 84.7959L237.745 82.7959ZM242.26 85.6662C241.438 83.9156 239.689 82.7913 237.745 82.7959L237.75 84.7959C238.907 84.7932 239.954 85.4606 240.45 86.5166L242.26 85.6662ZM261.836 127.336L242.26 85.6662L240.45 86.5166L260.026 128.186L261.836 127.336ZM274.183 157.177L261.855 127.379L260.007 128.143L272.334 157.942L274.183 157.177ZM271.726 163.596C274.119 162.448 275.197 159.63 274.183 157.177L272.334 157.942C272.943 159.413 272.296 161.104 270.86 161.793L271.726 163.596ZM261.001 168.744L271.726 163.596L270.86 161.793L260.136 166.941L261.001 168.744ZM254.567 166.836C255.903 169.031 258.685 169.855 261.001 168.744L260.136 166.941C258.746 167.608 257.077 167.113 256.275 165.796L254.567 166.836ZM232.725 130.963L254.567 166.836L256.275 165.796L234.434 129.922L232.725 130.963ZM232.355 130.063C232.431 130.381 232.556 130.684 232.725 130.963L234.434 129.922C234.372 129.822 234.327 129.712 234.3 129.598L232.355 130.063ZM230.122 130.327C230.122 128.986 232.042 128.759 232.355 130.063L234.3 129.598C233.435 125.988 228.122 126.615 228.122 130.327H230.122ZM230.122 165.409V130.327H228.122V165.409H230.122ZM225.122 170.409C227.884 170.409 230.122 168.17 230.122 165.409H228.122C228.122 167.066 226.779 168.409 225.122 168.409V170.409ZM164.375 170.409H225.122V168.409H164.375V170.409ZM159.375 165.409C159.375 168.17 161.613 170.409 164.375 170.409V168.409C162.718 168.409 161.375 167.066 161.375 165.409H159.375ZM159.375 134.74V165.409H161.375V134.74H159.375ZM153.652 133.479C155.003 130.562 159.375 131.525 159.375 134.74H161.375C161.375 129.382 154.089 127.777 151.838 132.639L153.652 133.479ZM153.237 134.376L153.652 133.479L151.838 132.639L151.423 133.535L153.237 134.376ZM137.471 166.431L153.227 134.397L151.433 133.514L135.676 165.548L137.471 166.431ZM130.997 168.812C133.445 169.872 136.294 168.824 137.471 166.431L135.676 165.548C134.97 166.984 133.26 167.613 131.792 166.977L130.997 168.812ZM119.014 163.622L130.997 168.812L131.792 166.977L119.809 161.787L119.014 163.622ZM116.487 156.884C115.269 159.44 116.415 162.497 119.014 163.622L119.809 161.787C118.25 161.112 117.562 159.278 118.293 157.744L116.487 156.884ZM150.341 85.8201L116.487 156.884L118.293 157.744L152.147 86.6803L150.341 85.8201ZM154.867 82.9703C152.942 82.9706 151.172 84.0762 150.341 85.8201L152.147 86.6803C152.643 85.6389 153.707 84.9705 154.867 84.9703L154.867 82.9703ZM227.9 82.8276C213.35 82.8783 188.171 82.9661 154.867 82.9703L154.867 84.9703C188.175 84.9661 213.357 84.8783 227.907 84.8275L227.9 82.8276Z" fill="#FFEFD5" mask="url(#path-4-inside-1)"/>
</svg>
