<svg width="338" height="377" viewBox="0 0 338 377" fill="none" xmlns="http://www.w3.org/2000/svg">
<path d="M67.122 36.3625C63.5109 40.529 58.8164 42.6123 53.0387 42.6123C47.2609 42.6123 42.3859 40.529 38.4137 36.3625C34.8025 32.196 32.997 27.0825 32.997 21.0221C32.997 14.9617 34.8025 10.0376 38.4137 6.24981C42.3859 2.08327 47.2609 0 53.0387 0C58.8164 0 63.5109 2.08327 67.122 6.24981C71.0942 10.0376 73.0803 14.9617 73.0803 21.0221C73.0803 27.0825 71.0942 32.196 67.122 36.3625ZM73.5387 46.4697C89.5367 47.1576 83.2478 66 104.248 84.5C116.457 88.0303 127.748 93.5 139.537 95.5684C147.039 95.5684 147.039 109.568 136.037 109.568C125.035 109.568 102.748 103.53 95.2478 98C86.2478 94.5 81.2478 88.9697 81.2478 88.9697L78.497 242.038C78.497 246.962 76.5109 250.56 72.5387 252.833C68.9276 255.106 65.1359 255.295 61.1637 253.401C57.5526 251.507 55.5665 247.72 55.2054 242.038V148.291H50.872V242.038C50.872 247.341 48.8859 250.939 44.9137 252.833C40.9414 255.106 36.9692 255.106 32.997 252.833C29.3859 250.939 27.5803 247.341 27.5803 242.038V79.543L25.5366 75.9014C25.5366 75.9014 6.5791 100.401 25.5366 131.5C27.5803 154.75 9.58001 139.75 4.07933 126.75C-1.91999 106.25 -3.41959 88.9697 14.5804 55.6801C20.5791 48.4014 25.7748 47.1576 32.997 47.1576L54.5387 46.4697C54.5387 46.4697 65.5406 46.4697 73.5387 46.4697Z" fill="#1D4884"/>
<path fill-rule="evenodd" clip-rule="evenodd" d="M56.1886 49H50.7317L45.0075 110.092L45 110.1L45.0061 110.107L45.002 110.151H45.0459L53.0438 119L60.9974 110.2L60.9531 110.151H61.0005L56.1886 49Z" fill="white"/>
<path d="M160.98 5C160.24 10.0489 159.205 30.8661 160.98 73.7431V132H334V5H160.98Z" fill="white" stroke="#000026" stroke-width="6"/>
<rect x="141.903" y="94.4688" width="82.5465" height="8" rx="4" transform="rotate(-33.0946 141.903 94.4688)" fill="black"/>
<rect x="214.182" y="37.6104" width="100" height="4.02876" rx="2.01438" fill="#000026"/>
<rect x="224" y="58" width="100" height="4.02876" rx="2.01438" fill="#000026"/>
<rect x="219" y="78" width="100" height="4.02876" rx="2.01438" fill="#000026"/>
<circle cx="230.739" cy="197.228" r="21.228" stroke="black" stroke-width="6"/>
<mask id="path-9-inside-1" fill="white">
<path fill-rule="evenodd" clip-rule="evenodd" d="M265.77 271.325C265.822 240.189 260.69 219.644 228.943 220.774C198.693 218.888 193.298 239.394 193.033 270.598L265.77 271.325Z"/>
</mask>
<path d="M228.943 220.774L228.635 226.762L228.929 226.781L229.222 226.77L228.943 220.774ZM265.77 271.325L265.776 277.325L271.76 277.385L271.77 271.4L265.77 271.325ZM193.033 270.598L187.033 270.481L186.982 276.537L193.038 276.598L193.033 270.598ZM229.222 226.77C236.546 226.509 241.82 227.522 245.659 229.272C249.398 230.977 252.094 233.52 254.123 236.958C258.434 244.262 259.797 255.626 259.771 271.25L271.77 271.4C271.796 255.888 270.619 241.412 264.44 230.942C261.223 225.492 256.687 221.165 250.537 218.362C244.487 215.604 237.214 214.473 228.665 214.777L229.222 226.77ZM199.032 270.714C199.165 255.08 200.649 243.641 204.926 236.358C206.945 232.919 209.574 230.448 213.12 228.851C216.754 227.215 221.728 226.332 228.635 226.762L229.252 214.785C221.034 214.273 213.99 215.246 208.096 217.899C202.114 220.592 197.706 224.844 194.562 230.197C188.513 240.496 187.166 254.912 187.033 270.481L199.032 270.714ZM193.038 276.598L265.776 277.325L265.765 265.325L193.028 264.598L193.038 276.598Z" fill="black" mask="url(#path-9-inside-1)"/>
<circle cx="302.739" cy="197.228" r="21.228" stroke="black" stroke-width="6"/>
<mask id="path-12-inside-2" fill="white">
<path fill-rule="evenodd" clip-rule="evenodd" d="M337.77 271.325C337.822 240.189 332.69 219.644 300.943 220.774C270.693 218.888 265.298 239.394 265.033 270.598L337.77 271.325Z"/>
</mask>
<path d="M300.943 220.774L300.635 226.762L300.929 226.781L301.222 226.77L300.943 220.774ZM337.77 271.325L337.776 277.325L343.76 277.385L343.77 271.4L337.77 271.325ZM265.033 270.598L259.033 270.481L258.982 276.537L265.038 276.598L265.033 270.598ZM301.222 226.77C308.546 226.509 313.82 227.522 317.659 229.272C321.398 230.977 324.094 233.52 326.123 236.958C330.434 244.262 331.797 255.626 331.771 271.25L343.77 271.4C343.796 255.888 342.619 241.412 336.44 230.942C333.223 225.492 328.687 221.165 322.537 218.362C316.487 215.604 309.214 214.473 300.665 214.777L301.222 226.77ZM271.032 270.714C271.165 255.08 272.649 243.641 276.926 236.358C278.945 232.919 281.574 230.448 285.12 228.851C288.754 227.215 293.728 226.332 300.635 226.762L301.252 214.785C293.034 214.273 285.99 215.246 280.096 217.899C274.114 220.592 269.706 224.844 266.562 230.197C260.513 240.496 259.166 254.912 259.033 270.481L271.032 270.714ZM265.038 276.598L337.776 277.325L337.765 265.325L265.028 264.598L265.038 276.598Z" fill="black" mask="url(#path-12-inside-2)"/>
<circle cx="225.739" cy="302.228" r="21.228" stroke="black" stroke-width="6"/>
<mask id="path-15-inside-3" fill="white">
<path fill-rule="evenodd" clip-rule="evenodd" d="M260.77 376.325C260.822 345.189 255.69 324.644 223.943 325.774C193.693 323.888 188.298 344.394 188.033 375.598L260.77 376.325Z"/>
</mask>
<path d="M223.943 325.774L223.635 331.762L223.929 331.781L224.222 331.77L223.943 325.774ZM260.77 376.325L260.776 382.325L266.76 382.385L266.77 376.4L260.77 376.325ZM188.033 375.598L182.033 375.481L181.982 381.537L188.038 381.598L188.033 375.598ZM224.222 331.77C231.546 331.509 236.82 332.522 240.659 334.272C244.399 335.977 247.094 338.52 249.123 341.958C253.434 349.262 254.797 360.626 254.771 376.25L266.77 376.4C266.796 360.888 265.619 346.412 259.44 335.942C256.223 330.492 251.687 326.165 245.537 323.362C239.487 320.604 232.215 319.473 223.665 319.777L224.222 331.77ZM194.032 375.714C194.165 360.08 195.649 348.641 199.926 341.358C201.945 337.919 204.574 335.448 208.12 333.851C211.754 332.215 216.728 331.332 223.635 331.762L224.252 319.785C216.034 319.273 208.99 320.246 203.096 322.899C197.114 325.592 192.706 329.844 189.562 335.197C183.513 345.497 182.166 359.912 182.033 375.481L194.032 375.714ZM188.038 381.598L260.776 382.325L260.765 370.325L188.028 369.598L188.038 381.598Z" fill="black" mask="url(#path-15-inside-3)"/>
<circle cx="152.739" cy="301.228" r="21.228" stroke="black" stroke-width="6"/>
<mask id="path-18-inside-4" fill="white">
<path fill-rule="evenodd" clip-rule="evenodd" d="M187.77 375.325C187.822 344.189 182.69 323.644 150.943 324.774C120.693 322.888 115.298 343.394 115.033 374.598L187.77 375.325Z"/>
</mask>
<path d="M150.943 324.774L150.635 330.762L150.929 330.781L151.222 330.77L150.943 324.774ZM187.77 375.325L187.776 381.325L193.76 381.385L193.77 375.4L187.77 375.325ZM115.033 374.598L109.033 374.481L108.982 380.537L115.038 380.598L115.033 374.598ZM151.222 330.77C158.546 330.509 163.82 331.522 167.659 333.272C171.399 334.977 174.094 337.52 176.123 340.958C180.434 348.262 181.797 359.626 181.771 375.25L193.77 375.4C193.796 359.888 192.619 345.412 186.44 334.942C183.223 329.492 178.687 325.165 172.537 322.362C166.487 319.604 159.215 318.473 150.665 318.777L151.222 330.77ZM121.032 374.714C121.165 359.08 122.649 347.641 126.926 340.358C128.945 336.919 131.574 334.448 135.12 332.851C138.754 331.215 143.728 330.332 150.635 330.762L151.252 318.785C143.034 318.273 135.99 319.246 130.096 321.899C124.114 324.592 119.706 328.844 116.562 334.197C110.513 344.497 109.166 358.912 109.033 374.481L121.032 374.714ZM115.038 380.598L187.776 381.325L187.765 369.325L115.028 368.598L115.038 380.598Z" fill="black" mask="url(#path-18-inside-4)"/>
<circle cx="157.739" cy="196.228" r="21.228" stroke="black" stroke-width="6"/>
<mask id="path-21-inside-5" fill="white">
<path fill-rule="evenodd" clip-rule="evenodd" d="M192.77 270.325C192.822 239.189 187.69 218.644 155.943 219.774C125.693 217.888 120.298 238.394 120.033 269.598L192.77 270.325Z"/>
</mask>
<path d="M155.943 219.774L155.635 225.762L155.929 225.781L156.222 225.77L155.943 219.774ZM192.77 270.325L192.776 276.325L198.76 276.385L198.77 270.4L192.77 270.325ZM120.033 269.598L114.033 269.481L113.982 275.537L120.038 275.598L120.033 269.598ZM156.222 225.77C163.546 225.509 168.82 226.522 172.659 228.272C176.399 229.977 179.094 232.52 181.123 235.958C185.434 243.262 186.797 254.626 186.771 270.25L198.77 270.4C198.796 254.888 197.619 240.412 191.44 229.942C188.223 224.492 183.687 220.165 177.537 217.362C171.487 214.604 164.215 213.473 155.665 213.777L156.222 225.77ZM126.032 269.714C126.165 254.08 127.649 242.641 131.926 235.358C133.945 231.919 136.574 229.448 140.12 227.851C143.754 226.215 148.728 225.332 155.635 225.762L156.252 213.785C148.034 213.273 140.99 214.246 135.096 216.899C129.114 219.592 124.706 223.844 121.562 229.197C115.513 239.497 114.166 253.912 114.033 269.481L126.032 269.714ZM120.038 275.598L192.776 276.325L192.765 264.325L120.028 263.598L120.038 275.598Z" fill="black" mask="url(#path-21-inside-5)"/>
<circle cx="298.739" cy="302.228" r="21.228" stroke="black" stroke-width="6"/>
<mask id="path-24-inside-6" fill="white">
<path fill-rule="evenodd" clip-rule="evenodd" d="M333.77 376.325C333.822 345.189 328.69 324.644 296.943 325.774C266.693 323.888 261.298 344.394 261.033 375.598L333.77 376.325Z"/>
</mask>
<path d="M296.943 325.774L296.635 331.762L296.929 331.781L297.222 331.77L296.943 325.774ZM333.77 376.325L333.776 382.325L339.76 382.385L339.77 376.4L333.77 376.325ZM261.033 375.598L255.033 375.481L254.982 381.537L261.038 381.598L261.033 375.598ZM297.222 331.77C304.546 331.509 309.82 332.522 313.659 334.272C317.399 335.977 320.094 338.52 322.123 341.958C326.434 349.262 327.797 360.626 327.771 376.25L339.77 376.4C339.796 360.888 338.619 346.412 332.44 335.942C329.223 330.492 324.687 326.165 318.537 323.362C312.487 320.604 305.215 319.473 296.665 319.777L297.222 331.77ZM267.032 375.714C267.165 360.08 268.649 348.641 272.926 341.358C274.945 337.919 277.574 335.448 281.12 333.851C284.754 332.215 289.728 331.332 296.635 331.762L297.252 319.785C289.034 319.273 281.99 320.246 276.096 322.899C270.114 325.592 265.706 329.844 262.562 335.197C256.513 345.497 255.166 359.912 255.033 375.481L267.032 375.714ZM261.038 381.598L333.776 382.325L333.765 370.325L261.028 369.598L261.038 381.598Z" fill="black" mask="url(#path-24-inside-6)"/>
</svg>
