<svg width="169" height="114" viewBox="0 0 169 114" fill="none" xmlns="http://www.w3.org/2000/svg">
<rect x="106.143" y="0.5" width="14.5484" height="23.2553" fill="#884721" stroke="black"/>
<path d="M64.965 72.2661L40.0045 20.5107H140.679L168.168 72.2661H64.965Z" fill="#884721" stroke="black"/>
<line x1="64.1511" y1="114" x2="64.1511" y2="72.1596" stroke="black"/>
<rect x="26.4873" y="49.1172" width="7.06745" height="6.06383" fill="#884721"/>
<rect x="35.6748" y="49.1172" width="7.06745" height="6.06383" fill="#884721"/>
<rect x="35.6748" y="57.6064" width="7.06745" height="6.06383" fill="#884721"/>
<rect x="26.4873" y="57.6064" width="7.06745" height="6.06383" fill="#884721"/>
<line y1="-0.5" x2="33.9545" y2="-0.5" transform="matrix(-0.00746213 -0.999972 0.999985 -0.00549334 6.698 104.904)" stroke="black"/>
<line x1="160.269" y1="110.968" x2="160.269" y2="72.7656" stroke="black"/>
<line y1="-0.5" x2="96.1651" y2="-0.5" transform="matrix(0.999503 -0.0315282 0.0428103 0.999083 64.6511 114)" stroke="black"/>
<line y1="-0.5" x2="57.9644" y2="-0.5" transform="matrix(0.987611 0.156919 -0.210977 0.977491 6.698 104.904)" stroke="black"/>
<path d="M38.1135 18.3779L6.00006 68.7315" stroke="#6D2C05" stroke-width="10" stroke-linecap="round" stroke-linejoin="round"/>
<line x1="5" y1="-5" x2="57.923" y2="-5" transform="matrix(0.449309 0.893377 -0.93779 0.347204 35.6748 16.9785)" stroke="#6D2C05" stroke-width="10" stroke-linecap="round" stroke-linejoin="round"/>
<rect x="106.349" y="19.4043" width="14.1349" height="12.1277" fill="#884721"/>
<path d="M16.9463 73.3721L46.6296 77.9199V110.665L16.9463 106.117V73.3721Z" fill="#884721"/>
<rect x="73.1323" y="84.8936" width="8.48094" height="7.2766" fill="#884721"/>
<rect x="73.1323" y="95.8086" width="8.48094" height="7.2766" fill="#884721"/>
<rect x="85.1467" y="95.8086" width="8.48094" height="7.2766" fill="#884721"/>
<rect x="85.1467" y="84.8936" width="8.48094" height="7.2766" fill="#884721"/>
<rect x="129.672" y="84.8936" width="8.48094" height="7.2766" fill="#884721"/>
<rect x="141.687" y="84.8936" width="8.48094" height="7.2766" fill="#884721"/>
<rect x="141.687" y="95.8086" width="8.48094" height="7.2766" fill="#884721"/>
<rect x="129.672" y="95.8086" width="8.48094" height="7.2766" fill="#884721"/>
</svg>
