<svg width="145" height="203" viewBox="0 0 145 203" fill="none" xmlns="http://www.w3.org/2000/svg">
<path d="M140.375 72.1874C140.375 109.846 109.846 140.375 72.1874 140.375C34.5286 140.375 4 109.846 4 72.1874C4 34.5286 34.5286 4 72.1874 4C109.846 4 140.375 34.5286 140.375 72.1874Z" fill="#F8A8A8" stroke="#D10000" stroke-width="8"/>
<path d="M110.198 102.494C71.4386 68.2675 39.4501 105.29 39.4501 105.29" stroke="#D10000" stroke-width="12" stroke-linecap="round" stroke-linejoin="round"/>
<ellipse cx="55.5286" cy="53.4187" rx="9.71754" ry="17.325" fill="#D10000"/>
<ellipse cx="94.3992" cy="53.4187" rx="9.71754" ry="17.325" fill="#D10000"/>
<path d="M34.5467 165.76H40.9067L49.9367 180.52H49.9967V165.76H54.6767V187H48.5567L39.2867 171.88H39.2267V187H34.5467V165.76ZM57.8996 179.71C57.8996 178.55 58.1096 177.5 58.5296 176.56C58.9496 175.62 59.5196 174.82 60.2396 174.16C60.9796 173.48 61.8396 172.96 62.8196 172.6C63.8196 172.24 64.8796 172.06 65.9996 172.06C67.1196 172.06 68.1696 172.24 69.1496 172.6C70.1496 172.96 71.0096 173.48 71.7296 174.16C72.4696 174.82 73.0496 175.62 73.4696 176.56C73.8896 177.5 74.0996 178.55 74.0996 179.71C74.0996 180.87 73.8896 181.92 73.4696 182.86C73.0496 183.8 72.4696 184.61 71.7296 185.29C71.0096 185.95 70.1496 186.46 69.1496 186.82C68.1696 187.18 67.1196 187.36 65.9996 187.36C64.8796 187.36 63.8196 187.18 62.8196 186.82C61.8396 186.46 60.9796 185.95 60.2396 185.29C59.5196 184.61 58.9496 183.8 58.5296 182.86C58.1096 181.92 57.8996 180.87 57.8996 179.71ZM62.3996 179.71C62.3996 180.81 62.7096 181.7 63.3296 182.38C63.9696 183.06 64.8596 183.4 65.9996 183.4C67.1396 183.4 68.0196 183.06 68.6396 182.38C69.2796 181.7 69.5996 180.81 69.5996 179.71C69.5996 178.61 69.2796 177.72 68.6396 177.04C68.0196 176.36 67.1396 176.02 65.9996 176.02C64.8596 176.02 63.9696 176.36 63.3296 177.04C62.7096 177.72 62.3996 178.61 62.3996 179.71ZM76.7502 172.42H81.0702V174.4H81.1302C81.2702 174.12 81.4702 173.84 81.7302 173.56C81.9902 173.28 82.3002 173.03 82.6602 172.81C83.0202 172.59 83.4302 172.41 83.8902 172.27C84.3502 172.13 84.8502 172.06 85.3902 172.06C86.5302 172.06 87.4502 172.24 88.1502 172.6C88.8502 172.94 89.3902 173.42 89.7702 174.04C90.1702 174.66 90.4402 175.39 90.5802 176.23C90.7202 177.07 90.7902 177.98 90.7902 178.96V187H86.2902V179.86C86.2902 179.44 86.2702 179.01 86.2302 178.57C86.2102 178.11 86.1202 177.69 85.9602 177.31C85.8202 176.93 85.5902 176.62 85.2702 176.38C84.9702 176.14 84.5302 176.02 83.9502 176.02C83.3702 176.02 82.9002 176.13 82.5402 176.35C82.1802 176.55 81.9002 176.83 81.7002 177.19C81.5202 177.53 81.4002 177.92 81.3402 178.36C81.2802 178.8 81.2502 179.26 81.2502 179.74V187H76.7502V172.42ZM107.777 184.48C107.057 185.4 106.147 186.11 105.047 186.61C103.947 187.11 102.807 187.36 101.627 187.36C100.507 187.36 99.4467 187.18 98.4467 186.82C97.4667 186.46 96.6067 185.95 95.8667 185.29C95.1467 184.61 94.5767 183.8 94.1567 182.86C93.7367 181.92 93.5267 180.87 93.5267 179.71C93.5267 178.55 93.7367 177.5 94.1567 176.56C94.5767 175.62 95.1467 174.82 95.8667 174.16C96.6067 173.48 97.4667 172.96 98.4467 172.6C99.4467 172.24 100.507 172.06 101.627 172.06C102.667 172.06 103.607 172.24 104.447 172.6C105.307 172.96 106.027 173.48 106.607 174.16C107.207 174.82 107.667 175.62 107.987 176.56C108.307 177.5 108.467 178.55 108.467 179.71V181.12H98.0267C98.2067 181.98 98.5967 182.67 99.1967 183.19C99.7967 183.69 100.537 183.94 101.417 183.94C102.157 183.94 102.777 183.78 103.277 183.46C103.797 183.12 104.247 182.69 104.627 182.17L107.777 184.48ZM103.967 178.06C103.987 177.3 103.737 176.65 103.217 176.11C102.697 175.57 102.027 175.3 101.207 175.3C100.707 175.3 100.267 175.38 99.8867 175.54C99.5067 175.7 99.1767 175.91 98.8967 176.17C98.6367 176.41 98.4267 176.7 98.2667 177.04C98.1267 177.36 98.0467 177.7 98.0267 178.06H103.967Z" fill="#D10000"/>
</svg>
