<svg width="145" height="220" viewBox="0 0 145 220" fill="none" xmlns="http://www.w3.org/2000/svg">
<path d="M140.375 72.1874C140.375 109.846 109.846 140.375 72.1874 140.375C34.5286 140.375 4 109.846 4 72.1874C4 34.5286 34.5286 4 72.1874 4C109.846 4 140.375 34.5286 140.375 72.1874Z" fill="#F8A8A8" stroke="#D10000" stroke-width="8"/>
<path d="M110.198 102.494C71.4386 68.2675 39.4501 105.29 39.4501 105.29" stroke="#D10000" stroke-width="12" stroke-linecap="round" stroke-linejoin="round"/>
<ellipse cx="55.5291" cy="53.4187" rx="9.71754" ry="17.325" fill="#D10000"/>
<ellipse cx="94.3992" cy="53.4187" rx="9.71754" ry="17.325" fill="#D10000"/>
<path d="M12.7445 159.6H23.3445L38.3945 184.2H38.4945V159.6H46.2945V195H36.0945L20.6445 169.8H20.5445V195H12.7445V159.6ZM51.666 182.85C51.666 180.917 52.016 179.167 52.716 177.6C53.416 176.033 54.366 174.7 55.566 173.6C56.7993 172.467 58.2327 171.6 59.866 171C61.5327 170.4 63.2993 170.1 65.166 170.1C67.0327 170.1 68.7827 170.4 70.416 171C72.0827 171.6 73.516 172.467 74.716 173.6C75.9494 174.7 76.916 176.033 77.616 177.6C78.316 179.167 78.666 180.917 78.666 182.85C78.666 184.783 78.316 186.533 77.616 188.1C76.916 189.667 75.9494 191.017 74.716 192.15C73.516 193.25 72.0827 194.1 70.416 194.7C68.7827 195.3 67.0327 195.6 65.166 195.6C63.2993 195.6 61.5327 195.3 59.866 194.7C58.2327 194.1 56.7993 193.25 55.566 192.15C54.366 191.017 53.416 189.667 52.716 188.1C52.016 186.533 51.666 184.783 51.666 182.85ZM59.166 182.85C59.166 184.683 59.6827 186.167 60.716 187.3C61.7827 188.433 63.266 189 65.166 189C67.066 189 68.5327 188.433 69.566 187.3C70.6327 186.167 71.166 184.683 71.166 182.85C71.166 181.017 70.6327 179.533 69.566 178.4C68.5327 177.267 67.066 176.7 65.166 176.7C63.266 176.7 61.7827 177.267 60.716 178.4C59.6827 179.533 59.166 181.017 59.166 182.85ZM83.0836 170.7H90.2836V174H90.3836C90.6169 173.533 90.9503 173.067 91.3836 172.6C91.8169 172.133 92.3336 171.717 92.9336 171.35C93.5336 170.983 94.2169 170.683 94.9836 170.45C95.7503 170.217 96.5836 170.1 97.4836 170.1C99.3836 170.1 100.917 170.4 102.084 171C103.25 171.567 104.15 172.367 104.784 173.4C105.45 174.433 105.9 175.65 106.134 177.05C106.367 178.45 106.484 179.967 106.484 181.6V195H98.9836V183.1C98.9836 182.4 98.9503 181.683 98.8836 180.95C98.8503 180.183 98.7003 179.483 98.4336 178.85C98.2003 178.217 97.8169 177.7 97.2836 177.3C96.7836 176.9 96.0503 176.7 95.0836 176.7C94.1169 176.7 93.3336 176.883 92.7336 177.25C92.1336 177.583 91.6669 178.05 91.3336 178.65C91.0336 179.217 90.8336 179.867 90.7336 180.6C90.6336 181.333 90.5836 182.1 90.5836 182.9V195H83.0836V170.7ZM134.795 190.8C133.595 192.333 132.078 193.517 130.245 194.35C128.411 195.183 126.511 195.6 124.545 195.6C122.678 195.6 120.911 195.3 119.245 194.7C117.611 194.1 116.178 193.25 114.945 192.15C113.745 191.017 112.795 189.667 112.095 188.1C111.395 186.533 111.045 184.783 111.045 182.85C111.045 180.917 111.395 179.167 112.095 177.6C112.795 176.033 113.745 174.7 114.945 173.6C116.178 172.467 117.611 171.6 119.245 171C120.911 170.4 122.678 170.1 124.545 170.1C126.278 170.1 127.845 170.4 129.245 171C130.678 171.6 131.878 172.467 132.845 173.6C133.845 174.7 134.611 176.033 135.145 177.6C135.678 179.167 135.945 180.917 135.945 182.85V185.2H118.545C118.845 186.633 119.495 187.783 120.495 188.65C121.495 189.483 122.728 189.9 124.195 189.9C125.428 189.9 126.461 189.633 127.295 189.1C128.161 188.533 128.911 187.817 129.545 186.95L134.795 190.8ZM128.445 180.1C128.478 178.833 128.061 177.75 127.195 176.85C126.328 175.95 125.211 175.5 123.845 175.5C123.011 175.5 122.278 175.633 121.645 175.9C121.011 176.167 120.461 176.517 119.995 176.95C119.561 177.35 119.211 177.833 118.945 178.4C118.711 178.933 118.578 179.5 118.545 180.1H128.445Z" fill="#980909"/>
</svg>
