<svg width="145" height="203" viewBox="0 0 145 203" fill="none" xmlns="http://www.w3.org/2000/svg">
<path d="M140.375 72.1874C140.375 109.846 109.846 140.375 72.1874 140.375C34.5285 140.375 4 109.846 4 72.1874C4 34.5286 34.5285 4 72.1874 4C109.846 4 140.375 34.5286 140.375 72.1874Z" fill="#FFE597" stroke="#EC7C19" stroke-width="8"/>
<ellipse cx="47.8936" cy="54.1406" rx="10.4117" ry="10.8281" fill="#EC7C19"/>
<ellipse cx="90.9287" cy="54.1406" rx="10.4117" ry="10.8281" fill="#EC7C19"/>
<path d="M49.9761 98.8965C61.0818 109.003 72.8817 107.559 72.8817 107.559" stroke="#EC7C19" stroke-width="12" stroke-linecap="round" stroke-linejoin="round"/>
<path d="M54.7264 170.95C54.3464 170.47 53.8264 170.12 53.1664 169.9C52.5264 169.66 51.9164 169.54 51.3364 169.54C50.9964 169.54 50.6464 169.58 50.2864 169.66C49.9264 169.74 49.5864 169.87 49.2664 170.05C48.9464 170.21 48.6864 170.43 48.4864 170.71C48.2864 170.99 48.1864 171.33 48.1864 171.73C48.1864 172.37 48.4264 172.86 48.9064 173.2C49.3864 173.54 49.9864 173.83 50.7064 174.07C51.4464 174.31 52.2364 174.55 53.0764 174.79C53.9164 175.03 54.6964 175.37 55.4164 175.81C56.1564 176.25 56.7664 176.84 57.2464 177.58C57.7264 178.32 57.9664 179.31 57.9664 180.55C57.9664 181.73 57.7464 182.76 57.3064 183.64C56.8664 184.52 56.2664 185.25 55.5064 185.83C54.7664 186.41 53.8964 186.84 52.8964 187.12C51.9164 187.4 50.8764 187.54 49.7764 187.54C48.3964 187.54 47.1164 187.33 45.9364 186.91C44.7564 186.49 43.6564 185.81 42.6364 184.87L45.9664 181.21C46.4464 181.85 47.0464 182.35 47.7664 182.71C48.5064 183.05 49.2664 183.22 50.0464 183.22C50.4264 183.22 50.8064 183.18 51.1864 183.1C51.5864 183 51.9364 182.86 52.2364 182.68C52.5564 182.5 52.8064 182.27 52.9864 181.99C53.1864 181.71 53.2864 181.38 53.2864 181C53.2864 180.36 53.0364 179.86 52.5364 179.5C52.0564 179.12 51.4464 178.8 50.7064 178.54C49.9664 178.28 49.1664 178.02 48.3064 177.76C47.4464 177.5 46.6464 177.15 45.9064 176.71C45.1664 176.27 44.5464 175.69 44.0464 174.97C43.5664 174.25 43.3264 173.3 43.3264 172.12C43.3264 170.98 43.5464 169.98 43.9864 169.12C44.4464 168.26 45.0464 167.54 45.7864 166.96C46.5464 166.38 47.4164 165.95 48.3964 165.67C49.3764 165.37 50.3864 165.22 51.4264 165.22C52.6264 165.22 53.7864 165.39 54.9064 165.73C56.0264 166.07 57.0364 166.64 57.9364 167.44L54.7264 170.95ZM60.343 179.71C60.343 178.55 60.553 177.5 60.973 176.56C61.393 175.62 61.963 174.82 62.683 174.16C63.423 173.48 64.283 172.96 65.263 172.6C66.263 172.24 67.323 172.06 68.443 172.06C69.563 172.06 70.613 172.24 71.593 172.6C72.593 172.96 73.453 173.48 74.173 174.16C74.913 174.82 75.493 175.62 75.913 176.56C76.333 177.5 76.543 178.55 76.543 179.71C76.543 180.87 76.333 181.92 75.913 182.86C75.493 183.8 74.913 184.61 74.173 185.29C73.453 185.95 72.593 186.46 71.593 186.82C70.613 187.18 69.563 187.36 68.443 187.36C67.323 187.36 66.263 187.18 65.263 186.82C64.283 186.46 63.423 185.95 62.683 185.29C61.963 184.61 61.393 183.8 60.973 182.86C60.553 181.92 60.343 180.87 60.343 179.71ZM64.843 179.71C64.843 180.81 65.153 181.7 65.773 182.38C66.413 183.06 67.303 183.4 68.443 183.4C69.583 183.4 70.463 183.06 71.083 182.38C71.723 181.7 72.043 180.81 72.043 179.71C72.043 178.61 71.723 177.72 71.083 177.04C70.463 176.36 69.583 176.02 68.443 176.02C67.303 176.02 66.413 176.36 65.773 177.04C65.153 177.72 64.843 178.61 64.843 179.71ZM79.1935 172.42H83.5135V174.4H83.5735C83.7135 174.12 83.9135 173.84 84.1735 173.56C84.4335 173.28 84.7435 173.03 85.1035 172.81C85.4635 172.59 85.8735 172.41 86.3335 172.27C86.7935 172.13 87.2935 172.06 87.8335 172.06C88.8535 172.06 89.7535 172.27 90.5335 172.69C91.3335 173.11 91.9335 173.77 92.3335 174.67C92.8535 173.73 93.4835 173.06 94.2235 172.66C94.9635 172.26 95.8735 172.06 96.9535 172.06C97.9335 172.06 98.7535 172.23 99.4135 172.57C100.094 172.89 100.624 173.34 101.004 173.92C101.404 174.48 101.684 175.15 101.844 175.93C102.024 176.69 102.114 177.51 102.114 178.39V187H97.6135V178.51C97.6135 177.83 97.4635 177.25 97.1635 176.77C96.8835 176.27 96.3735 176.02 95.6335 176.02C95.1135 176.02 94.6735 176.11 94.3135 176.29C93.9735 176.45 93.6935 176.68 93.4735 176.98C93.2735 177.28 93.1235 177.63 93.0235 178.03C92.9435 178.43 92.9035 178.85 92.9035 179.29V187H88.4035V179.29C88.4035 179.03 88.3935 178.71 88.3735 178.33C88.3535 177.95 88.2835 177.59 88.1635 177.25C88.0435 176.91 87.8435 176.62 87.5635 176.38C87.3035 176.14 86.9135 176.02 86.3935 176.02C85.8135 176.02 85.3435 176.13 84.9835 176.35C84.6235 176.55 84.3435 176.83 84.1435 177.19C83.9635 177.53 83.8435 177.92 83.7835 178.36C83.7235 178.8 83.6935 179.26 83.6935 179.74V187H79.1935V172.42ZM119.097 184.48C118.377 185.4 117.467 186.11 116.367 186.61C115.267 187.11 114.127 187.36 112.947 187.36C111.827 187.36 110.767 187.18 109.767 186.82C108.787 186.46 107.927 185.95 107.187 185.29C106.467 184.61 105.897 183.8 105.477 182.86C105.057 181.92 104.847 180.87 104.847 179.71C104.847 178.55 105.057 177.5 105.477 176.56C105.897 175.62 106.467 174.82 107.187 174.16C107.927 173.48 108.787 172.96 109.767 172.6C110.767 172.24 111.827 172.06 112.947 172.06C113.987 172.06 114.927 172.24 115.767 172.6C116.627 172.96 117.347 173.48 117.927 174.16C118.527 174.82 118.987 175.62 119.307 176.56C119.627 177.5 119.787 178.55 119.787 179.71V181.12H109.347C109.527 181.98 109.917 182.67 110.517 183.19C111.117 183.69 111.857 183.94 112.737 183.94C113.477 183.94 114.097 183.78 114.597 183.46C115.117 183.12 115.567 182.69 115.947 182.17L119.097 184.48ZM115.287 178.06C115.307 177.3 115.057 176.65 114.537 176.11C114.017 175.57 113.347 175.3 112.527 175.3C112.027 175.3 111.587 175.38 111.207 175.54C110.827 175.7 110.497 175.91 110.217 176.17C109.957 176.41 109.747 176.7 109.587 177.04C109.447 177.36 109.367 177.7 109.347 178.06H115.287Z" fill="#EC7C19"/>
</svg>
