<svg width="150" height="220" viewBox="0 0 150 220" fill="none" xmlns="http://www.w3.org/2000/svg">
<path d="M140.375 72.1874C140.375 109.846 109.846 140.375 72.1874 140.375C34.5285 140.375 4 109.846 4 72.1874C4 34.5286 34.5285 4 72.1874 4C109.846 4 140.375 34.5286 140.375 72.1874Z" fill="#FFE597" stroke="#EC7C19" stroke-width="8"/>
<ellipse cx="47.8931" cy="54.1406" rx="10.4117" ry="10.8281" fill="#EC7C19"/>
<ellipse cx="90.9283" cy="54.1406" rx="10.4117" ry="10.8281" fill="#EC7C19"/>
<path d="M49.9766 98.8965C61.0823 109.003 72.8822 107.559 72.8822 107.559" stroke="#EC7C19" stroke-width="12" stroke-linecap="round" stroke-linejoin="round"/>
<path d="M39.3773 168.25C38.744 167.45 37.8773 166.867 36.7773 166.5C35.7107 166.1 34.694 165.9 33.7273 165.9C33.1607 165.9 32.5773 165.967 31.9773 166.1C31.3773 166.233 30.8107 166.45 30.2773 166.75C29.744 167.017 29.3107 167.383 28.9773 167.85C28.644 168.317 28.4773 168.883 28.4773 169.55C28.4773 170.617 28.8773 171.433 29.6773 172C30.4773 172.567 31.4773 173.05 32.6773 173.45C33.9107 173.85 35.2273 174.25 36.6273 174.65C38.0273 175.05 39.3273 175.617 40.5273 176.35C41.7607 177.083 42.7773 178.067 43.5773 179.3C44.3773 180.533 44.7773 182.183 44.7773 184.25C44.7773 186.217 44.4107 187.933 43.6773 189.4C42.944 190.867 41.944 192.083 40.6773 193.05C39.444 194.017 37.994 194.733 36.3273 195.2C34.694 195.667 32.9607 195.9 31.1273 195.9C28.8273 195.9 26.694 195.55 24.7273 194.85C22.7607 194.15 20.9273 193.017 19.2273 191.45L24.7773 185.35C25.5773 186.417 26.5773 187.25 27.7773 187.85C29.0107 188.417 30.2773 188.7 31.5773 188.7C32.2107 188.7 32.844 188.633 33.4773 188.5C34.144 188.333 34.7273 188.1 35.2273 187.8C35.7607 187.5 36.1773 187.117 36.4773 186.65C36.8107 186.183 36.9773 185.633 36.9773 185C36.9773 183.933 36.5607 183.1 35.7273 182.5C34.9273 181.867 33.9107 181.333 32.6773 180.9C31.444 180.467 30.1107 180.033 28.6773 179.6C27.244 179.167 25.9107 178.583 24.6773 177.85C23.444 177.117 22.4107 176.15 21.5773 174.95C20.7773 173.75 20.3773 172.167 20.3773 170.2C20.3773 168.3 20.744 166.633 21.4773 165.2C22.244 163.767 23.244 162.567 24.4773 161.6C25.744 160.633 27.194 159.917 28.8273 159.45C30.4607 158.95 32.144 158.7 33.8773 158.7C35.8773 158.7 37.8107 158.983 39.6773 159.55C41.544 160.117 43.2273 161.067 44.7273 162.4L39.3773 168.25ZM48.7383 182.85C48.7383 180.917 49.0883 179.167 49.7883 177.6C50.4883 176.033 51.4383 174.7 52.6383 173.6C53.8716 172.467 55.3049 171.6 56.9383 171C58.6049 170.4 60.3716 170.1 62.2383 170.1C64.1049 170.1 65.8549 170.4 67.4883 171C69.1549 171.6 70.5883 172.467 71.7883 173.6C73.0216 174.7 73.9883 176.033 74.6883 177.6C75.3883 179.167 75.7383 180.917 75.7383 182.85C75.7383 184.783 75.3883 186.533 74.6883 188.1C73.9883 189.667 73.0216 191.017 71.7883 192.15C70.5883 193.25 69.1549 194.1 67.4883 194.7C65.8549 195.3 64.1049 195.6 62.2383 195.6C60.3716 195.6 58.6049 195.3 56.9383 194.7C55.3049 194.1 53.8716 193.25 52.6383 192.15C51.4383 191.017 50.4883 189.667 49.7883 188.1C49.0883 186.533 48.7383 184.783 48.7383 182.85ZM56.2383 182.85C56.2383 184.683 56.7549 186.167 57.7883 187.3C58.8549 188.433 60.3383 189 62.2383 189C64.1383 189 65.6049 188.433 66.6383 187.3C67.7049 186.167 68.2383 184.683 68.2383 182.85C68.2383 181.017 67.7049 179.533 66.6383 178.4C65.6049 177.267 64.1383 176.7 62.2383 176.7C60.3383 176.7 58.8549 177.267 57.7883 178.4C56.7549 179.533 56.2383 181.017 56.2383 182.85ZM80.1559 170.7H87.3559V174H87.4559C87.6892 173.533 88.0225 173.067 88.4559 172.6C88.8892 172.133 89.4059 171.717 90.0059 171.35C90.6059 170.983 91.2892 170.683 92.0559 170.45C92.8225 170.217 93.6559 170.1 94.5559 170.1C96.2559 170.1 97.7559 170.45 99.0559 171.15C100.389 171.85 101.389 172.95 102.056 174.45C102.923 172.883 103.973 171.767 105.206 171.1C106.439 170.433 107.956 170.1 109.756 170.1C111.389 170.1 112.756 170.383 113.856 170.95C114.989 171.483 115.873 172.233 116.506 173.2C117.173 174.133 117.639 175.25 117.906 176.55C118.206 177.817 118.356 179.183 118.356 180.65V195H110.856V180.85C110.856 179.717 110.606 178.75 110.106 177.95C109.639 177.117 108.789 176.7 107.556 176.7C106.689 176.7 105.956 176.85 105.356 177.15C104.789 177.417 104.323 177.8 103.956 178.3C103.623 178.8 103.373 179.383 103.206 180.05C103.073 180.717 103.006 181.417 103.006 182.15V195H95.5059V182.15C95.5059 181.717 95.4892 181.183 95.4559 180.55C95.4225 179.917 95.3059 179.317 95.1059 178.75C94.9059 178.183 94.5725 177.7 94.1059 177.3C93.6725 176.9 93.0225 176.7 92.1559 176.7C91.1892 176.7 90.4059 176.883 89.8059 177.25C89.2059 177.583 88.7392 178.05 88.4059 178.65C88.1059 179.217 87.9059 179.867 87.8059 180.6C87.7059 181.333 87.6559 182.1 87.6559 182.9V195H80.1559V170.7ZM146.662 190.8C145.462 192.333 143.945 193.517 142.112 194.35C140.278 195.183 138.378 195.6 136.412 195.6C134.545 195.6 132.778 195.3 131.112 194.7C129.478 194.1 128.045 193.25 126.812 192.15C125.612 191.017 124.662 189.667 123.962 188.1C123.262 186.533 122.912 184.783 122.912 182.85C122.912 180.917 123.262 179.167 123.962 177.6C124.662 176.033 125.612 174.7 126.812 173.6C128.045 172.467 129.478 171.6 131.112 171C132.778 170.4 134.545 170.1 136.412 170.1C138.145 170.1 139.712 170.4 141.112 171C142.545 171.6 143.745 172.467 144.712 173.6C145.712 174.7 146.478 176.033 147.012 177.6C147.545 179.167 147.812 180.917 147.812 182.85V185.2H130.412C130.712 186.633 131.362 187.783 132.362 188.65C133.362 189.483 134.595 189.9 136.062 189.9C137.295 189.9 138.328 189.633 139.162 189.1C140.028 188.533 140.778 187.817 141.412 186.95L146.662 190.8ZM140.312 180.1C140.345 178.833 139.928 177.75 139.062 176.85C138.195 175.95 137.078 175.5 135.712 175.5C134.878 175.5 134.145 175.633 133.512 175.9C132.878 176.167 132.328 176.517 131.862 176.95C131.428 177.35 131.078 177.833 130.812 178.4C130.578 178.933 130.445 179.5 130.412 180.1H140.312Z" fill="#B85702"/>
</svg>
